<?xml version="1.0" encoding="UTF-8"?>
<svg 
      viewBox="0 0 4096 4096" fill="black"
      xmlns="http://www.w3.org/2000/svg"
      preserveAspectRatio="xMidYMid meet"
    >
      <g transform="translate(0,4096) scale(0.1,-0.1)" stroke="none">
       <path d="M20035 39479 c-435 -12 -1039 -42 -1175 -59 -41 -5 -133 -14 -205
-20 -71 -6 -161 -15 -200 -20 -38 -6 -113 -15 -165 -20 -142 -14 -484 -59
-575 -75 -44 -8 -127 -22 -185 -30 -301 -46 -859 -152 -1080 -205 -93 -23
-209 -50 -320 -75 -158 -36 -457 -110 -560 -139 -47 -13 -139 -39 -205 -56
-66 -18 -138 -38 -160 -46 -52 -17 -287 -89 -395 -121 -123 -36 -559 -179
-665 -218 -89 -32 -233 -85 -350 -130 -33 -12 -114 -43 -180 -68 -66 -25 -133
-52 -150 -61 -16 -9 -36 -16 -44 -16 -8 0 -51 -18 -97 -40 -46 -22 -89 -40
-95 -40 -7 0 -41 -13 -76 -30 -34 -16 -66 -30 -69 -30 -16 0 -164 -64 -164
-71 0 -5 -11 -9 -24 -9 -14 0 -28 -4 -31 -10 -3 -5 -14 -10 -24 -10 -10 0 -24
-7 -31 -15 -7 -8 -25 -15 -40 -15 -15 0 -30 -6 -33 -14 -3 -8 -23 -20 -44 -26
-21 -7 -45 -18 -53 -25 -8 -7 -44 -25 -80 -40 -76 -32 -318 -146 -372 -175
-20 -11 -42 -20 -48 -20 -7 0 -39 -16 -71 -35 -33 -19 -69 -35 -79 -35 -10 0
-23 -6 -27 -12 -4 -7 -26 -21 -48 -32 -22 -10 -47 -22 -55 -26 -8 -4 -94 -48
-190 -96 -96 -49 -179 -95 -183 -101 -4 -7 -15 -13 -23 -13 -9 0 -30 -11 -48
-25 -18 -14 -36 -25 -41 -25 -4 0 -31 -14 -59 -32 -28 -17 -78 -45 -111 -63
-61 -32 -81 -43 -172 -102 -29 -18 -57 -33 -62 -33 -13 0 -140 -76 -224 -133
-38 -26 -73 -47 -78 -47 -5 0 -40 -20 -78 -45 -38 -25 -76 -45 -85 -45 -9 0
-16 -6 -16 -14 0 -12 -56 -46 -77 -46 -4 0 -14 -9 -21 -20 -7 -11 -18 -20 -26
-20 -7 0 -30 -13 -51 -30 -21 -16 -42 -30 -48 -30 -6 0 -20 -9 -31 -19 -12
-11 -55 -41 -97 -68 -42 -26 -110 -70 -150 -98 -41 -27 -83 -54 -94 -60 -29
-16 -381 -261 -500 -348 -329 -239 -626 -465 -685 -520 -19 -18 -44 -40 -56
-48 -75 -51 -440 -349 -544 -444 -36 -33 -108 -96 -160 -140 -51 -44 -121
-105 -155 -135 -34 -30 -114 -102 -179 -160 -198 -176 -280 -254 -576 -550
-369 -368 -681 -701 -896 -955 -27 -33 -86 -102 -130 -154 -43 -51 -111 -134
-151 -183 -39 -49 -90 -109 -112 -133 -23 -24 -68 -79 -101 -122 -34 -43 -96
-123 -140 -178 -207 -263 -600 -794 -600 -811 0 -6 -98 -151 -131 -193 -19
-24 -113 -167 -324 -493 -96 -148 -123 -192 -229 -370 -83 -139 -108 -182
-125 -208 -37 -59 -91 -152 -91 -156 0 -3 -13 -24 -29 -47 -15 -23 -48 -80
-71 -127 -23 -47 -57 -107 -75 -135 -18 -27 -42 -68 -53 -90 -69 -139 -168
-324 -183 -344 -11 -13 -19 -27 -19 -32 0 -4 -71 -153 -159 -331 -87 -178
-162 -335 -166 -348 -4 -14 -30 -70 -58 -125 -64 -128 -86 -177 -138 -300 -23
-55 -48 -111 -55 -125 -8 -14 -25 -54 -38 -90 -38 -104 -110 -285 -164 -415
-27 -66 -61 -151 -75 -190 -14 -38 -37 -101 -52 -140 -14 -38 -49 -135 -76
-215 -27 -80 -54 -154 -59 -165 -13 -27 -76 -212 -85 -250 -3 -16 -13 -43 -20
-60 -8 -16 -26 -70 -40 -120 -14 -49 -34 -112 -44 -140 -10 -27 -28 -86 -41
-130 -35 -123 -71 -247 -80 -275 -10 -28 -73 -254 -96 -345 -9 -33 -24 -89
-34 -125 -11 -36 -31 -119 -45 -185 -15 -66 -33 -140 -40 -165 -7 -25 -18 -71
-24 -103 -6 -32 -13 -63 -17 -68 -3 -5 -12 -47 -20 -92 -7 -45 -25 -123 -38
-174 -57 -213 -162 -785 -226 -1233 -105 -735 -152 -1179 -180 -1725 -6 -110
-15 -276 -20 -370 -5 -93 -10 -415 -10 -715 0 -1074 64 -1904 225 -2890 47
-287 54 -329 74 -430 6 -30 33 -172 60 -315 27 -143 52 -271 54 -285 3 -14 13
-50 21 -80 20 -66 51 -205 71 -314 14 -74 39 -184 70 -306 58 -227 90 -356
104 -420 8 -41 21 -79 28 -83 7 -4 13 -21 13 -36 0 -30 17 -90 57 -206 14 -38
26 -79 27 -90 3 -23 43 -145 61 -190 7 -16 16 -49 20 -72 4 -24 11 -45 16 -49
5 -3 9 -17 9 -31 0 -14 9 -44 19 -67 10 -23 26 -63 34 -91 25 -79 78 -237 92
-270 7 -16 25 -66 40 -110 15 -44 32 -89 38 -100 5 -11 14 -33 18 -50 4 -16
17 -57 30 -90 12 -33 37 -100 54 -150 18 -49 45 -124 59 -165 15 -41 37 -95
48 -120 11 -25 26 -61 33 -80 7 -19 26 -64 43 -100 17 -36 38 -84 46 -108 9
-23 23 -61 32 -85 8 -23 22 -49 30 -58 8 -8 14 -20 14 -26 0 -6 6 -24 14 -40
7 -15 20 -44 29 -63 70 -162 89 -203 99 -220 4 -8 11 -22 14 -30 4 -8 33 -70
65 -137 33 -67 59 -128 59 -136 0 -8 8 -25 19 -38 10 -13 33 -58 51 -99 39
-90 50 -111 175 -355 54 -104 128 -249 165 -322 37 -73 75 -139 84 -148 9 -9
16 -22 16 -29 0 -6 25 -54 55 -105 30 -51 55 -99 55 -106 0 -6 9 -20 19 -29
11 -10 23 -31 26 -46 3 -16 13 -34 21 -41 8 -6 14 -17 14 -24 0 -6 9 -20 20
-30 11 -10 20 -24 20 -32 0 -8 21 -47 47 -86 26 -40 51 -80 55 -89 4 -10 25
-42 47 -72 22 -29 56 -84 76 -121 20 -38 48 -84 64 -104 16 -20 38 -56 51 -81
12 -25 30 -54 39 -65 9 -11 34 -49 56 -85 94 -158 488 -735 614 -900 44 -58
198 -270 243 -335 26 -38 108 -142 182 -230 244 -291 341 -409 385 -470 49
-67 123 -154 223 -262 37 -40 104 -117 148 -170 275 -328 1110 -1178 1392
-1416 36 -31 68 -61 70 -66 3 -10 163 -154 272 -246 39 -32 114 -97 166 -143
52 -47 120 -103 150 -125 30 -23 103 -82 161 -131 168 -143 488 -391 759 -590
184 -136 311 -226 345 -247 22 -13 91 -60 154 -104 145 -103 125 -89 281 -191
74 -48 179 -116 232 -151 53 -35 101 -63 105 -63 5 0 18 -8 29 -18 22 -20 111
-77 239 -152 50 -30 113 -68 140 -85 28 -18 95 -58 150 -89 55 -32 123 -71
150 -88 28 -17 82 -48 120 -69 39 -20 97 -53 130 -73 33 -19 89 -50 125 -69
36 -18 130 -67 210 -109 278 -145 769 -388 784 -388 3 0 71 -31 151 -70 80
-38 148 -70 150 -70 2 0 38 -16 79 -35 42 -19 79 -35 82 -35 3 0 35 -14 71
-30 35 -17 67 -30 70 -30 3 0 56 -22 118 -50 62 -27 116 -50 120 -50 3 0 32
-12 63 -26 62 -28 241 -100 362 -144 41 -15 188 -69 325 -120 338 -124 526
-189 675 -233 307 -90 511 -151 585 -175 44 -14 98 -26 119 -26 35 -1 41 3 62
39 40 69 169 334 232 475 78 174 170 421 208 555 9 33 22 67 28 75 7 8 20 49
30 90 9 41 21 84 26 95 5 11 15 45 23 75 9 30 25 89 36 130 11 41 29 118 41
170 11 52 25 112 31 133 9 34 20 96 64 352 7 44 25 143 40 220 53 271 65 341
80 430 9 50 20 104 25 120 5 17 12 66 16 110 4 44 11 91 16 105 6 14 16 70 24
125 7 55 21 143 29 195 36 215 50 303 74 465 13 95 66 392 86 485 26 123 34
173 34 222 1 26 6 48 13 50 6 2 15 29 19 59 4 30 12 79 18 109 6 30 16 82 22
115 7 33 22 103 35 155 12 52 25 115 29 140 3 25 10 54 15 65 5 11 25 99 46
195 20 96 41 184 47 194 5 11 18 56 29 100 11 45 24 86 29 92 5 6 19 47 30 90
11 43 24 83 28 89 4 5 18 42 30 80 13 39 29 79 35 90 7 11 22 47 34 80 26 76
70 184 83 209 6 11 20 44 30 75 11 30 25 64 33 75 7 12 34 75 61 141 26 66 66
156 89 200 23 44 54 109 70 145 84 188 230 484 251 510 14 18 65 123 65 135 0
5 6 16 14 24 8 9 21 38 30 65 9 27 25 61 35 75 10 14 22 37 26 51 4 14 30 68
58 120 75 140 94 180 157 330 13 30 29 69 36 85 7 17 29 82 49 145 20 63 42
129 50 145 19 45 64 186 70 219 2 15 8 33 13 40 15 19 76 221 142 476 17 63
34 124 39 135 15 34 90 278 96 315 4 19 13 55 21 79 41 125 59 299 74 726 11
318 44 696 85 985 8 58 19 139 25 180 5 41 19 131 30 200 20 125 66 414 75
480 23 150 148 795 175 900 11 41 22 95 26 120 3 25 10 50 14 55 4 6 15 48 24
94 8 46 19 88 24 95 5 6 12 35 16 65 4 30 14 70 22 89 8 19 14 44 14 56 0 13
6 42 14 67 7 24 19 64 26 89 7 25 18 65 25 90 7 25 18 65 25 90 7 25 18 57 26
72 8 14 14 32 14 40 0 14 67 231 81 263 5 11 13 34 18 50 5 17 18 53 29 80 11
28 26 66 32 85 7 19 18 46 25 60 7 14 16 41 20 60 4 19 11 41 15 50 23 46 60
130 60 136 0 4 9 25 19 48 10 23 27 61 36 86 10 25 35 82 56 127 22 46 39 88
39 95 0 6 6 19 13 27 7 9 32 57 55 107 22 50 66 143 97 208 30 64 55 123 55
131 0 8 13 37 30 63 16 27 36 66 44 88 7 21 30 68 51 104 20 36 48 90 62 120
13 30 43 87 67 125 24 39 67 118 96 176 l54 106 70 -54 c99 -76 298 -246 348
-299 24 -24 48 -44 53 -44 6 0 35 -23 65 -52 30 -28 66 -58 80 -66 23 -15 110
-83 136 -108 43 -39 326 -266 373 -298 31 -21 91 -65 134 -97 43 -33 81 -59
85 -59 12 0 148 -92 360 -243 77 -55 240 -167 309 -214 99 -66 143 -102 253
-205 55 -51 161 -170 200 -222 19 -26 40 -52 45 -59 23 -26 75 -106 75 -115 0
-5 8 -16 18 -25 55 -50 206 -440 204 -530 0 -21 -7 -52 -16 -70 -8 -18 -20
-55 -26 -82 -6 -28 -17 -72 -24 -100 -8 -27 -26 -95 -41 -150 -15 -55 -33
-116 -40 -135 -8 -19 -19 -53 -26 -75 -6 -22 -17 -53 -24 -70 -8 -16 -21 -57
-30 -90 -14 -53 -79 -259 -177 -565 -17 -52 -48 -142 -69 -200 -21 -58 -52
-150 -69 -205 -17 -55 -37 -116 -44 -135 -8 -19 -27 -78 -44 -130 -35 -109
-81 -246 -93 -275 -4 -11 -19 -54 -32 -95 -82 -252 -178 -507 -246 -653 -23
-48 -41 -90 -41 -92 0 -3 8 -5 18 -5 9 1 26 15 38 33 11 18 52 79 91 138 87
129 207 335 223 383 6 19 15 36 19 38 5 2 32 53 61 113 53 112 88 184 107 220
6 11 34 67 61 125 27 58 68 146 92 195 23 50 56 119 74 155 18 36 43 93 55
127 13 35 27 63 32 63 4 0 13 19 20 42 6 24 21 63 34 88 28 54 85 199 114 290
12 36 37 106 55 155 19 50 50 160 70 245 20 85 39 166 43 180 5 20 9 12 19
-40 47 -237 66 -411 45 -424 -4 -3 -19 -34 -31 -68 -13 -35 -37 -90 -53 -123
-16 -33 -58 -127 -94 -210 -35 -82 -73 -168 -84 -191 -10 -22 -19 -43 -19 -47
0 -13 -113 -262 -125 -277 -7 -8 -16 -26 -20 -40 -4 -14 -22 -56 -40 -95 -18
-38 -49 -108 -70 -155 -20 -47 -50 -112 -65 -145 -15 -33 -49 -109 -75 -170
-26 -60 -63 -143 -81 -183 -19 -41 -34 -76 -34 -78 0 -5 -72 -170 -134 -309
-13 -27 -31 -72 -41 -100 -10 -27 -24 -57 -30 -65 -6 -8 -24 -44 -40 -80 -79
-184 -245 -516 -288 -579 -18 -25 -36 -53 -42 -62 -5 -9 -19 -29 -29 -45 -120
-180 -156 -235 -156 -243 0 -5 -7 -14 -15 -21 -9 -7 -30 -34 -47 -59 -104
-153 -184 -269 -248 -360 -25 -35 -52 -74 -60 -86 -8 -13 -40 -61 -71 -107
-31 -45 -68 -103 -83 -128 -15 -25 -44 -72 -66 -105 -59 -91 -145 -266 -185
-380 -10 -27 -22 -54 -26 -60 -3 -5 -10 -23 -13 -40 -4 -16 -26 -82 -50 -145
-24 -63 -49 -128 -54 -145 -76 -217 -129 -359 -157 -420 -36 -77 -72 -159
-101 -228 -14 -34 -34 -78 -44 -97 -10 -19 -59 -118 -109 -220 -86 -175 -118
-235 -222 -409 -24 -40 -52 -88 -62 -105 -11 -17 -29 -42 -42 -56 -26 -29
-109 -169 -160 -270 -34 -68 -115 -288 -140 -385 -35 -130 -83 -286 -92 -297
-6 -7 -16 -40 -22 -73 -7 -33 -18 -78 -26 -100 -7 -22 -21 -71 -29 -110 -9
-38 -30 -119 -46 -180 -17 -60 -35 -130 -40 -155 -9 -45 -52 -223 -70 -290 -5
-19 -11 -48 -14 -65 -3 -16 -17 -70 -31 -120 -15 -49 -35 -121 -45 -160 -70
-266 -152 -489 -209 -570 -42 -59 -220 -267 -357 -415 -28 -30 -81 -91 -119
-135 -38 -44 -121 -136 -186 -205 -173 -185 -312 -361 -419 -531 -39 -60 -70
-111 -70 -113 0 -2 -16 -33 -36 -68 -20 -34 -51 -90 -69 -123 -60 -112 -138
-250 -198 -349 -103 -172 -335 -622 -464 -901 -31 -66 -89 -190 -130 -275 -76
-156 -184 -404 -198 -450 -4 -14 -14 -35 -21 -48 -8 -12 -24 -53 -35 -89 -12
-37 -32 -91 -44 -120 -13 -29 -43 -115 -66 -190 -22 -76 -45 -142 -49 -148 -5
-5 -21 -68 -36 -140 -15 -71 -32 -134 -37 -140 -6 -6 -7 46 -3 142 6 160 32
318 88 538 51 204 61 237 123 415 12 36 27 83 34 105 7 22 16 49 21 60 5 11
24 67 41 125 18 58 36 112 40 120 5 8 20 49 34 90 52 158 73 216 89 247 9 18
16 39 16 48 0 9 11 44 24 78 13 34 41 116 61 182 21 66 52 165 70 220 18 55
36 114 39 130 3 17 17 71 31 120 49 173 56 199 53 214 -5 23 -122 -135 -198
-264 -35 -60 -76 -128 -90 -150 -45 -67 -206 -393 -225 -455 -4 -14 -16 -43
-26 -65 -92 -204 -193 -538 -258 -863 -30 -146 -39 -208 -61 -432 -11 -113
-27 -259 -36 -325 -21 -162 -23 -283 -5 -294 8 -5 39 -12 70 -16 31 -3 121
-19 201 -35 297 -59 565 -102 995 -160 83 -11 215 -29 295 -40 729 -99 1418
-140 2330 -140 883 0 1641 43 2235 125 61 8 198 27 305 41 226 29 365 51 685
105 360 61 459 79 475 86 8 3 44 11 80 18 188 37 323 66 331 71 6 3 49 14 97
24 111 23 421 101 534 134 47 14 100 28 117 31 17 3 57 12 89 21 31 9 71 19
87 24 17 4 62 17 100 28 39 11 120 35 180 53 270 78 695 213 860 272 99 35
221 79 270 96 50 18 109 41 131 51 23 11 55 22 70 26 16 4 50 17 76 30 26 13
53 24 60 24 7 0 74 25 148 56 74 30 158 64 185 74 144 54 173 66 186 76 8 6
23 14 34 17 26 7 196 77 272 113 55 25 137 63 228 104 22 10 69 30 105 45 63
26 723 354 885 440 143 77 169 90 240 129 39 21 120 66 180 99 101 55 196 110
318 183 26 16 66 39 89 51 23 12 60 35 82 49 62 41 105 68 176 109 73 42 74
43 290 183 85 55 196 126 245 158 103 65 147 95 216 144 147 106 179 128 235
165 57 37 239 166 324 230 19 14 100 74 179 133 79 59 156 116 170 127 70 54
397 318 472 380 46 39 100 82 119 95 29 20 130 107 400 343 19 17 85 76 145
132 61 55 133 120 160 144 244 215 817 785 1060 1056 89 99 119 132 226 250
30 33 81 92 114 130 32 39 69 81 82 95 30 33 66 75 111 130 20 25 42 50 48 55
6 6 24 28 40 50 28 40 91 113 167 193 22 23 47 53 56 67 16 24 109 144 217
280 78 98 183 239 305 408 19 26 54 75 79 107 86 113 180 249 215 309 6 9 34
49 63 88 28 39 52 75 52 80 0 5 15 27 33 49 19 21 46 62 61 89 16 28 35 58 44
68 10 10 35 47 57 82 22 34 58 89 80 121 22 33 44 66 50 75 5 9 17 27 26 40
20 30 84 135 134 219 22 36 45 71 52 78 7 7 13 19 13 26 0 7 18 37 40 66 22
29 40 59 40 65 0 6 13 26 30 45 16 19 29 41 30 49 0 8 6 22 14 30 8 9 33 52
56 95 23 44 50 91 61 104 10 14 19 31 19 39 0 8 10 29 23 46 12 18 30 49 40
71 10 22 26 46 37 53 11 8 20 21 20 29 0 20 38 94 49 94 4 0 14 18 21 40 7 22
19 45 27 51 7 6 13 17 13 24 0 18 28 71 45 85 8 7 15 18 15 24 0 12 163 343
178 361 4 6 32 62 61 125 29 63 59 122 65 130 7 8 18 33 25 55 8 22 22 51 32
64 11 13 19 30 19 38 0 12 34 89 58 133 24 42 32 61 32 79 0 11 8 27 17 37 18
17 57 103 75 164 6 19 14 37 18 40 4 3 17 32 29 65 12 33 26 64 31 70 4 5 20
46 35 90 15 44 33 87 40 95 7 8 16 26 20 40 4 14 21 54 38 90 16 35 38 87 47
115 37 103 51 141 66 172 8 17 17 46 20 65 4 18 10 38 14 43 4 6 15 35 25 65
10 30 21 60 25 65 4 6 15 37 24 69 10 32 23 68 31 80 7 12 27 68 45 126 18 58
37 109 42 115 4 5 8 15 8 22 0 8 9 33 20 55 11 23 20 48 20 57 0 19 50 163 61
177 6 7 9 16 7 20 -3 13 13 77 22 89 4 6 14 36 21 69 7 32 18 64 24 70 7 6 15
34 19 60 4 27 14 59 21 70 7 12 19 48 25 81 7 33 15 65 19 70 4 6 16 42 26 80
10 39 21 75 25 80 4 6 33 114 65 240 31 127 63 253 70 280 8 28 19 76 24 108
6 31 15 65 20 75 5 9 17 58 26 107 9 50 21 101 26 115 5 14 20 77 33 140 13
63 31 147 40 185 17 73 52 242 66 310 4 22 16 87 25 145 9 58 21 114 25 125 4
11 17 85 29 165 12 80 29 180 37 222 21 113 109 778 138 1043 32 299 50 527
78 990 18 290 18 1624 0 1920 -7 121 -17 292 -23 380 -9 158 -20 289 -39 455
-5 47 -17 148 -25 225 -26 227 -73 592 -95 730 -6 33 -17 110 -25 170 -25 175
-83 531 -105 635 -53 259 -93 443 -110 515 -10 44 -39 170 -65 280 -25 110
-69 290 -97 400 -28 110 -56 223 -63 250 -6 28 -14 57 -18 65 -4 8 -24 76 -46
150 -22 74 -63 212 -91 305 -48 155 -67 218 -117 385 -22 75 -47 149 -82 247
-17 46 -46 130 -66 189 -19 58 -38 111 -42 118 -4 6 -20 47 -34 91 -15 44 -44
125 -64 180 -20 55 -46 127 -57 160 -12 33 -24 62 -27 65 -4 3 -19 39 -35 80
-28 73 -35 90 -91 215 -15 33 -34 78 -42 100 -8 22 -21 54 -28 70 -7 17 -34
80 -60 140 -58 135 -180 404 -247 545 -28 58 -66 139 -85 180 -33 73 -60 128
-180 360 -149 289 -227 435 -258 488 -19 31 -35 60 -35 63 0 18 -190 345 -378
649 -25 41 -70 116 -101 165 -60 98 -134 216 -160 254 -34 50 -47 71 -75 118
-16 26 -36 57 -46 68 -9 11 -43 63 -75 115 -32 52 -69 106 -81 120 -41 46
-194 273 -194 290 0 5 -6 13 -13 17 -7 4 -24 26 -39 48 -15 22 -41 58 -57 80
-17 22 -38 54 -47 70 -9 17 -26 39 -36 50 -11 11 -50 61 -86 111 -119 161
-136 183 -212 278 -41 51 -100 126 -130 166 -30 40 -70 90 -87 110 -18 21 -33
41 -33 45 0 3 -26 37 -58 73 -32 37 -79 94 -104 127 -25 33 -92 112 -150 175
-57 63 -121 138 -142 165 -35 46 -132 157 -216 247 -109 117 -296 314 -372
391 -49 49 -88 93 -88 98 0 5 -4 9 -10 9 -12 0 -140 129 -140 141 0 5 -6 9
-14 9 -8 0 -24 16 -36 34 -11 19 -30 38 -40 41 -11 4 -20 11 -20 16 0 5 -18
26 -40 47 -60 56 -64 60 -76 74 -6 7 -53 51 -105 98 -51 47 -121 112 -154 145
-34 33 -92 87 -129 120 -37 33 -82 74 -99 90 -67 63 -194 175 -246 217 -30 23
-79 66 -110 94 -80 73 -209 182 -270 229 -29 22 -70 56 -91 75 -21 19 -64 55
-95 80 -40 32 -55 50 -51 63 3 14 2 16 -9 7 -10 -8 -26 0 -69 35 -31 25 -58
45 -62 45 -13 0 -134 106 -134 118 0 6 -9 12 -20 12 -10 0 -24 9 -30 19 -5 11
-25 24 -43 30 -20 7 -39 22 -45 36 -7 14 -18 25 -26 25 -7 0 -19 7 -27 16 -7
8 -35 31 -63 49 -28 19 -69 50 -90 69 -22 20 -48 39 -59 42 -11 4 -31 19 -45
35 -13 16 -30 29 -37 29 -7 0 -38 20 -68 45 -31 25 -58 45 -60 45 -3 0 -18 11
-33 25 -42 36 -189 138 -261 182 -35 20 -63 43 -63 50 0 7 -9 13 -19 13 -11 0
-32 10 -48 23 -15 12 -35 27 -44 32 -9 6 -29 19 -45 29 -16 11 -45 30 -65 43
-19 12 -40 23 -47 23 -6 0 -15 6 -19 13 -8 12 -55 45 -125 86 -21 13 -38 26
-38 30 0 5 -17 15 -37 25 -43 18 -65 31 -110 64 -17 12 -36 22 -42 22 -13 0
-32 14 -59 42 -9 10 -31 23 -49 29 -18 6 -33 14 -33 19 0 4 -10 10 -22 14 -13
3 -37 18 -55 34 -17 16 -43 32 -56 36 -14 3 -38 16 -54 29 -15 12 -48 33 -73
46 -25 14 -56 33 -69 43 -13 10 -27 18 -32 18 -5 0 -42 20 -82 45 -41 25 -80
45 -86 45 -6 0 -11 5 -11 11 0 5 -17 17 -37 25 -21 9 -48 26 -61 37 -13 12
-24 20 -25 18 -2 -6 -115 50 -182 90 -27 16 -57 32 -65 35 -8 3 -22 10 -30 15
-8 5 -33 17 -55 28 -22 11 -57 31 -78 45 -21 14 -46 26 -56 26 -10 0 -26 9
-36 20 -10 11 -22 20 -26 20 -9 0 -330 158 -369 181 -8 5 -26 14 -40 20 -14 6
-65 31 -115 55 -182 87 -306 144 -314 144 -5 0 -14 6 -20 14 -7 8 -27 17 -45
20 -19 4 -39 13 -46 21 -7 8 -23 15 -35 15 -12 0 -34 9 -48 20 -14 11 -29 20
-34 20 -4 0 -30 11 -58 25 -27 13 -59 25 -69 25 -11 0 -27 6 -35 13 -9 7 -36
22 -61 32 -25 10 -65 27 -90 37 -25 10 -57 25 -72 33 -14 8 -32 15 -39 15 -6
0 -35 11 -63 25 -28 14 -87 37 -131 53 -44 15 -87 32 -95 37 -18 12 -135 54
-170 62 -14 3 -32 11 -40 18 -8 8 -33 17 -55 20 -22 4 -47 13 -55 20 -14 12
-43 23 -81 28 -8 2 -39 15 -69 29 -30 14 -82 34 -115 43 -33 10 -67 24 -76 31
-8 8 -22 14 -30 14 -8 0 -52 14 -99 31 -47 17 -101 35 -120 39 -36 9 -111 34
-165 56 -16 6 -57 19 -90 28 -33 9 -80 24 -105 32 -25 9 -63 19 -85 24 -22 4
-41 13 -43 19 -2 6 -17 11 -33 11 -16 0 -46 6 -66 14 -21 8 -74 24 -118 36
-44 12 -108 30 -142 41 -34 10 -82 22 -105 25 -24 4 -53 14 -65 21 -12 8 -46
18 -75 23 -29 5 -69 13 -88 19 -66 19 -155 42 -215 56 -79 17 -213 50 -302 75
-40 11 -87 20 -105 20 -18 1 -44 7 -58 15 -14 8 -45 14 -70 15 -25 0 -57 7
-72 14 -15 8 -53 18 -85 22 -32 3 -74 12 -93 19 -19 7 -73 18 -120 25 -47 7
-90 16 -95 21 -6 4 -35 11 -65 14 -30 4 -113 17 -185 30 -71 13 -191 33 -265
45 -74 11 -155 25 -180 30 -25 6 -65 12 -90 15 -25 4 -85 13 -135 20 -202 32
-757 100 -935 114 -818 68 -1513 90 -2215 70z m8687 -2143 c62 -24 120 -52
206 -101 24 -13 53 -27 65 -31 12 -3 28 -12 36 -18 17 -14 148 -86 217 -120
28 -14 57 -32 64 -41 7 -8 23 -15 36 -15 13 0 27 -6 31 -13 4 -7 31 -24 58
-37 28 -13 111 -58 185 -100 74 -42 156 -88 181 -102 25 -14 56 -32 70 -39 69
-38 119 -72 119 -80 0 -5 -17 -9 -37 -9 -21 0 -105 -12 -188 -26 -167 -28
-230 -39 -325 -53 -36 -6 -90 -15 -120 -21 -30 -6 -93 -18 -140 -26 -47 -9
-105 -19 -130 -24 -171 -32 -348 -64 -425 -75 -49 -8 -126 -21 -170 -30 -44
-8 -204 -35 -355 -60 -151 -25 -295 -49 -320 -55 -44 -9 -126 -23 -240 -40
-75 -12 -573 -99 -710 -125 -47 -9 -127 -22 -178 -30 -132 -21 -213 -34 -327
-56 -126 -23 -433 -77 -505 -89 -50 -8 -222 -39 -345 -62 -27 -5 -79 -13 -115
-18 -36 -5 -101 -16 -145 -25 -78 -15 -283 -51 -695 -121 -112 -19 -236 -41
-275 -49 -38 -8 -113 -21 -165 -29 -52 -9 -117 -20 -145 -25 -27 -6 -79 -15
-115 -21 -36 -7 -110 -20 -165 -31 -55 -11 -199 -37 -320 -59 -300 -54 -436
-79 -525 -96 -41 -7 -145 -25 -230 -40 -85 -14 -175 -30 -200 -35 -103 -19
-400 -70 -459 -79 -35 -6 -66 -12 -70 -15 -4 -2 -75 -15 -157 -30 -82 -14
-157 -28 -166 -31 -21 -6 -211 -42 -283 -53 -27 -4 -86 -15 -130 -24 -44 -8
-143 -27 -220 -41 -189 -35 -185 -34 -143 -35 34 -1 671 80 888 114 52 7 149
21 215 30 66 9 147 20 180 25 246 38 512 76 695 100 142 19 586 80 725 100 39
5 219 30 400 55 455 62 507 69 860 120 318 47 350 51 590 85 150 21 307 43
420 60 39 6 117 17 175 25 58 8 245 35 415 59 171 25 326 47 345 49 19 3 76
12 125 20 86 15 461 71 685 103 58 8 152 21 210 29 58 8 139 20 180 25 136 19
273 38 385 54 126 19 309 43 375 51 97 12 269 36 350 50 212 36 413 66 595 90
66 8 147 20 180 25 184 30 644 92 687 93 23 0 101 -45 241 -142 21 -14 52 -34
70 -45 18 -10 46 -30 63 -45 18 -14 65 -47 105 -74 271 -175 621 -434 1027
-762 68 -55 139 -111 158 -124 19 -13 34 -27 34 -30 0 -3 -48 -17 -107 -29
-204 -43 -298 -64 -348 -78 -56 -16 -235 -56 -415 -94 -76 -16 -204 -46 -220
-53 -8 -3 -33 -8 -55 -11 -22 -3 -98 -19 -170 -37 -71 -17 -163 -37 -203 -45
-40 -7 -77 -16 -82 -19 -4 -3 -41 -12 -82 -21 -40 -8 -100 -21 -133 -28 -175
-40 -395 -90 -510 -118 -71 -17 -137 -31 -145 -32 -8 -1 -26 -5 -40 -9 -83
-21 -592 -136 -740 -168 -52 -11 -115 -26 -140 -33 -25 -7 -81 -21 -125 -31
-44 -9 -116 -26 -160 -37 -44 -11 -98 -23 -120 -28 -79 -16 -370 -91 -390
-100 -14 -7 7 -8 65 -4 94 6 533 48 675 64 50 5 176 19 280 30 105 11 244 27
310 35 66 8 183 21 260 29 77 8 327 35 555 60 228 25 485 53 570 61 85 9 189
20 230 25 41 6 143 17 225 25 83 9 350 40 595 71 245 30 488 59 540 64 52 5
164 17 248 25 l153 16 52 -47 c29 -26 73 -65 100 -88 93 -80 203 -180 282
-255 150 -144 267 -249 332 -297 22 -16 24 -15 -132 -48 -291 -61 -368 -77
-680 -136 -141 -27 -374 -73 -485 -95 -69 -14 -192 -39 -275 -55 -229 -46
-596 -122 -680 -141 -22 -5 -65 -14 -95 -19 -30 -6 -77 -14 -105 -20 -27 -5
-75 -13 -105 -19 -30 -5 -75 -15 -100 -21 -25 -6 -76 -17 -115 -24 -186 -36
-504 -100 -570 -116 -65 -16 -567 -116 -745 -150 -91 -17 -180 -36 -198 -41
-30 -10 -141 -32 -297 -60 -93 -16 -352 -67 -430 -84 -38 -9 -108 -23 -155
-31 -111 -21 -419 -82 -590 -117 -164 -33 -334 -67 -339 -67 -6 0 -19 49 -71
263 -12 49 -19 92 -15 95 3 3 29 9 58 13 29 3 103 18 166 33 63 14 127 26 143
26 16 0 39 5 51 12 12 6 65 20 117 29 90 17 177 36 265 58 22 6 85 20 140 31
55 12 116 25 135 30 37 10 89 21 205 45 39 7 113 23 165 35 52 12 127 28 165
35 39 8 90 19 115 25 25 6 74 15 110 21 36 6 74 15 85 20 11 5 58 16 105 24
47 9 103 20 125 25 22 5 65 14 95 21 30 6 70 17 88 25 18 8 42 14 53 14 12 0
60 11 108 25 47 14 111 32 141 41 30 9 66 21 80 26 14 6 55 18 93 28 69 18
117 43 117 60 0 13 -30 13 -122 0 -40 -6 -167 -21 -283 -35 -176 -20 -440 -57
-765 -106 -54 -9 -241 -35 -390 -55 -19 -3 -116 -18 -215 -34 -99 -16 -288
-45 -420 -65 -281 -42 -709 -110 -779 -125 -38 -8 -52 -8 -61 2 -7 7 -43 71
-80 143 -71 135 -86 160 -146 235 -20 25 -72 92 -116 150 -67 89 -124 149
-277 295 -34 32 -159 137 -216 180 -29 22 -61 48 -72 58 -10 9 -29 17 -43 17
-16 0 -25 6 -25 15 0 9 -11 20 -24 25 -14 5 -30 18 -36 30 -6 12 -21 20 -35
20 -14 0 -25 4 -25 9 0 10 -111 74 -150 86 -13 4 -30 14 -38 21 -7 8 -22 14
-32 14 -10 0 -21 4 -24 9 -15 23 -265 94 -401 113 -114 15 -444 15 -538 0 -94
-16 -245 -64 -308 -98 l-46 -25 -34 20 c-114 68 -201 90 -369 90 -200 1 -400
-60 -607 -185 -86 -52 -251 -165 -267 -183 -11 -12 -23 -21 -28 -21 -8 0 -142
-100 -227 -169 -115 -94 -363 -354 -421 -441 -13 -19 -35 -48 -50 -65 -35 -39
-148 -220 -192 -310 -38 -76 -69 -171 -93 -285 -13 -63 -14 -105 -5 -290 6
-118 12 -226 14 -240 3 -14 -11 -70 -30 -125 -19 -55 -41 -120 -48 -145 -7
-25 -25 -74 -40 -110 -15 -36 -34 -90 -42 -120 -48 -173 -64 -240 -64 -280 -1
-25 -4 -63 -8 -85 l-7 -40 -95 -16 c-52 -9 -180 -32 -285 -52 -104 -20 -226
-41 -270 -47 -44 -6 -129 -20 -190 -30 -60 -11 -191 -33 -290 -50 -99 -17
-202 -35 -230 -40 -27 -6 -108 -19 -180 -30 -71 -11 -179 -30 -240 -41 -60
-11 -213 -38 -340 -59 -126 -22 -266 -46 -310 -55 -44 -8 -168 -29 -275 -45
-107 -17 -240 -40 -295 -50 -55 -10 -125 -21 -155 -25 -30 -4 -73 -11 -95 -17
-22 -6 -87 -16 -145 -24 -58 -7 -154 -23 -215 -34 -119 -22 -764 -132 -910
-156 -90 -14 -258 -42 -410 -69 -44 -7 -102 -16 -130 -20 -27 -3 -82 -13 -122
-21 -40 -7 -112 -20 -160 -28 -48 -8 -160 -28 -248 -44 -289 -54 -508 -93
-620 -112 -60 -10 -137 -23 -170 -29 -95 -17 -242 -41 -340 -56 -96 -15 -198
-32 -385 -65 -63 -11 -153 -27 -200 -34 -47 -8 -139 -23 -205 -34 -66 -12
-140 -22 -165 -24 l-45 -3 -7 120 c-7 131 -1 155 37 155 14 0 78 13 143 29 64
16 178 43 252 60 74 17 160 38 190 46 47 13 124 31 400 95 19 4 78 18 130 30
52 12 111 26 130 31 19 4 125 31 235 59 110 29 220 56 245 60 57 11 152 32
260 59 242 60 323 80 465 111 55 12 109 25 120 30 11 5 67 21 125 35 58 14
128 32 155 40 28 8 61 16 75 18 14 3 69 16 124 31 54 14 106 26 117 26 10 0
58 11 106 24 48 13 117 29 153 36 36 6 70 16 75 20 6 5 31 12 55 16 25 3 81
15 125 26 44 11 105 25 135 32 138 33 572 139 635 156 39 10 88 22 110 25 22
4 85 18 140 32 143 35 259 62 345 78 41 8 86 19 100 25 14 6 66 19 115 30 50
10 142 33 205 49 193 51 237 61 260 61 12 0 36 6 53 14 18 7 100 30 182 49
362 87 570 139 575 144 3 3 -22 2 -55 -2 -33 -4 -78 -9 -100 -11 -22 -1 -123
-14 -225 -29 -102 -14 -270 -37 -375 -51 -104 -13 -230 -31 -280 -39 -49 -8
-128 -19 -175 -25 -145 -18 -561 -76 -640 -90 -30 -6 -102 -16 -160 -24 -58
-8 -172 -24 -255 -35 -82 -11 -213 -30 -290 -40 -77 -11 -192 -27 -255 -35
-126 -17 -207 -28 -410 -57 -145 -21 -371 -52 -540 -74 -58 -7 -139 -18 -180
-24 -41 -6 -111 -16 -155 -21 -44 -6 -136 -19 -205 -30 -153 -23 -303 -43
-520 -70 -91 -12 -208 -27 -260 -35 -52 -8 -151 -22 -220 -31 -184 -23 -244
-32 -355 -49 -55 -8 -131 -17 -170 -21 -38 -3 -83 -9 -100 -14 -16 -5 -75 -14
-130 -20 -55 -5 -147 -17 -205 -25 -259 -38 -323 -46 -449 -55 -74 -6 -140 -9
-148 -6 -8 4 -13 24 -13 58 0 29 -7 130 -15 223 -29 336 -74 542 -160 730 -12
28 -33 73 -45 102 -13 29 -29 54 -36 57 -8 3 -14 12 -14 21 0 8 -11 33 -25 55
-14 22 -25 44 -25 48 0 5 -16 30 -36 56 -19 26 -44 67 -55 91 -11 24 -24 47
-30 50 -20 13 -109 149 -102 156 5 4 42 14 83 22 41 8 134 29 205 47 72 17
153 36 180 42 28 6 57 15 65 19 8 4 53 15 100 24 114 22 116 22 137 33 10 5
43 12 73 16 30 4 82 16 115 26 33 10 96 26 140 36 44 9 85 21 91 26 6 4 31 12
55 17 24 5 116 27 204 49 270 68 289 73 330 81 38 8 104 25 460 113 88 22 178
44 200 48 22 5 121 30 220 55 99 26 196 51 215 55 19 4 55 13 80 19 25 5 86
19 135 31 50 11 117 27 150 35 33 9 75 17 93 19 19 2 39 9 45 15 6 6 20 11 31
11 12 0 75 14 141 31 66 17 138 34 160 39 22 5 112 28 200 50 88 23 205 52
260 65 55 13 127 31 160 40 33 9 125 32 204 51 79 19 151 38 160 43 9 4 36 11
61 15 53 8 150 38 150 47 0 3 -24 0 -52 -6 -29 -7 -111 -20 -183 -29 -71 -10
-227 -33 -345 -52 -118 -18 -260 -41 -315 -49 -55 -9 -156 -25 -225 -36 -69
-11 -183 -29 -255 -40 -71 -11 -168 -27 -215 -36 -47 -8 -112 -19 -145 -23
-53 -7 -158 -23 -485 -75 -47 -8 -175 -28 -285 -45 -110 -18 -254 -40 -320
-51 -66 -11 -183 -28 -260 -39 -77 -11 -167 -24 -200 -30 -33 -5 -130 -19
-215 -30 -85 -11 -198 -27 -250 -35 -93 -14 -352 -49 -595 -81 -66 -8 -166
-22 -223 -30 -111 -15 -180 -18 -168 -7 4 4 48 17 99 29 51 12 144 36 207 54
63 17 144 37 180 44 36 7 74 18 85 23 11 6 47 17 80 23 33 6 105 24 160 40 55
15 120 30 144 34 24 4 55 13 70 20 14 8 64 21 111 30 47 10 94 21 105 26 11 5
65 21 120 34 55 13 172 43 260 66 88 23 174 45 190 47 17 3 35 10 42 15 7 5
36 13 65 18 29 5 94 20 143 34 50 14 155 41 235 61 80 19 159 39 175 44 17 5
57 15 90 22 72 15 63 13 100 28 17 7 45 14 64 17 19 2 40 9 47 15 7 6 18 9 26
8 7 -1 20 0 28 3 8 3 42 13 75 21 33 9 105 28 160 43 55 15 118 31 140 35 22
4 103 24 180 44 77 21 156 41 175 45 19 5 73 18 120 30 47 12 101 24 120 27
19 3 40 9 45 14 6 4 53 17 104 29 51 11 102 25 112 30 10 6 30 10 46 10 16 0
37 6 48 14 11 7 40 16 65 20 67 10 213 47 225 56 6 4 35 12 65 18 30 6 80 18
110 27 30 9 73 20 95 25 22 4 67 15 100 25 33 9 130 34 215 55 85 22 209 53
275 70 66 17 138 35 160 40 40 9 107 27 213 56 58 16 407 106 452 117 14 3 88
22 165 41 77 20 152 36 168 36 15 0 27 5 27 10 0 16 -69 12 -176 -11 -54 -11
-137 -27 -184 -34 -47 -8 -139 -25 -205 -39 -66 -13 -174 -34 -240 -45 -66
-12 -199 -37 -295 -56 -96 -18 -218 -41 -270 -50 -52 -9 -124 -23 -160 -30
-36 -8 -78 -16 -95 -19 -16 -3 -93 -17 -170 -31 -77 -14 -212 -39 -300 -56
-88 -16 -180 -33 -205 -38 -25 -6 -63 -12 -85 -16 -57 -8 -194 -34 -310 -57
-55 -11 -125 -24 -155 -28 -51 -8 -307 -57 -425 -82 -123 -26 -453 -88 -580
-109 -33 -5 -136 -25 -230 -44 -268 -53 -419 -82 -575 -109 -80 -14 -176 -32
-215 -41 -38 -8 -82 -15 -98 -15 -15 0 -35 -4 -45 -9 -9 -6 -71 -20 -137 -31
-66 -12 -165 -31 -220 -42 -55 -11 -120 -24 -145 -28 -87 -15 -371 -70 -468
-90 -53 -12 -158 -32 -232 -46 -128 -23 -403 -77 -555 -108 -153 -33 -299 -60
-485 -91 l-195 -33 -80 82 c-103 103 -175 169 -211 192 -16 10 -34 23 -41 29
-30 25 -202 138 -256 168 -106 59 -110 63 -60 76 60 16 189 47 278 66 44 10
123 28 175 40 52 13 129 31 170 39 150 33 216 48 245 56 17 5 46 11 65 15 19
4 64 15 100 25 36 9 101 25 145 34 44 10 103 23 130 31 47 13 309 77 365 89
57 12 186 43 200 48 8 3 49 13 90 21 41 8 102 22 135 32 33 9 92 22 130 30 39
7 88 19 110 28 22 8 65 18 95 22 30 4 66 12 80 17 14 6 48 14 75 18 28 5 79
16 115 24 36 8 101 22 145 30 44 9 94 21 110 26 17 5 48 12 70 15 22 3 78 14
125 25 146 32 381 81 560 115 74 14 164 32 200 40 62 13 120 24 325 60 50 9
110 20 135 25 25 5 68 12 95 15 28 3 66 10 85 15 33 8 115 22 330 56 209 32
269 43 375 64 61 12 142 26 180 31 39 5 95 14 125 20 134 26 209 40 260 49 30
5 96 16 145 25 50 9 149 25 220 36 120 18 292 46 425 69 30 5 138 23 240 40
102 17 235 39 295 50 61 11 153 27 205 35 105 15 297 49 375 65 28 6 81 15
120 20 38 6 76 12 85 15 8 2 44 9 80 14 36 5 153 26 260 45 107 19 227 40 265
47 39 6 102 17 140 24 39 7 95 16 125 20 30 3 87 13 125 20 39 7 88 16 110 19
22 4 65 11 95 16 57 10 626 103 740 120 36 6 146 24 245 40 99 17 221 37 270
45 50 8 146 23 215 35 69 11 168 27 220 35 52 8 120 19 150 25 30 6 125 22
210 36 167 26 318 51 500 84 63 12 140 25 170 30 30 5 206 34 390 64 184 31
362 60 395 66 33 5 155 25 270 44 116 19 230 38 255 41 25 3 90 15 145 25 55
10 114 21 130 23 17 3 125 21 240 41 116 20 251 43 300 51 50 7 158 25 240 39
83 14 227 36 320 50 152 23 244 39 385 66 25 5 68 12 95 15 52 6 169 26 290
50 39 8 88 16 110 18 22 3 67 9 100 15 60 11 154 27 335 57 52 9 118 20 145
26 28 5 84 14 125 19 41 6 98 15 125 20 141 24 415 67 437 69 10 1 46 -10 80
-23z m-3469 -2802 c141 -25 260 -59 377 -109 92 -38 265 -126 330 -166 30 -19
77 -48 104 -64 27 -17 70 -46 95 -65 66 -51 158 -109 188 -121 14 -5 24 -11
22 -13 -2 -2 -94 0 -204 5 -110 4 -240 8 -289 8 l-89 1 19 -22 c22 -24 157
-125 203 -150 29 -16 49 -43 39 -53 -5 -5 -69 5 -178 28 -70 15 -110 20 -355
46 -173 18 -318 24 -311 12 4 -6 28 -25 54 -43 154 -105 266 -225 314 -338 11
-25 25 -58 33 -75 17 -38 16 -95 -1 -95 -23 0 -112 38 -288 124 -94 46 -207
96 -251 111 -44 15 -93 33 -110 40 -35 13 -130 45 -138 45 -2 0 -7 -9 -10 -20
-3 -12 -14 -20 -26 -20 -12 0 -21 -4 -21 -10 0 -5 6 -10 14 -10 7 0 33 -15 57
-33 24 -18 58 -39 74 -47 25 -11 27 -14 11 -18 -10 -2 -23 1 -29 7 -13 13 -47
15 -47 3 0 -4 12 -15 28 -25 41 -26 98 -77 85 -77 -7 0 -45 15 -85 34 -111 52
-250 108 -281 113 -15 3 -32 14 -38 24 -16 31 -41 24 -33 -8 8 -34 22 -53 40
-53 7 0 17 -6 21 -14 4 -8 29 -29 55 -48 25 -18 97 -71 160 -118 62 -47 130
-96 151 -109 70 -43 49 -51 -126 -51 -89 1 -168 7 -242 21 -60 11 -144 27
-185 34 -103 19 -283 19 -348 0 -58 -18 -151 -62 -233 -111 -31 -19 -62 -34
-68 -34 -7 0 -11 24 -11 67 0 65 -24 176 -43 201 -11 14 -21 59 -37 166 -6 38
-15 75 -21 82 -16 20 -77 9 -163 -31 -43 -19 -82 -34 -87 -33 -9 3 56 116 112
193 19 28 46 73 58 100 13 28 33 61 44 74 16 17 18 25 10 28 -7 3 -13 13 -13
23 0 31 -73 33 -160 3 -186 -64 -307 -156 -457 -348 -38 -49 -77 -103 -85
-120 -29 -57 -160 -280 -190 -322 -26 -39 -58 -57 -58 -34 0 29 62 174 128
301 91 175 175 307 202 315 11 4 20 14 20 24 0 21 36 64 68 81 15 7 21 17 18
27 -11 27 179 203 309 286 105 67 203 102 378 137 180 35 255 42 347 31 77
-10 103 -1 91 32 -11 31 -138 80 -294 113 -70 15 -127 31 -127 35 0 15 170 31
290 27 123 -4 171 -16 240 -59 8 -5 21 -11 28 -14 6 -3 18 -7 25 -10 6 -3 19
-9 27 -14 8 -5 22 -12 30 -15 8 -3 23 -11 32 -18 14 -10 22 -8 45 14 123 116
476 173 756 122z m-13903 -393 c19 -5 64 -17 100 -26 160 -42 421 -191 610
-348 105 -88 114 -97 171 -183 74 -111 119 -207 126 -269 5 -36 -6 -63 -82
-219 -60 -122 -97 -184 -117 -199 -60 -45 -214 -243 -374 -482 -26 -38 -73
-104 -104 -145 -73 -96 -135 -191 -166 -252 -28 -56 -28 -54 -9 -62 22 -8 84
22 140 67 116 96 345 301 410 367 78 80 176 160 197 160 19 0 180 -263 300
-490 28 -52 69 -126 92 -163 22 -38 57 -97 77 -131 41 -72 294 -379 317 -384
19 -5 15 13 -36 148 -49 132 -185 409 -254 518 -55 87 -214 307 -343 475 -41
54 -75 103 -75 108 0 10 85 106 210 239 19 20 66 72 103 114 58 65 73 76 100
76 72 0 245 -159 397 -365 86 -117 240 -382 240 -414 0 -6 13 -39 29 -73 32
-67 71 -195 90 -293 7 -33 19 -91 27 -130 17 -83 34 -269 34 -377 0 -80 -17
-178 -33 -190 -6 -3 -46 -11 -91 -17 -155 -22 -365 -70 -438 -101 -26 -11 -78
-27 -117 -35 -81 -17 -401 -122 -416 -136 -5 -5 -12 -9 -16 -9 -12 0 -59 87
-85 158 -45 120 -168 352 -267 502 -60 91 -155 210 -166 210 -16 0 29 -145
121 -390 14 -36 31 -81 37 -100 7 -19 24 -64 38 -100 33 -86 103 -300 103
-314 0 -7 -21 -17 -46 -24 -45 -12 -200 -74 -279 -112 -22 -10 -54 -33 -70
-50 -49 -51 -34 -55 224 -58 l228 -4 11 -36 c6 -21 16 -71 22 -112 6 -41 15
-91 20 -110 51 -197 73 -769 40 -1020 -26 -187 -43 -287 -71 -400 -29 -120
-163 -537 -208 -648 -12 -30 -17 -52 -12 -50 20 7 125 135 181 218 67 101 141
252 159 325 7 27 17 52 22 55 5 4 18 41 29 83 10 43 26 92 34 110 14 30 51
222 77 390 15 99 5 560 -15 697 -25 176 -56 335 -77 402 -12 38 -19 74 -16 81
3 7 47 23 98 36 190 45 256 59 324 70 39 7 89 16 113 21 23 6 67 10 97 10 l55
0 0 -302 c0 -280 -4 -352 -30 -633 -23 -237 -73 -531 -105 -608 -7 -18 -16
-51 -20 -75 -4 -24 -13 -56 -21 -70 -8 -15 -14 -34 -14 -42 0 -22 -90 -286
-133 -392 -117 -284 -317 -586 -493 -743 -146 -130 -136 -138 51 -45 224 112
418 291 558 517 15 23 30 44 34 46 8 5 118 222 166 327 13 30 33 82 42 115 10
33 24 74 31 92 49 113 95 498 95 788 0 294 -29 521 -111 869 -16 72 -30 136
-30 143 0 19 401 18 503 -1 123 -24 140 -35 165 -102 32 -87 45 -219 39 -379
-5 -129 -12 -188 -38 -320 -6 -27 -15 -81 -20 -120 -5 -38 -23 -113 -39 -165
-15 -52 -32 -111 -35 -130 -4 -19 -16 -51 -26 -70 -11 -19 -19 -40 -19 -45 0
-6 -22 -65 -49 -131 -26 -65 -54 -136 -60 -156 -7 -21 -17 -38 -22 -38 -5 0
-9 -6 -9 -14 0 -8 -14 -47 -31 -87 -17 -41 -39 -98 -50 -127 -20 -59 -181
-382 -239 -482 -160 -275 -456 -557 -726 -693 -82 -41 -176 -70 -299 -92 -49
-9 -112 -21 -140 -27 -72 -16 -249 -108 -330 -172 -185 -146 -375 -265 -465
-292 -90 -26 -143 -21 -198 20 -46 33 -174 174 -238 261 -112 153 -279 325
-402 413 -36 26 -82 62 -100 80 -19 18 -36 31 -37 30 -2 -2 -10 -32 -19 -68
-19 -78 -193 -431 -244 -498 -21 -26 -50 -67 -66 -91 -25 -39 -131 -180 -181
-241 -45 -56 -142 -133 -207 -166 -192 -97 -516 -122 -738 -57 -115 33 -207
67 -265 96 -94 47 -242 148 -332 227 -130 115 -243 298 -264 431 -6 35 -14 87
-19 114 -11 57 -24 273 -17 265 3 -3 52 -66 108 -141 295 -387 417 -522 567
-629 142 -101 342 -185 498 -209 231 -35 367 -18 219 29 -208 66 -521 250
-730 429 -203 174 -406 390 -489 519 -96 149 -161 322 -191 507 -20 126 -39
585 -25 599 6 6 17 3 28 -7 27 -25 32 -21 32 21 0 102 -139 482 -176 482 -8 0
-14 -8 -14 -17 0 -40 -148 -540 -191 -645 -10 -26 -19 -57 -19 -69 0 -12 -9
-52 -19 -88 -58 -197 -80 -315 -96 -502 -8 -95 -21 -153 -35 -157 -5 -2 -7 -8
-4 -13 5 -9 -23 -117 -35 -131 -3 -4 -33 0 -66 7 -33 8 -90 15 -128 15 -47 0
-89 8 -140 26 -39 14 -91 31 -114 39 -57 18 -159 76 -211 120 -37 32 -65 69
-130 170 -20 33 -119 238 -126 265 -17 56 -208 458 -258 540 -12 19 -50 81
-84 137 -119 192 -153 278 -168 425 -7 66 8 187 28 238 21 51 64 190 94 305
24 90 27 117 27 270 -1 146 -5 188 -28 295 -108 503 -124 657 -92 854 37 227
158 454 242 456 43 0 263 -107 263 -128 0 -17 -56 -128 -80 -157 -19 -24 -90
-175 -124 -265 -47 -121 -65 -315 -46 -490 13 -115 28 -179 72 -300 55 -151
59 -136 73 275 6 176 28 411 50 550 8 50 17 114 20 142 4 29 11 55 15 58 5 3
8 18 8 33 -1 31 17 100 32 122 8 13 22 9 90 -27 44 -24 125 -73 181 -110 l102
-67 -6 -118 c-3 -65 -1 -120 3 -123 11 -7 56 48 85 104 44 87 39 85 130 42
121 -58 175 -98 353 -259 90 -81 179 -156 197 -167 48 -28 60 -13 60 78 0 63
-5 82 -40 152 -21 44 -56 105 -77 136 -21 31 -38 62 -38 69 0 8 -6 21 -14 29
-7 9 -32 53 -56 99 l-43 83 5 97 5 97 76 115 c55 84 93 157 137 265 190 466
289 620 498 778 98 73 331 219 371 232 11 3 21 13 21 22 0 42 -290 -27 -440
-105 -93 -48 -160 -90 -160 -100 0 -4 -18 -22 -41 -39 -123 -95 -283 -346
-398 -625 -22 -53 -77 -159 -123 -235 -109 -179 -112 -183 -119 -183 -32 0
-216 372 -300 606 -51 143 -61 311 -23 385 52 102 260 319 392 411 111 77 278
186 377 244 206 122 505 240 713 281 75 15 89 15 162 0 118 -23 179 -57 254
-141 34 -39 81 -98 103 -131 23 -33 55 -78 73 -100 38 -48 100 -167 100 -193
0 -22 -10 -19 245 -58 184 -27 241 -40 250 -53 12 -20 -27 -39 -112 -55 -111
-23 -179 -63 -193 -115 -5 -20 -16 -45 -23 -56 -8 -11 -20 -38 -27 -60 -7 -22
-22 -50 -33 -62 l-20 -23 44 0 c25 0 127 5 227 11 193 11 268 6 407 -30 87
-23 139 -34 282 -61 107 -21 115 -21 189 -6 43 9 80 19 83 21 2 3 -5 15 -17
28 -37 39 -28 50 63 81 47 16 88 32 90 36 4 7 -43 42 -195 146 -68 46 -211
119 -254 130 -15 3 -26 10 -26 14 0 12 91 91 156 135 32 22 100 77 150 122 51
45 117 98 146 118 99 68 218 155 241 176 9 9 30 22 45 30 15 7 63 37 107 65
44 28 90 54 102 58 11 4 27 13 33 21 7 8 24 15 39 15 14 0 33 5 41 10 19 12
123 12 170 1z m22702 -815 c7 -14 66 -81 131 -150 106 -113 116 -126 95 -130
-13 -3 -81 -14 -153 -25 -125 -19 -253 -40 -490 -81 -221 -38 -355 -60 -575
-95 -234 -37 -374 -60 -570 -96 -63 -11 -160 -27 -215 -34 -55 -8 -138 -20
-185 -28 -388 -66 -838 -141 -1000 -166 -335 -53 -570 -90 -700 -110 -69 -11
-156 -25 -195 -31 -38 -6 -90 -15 -115 -20 -60 -13 -475 -78 -605 -96 -116
-15 -4 18 290 86 99 23 234 54 300 70 121 30 251 60 425 100 52 12 158 38 235
57 161 40 266 64 416 97 59 13 122 29 140 34 19 6 63 16 99 22 36 7 74 15 85
20 31 12 279 70 300 70 10 0 44 9 74 19 31 11 85 24 121 30 69 12 109 21 315
71 206 50 233 56 365 84 69 15 140 32 158 38 38 11 156 39 312 71 58 12 110
25 115 28 6 4 30 10 55 14 25 4 115 24 200 45 85 20 185 43 223 50 37 7 67 16
67 21 0 5 12 9 28 9 15 0 70 11 122 24 119 31 117 31 132 2z m-8797 -753 c59
-182 158 -331 280 -424 228 -175 229 -176 233 -305 2 -55 0 -94 -5 -94 -24 0
-74 34 -99 68 -15 20 -89 98 -163 172 -79 78 -150 158 -168 190 -31 53 -80
200 -109 325 -14 61 -19 184 -8 172 4 -4 21 -51 39 -104z m-1021 65 c50 -238
80 -328 145 -438 40 -66 102 -140 119 -140 5 0 21 -9 36 -21 36 -28 42 -8 21
62 -24 82 -35 178 -26 234 l7 50 16 -37 c49 -111 200 -281 327 -367 121 -83
360 -164 513 -175 42 -3 88 -10 103 -16 36 -14 164 -40 195 -40 51 0 67 -23
75 -107 8 -90 41 -268 56 -295 33 -62 76 40 125 300 2 12 8 22 12 22 10 0 40
-146 54 -255 6 -44 14 -89 18 -100 23 -54 54 -389 43 -450 -14 -72 -103 -175
-316 -364 -71 -63 -140 -131 -154 -151 -27 -43 -46 -120 -63 -266 -6 -54 -14
-114 -17 -131 -4 -24 -1 -33 9 -33 7 0 58 45 113 101 118 119 274 253 283 244
16 -16 -10 -541 -30 -605 -28 -88 -111 -242 -171 -316 -58 -71 -181 -187 -292
-274 -69 -55 -278 -205 -320 -230 -22 -13 -53 -34 -68 -47 -16 -13 -37 -23
-48 -23 -11 0 -22 -7 -25 -15 -4 -9 -26 -27 -51 -42 -75 -43 -236 -43 -453 2
-58 12 -135 15 -345 13 -344 -3 -380 -1 -415 17 -37 19 -81 74 -175 219 -73
112 -177 259 -224 316 -57 67 -93 140 -139 276 -73 216 -87 341 -62 520 14 91
15 134 8 174 -8 43 -66 189 -107 268 -52 100 -83 171 -107 247 -26 81 -29 104
-29 230 0 142 14 225 38 225 7 0 39 -18 71 -40 84 -57 131 -65 119 -21 -3 11
4 27 17 39 20 18 31 20 113 16 51 -3 156 -8 234 -12 l143 -7 -40 -53 c-22 -29
-40 -54 -40 -57 0 -2 35 8 78 22 100 34 202 110 202 152 0 27 22 83 73 191 37
77 47 111 53 173 6 65 4 77 -8 77 -8 0 -23 -9 -33 -20 -10 -11 -24 -20 -30
-20 -7 0 -38 -25 -68 -55 -36 -36 -63 -55 -78 -55 -30 1 -163 67 -239 120 -32
22 -178 98 -250 130 -46 20 -71 24 -157 24 -99 1 -103 2 -103 23 0 28 27 134
47 180 18 44 168 208 243 266 49 39 161 107 175 107 16 0 -4 -56 -46 -130 -5
-8 -17 -31 -28 -50 -10 -19 -42 -66 -70 -103 -41 -55 -48 -69 -35 -74 26 -10
264 5 339 21 124 28 291 126 360 212 17 21 42 51 56 68 34 40 115 162 165 248
21 37 42 68 46 68 4 0 10 -10 12 -22z m-17503 -349 c36 -68 62 -126 57 -127
-5 -2 -27 8 -49 23 -23 14 -83 46 -136 70 l-95 43 33 37 c36 41 98 85 114 81
6 -1 40 -58 76 -127z m15606 -2906 c12 -36 55 -84 131 -144 42 -35 85 -71 95
-81 10 -10 30 -26 45 -35 15 -9 64 -41 108 -70 73 -47 87 -53 135 -53 35 0 67
7 92 20 20 11 45 20 55 20 10 0 27 7 38 15 27 20 29 20 71 -27 21 -22 53 -55
72 -72 19 -17 48 -52 65 -77 102 -152 239 -315 295 -352 55 -36 146 -65 246
-77 125 -15 315 -51 315 -60 0 -8 -100 -30 -137 -30 -13 0 -23 -4 -23 -10 0
-5 4 -10 9 -10 5 0 33 -17 62 -37 30 -20 92 -49 139 -65 47 -15 99 -32 116
-38 17 -6 121 -9 245 -7 l214 2 70 -30 c64 -27 510 -248 545 -270 14 -9 59
-29 332 -150 155 -69 401 -125 550 -125 198 0 359 69 860 369 70 42 151 89
180 105 29 16 87 50 128 76 151 96 255 141 430 187 96 25 313 23 450 -5 616
-127 1193 -380 1530 -670 124 -108 365 -369 476 -516 268 -357 376 -534 478
-787 83 -203 104 -249 115 -249 5 0 12 30 16 68 4 37 13 109 21 161 7 51 11
113 9 137 -3 24 -7 64 -10 89 -6 58 -3 58 148 -4 350 -144 634 -391 847 -738
25 -40 48 -73 52 -73 12 0 10 147 -2 216 -32 180 -167 461 -269 559 -36 35
-53 65 -35 65 23 0 320 -229 404 -311 84 -82 210 -221 485 -539 251 -288 350
-377 630 -564 383 -256 755 -524 755 -544 0 -4 14 -16 30 -25 42 -25 39 -41
-7 -34 -21 3 -81 13 -133 21 -97 16 -265 20 -309 7 -25 -7 -25 -7 10 -27 39
-23 122 -57 243 -100 95 -33 144 -69 211 -153 48 -60 51 -61 64 -42 11 17 24
21 69 21 89 0 130 -18 197 -85 78 -78 325 -383 325 -401 0 -3 13 -23 30 -43
16 -21 66 -114 110 -207 117 -242 128 -266 135 -294 4 -14 11 -29 15 -35 5 -5
27 -57 50 -115 23 -58 47 -118 55 -135 7 -16 16 -41 20 -55 4 -14 18 -49 31
-78 13 -29 24 -56 24 -60 0 -4 22 -76 50 -160 27 -83 52 -169 56 -189 4 -21
12 -49 19 -63 14 -27 47 -169 70 -295 7 -44 27 -154 44 -245 17 -91 42 -246
56 -345 14 -99 35 -229 46 -290 11 -60 22 -152 26 -203 3 -51 10 -89 14 -85
11 12 49 254 49 316 0 86 15 88 39 6 12 -41 40 -128 62 -194 22 -66 51 -158
64 -205 13 -47 35 -119 49 -160 13 -41 34 -109 46 -150 12 -41 28 -95 36 -120
27 -84 56 -195 85 -330 74 -339 81 -385 57 -378 -17 6 -46 65 -119 243 -34 83
-66 157 -71 165 -6 10 -7 -41 -4 -141 16 -420 65 -571 250 -763 63 -66 89 -86
98 -79 12 9 42 10 130 5 20 -2 31 -11 47 -44 35 -75 81 -229 102 -348 29 -160
30 -171 18 -213 -7 -25 -14 -36 -17 -27 -20 59 -87 182 -117 215 -92 104 -139
144 -153 130 -9 -9 23 -94 80 -215 28 -58 59 -126 69 -152 10 -26 34 -79 54
-118 19 -38 47 -105 60 -147 14 -43 49 -135 76 -206 47 -116 55 -157 31 -157
-5 0 -31 32 -58 71 -45 65 -87 122 -117 159 -7 8 -20 27 -30 42 -9 15 -23 25
-30 22 -8 -3 -20 2 -27 11 -7 8 -18 15 -26 15 -13 0 11 -51 101 -210 37 -67
73 -137 190 -370 18 -36 44 -80 59 -97 14 -17 26 -38 26 -46 0 -8 7 -20 15
-27 22 -18 129 -242 175 -365 12 -33 26 -69 30 -80 5 -11 18 -51 29 -90 11
-38 36 -96 56 -129 47 -78 46 -90 -5 -61 -14 8 -33 14 -43 15 -26 0 -142 121
-247 260 -28 36 -55 72 -62 80 -24 27 -59 83 -89 138 -16 30 -33 60 -38 66 -4
6 -23 40 -42 76 -18 36 -45 83 -60 105 -15 22 -57 87 -95 145 -81 125 -121
175 -234 289 -83 85 -104 104 -245 225 -38 34 -128 119 -200 189 -179 178
-352 289 -515 332 -55 14 -158 28 -201 27 -87 -1 -205 -83 -298 -206 -68 -89
-104 -166 -131 -281 -86 -357 -91 -368 -217 -492 -53 -53 -102 -93 -113 -93
-10 0 -22 -4 -25 -10 -3 -5 -27 -10 -52 -10 -42 0 -45 2 -40 23 22 91 30 114
42 127 7 8 16 29 20 45 3 17 15 50 25 75 10 25 38 104 61 175 41 128 42 133
50 330 5 110 13 241 18 290 35 324 29 293 90 454 11 29 28 62 38 73 19 20 46
70 108 198 20 41 42 81 49 90 7 8 21 38 31 65 10 28 23 57 30 65 7 8 16 30 20
47 3 18 11 36 17 39 23 15 100 231 124 349 19 96 19 388 -1 507 -34 204 -83
303 -247 499 -191 227 -255 297 -412 454 -192 191 -391 364 -515 448 -42 28
-78 53 -81 57 -6 8 -135 95 -185 125 -18 12 -42 28 -53 38 -10 9 -22 17 -26
17 -16 0 -357 216 -467 295 -184 133 -238 178 -319 262 -176 184 -200 210
-200 221 0 6 -18 32 -39 60 -22 27 -51 72 -65 99 -13 28 -37 64 -52 82 -37 44
-24 49 29 9 25 -18 75 -55 113 -83 37 -27 101 -81 141 -118 83 -79 182 -156
201 -157 6 0 12 6 12 13 0 17 -72 139 -153 256 -159 231 -220 428 -196 625 12
92 53 222 80 252 10 11 37 68 59 127 22 59 51 128 65 153 27 52 32 82 13 89
-7 3 -53 -34 -102 -81 -138 -133 -407 -353 -466 -381 -7 -4 -41 -23 -75 -43
-33 -21 -71 -41 -85 -45 -14 -4 -45 -17 -70 -28 -57 -27 -145 -28 -225 -3
-114 34 -180 54 -275 81 -114 32 -208 62 -235 75 -11 5 -51 18 -90 29 -95 27
-157 48 -240 81 -38 15 -113 42 -165 60 -52 18 -99 36 -105 40 -5 4 -44 21
-85 38 -122 49 -334 150 -425 202 -22 13 -74 41 -115 63 -41 21 -139 78 -218
125 -78 48 -179 110 -225 137 -45 28 -107 66 -137 86 -128 84 -171 110 -290
175 -129 71 -220 109 -302 127 -39 8 -52 7 -70 -6 -82 -57 -172 -124 -275
-204 -232 -181 -509 -369 -658 -448 -49 -26 -94 -51 -99 -56 -6 -5 -16 -9 -23
-9 -7 0 -50 -18 -96 -39 -45 -21 -93 -42 -107 -46 -14 -4 -43 -16 -65 -25 -22
-10 -49 -20 -60 -23 -11 -3 -51 -16 -90 -30 -145 -52 -306 -92 -550 -137 -224
-41 -1148 -41 -1390 0 -33 5 -66 10 -72 10 -24 0 -13 -18 15 -25 15 -3 77 -26
137 -50 271 -108 480 -159 805 -195 173 -20 540 -7 725 26 216 39 484 126 720
234 33 15 96 42 140 60 44 18 125 52 180 76 237 102 195 46 -85 -112 -36 -21
-72 -43 -80 -50 -8 -7 -50 -30 -92 -52 -141 -73 -379 -240 -574 -401 -49 -42
-103 -86 -120 -98 l-29 -22 25 0 c14 0 41 4 60 9 276 73 397 113 605 198 164
68 372 159 416 183 20 10 43 19 50 19 7 0 50 19 96 42 46 22 87 38 91 34 4 -4
7 -67 7 -139 0 -118 -3 -142 -29 -222 -84 -263 -213 -434 -556 -735 -58 -50
-105 -99 -105 -108 0 -49 225 26 385 128 79 50 168 100 179 100 19 0 12 -15
-38 -91 -74 -112 -191 -235 -321 -338 -147 -117 -436 -282 -585 -334 -204 -71
-294 -91 -728 -162 -235 -39 -353 -72 -477 -136 -41 -21 -103 -52 -137 -69
-63 -30 -75 -43 -49 -53 26 -10 545 12 638 27 51 9 120 25 153 37 33 12 74 25
90 30 17 4 74 23 127 43 112 40 209 62 323 71 297 23 462 50 539 86 48 23 46
23 46 4 0 -9 -22 -48 -49 -88 -26 -40 -65 -99 -86 -131 -61 -97 -154 -208
-345 -411 -40 -42 -144 -162 -224 -255 -11 -14 -56 -69 -99 -122 -76 -94 -78
-96 -140 -112 -154 -39 -381 -21 -732 59 -38 8 -90 20 -115 25 -25 6 -85 19
-135 31 -247 56 -479 89 -635 89 -100 0 -408 -25 -417 -34 -9 -9 8 -26 25 -26
10 0 33 -9 53 -19 19 -10 64 -27 99 -36 36 -10 83 -26 105 -36 22 -10 81 -30
130 -44 162 -47 318 -93 455 -134 74 -22 194 -54 265 -71 215 -51 265 -64 265
-70 0 -3 -60 -18 -132 -33 -261 -54 -442 -69 -853 -71 -350 -1 -461 8 -641 55
-96 24 -291 92 -359 125 -28 13 -56 24 -64 24 -8 0 -41 17 -75 38 -34 20 -84
48 -111 61 -28 13 -57 28 -65 32 -8 5 -25 13 -38 19 -19 8 -55 30 -159 97 -16
10 -14 12 17 13 19 0 112 12 205 26 94 14 195 29 225 34 31 4 66 10 78 14 23
8 31 26 11 26 -6 0 -25 7 -42 15 -36 16 -172 49 -296 71 -47 8 -98 21 -115 29
-17 8 -53 19 -81 26 -27 6 -81 25 -120 41 -38 17 -84 37 -102 44 -17 8 -34 14
-37 14 -9 0 -268 129 -316 158 -25 15 -60 36 -79 47 -18 11 -49 30 -68 43 -18
12 -37 22 -42 22 -9 0 -177 175 -207 216 -46 63 -116 236 -101 250 4 4 16 -1
28 -12 22 -19 46 -34 190 -108 93 -49 140 -67 322 -127 173 -56 302 -74 542
-74 177 0 210 3 284 23 89 24 194 72 264 120 23 16 59 40 79 53 21 13 38 27
38 31 0 24 -200 41 -422 36 -253 -7 -332 0 -483 42 -170 46 -194 54 -245 77
-25 11 -61 24 -80 28 -19 4 -49 15 -67 25 -18 11 -47 23 -65 29 -58 17 -102
36 -128 53 -14 10 -41 23 -60 29 -100 34 -248 157 -362 299 -20 25 -63 79 -96
120 -67 85 -199 231 -219 243 -19 11 -206 248 -248 312 -124 194 -189 389
-249 745 -19 113 -38 220 -42 238 -7 37 2 40 37 14 44 -34 146 -92 186 -106
22 -8 65 -25 94 -39 30 -14 117 -41 194 -61 77 -20 165 -43 195 -51 114 -32
350 -74 478 -85 74 -7 136 -10 138 -7 7 7 -187 164 -271 220 -275 183 -578
444 -563 487 2 5 23 -5 48 -21 108 -74 375 -176 585 -223 197 -45 505 -80 491
-57 -4 6 -13 11 -20 11 -6 0 -50 22 -96 48 -120 69 -212 119 -310 170 -47 24
-107 56 -135 71 -27 16 -179 94 -336 174 -157 80 -315 163 -350 185 -329 205
-350 221 -533 400 -134 133 -242 266 -323 401 -35 57 -63 107 -63 111 0 5 -20
50 -44 102 -154 330 -259 772 -342 1433 -17 143 -77 422 -137 645 -53 193
-175 489 -197 475 -6 -4 -10 -103 -10 -248 0 -209 -7 -286 -23 -267 -2 3 -21
40 -41 82 -20 43 -60 103 -89 135 -29 32 -72 84 -96 115 -24 32 -59 70 -78 85
-99 80 -117 96 -134 117 l-19 24 42 16 c63 23 158 52 198 60 19 4 76 20 125
35 156 49 285 87 440 131 83 23 179 51 215 61 36 11 81 24 100 29 34 10 166
50 405 125 66 21 149 46 185 56 36 10 90 25 120 34 112 32 524 135 578 145 32
6 93 19 137 29 49 11 122 19 188 20 94 1 108 -1 114 -16z m-616 -6765 c7 -13
33 -48 59 -78 53 -63 56 -68 140 -245 67 -143 66 -140 103 -208 50 -90 34 -89
-89 4 -52 39 -94 75 -94 80 0 4 -11 14 -24 21 -43 24 -92 99 -104 164 -18 91
-28 284 -14 284 6 0 17 -10 23 -22z m-129 -721 c14 -7 33 -20 42 -30 10 -9 34
-30 54 -45 21 -15 78 -61 127 -102 50 -41 106 -86 125 -100 19 -13 58 -44 86
-69 27 -25 82 -67 120 -94 39 -26 81 -58 94 -72 13 -14 28 -25 33 -25 5 0 26
-15 47 -32 20 -18 61 -51 90 -73 30 -22 81 -65 115 -95 33 -31 78 -69 100 -85
22 -16 51 -40 65 -53 14 -14 36 -32 50 -41 14 -8 88 -63 165 -121 227 -171
362 -259 615 -404 66 -38 244 -113 355 -150 44 -15 94 -32 110 -37 45 -16 243
-63 385 -93 350 -72 1010 -75 1370 -6 110 21 348 86 365 100 5 4 57 24 115 45
58 21 116 43 130 50 14 7 63 32 110 55 91 44 231 126 345 201 39 25 88 58 110
72 22 14 65 44 95 66 30 23 80 59 110 81 153 112 313 252 485 426 112 113 201
194 214 194 5 0 14 -15 22 -32 11 -29 84 -136 121 -178 37 -42 108 -171 108
-197 0 -7 6 -27 14 -45 8 -18 24 -64 36 -103 12 -38 31 -86 42 -105 30 -52 83
-209 73 -218 -2 -2 -22 32 -44 75 -62 116 -61 114 -126 210 -33 48 -69 105
-80 126 -11 21 -49 83 -85 139 -64 99 -65 100 -71 69 -4 -18 -9 -34 -12 -37
-11 -12 -17 53 -7 86 12 43 12 50 0 50 -5 0 -14 -19 -21 -42 -6 -24 -16 -49
-22 -56 -6 -7 -12 -48 -15 -90 -5 -97 17 -207 58 -285 16 -31 30 -63 30 -70 0
-6 36 -72 80 -146 108 -182 134 -252 128 -344 -4 -57 -13 -87 -41 -143 -42
-83 -90 -132 -168 -172 -55 -28 -125 -75 -144 -97 -10 -12 -58 -33 -210 -95
-44 -17 -102 -42 -130 -55 -27 -12 -70 -30 -95 -38 -59 -20 -222 -87 -235 -97
-5 -4 -33 -15 -62 -24 -94 -31 -536 -265 -598 -316 -11 -9 -35 -23 -52 -30
-18 -7 -33 -16 -33 -21 0 -4 -10 -11 -22 -14 -13 -4 -32 -15 -43 -25 -11 -10
-38 -27 -60 -39 -22 -12 -70 -43 -107 -69 -174 -124 -302 -217 -323 -236 -13
-11 -52 -46 -88 -76 -36 -30 -66 -58 -66 -62 -2 -15 40 -8 82 13 23 12 83 35
132 51 50 16 119 40 155 53 36 14 79 27 95 29 17 2 46 10 65 19 46 21 245 86
292 96 21 5 44 14 52 20 7 6 56 25 107 42 52 16 108 36 124 43 17 8 68 28 115
46 115 42 333 131 345 140 6 4 28 13 50 20 47 14 498 237 570 282 45 28 313
165 491 251 71 34 184 77 205 77 6 0 18 9 27 19 24 27 175 84 201 76 12 -3 21
-13 21 -20 0 -8 11 -22 25 -31 14 -9 25 -21 25 -26 0 -5 20 -37 45 -69 25 -33
45 -63 45 -67 0 -5 17 -33 38 -63 20 -30 52 -83 71 -119 69 -133 105 -196 140
-249 20 -29 41 -62 47 -72 6 -10 18 -27 27 -37 46 -51 -48 -217 -166 -293 -65
-42 -102 -55 -200 -69 -80 -11 -142 -28 -232 -66 -16 -6 -138 -48 -270 -93
-206 -69 -306 -108 -387 -152 -10 -5 -23 -9 -29 -9 -6 0 -46 -21 -87 -47 -42
-27 -93 -57 -114 -68 -107 -57 -281 -167 -433 -272 -22 -16 -80 -54 -130 -86
-49 -32 -99 -64 -110 -72 -11 -8 -45 -33 -75 -55 -30 -22 -72 -48 -92 -57 -77
-33 -31 -44 82 -19 36 8 130 26 210 41 144 27 441 98 490 117 14 6 39 14 55
18 55 14 279 88 350 115 39 15 86 31 105 36 19 6 53 18 75 28 22 10 58 24 80
31 41 13 70 25 241 104 55 25 107 46 115 46 8 0 28 8 44 18 17 10 57 28 90 41
33 13 87 36 120 51 178 83 195 89 195 61 0 -25 -16 -110 -34 -176 -8 -27 -19
-75 -26 -105 -7 -30 -28 -109 -47 -175 -19 -66 -40 -138 -46 -160 -5 -22 -21
-53 -34 -68 -12 -16 -23 -33 -23 -39 0 -29 -166 -215 -215 -241 -11 -5 -26
-18 -33 -29 -7 -10 -20 -18 -29 -18 -9 0 -24 -6 -32 -14 -27 -24 -132 -73
-211 -100 -81 -27 -266 -58 -480 -81 -346 -38 -802 -162 -1065 -291 -60 -29
-117 -58 -125 -64 -8 -5 -64 -38 -125 -71 -60 -34 -133 -74 -160 -90 -36 -20
-95 -37 -215 -60 -154 -30 -179 -32 -375 -31 -115 0 -239 5 -275 11 -107 19
-250 54 -250 62 0 17 86 33 315 59 55 6 141 20 190 32 89 19 245 83 245 100 0
24 -257 120 -450 168 -25 6 -58 15 -75 20 -39 11 -191 27 -330 35 -254 13
-384 35 -570 95 -130 42 -159 53 -268 104 -53 25 -102 46 -107 46 -6 0 -10 4
-10 10 0 5 -26 27 -57 49 -66 44 -130 107 -120 117 12 12 180 -39 304 -93 149
-64 255 -93 345 -93 60 0 69 3 83 24 17 25 12 49 -14 80 -16 18 -10 19 249 12
459 -11 668 -9 735 9 33 9 78 21 100 26 41 11 205 81 354 151 64 30 81 42 72
51 -15 15 -98 12 -204 -7 -186 -34 -567 -46 -822 -26 -381 30 -885 121 -1032
187 -28 13 -58 23 -67 23 -44 0 -215 76 -303 134 -86 58 -63 38 -309 274 -168
161 -196 187 -229 208 -16 10 -34 24 -38 31 -11 18 -167 121 -215 143 -13 5
-46 21 -75 34 -29 13 -59 26 -67 29 -8 3 -53 22 -100 41 -46 20 -93 36 -103
36 -18 0 -18 -1 1 -32 59 -99 249 -473 311 -613 90 -201 98 -242 31 -148 -38
53 -47 63 -155 183 -70 78 -176 210 -200 252 -5 9 -37 61 -71 115 -33 54 -87
142 -120 196 -32 54 -68 113 -79 131 -34 57 -58 90 -92 129 -18 20 -33 42 -33
48 0 6 -28 52 -62 103 -35 50 -67 99 -73 107 -5 9 -23 36 -39 60 -16 24 -46
68 -65 98 -20 29 -46 67 -57 85 -57 83 -119 184 -151 244 -68 129 -134 231
-442 687 -38 55 -94 144 -126 199 -77 129 -79 151 -32 362 20 87 39 184 42
214 8 70 32 196 44 236 10 34 13 40 114 194 38 58 71 117 74 133 6 30 19 33
55 14z m-452 -1368 c0 -6 20 -39 44 -73 24 -35 54 -83 66 -107 13 -24 35 -60
50 -79 14 -19 32 -51 40 -70 7 -19 28 -56 47 -81 18 -26 33 -50 33 -55 0 -4
19 -39 43 -78 77 -127 127 -212 127 -219 0 -3 14 -30 32 -59 56 -95 225 -420
251 -485 8 -21 45 -101 82 -178 37 -77 78 -167 92 -200 26 -63 60 -137 151
-325 62 -129 112 -247 112 -264 0 -12 -83 73 -240 245 -216 236 -262 285 -285
309 -14 14 -25 29 -25 34 0 4 -13 21 -29 37 -16 16 -51 55 -78 86 -26 32 -89
105 -138 163 -100 116 -155 185 -155 193 0 3 -24 48 -54 99 -30 51 -58 107
-62 123 -4 17 -15 40 -24 52 -10 12 -28 51 -40 85 -13 35 -31 74 -40 88 -10
14 -21 36 -26 50 -13 36 -88 160 -96 160 -9 0 -12 -46 -9 -140 4 -145 56 -437
85 -485 7 -11 16 -33 20 -50 4 -16 16 -48 27 -72 10 -23 19 -44 19 -47 0 -3
11 -22 25 -42 14 -21 28 -49 32 -63 3 -14 25 -53 47 -86 45 -67 59 -89 94
-154 13 -25 32 -55 43 -69 19 -25 17 -48 -4 -36 -7 4 -37 25 -67 46 -75 53
-188 132 -228 160 -18 13 -56 41 -84 63 -28 22 -61 47 -73 55 -12 8 -35 24
-49 35 -15 11 -68 51 -119 88 -107 80 -228 196 -253 242 l-17 33 78 153 c43
85 95 179 116 209 21 30 38 61 38 68 1 6 12 22 26 34 14 12 25 27 25 33 0 7
11 27 25 46 48 64 161 244 185 294 13 28 31 62 41 76 16 22 32 59 70 157 8 22
29 22 29 1z m8234 -2453 c14 -19 26 -38 26 -43 0 -4 6 -20 14 -34 7 -14 19
-56 26 -92 l14 -67 -29 -30 c-16 -17 -36 -30 -46 -30 -9 0 -22 -7 -29 -15 -7
-8 -21 -15 -31 -15 -17 0 -18 6 -13 58 3 31 9 86 14 122 5 36 10 91 10 123 0
31 4 57 9 57 5 0 20 -15 35 -34z m246 -571 c57 -133 188 -467 221 -565 15 -47
44 -130 64 -185 20 -55 48 -134 62 -175 14 -41 50 -145 80 -230 30 -85 62
-182 72 -215 114 -375 213 -751 281 -1065 5 -25 16 -74 25 -110 25 -108 86
-382 97 -435 6 -27 17 -75 25 -105 7 -30 22 -97 33 -148 10 -51 22 -96 25
-102 3 -5 10 -35 16 -67 5 -32 16 -78 24 -103 8 -25 19 -72 26 -105 25 -128
160 -509 230 -652 38 -78 69 -145 69 -151 0 -5 9 -17 20 -27 11 -10 20 -23 20
-29 0 -6 14 -38 32 -71 112 -211 218 -436 254 -540 14 -38 31 -81 39 -95 7
-14 29 -79 49 -145 42 -141 107 -330 125 -363 10 -20 15 -21 28 -10 14 11 15
35 10 173 -4 88 -10 189 -13 224 -4 38 -3 62 2 60 32 -14 346 -400 429 -528 6
-8 38 -56 71 -107 70 -103 143 -231 218 -379 80 -157 112 -234 166 -410 16
-49 36 -110 44 -135 22 -62 122 -424 135 -485 18 -90 32 -140 45 -160 8 -12
25 -66 39 -120 14 -55 41 -152 60 -215 44 -143 69 -242 63 -247 -5 -5 -29 75
-46 151 -6 26 -17 61 -25 76 -16 31 -88 242 -105 310 -7 24 -18 49 -25 55 -8
5 -30 60 -50 120 -20 61 -56 148 -79 195 -24 47 -47 96 -51 110 -7 22 -87 158
-206 350 -87 142 -256 356 -386 492 -40 41 -95 69 -109 55 -3 -3 6 -33 20 -68
15 -34 26 -71 26 -82 0 -11 9 -38 21 -61 21 -42 28 -54 85 -163 18 -34 42 -88
54 -120 12 -32 28 -65 35 -73 7 -8 21 -37 30 -65 10 -27 24 -57 31 -66 8 -9
19 -29 24 -45 4 -16 29 -78 55 -139 25 -60 54 -132 65 -160 10 -27 32 -86 49
-130 18 -44 43 -111 56 -150 65 -192 126 -367 149 -425 13 -36 30 -81 36 -100
7 -19 24 -64 37 -100 14 -36 36 -94 50 -130 13 -36 31 -79 39 -96 8 -16 25
-61 37 -100 13 -38 28 -68 35 -67 8 2 9 -4 3 -20 -4 -12 -6 -28 -4 -34 3 -7 2
-13 -2 -13 -3 0 -24 37 -46 83 -22 45 -46 93 -54 107 -36 65 -125 258 -125
271 0 8 -8 25 -17 39 -25 36 -93 172 -93 186 0 8 -16 42 -35 77 -19 35 -35 70
-35 77 0 7 -6 21 -13 29 -7 9 -26 48 -42 86 -16 39 -41 93 -57 121 -15 28 -28
58 -28 67 0 9 -9 26 -19 36 -11 11 -32 46 -47 78 -37 78 -78 145 -137 223 -99
130 -132 153 -154 108 -21 -44 -25 -64 -33 -171 -5 -60 -14 -114 -20 -122 -9
-11 -32 -6 -128 27 -64 22 -122 46 -128 53 -5 8 -29 21 -53 31 -82 33 -253
183 -277 244 -3 8 -10 22 -15 30 -66 107 -226 442 -244 511 -23 89 -36 278
-29 439 8 199 -13 372 -65 530 -23 69 -48 136 -55 150 -8 14 -38 71 -68 128
-99 188 -177 283 -327 396 -108 82 -165 157 -255 333 -60 119 -85 180 -120
293 -104 338 -141 461 -189 640 -31 113 -61 224 -67 248 -6 24 -17 42 -25 42
-23 0 -28 -108 -22 -463 6 -359 20 -472 82 -695 59 -215 213 -452 350 -540
151 -96 288 -243 342 -367 31 -72 43 -107 73 -225 22 -85 50 -400 50 -556 l0
-164 -62 0 c-58 0 -133 8 -423 43 -92 12 -114 12 -137 1 -15 -8 -29 -18 -32
-23 -14 -23 276 -488 413 -661 48 -61 51 -75 15 -66 -92 23 -445 355 -657 616
-64 80 -129 159 -143 175 -15 17 -45 52 -68 80 -159 192 -171 205 -239 259
-34 28 -60 40 -93 44 -42 4 -47 8 -71 55 -14 28 -50 120 -80 206 -102 289
-199 471 -312 581 -97 95 -258 221 -356 280 -22 13 -53 34 -68 47 -18 15 -42
23 -65 23 l-35 0 20 -22 c11 -13 42 -63 68 -113 27 -49 65 -115 85 -145 20
-30 49 -77 64 -103 15 -26 52 -80 81 -120 30 -40 71 -106 92 -147 20 -41 45
-87 54 -101 10 -14 32 -61 49 -105 60 -151 129 -280 204 -378 42 -55 76 -106
76 -115 0 -9 70 -88 155 -175 85 -87 155 -163 155 -169 0 -5 44 -55 98 -111
54 -56 157 -166 229 -246 72 -80 163 -174 203 -210 41 -35 98 -89 129 -118 80
-77 369 -281 399 -282 6 0 12 -4 12 -8 0 -9 127 -112 138 -112 5 0 24 -16 43
-36 l34 -37 -40 27 c-35 22 -131 59 -315 122 -50 17 -65 24 -193 83 -49 23
-91 41 -93 41 -3 0 -31 19 -62 42 -63 47 -158 140 -242 238 -30 35 -107 121
-171 190 -200 216 -243 264 -278 310 -19 25 -60 72 -90 106 -81 89 -191 228
-218 277 -14 23 -35 53 -48 67 -12 14 -26 35 -30 48 -3 12 -11 22 -16 22 -5 0
-32 48 -61 108 -28 59 -62 121 -74 137 -12 17 -50 84 -85 150 -34 66 -68 127
-76 136 -7 9 -22 39 -32 68 -10 28 -25 59 -34 69 -17 17 -107 151 -107 159 0
2 -33 43 -74 91 -91 107 -187 232 -376 487 -80 108 -170 229 -200 270 -30 41
-75 101 -100 134 -24 34 -47 61 -50 61 -3 0 -16 17 -30 38 -14 20 -42 59 -63
87 -21 27 -56 73 -77 101 -21 28 -55 72 -77 97 -21 26 -47 59 -59 74 -11 16
-58 78 -104 138 -84 110 -169 224 -257 345 -26 36 -73 101 -105 145 -145 198
-178 246 -178 255 0 5 -13 24 -29 42 -15 18 -36 48 -45 66 -10 19 -32 53 -49
77 -40 55 -107 157 -127 193 -9 15 -36 59 -61 97 -54 82 -54 82 -165 247 -47
71 -99 154 -115 185 -17 32 -37 62 -45 66 -8 4 -14 19 -14 32 0 13 -4 27 -10
30 -27 17 -7 55 65 126 42 41 82 75 89 77 9 2 22 -20 36 -65 56 -170 214 -493
332 -677 13 -19 46 -72 73 -116 28 -45 67 -102 88 -127 21 -25 60 -77 88 -117
27 -39 68 -96 92 -128 23 -31 97 -130 164 -220 67 -89 141 -187 164 -216 23
-29 58 -76 78 -105 21 -29 84 -110 142 -182 57 -71 131 -166 164 -210 32 -44
67 -87 76 -95 9 -8 31 -37 49 -63 35 -54 135 -157 150 -157 5 0 -3 22 -20 48
-16 27 -41 75 -56 108 -15 32 -39 77 -54 99 -15 22 -30 50 -34 62 -4 12 -26
55 -50 95 -24 40 -100 174 -170 298 -151 267 -145 258 -168 293 -10 15 -31 51
-47 80 -15 28 -49 90 -76 137 -67 118 -93 165 -133 240 -19 36 -45 78 -58 93
-13 16 -24 33 -24 38 0 5 -21 46 -46 91 -26 46 -60 108 -77 138 -16 30 -35 62
-42 70 -7 8 -36 56 -66 105 -29 50 -56 92 -60 95 -3 3 -19 30 -34 60 -15 30
-40 73 -54 95 -15 22 -42 69 -61 105 -18 36 -48 88 -66 117 -51 80 -76 134
-70 149 12 32 209 141 396 219 36 15 72 33 81 41 8 8 21 14 28 14 12 0 227 81
276 104 63 30 219 66 465 106 403 66 774 135 900 169 89 24 139 40 185 61 28
12 77 31 110 42 33 11 65 25 72 30 7 5 45 25 85 45 40 19 82 43 93 53 11 10
34 26 52 37 17 10 66 42 108 71 41 28 78 52 81 52 3 0 22 11 42 25 20 14 40
25 43 25 4 0 22 -37 41 -82 20 -46 38 -90 42 -98 3 -8 10 -22 14 -30 23 -39
32 -61 32 -73 0 -7 8 -24 18 -37 16 -24 23 -39 54 -121 7 -20 19 -43 24 -50 6
-8 14 -25 17 -39 3 -14 15 -50 27 -80 12 -30 28 -80 37 -110 8 -30 19 -60 25
-67 5 -7 14 -27 18 -45 4 -18 24 -78 43 -133 19 -55 45 -134 57 -175 12 -41
33 -108 46 -147 13 -40 28 -91 34 -113 6 -22 15 -40 20 -40 6 0 10 -11 10 -25
0 -13 6 -39 14 -57 8 -18 31 -87 52 -153 20 -66 47 -152 60 -191 12 -39 39
-125 58 -190 43 -143 71 -228 91 -271 8 -17 15 -37 15 -45 0 -7 11 -44 24 -83
13 -38 33 -101 45 -140 35 -121 126 -374 139 -387 18 -18 16 25 -12 224 -14
95 -28 207 -31 248 -13 147 -75 559 -124 820 -50 272 -78 377 -174 655 -89
258 -115 329 -145 397 -16 34 -33 74 -37 88 -11 36 -151 316 -175 349 -11 16
-20 31 -20 34 0 16 -114 184 -153 227 -23 24 -36 55 -29 66 20 29 162 106 185
100 4 -1 25 -42 47 -91z m-3886 -1080 c-10 -9 -32 -23 -49 -32 -28 -14 -113
-74 -177 -123 -51 -39 -115 -21 -132 37 -10 31 43 68 145 99 73 22 216 45 228
37 3 -2 -4 -10 -15 -18z"/>
<path d="M23005 33730 c3 -5 8 -10 11 -10 2 0 4 5 4 10 0 6 -5 10 -11 10 -5 0
-7 -4 -4 -10z"/>
<path d="M24760 33651 c0 -10 30 -24 37 -17 3 3 2 9 -2 15 -8 13 -35 15 -35 2z"/>
<path d="M7810 33635 c-41 -14 -86 -25 -101 -25 -30 0 -102 -44 -166 -102 -68
-63 -158 -189 -212 -298 -51 -102 -117 -302 -106 -320 11 -18 50 24 114 120
82 122 129 189 169 240 37 47 208 217 331 330 98 90 96 95 -29 55z"/>
<path d="M10950 33592 c0 -13 80 -78 108 -86 12 -4 26 -15 32 -25 5 -10 40
-33 77 -51 37 -19 75 -40 84 -47 54 -46 275 -142 364 -159 39 -7 44 1 16 31
-11 11 -45 48 -77 83 -125 136 -283 219 -456 242 -46 5 -98 13 -115 16 -18 2
-33 1 -33 -4z"/>
<path d="M9168 32649 c-172 -27 -308 -92 -422 -198 -98 -92 -226 -262 -284
-378 -50 -99 -91 -227 -77 -241 8 -8 55 39 71 70 34 66 232 272 384 399 48 40
152 111 257 175 124 75 283 178 283 183 0 13 -106 8 -212 -10z"/>
<path d="M9685 32420 c-142 -16 -223 -40 -339 -98 -81 -41 -126 -70 -167 -111
-52 -52 -121 -147 -155 -212 -14 -28 -14 -29 8 -29 26 0 70 25 148 85 93 71
141 93 265 124 306 76 494 88 730 46 77 -14 184 -32 238 -40 54 -8 116 -19
138 -24 21 -5 41 -5 44 -1 6 10 -54 64 -119 109 -73 50 -209 106 -321 130
-115 26 -340 35 -470 21z"/>
<path d="M10089 31735 c-136 -22 -207 -43 -304 -91 -99 -49 -196 -115 -177
-122 6 -2 36 4 66 12 30 9 71 16 91 16 21 0 76 10 124 21 72 18 104 20 191 15
354 -21 562 -89 724 -238 23 -21 44 -38 47 -38 4 0 33 -35 65 -77 60 -80 133
-213 154 -280 6 -21 18 -51 25 -68 23 -51 65 -229 85 -363 26 -170 27 -392 0
-569 -28 -194 -29 -202 -52 -278 -93 -318 -177 -500 -357 -775 -113 -174 -211
-342 -205 -352 3 -5 22 1 42 13 273 164 494 418 616 709 11 25 32 72 47 105
53 117 104 339 139 603 43 328 11 634 -98 927 -8 22 -25 68 -37 102 -44 121
-191 364 -274 454 -61 66 -234 180 -296 195 -16 4 -46 15 -65 24 -19 9 -64 22
-100 29 -36 7 -85 16 -110 21 -86 17 -252 20 -341 5z"/>
<path d="M9205 31525 c-100 -33 -260 -122 -321 -178 -139 -127 -274 -381 -309
-582 -11 -65 -15 -195 -6 -195 5 0 42 60 82 133 40 72 81 148 92 167 76 139
178 263 361 440 54 52 125 128 158 168 69 83 64 88 -57 47z"/>
<path d="M7998 31360 c-84 -75 -236 -251 -312 -363 -89 -132 -136 -229 -175
-366 -32 -107 -33 -119 -28 -235 5 -134 32 -230 100 -361 l36 -68 5 34 c2 19
10 142 16 274 9 218 13 248 39 330 55 176 172 431 283 615 71 120 109 190 101
190 -5 0 -34 -23 -65 -50z"/>
<path d="M8389 31276 c-92 -70 -216 -229 -282 -361 -70 -141 -156 -448 -157
-560 0 -22 -12 -101 -26 -175 -22 -116 -25 -155 -22 -275 4 -126 7 -149 37
-235 38 -109 143 -331 166 -350 8 -7 19 -10 23 -6 11 12 8 160 -7 386 -19 292
-4 550 39 637 11 23 24 77 29 120 5 43 16 98 25 122 9 24 16 56 16 70 0 29 56
200 140 426 43 119 79 223 80 233 0 9 -24 -3 -61 -32z"/>
<path d="M10035 31211 c-40 -8 -35 -19 23 -46 81 -38 220 -170 273 -261 68
-115 123 -277 164 -479 9 -44 27 -116 41 -160 13 -44 27 -109 30 -144 6 -56 9
-62 20 -46 7 10 23 50 34 89 12 39 26 85 31 101 25 74 30 195 14 318 -21 157
-37 212 -93 320 -72 138 -174 229 -317 285 -55 21 -173 34 -220 23z"/>
<path d="M9034 30978 c-79 -82 -174 -275 -213 -433 -31 -122 -44 -254 -45
-435 -1 -225 13 -309 75 -430 118 -232 340 -401 571 -436 350 -53 604 47 808
318 33 44 60 81 60 84 0 14 -37 -2 -97 -42 -132 -89 -290 -157 -425 -184 -54
-11 -93 -11 -195 -2 -135 12 -164 19 -278 72 -104 48 -201 152 -254 274 -53
121 -65 197 -66 406 0 257 11 337 98 712 14 58 28 116 32 127 11 37 -18 24
-71 -31z"/>
<path d="M6696 30964 c-13 -43 -55 -378 -60 -484 -3 -63 -13 -261 -22 -440
-20 -393 -22 -373 78 -680 29 -90 82 -205 185 -410 147 -289 184 -351 261
-434 72 -78 78 -58 32 104 -51 178 -134 393 -248 640 -59 130 -112 288 -131
396 -7 38 -10 193 -9 415 2 337 1 364 -26 569 -16 118 -31 240 -33 270 -5 59
-17 84 -27 54z"/>
<path d="M9790 30871 c0 -12 11 -37 100 -232 29 -64 70 -186 106 -317 23 -83
33 -90 74 -47 l33 34 -5 109 c-4 104 -7 114 -48 200 -34 73 -57 105 -109 155
-64 62 -151 118 -151 98z"/>
<path d="M9477 30818 c-113 -109 -176 -318 -148 -487 31 -190 172 -330 411
-411 78 -27 218 -29 294 -6 48 15 175 93 176 109 0 4 -57 7 -127 7 -132 0
-262 22 -301 51 -87 63 -134 104 -156 132 -45 59 -85 159 -102 257 -16 96 -12
181 15 343 4 26 4 50 0 53 -4 2 -32 -19 -62 -48z"/>
<path d="M6282 30243 c-44 -160 -65 -358 -52 -493 9 -86 32 -190 104 -455 13
-49 29 -103 36 -119 6 -17 27 -91 46 -165 81 -315 122 -404 259 -570 105 -126
320 -341 341 -341 15 0 15 3 -3 23 -27 29 -203 304 -281 437 -63 109 -92 186
-116 305 -41 207 -107 468 -156 620 -41 127 -75 301 -100 500 -6 50 -15 128
-21 175 -17 139 -17 142 -27 152 -5 5 -17 -23 -30 -69z"/>
<path d="M11846 29735 c-4 -17 -21 -95 -40 -175 -19 -80 -39 -172 -46 -205 -7
-33 -16 -71 -20 -85 -5 -14 -14 -59 -20 -100 -21 -137 -75 -390 -110 -509 -67
-236 -107 -345 -161 -452 -11 -20 -19 -42 -19 -48 0 -7 -32 -82 -71 -167 -39
-86 -68 -158 -66 -161 7 -6 188 148 242 206 63 69 115 141 150 211 169 335
221 654 197 1205 -11 265 -23 350 -36 280z"/>
<path d="M8010 29340 c0 -5 5 -10 10 -10 6 0 10 5 10 10 0 6 -4 10 -10 10 -5
0 -10 -4 -10 -10z"/>
<path d="M8278 29130 c-45 -66 -52 -100 -52 -260 -1 -261 40 -409 181 -648 85
-146 211 -269 348 -340 79 -41 215 -85 345 -112 246 -51 673 -30 826 41 23 10
46 19 51 19 21 0 229 62 238 72 7 6 -42 7 -140 3 -167 -8 -711 10 -820 27
-257 39 -438 128 -610 302 -129 130 -207 264 -272 471 -39 124 -63 241 -71
350 -7 98 -7 100 -24 75z"/>
<path d="M8820 29003 c0 -30 137 -200 228 -285 118 -108 279 -209 407 -253 89
-31 279 -51 375 -40 181 21 342 89 468 197 50 43 172 181 172 195 0 18 -7 16
-43 -11 -60 -45 -280 -144 -379 -170 -185 -47 -394 -44 -571 9 -97 30 -326
143 -406 201 -87 63 -238 164 -245 164 -3 0 -6 -3 -6 -7z"/>
<path d="M24148 31888 c-8 -14 -13 -57 -13 -108 1 -81 3 -88 40 -152 22 -37
45 -68 51 -68 6 0 35 -26 65 -57 30 -32 73 -74 97 -93 l42 -35 -46 -50 c-141
-154 -153 -197 -160 -595 -3 -151 -10 -291 -15 -310 -15 -60 -44 -70 -194 -63
-126 5 -131 4 -165 -19 -55 -38 -78 -41 -106 -13 -19 19 -24 35 -24 75 0 46
42 199 69 248 17 31 2 33 -43 5 -58 -36 -87 -69 -124 -145 -34 -70 -38 -92
-22 -149 13 -47 91 -119 129 -120 64 -1 114 -9 163 -25 55 -18 177 -23 358
-14 80 4 107 1 168 -18 96 -30 208 -32 254 -5 18 10 48 43 65 73 l32 53 -27
51 c-32 60 -125 156 -151 156 -23 0 -28 23 -36 161 -3 57 -10 145 -16 194 -13
117 -1 274 23 288 12 8 36 -1 106 -41 102 -59 208 -102 252 -102 17 0 30 3 30
6 0 3 -23 26 -50 51 -48 43 -85 95 -74 105 2 3 60 3 127 0 112 -4 127 -3 166
17 65 34 158 59 244 66 56 5 77 4 77 -4 0 -25 -34 -75 -96 -142 -35 -39 -64
-74 -64 -79 0 -13 98 28 146 60 23 17 63 54 89 84 50 59 78 75 100 56 8 -6 19
-9 25 -5 26 16 -2 118 -56 203 -19 29 -34 55 -34 58 0 4 -23 32 -50 64 -120
139 -246 165 -505 105 -216 -50 -258 -58 -333 -58 -76 -1 -171 21 -342 77 -60
19 -67 25 -91 70 -15 27 -33 75 -39 108 -14 63 -22 70 -42 36z"/>
<path d="M24690 30743 c0 -27 162 -303 178 -303 4 0 32 -24 62 -53 187 -180
263 -192 151 -23 -25 39 -53 85 -61 101 -40 80 -330 325 -330 278z"/>
<path d="M23332 30300 c-12 -19 -28 -53 -34 -75 -22 -72 -10 -545 13 -545 19
0 49 88 59 176 10 89 4 377 -9 444 l-7 35 -22 -35z"/>
<path d="M24975 30140 c-10 -17 13 -81 64 -182 28 -53 62 -134 77 -179 47
-146 99 -241 129 -237 26 4 30 41 15 138 -29 176 -88 311 -171 386 -59 52
-107 85 -114 74z"/>
<path d="M23778 29870 c-37 -11 -165 -77 -213 -110 -52 -36 -92 -80 -97 -105
-7 -44 22 -47 500 -46 246 1 503 4 572 7 114 6 133 4 220 -19 163 -43 290 -59
312 -39 12 11 -11 94 -36 133 -28 41 -210 167 -259 178 -18 5 -75 2 -127 -5
-270 -36 -487 -56 -558 -51 -42 3 -113 16 -157 30 -106 33 -125 36 -157 27z"/>
<path d="M23853 29403 c-13 -2 -23 -8 -23 -13 0 -11 148 -109 220 -145 50 -26
67 -29 185 -32 171 -6 230 11 301 87 27 29 50 56 52 60 7 20 -662 59 -735 43z"/>
<path d="M24919 29406 c-3 -3 -1 -54 4 -113 4 -59 7 -181 5 -271 -3 -164 1
-182 32 -144 63 73 84 140 83 262 -1 99 -17 151 -69 221 -34 46 -45 55 -55 45z"/>
<path d="M22270 28685 c0 -24 101 -179 214 -330 138 -185 310 -349 491 -470
229 -152 463 -313 530 -364 98 -75 252 -209 286 -249 39 -47 125 -190 181
-302 23 -47 47 -88 53 -92 33 -23 23 264 -15 417 -26 104 -124 303 -190 385
-85 106 -129 141 -330 260 -8 5 -22 11 -30 14 -8 4 -35 18 -60 32 -25 14 -108
58 -185 99 -142 74 -258 137 -285 155 -8 5 -44 26 -79 46 -35 20 -72 45 -82
55 -10 10 -24 19 -29 19 -12 0 -180 111 -210 138 -10 9 -38 32 -62 49 -24 18
-74 57 -113 88 -66 51 -85 63 -85 50z"/>
<path d="M20443 28384 c-5 -10 -8 -174 -8 -364 0 -298 3 -371 23 -535 13 -104
29 -212 37 -240 8 -27 18 -84 24 -125 39 -280 153 -688 229 -817 15 -26 36
-67 45 -91 21 -54 91 -170 176 -292 72 -104 264 -310 277 -297 5 4 -4 31 -20
59 -16 27 -43 91 -61 142 -18 50 -51 143 -75 206 -23 63 -57 167 -76 230 -36
120 -183 694 -202 790 -7 30 -30 136 -53 235 -23 99 -45 198 -49 220 -45 218
-162 641 -235 845 -20 55 -23 58 -32 34z"/>
<path d="M28435 27880 c-3 -6 0 -10 9 -10 8 0 27 -7 43 -15 15 -8 62 -29 103
-46 41 -18 82 -38 90 -45 8 -7 52 -27 98 -44 45 -18 84 -36 87 -41 4 -5 39
-24 80 -43 161 -74 484 -265 625 -370 126 -93 279 -243 425 -419 98 -119 126
-146 153 -151 51 -11 55 -3 47 86 -28 327 -348 725 -708 880 -51 21 -110 48
-132 58 -159 76 -481 144 -730 155 -71 3 -142 8 -157 10 -15 2 -30 0 -33 -5z"/>
<path d="M25460 27430 c-230 -19 -427 -68 -516 -127 -68 -45 -233 -258 -215
-276 12 -12 278 34 421 72 19 5 64 17 100 25 36 9 94 25 130 35 158 48 198 60
253 71 31 6 57 15 57 18 0 4 30 16 68 26 37 10 78 25 92 32 14 7 54 22 90 35
96 33 160 60 160 69 0 4 -8 11 -17 15 -27 10 -514 15 -623 5z"/>
<path d="M27990 26906 c0 -9 153 -241 225 -341 125 -175 218 -348 321 -602 31
-76 72 -176 92 -223 19 -47 41 -101 47 -120 7 -19 20 -39 28 -44 48 -31 72 57
71 260 -2 157 -34 342 -81 464 -38 97 -127 223 -213 301 -119 109 -319 239
-412 268 -20 7 -42 19 -48 27 -12 13 -30 19 -30 10z"/>
<path d="M24146 26233 c-8 -38 -43 -660 -61 -1076 -23 -526 -28 -536 -330
-737 -200 -133 -285 -171 -431 -191 -47 -7 -83 -17 -81 -22 8 -24 110 -69 203
-88 123 -26 208 -22 319 15 93 31 157 72 237 150 53 50 57 58 51 87 -4 23 -3
30 5 25 7 -4 12 -16 12 -27 0 -30 35 -23 62 14 26 35 58 98 58 116 0 20 36 11
123 -29 85 -40 107 -47 107 -32 0 4 -7 54 -15 112 -11 77 -14 218 -15 535 0
432 5 529 50 905 13 110 13 230 0 230 -5 0 -10 -9 -10 -20 0 -10 -4 -29 -9
-42 -5 -13 -19 -68 -31 -123 -12 -55 -31 -132 -41 -171 -21 -79 -53 -247 -64
-339 -14 -117 -35 -91 -35 44 0 52 -9 153 -19 225 -52 345 -61 413 -61 439 0
15 -4 27 -9 27 -5 0 -12 -12 -15 -27z m-109 -1895 c-3 -8 -6 -5 -6 6 -1 11 2
17 5 13 3 -3 4 -12 1 -19z"/>
<path d="M21840 25558 c-53 -116 3 -218 162 -300 66 -34 81 -38 150 -38 85 0
111 15 123 71 25 112 -215 309 -376 309 -37 0 -41 -3 -59 -42z"/>
<path d="M30670 25221 c-63 -21 -160 -56 -215 -76 -337 -124 -536 -155 -1000
-155 -181 0 -334 0 -339 0 -38 -1 136 -97 259 -143 39 -15 98 -33 132 -41 34
-7 66 -17 73 -21 6 -4 63 -13 128 -20 199 -22 407 -5 543 46 30 11 74 27 99
36 25 8 56 23 70 33 14 10 45 27 69 40 65 33 206 147 284 230 108 115 82 133
-103 71z"/>
<path d="M26663 24796 c-61 -20 -131 -63 -185 -114 -43 -40 -48 -50 -48 -87 0
-36 5 -46 33 -67 60 -47 93 -58 165 -58 86 0 183 28 248 73 49 33 57 48 68
132 6 41 4 46 -30 77 -50 46 -51 46 -135 52 -50 4 -88 1 -116 -8z"/>
<path d="M32330 23773 c0 -122 70 -430 126 -560 8 -17 14 -34 14 -38 0 -23
126 -245 194 -340 100 -142 285 -316 571 -536 66 -51 126 -99 133 -106 8 -7
22 -18 33 -23 61 -33 -32 145 -194 370 -353 492 -416 601 -521 900 -13 36 -37
90 -55 121 -50 88 -205 230 -278 253 -22 7 -23 5 -23 -41z"/>
<path d="M23605 23314 c-150 -22 -293 -60 -395 -106 -143 -65 -258 -128 -360
-198 -197 -136 -281 -165 -439 -155 -95 6 -138 -3 -116 -24 20 -19 192 -62
275 -68 115 -8 282 28 610 132 299 94 389 112 615 122 83 3 156 10 162 15 19
15 26 73 13 112 -34 104 -124 164 -258 170 -42 3 -90 2 -107 0z"/>
<path d="M24385 23160 c-61 -29 -116 -90 -122 -137 l-5 -39 93 -37 c52 -20
153 -48 224 -63 118 -24 278 -70 330 -94 11 -6 40 -17 65 -25 55 -19 164 -77
256 -137 185 -120 380 -219 519 -264 87 -28 97 -29 280 -28 164 0 207 4 319
27 71 14 131 29 134 31 8 9 -19 14 -133 26 -220 21 -276 31 -377 64 -138 45
-228 97 -415 237 -32 24 -69 52 -83 61 -14 10 -56 40 -95 67 -264 188 -386
257 -535 301 -61 18 -106 23 -245 26 -151 3 -174 1 -210 -16z"/>
<path d="M24324 22078 c11 -72 142 -248 184 -248 5 0 23 -13 40 -30 17 -16 44
-33 59 -36 15 -4 37 -13 48 -19 68 -41 317 -43 509 -4 83 17 105 26 123 47 22
26 40 69 32 76 -5 4 -290 40 -453 56 -95 10 -120 17 -205 56 -53 25 -107 51
-121 58 -30 17 -204 86 -215 86 -4 0 -5 -19 -1 -42z"/>
<path d="M34771 19520 c-47 -69 -91 -230 -92 -336 -1 -80 9 -174 18 -174 2 0
28 18 57 39 61 46 102 103 91 129 -4 9 -11 97 -15 195 -4 99 -12 183 -17 188
-5 5 -23 -13 -42 -41z"/>
<path d="M35017 19528 c-11 -34 61 -183 126 -258 17 -19 96 -86 176 -148 80
-62 167 -136 192 -163 41 -43 69 -61 69 -43 0 10 -42 102 -81 179 -67 133
-215 317 -308 381 -20 15 -145 63 -163 64 -3 0 -8 -6 -11 -12z"/>
<path d="M21613 21577 c-21 -124 12 -267 206 -877 22 -69 44 -138 50 -155 6
-16 24 -74 42 -129 41 -131 89 -234 146 -315 41 -57 211 -236 283 -297 35 -30
192 -147 212 -159 9 -5 45 -27 78 -47 34 -21 66 -38 71 -38 15 0 10 22 -10 44
-42 46 -157 228 -214 336 -32 63 -63 120 -67 125 -4 6 -22 48 -40 95 -18 47
-41 101 -50 120 -10 19 -33 78 -50 130 -18 52 -42 115 -55 140 -12 25 -28 63
-34 85 -33 113 -305 671 -390 802 -69 105 -143 193 -162 193 -4 0 -11 -24 -16
-53z"/>
<path d="M28456 19802 c-11 -19 58 -253 119 -399 26 -65 78 -231 90 -293 13
-65 57 -200 66 -200 4 0 29 20 55 45 55 54 60 71 69 244 7 112 5 137 -14 211
-25 96 -63 180 -97 217 -13 14 -24 30 -24 35 0 4 -11 13 -24 19 -13 6 -27 20
-29 30 -3 11 -12 19 -21 19 -9 0 -16 4 -16 8 0 4 -21 14 -47 22 -27 7 -54 22
-61 32 -13 18 -57 25 -66 10z"/>

      </g>
    </svg>