<?xml version="1.0" standalone="no"?>
<!DOCTYPE svg PUBLIC "-//W3C//DTD SVG 20010904//EN"
 "http://www.w3.org/TR/2001/REC-SVG-20010904/DTD/svg10.dtd">
<svg version="1.0" xmlns="http://www.w3.org/2000/svg"
 width="500.000000pt" height="500.000000pt" viewBox="0 0 500.000000 500.000000"
 preserveAspectRatio="xMidYMid meet">

<g transform="translate(0.000000,500.000000) scale(0.100000,-0.100000)"
fill="#000000" stroke="none">
<path d="M0 2500 c0 -2371 1 -2500 18 -2500 27 0 61 98 77 223 13 98 19 116
54 172 22 34 47 88 56 119 l17 57 48 -45 c27 -26 51 -46 54 -46 2 0 -18 43
-45 96 -78 153 -103 251 -149 584 -11 80 -31 190 -45 245 -28 114 -29 125 -14
180 8 27 30 59 70 98 32 32 59 60 59 62 0 3 -14 2 -30 -1 -29 -6 -30 -5 -30
27 0 19 9 53 20 76 15 34 30 48 77 71 32 17 69 39 83 51 l25 21 -37 -6 c-43
-7 -45 -3 -27 57 7 21 24 49 38 63 15 14 99 57 186 95 88 38 220 96 293 130
191 89 250 95 314 34 35 -33 251 -365 278 -425 10 -24 21 -65 25 -93 3 -27 8
-65 11 -83 5 -31 4 -32 -21 -26 -20 5 -32 -1 -65 -34 -36 -36 -40 -45 -40 -89
0 -64 15 -108 43 -121 22 -11 22 -11 1 -11 -36 -1 -74 36 -74 72 0 18 -12 64
-26 102 -14 39 -33 97 -42 130 -10 34 -33 83 -53 110 -20 28 -55 82 -77 121
-45 77 -97 130 -139 140 -35 9 -183 -25 -351 -80 -126 -41 -145 -56 -72 -56
15 0 94 16 174 35 268 64 276 61 395 -180 110 -222 131 -282 131 -370 l-1 -70
-38 -24 c-52 -32 -66 -61 -66 -142 0 -61 -2 -66 -17 -58 -41 22 -50 52 -42
152 l7 95 -38 68 c-72 134 -168 268 -205 287 -43 23 -155 18 -299 -13 -52 -11
-119 -20 -150 -20 -53 0 -55 -1 -33 -16 37 -25 86 -28 218 -9 168 23 224 18
268 -24 37 -36 147 -207 172 -268 27 -63 12 -137 -38 -196 -33 -39 -42 -59
-46 -98 -3 -35 -9 -49 -19 -49 -26 0 -90 73 -102 115 -17 62 -14 72 21 79 l33
7 -39 14 c-62 22 -88 47 -123 115 l-32 63 -10 -40 c-9 -34 -16 -42 -42 -47
-64 -12 -129 -2 -248 41 -13 5 -12 2 4 -17 28 -32 105 -80 129 -80 20 -1 20
-1 2 -12 -12 -7 -54 -9 -115 -6 -95 6 -95 5 -61 -11 24 -11 63 -16 128 -16 50
0 92 -3 92 -7 0 -14 -104 -75 -158 -94 -28 -10 -52 -22 -52 -27 0 -16 111 4
194 34 44 16 84 29 88 29 5 0 17 -15 29 -32 17 -28 19 -43 14 -97 -4 -35 -13
-82 -21 -104 -17 -47 -17 -50 -4 -42 5 3 26 35 46 70 19 36 40 65 44 65 5 0
38 -26 75 -58 74 -65 112 -130 139 -238 33 -133 36 -134 31 -19 l-5 110 38
-70 c41 -78 79 -134 68 -100 -21 61 -46 164 -52 214 -6 53 -4 61 22 99 23 33
35 41 60 42 47 0 115 27 148 58 41 38 56 81 56 157 0 75 7 82 67 66 37 -10 98
-64 153 -136 21 -28 22 -29 15 -5 -11 37 -34 81 -61 117 -48 64 -22 79 76 43
l55 -20 -26 22 c-14 13 -38 32 -53 43 -27 20 -27 20 -11 59 14 32 15 49 6 107
-6 37 -11 72 -11 77 0 5 18 12 40 15 22 3 55 14 73 26 l32 21 -40 0 c-23 0
-57 10 -80 23 -38 21 -40 26 -47 82 -9 74 -20 101 -75 190 -24 39 -43 82 -43
98 0 63 62 127 122 127 40 0 61 -38 63 -114 1 -63 10 -88 52 -143 30 -41 41
-41 55 -2 l10 31 34 -33 c73 -71 79 -130 34 -326 -16 -70 -36 -186 -45 -256
-13 -109 -21 -139 -51 -200 -20 -39 -51 -112 -69 -162 -72 -195 -119 -277
-219 -376 -60 -61 -89 -80 -194 -130 -67 -33 -122 -62 -122 -66 0 -3 36 -3 81
0 62 5 80 4 76 -6 -56 -132 -111 -300 -142 -430 l-13 -57 44 0 c41 0 44 2 52
32 7 30 21 39 148 103 132 67 596 340 733 431 36 24 68 41 73 38 4 -3 8 -19 8
-37 0 -46 40 -358 49 -387 29 -88 34 434 8 749 -9 113 -16 206 -14 207 1 1 87
-88 190 -199 197 -211 234 -259 319 -417 28 -52 73 -128 99 -168 50 -75 194
-257 223 -281 20 -16 23 -25 -49 149 -26 63 -58 144 -70 180 -13 36 -26 73
-30 83 -6 15 0 14 40 -9 26 -14 81 -48 122 -75 84 -54 125 -69 198 -69 68 0
153 42 243 119 l71 61 -19 -52 c-10 -29 -39 -107 -64 -173 -26 -66 -58 -148
-71 -182 -13 -35 -20 -63 -15 -63 12 0 170 172 226 246 67 89 130 198 237 414
88 176 110 212 237 379 77 101 141 182 141 180 1 -2 7 -229 13 -504 10 -445
13 -495 25 -455 31 106 52 234 58 368 3 78 7 142 8 142 1 0 44 -26 96 -57 52
-32 218 -120 369 -195 l275 -137 3 46 c3 36 -1 50 -14 60 -16 12 -16 13 -1 13
16 0 17 54 16 788 -1 534 -4 773 -11 744 -18 -81 -20 -34 -3 82 13 92 16 169
13 383 -4 257 -5 272 -32 357 -14 49 -25 90 -23 93 2 2 14 -29 26 -69 13 -40
24 -77 26 -83 2 -5 4 479 4 1078 l1 1087 -702 0 c-684 -1 -702 -1 -658 -19 67
-26 122 -51 150 -67 14 -9 33 -18 43 -21 9 -3 17 -9 17 -14 0 -5 4 -9 10 -9 5
0 29 -14 52 -30 24 -17 61 -43 83 -58 80 -54 272 -230 325 -298 101 -129 141
-186 165 -234 15 -30 31 -56 36 -58 5 -2 9 -8 9 -13 0 -4 11 -34 26 -66 14
-32 25 -59 24 -61 0 -1 6 -15 14 -30 13 -23 49 -137 49 -152 -1 -3 8 -26 18
-53 19 -46 40 -144 40 -182 0 -10 4 -24 10 -31 5 -7 9 -16 8 -20 -1 -5 0 -11
1 -14 9 -24 22 -150 15 -150 -11 0 -71 142 -140 330 -37 102 -85 225 -107 275
-122 282 -321 513 -611 709 -181 123 -361 198 -522 218 -84 11 -104 10 -206
-10 -111 -21 -116 -22 -174 -5 -43 13 -96 17 -185 17 -113 0 -134 -3 -221 -32
-273 -91 -574 -302 -773 -542 -170 -204 -260 -396 -356 -755 -49 -181 -80
-277 -101 -305 -9 -12 -10 -11 -4 5 3 11 15 83 25 160 65 486 175 746 444
1050 70 80 253 234 354 299 94 60 200 113 282 142 l65 23 -1253 0 -1252 1 0
-2500z m3529 2304 c195 -51 344 -158 483 -344 53 -72 128 -198 128 -215 0 -5
-35 25 -77 66 -43 41 -100 91 -128 111 -46 33 -166 98 -181 98 -3 0 21 -29 54
-65 106 -113 189 -252 247 -415 30 -86 30 -86 -26 0 -85 131 -196 238 -306
294 -29 14 -55 26 -59 26 -3 0 14 -28 38 -62 45 -64 128 -209 128 -223 0 -5
-35 25 -77 66 -73 70 -170 145 -178 137 -2 -1 9 -41 24 -88 36 -111 107 -251
170 -334 28 -36 48 -66 45 -66 -9 0 -57 33 -136 92 -142 107 -292 270 -373
404 -38 63 -45 56 -45 -39 0 -99 18 -228 44 -318 14 -46 23 -85 21 -87 -5 -5
-79 107 -107 163 -41 81 -69 184 -74 275 l-5 85 40 -75 40 -75 1 55 c0 30 5
75 10 100 7 35 5 50 -7 69 -15 23 -14 24 3 17 50 -19 134 -78 204 -144 l78
-72 -15 57 c-15 59 -51 138 -85 186 -29 40 -7 36 109 -22 54 -27 99 -48 101
-46 2 2 -8 26 -22 54 -37 72 -121 152 -205 194 -39 20 -66 39 -61 42 23 14
186 -14 285 -49 30 -11 -62 72 -114 102 -24 14 -71 36 -105 49 l-61 23 69 -6
c38 -3 94 -12 125 -20z m-879 -17 c-91 -31 -189 -88 -255 -148 -59 -55 -65
-70 -18 -46 54 28 158 58 253 72 130 20 132 20 66 -20 -124 -74 -231 -172
-278 -253 l-17 -29 87 43 c48 24 118 54 155 68 l68 25 -22 -32 c-13 -17 -59
-77 -104 -132 -44 -55 -84 -106 -89 -113 -11 -18 145 61 215 109 31 21 81 61
112 89 32 29 57 49 57 45 0 -14 -95 -167 -146 -235 -56 -74 -52 -76 46 -19 58
33 143 109 184 164 14 19 15 17 16 -24 1 -141 -138 -424 -265 -541 l-27 -25
31 51 c54 88 108 219 126 304 7 34 6 33 -80 -48 -88 -84 -156 -137 -230 -182
l-39 -24 52 63 c29 35 51 66 48 68 -3 3 -24 -11 -48 -30 -70 -57 -207 -142
-334 -208 -65 -34 -114 -58 -109 -52 6 5 44 37 85 70 121 98 354 353 337 369
-6 7 -260 -129 -305 -163 -18 -14 -35 -23 -37 -21 -7 7 64 121 122 199 57 76
54 79 -37 26 -54 -32 -208 -176 -269 -252 -24 -30 -19 -17 20 50 66 114 136
219 196 292 42 51 44 56 18 39 -67 -42 -138 -102 -197 -164 l-61 -66 29 49
c44 77 109 168 160 224 25 28 41 51 36 51 -36 0 -250 -192 -335 -300 l-27 -35
25 60 c102 239 313 473 520 575 93 46 209 79 280 79 l50 0 -65 -22z m472 -892
c114 -182 265 -306 461 -380 l68 -25 -51 62 c-47 58 -129 209 -146 268 -7 24
-5 23 19 -6 40 -48 182 -165 268 -222 42 -28 130 -78 196 -111 170 -85 208
-136 267 -357 19 -71 48 -176 66 -234 47 -157 50 -225 13 -331 -35 -101 -89
-186 -208 -324 -134 -155 -148 -189 -170 -428 -17 -184 -40 -288 -80 -367 -14
-29 -24 -54 -22 -56 8 -8 66 66 91 114 33 65 43 107 66 274 11 78 27 163 35
188 10 30 48 82 116 160 55 63 109 129 121 148 11 18 22 31 25 29 2 -3 -3 -51
-11 -108 -8 -57 -22 -171 -31 -254 -34 -326 -51 -397 -107 -477 -45 -62 -224
-254 -302 -322 l-64 -56 24 76 c14 42 23 79 21 81 -3 2 -28 -38 -56 -88 -76
-132 -118 -185 -185 -230 -32 -21 -91 -49 -130 -61 -65 -20 -92 -22 -311 -22
-152 0 -262 4 -300 12 -140 29 -236 107 -337 273 -32 52 -62 101 -67 109 -12
18 15 -81 35 -128 l14 -34 -48 41 c-94 80 -299 287 -331 334 -47 69 -68 137
-87 279 -8 67 -27 202 -41 298 -14 96 -27 193 -30 215 l-5 40 29 -35 c15 -19
66 -75 111 -125 130 -140 131 -142 171 -432 20 -140 67 -247 140 -317 l31 -29
-39 79 c-55 113 -68 163 -86 346 -17 173 -42 277 -80 338 -13 20 -60 77 -105
125 -103 112 -184 231 -215 321 -35 98 -33 186 6 344 16 69 39 166 49 216 46
219 113 311 326 447 39 25 119 81 178 126 58 44 106 78 106 75 0 -12 -105
-149 -154 -201 -27 -29 -44 -53 -39 -53 26 0 155 46 228 80 198 96 363 247
450 412 l30 58 23 -53 c13 -28 37 -74 54 -102z m1088 -388 c94 -54 74 -55 -35
-2 -38 19 -92 55 -120 80 l-50 46 60 -38 c33 -20 98 -59 145 -86z m-3276 97
c5 -14 4 -15 -9 -4 -17 14 -19 20 -6 20 5 0 12 -7 15 -16z m-90 -24 c60 -54
92 -186 80 -335 -8 -103 -19 -119 -94 -146 l-55 -20 67 4 68 3 6 -34 c4 -19 4
-91 2 -160 -5 -121 -6 -126 -32 -149 -20 -17 -39 -23 -74 -23 -34 0 -43 -3
-32 -10 20 -13 96 -13 120 0 17 9 19 4 25 -64 4 -41 4 -100 0 -133 l-7 -58
-75 -33 c-41 -19 -76 -32 -78 -30 -6 7 -46 126 -54 163 l-9 40 -1 -55 c0 -52
6 -95 23 -147 6 -20 -1 -27 -75 -63 l-81 -41 6 33 c4 18 9 128 12 243 5 178
10 225 31 305 17 65 27 142 33 245 8 159 9 161 47 242 22 46 25 63 22 143 -4
101 0 110 58 110 22 0 44 -10 67 -30z m731 -55 c-14 -76 -75 -252 -123 -355
-32 -70 -105 -291 -98 -298 2 -2 9 5 14 15 6 10 61 81 122 158 61 77 131 174
155 215 65 111 66 112 34 25 -37 -98 -87 -191 -177 -332 -122 -190 -190 -345
-209 -475 l-7 -53 -8 65 c-4 36 -6 101 -3 145 l4 80 -15 -45 c-8 -25 -23 -85
-33 -135 l-19 -90 -1 120 c-1 137 17 267 54 384 36 113 70 185 168 357 47 82
100 182 117 222 18 40 34 71 36 70 1 -2 -3 -35 -11 -73z m2991 -55 c23 -36 72
-105 108 -155 117 -160 211 -379 251 -585 21 -109 32 -379 17 -406 -10 -17
-11 -15 -12 16 0 43 -41 211 -73 305 -27 76 -70 172 -63 140 9 -37 19 -140 13
-135 -2 3 -19 41 -36 85 -39 97 -82 169 -181 303 -68 91 -160 245 -160 268 0
5 15 -9 33 -31 68 -84 252 -276 255 -267 5 17 -47 143 -107 256 -52 98 -131
297 -131 329 0 7 10 -4 22 -23 11 -19 40 -64 64 -100z m-3606 100 c0 -5 -2
-10 -4 -10 -3 0 -8 5 -11 10 -3 6 -1 10 4 10 6 0 11 -4 11 -10z m-263 -94 c-3
-41 -10 -82 -15 -91 -9 -17 -7 64 4 133 9 60 17 32 11 -42z m283 54 c0 -5 -4
-10 -10 -10 -5 0 -10 5 -10 10 0 6 5 10 10 10 6 0 10 -4 10 -10z m10 -24 c0
-3 -4 -8 -10 -11 -5 -3 -10 -1 -10 4 0 6 5 11 10 11 6 0 10 -2 10 -4z m5 -46
c3 -5 1 -10 -4 -10 -6 0 -11 5 -11 10 0 6 2 10 4 10 3 0 8 -4 11 -10z m14 -80
c0 -23 -1 -23 -9 -5 -5 11 -9 31 -9 45 0 23 1 23 9 5 5 -11 9 -31 9 -45z
m3783 -62 c15 -32 25 -58 23 -58 -6 0 -75 137 -75 147 1 11 19 -21 52 -89z
m-3792 -139 c-8 -19 -10 -14 -5 31 3 30 6 75 7 100 1 25 4 12 5 -31 2 -41 -1
-86 -7 -100z m3860 7 c0 -12 -5 -7 -19 24 -11 24 -11 24 3 6 9 -11 16 -24 16
-30z m40 -85 c16 -34 27 -61 25 -61 -5 0 -42 70 -56 108 -17 44 1 18 31 -47z
m-3904 8 c1 -16 -2 -32 -7 -35 -5 -3 -9 14 -9 37 0 47 14 45 16 -2z m12 -164
c0 -33 -4 -73 -8 -90 -5 -19 -8 9 -8 80 0 70 3 103 8 90 5 -11 8 -47 8 -80z
m617 -164 c-72 -144 -165 -380 -165 -422 0 -20 -5 -24 -41 -32 l-26 -7 9 53
c11 57 49 163 80 217 36 62 162 250 166 246 2 -2 -8 -27 -23 -55z m3025 -101
c34 -52 73 -117 87 -145 14 -27 29 -52 32 -55 18 -13 54 -100 71 -174 27 -111
27 -271 -1 -413 -11 -59 -22 -109 -24 -111 -2 -2 -3 54 -3 125 -1 275 -48 460
-193 761 -38 80 -69 147 -69 150 0 9 37 -42 100 -138z m-3642 -20 c0 -32 -1
-33 -8 -10 -4 14 -8 39 -8 55 -1 25 1 27 8 10 5 -11 8 -36 8 -55z m-1 -132
c-2 -18 -4 -4 -4 32 0 36 2 50 4 33 2 -18 2 -48 0 -65z m130 -15 c-2 -21 -4
-4 -4 37 0 41 2 58 4 38 2 -21 2 -55 0 -75z m3383 -123 l24 -51 -22 -67 c-30
-93 -74 -160 -117 -178 -40 -16 -71 -18 -80 -5 -3 6 2 57 11 116 17 106 17
106 51 120 38 16 66 45 84 88 6 15 15 27 19 27 3 0 17 -23 30 -50z m-2830 10
c13 -32 85 -100 106 -100 7 0 18 -38 29 -97 9 -54 19 -106 21 -115 4 -15 -1
-18 -29 -18 -71 0 -125 61 -168 189 -21 63 -21 64 -3 117 10 30 21 54 25 54 4
0 12 -14 19 -30z m-96 -265 c14 -36 26 -78 26 -93 0 -25 -2 -24 -29 18 -19 30
-30 63 -33 97 -3 29 -2 50 2 48 4 -3 20 -34 34 -70z m3340 -195 c-7 -36 -14
-77 -14 -92 0 -16 -5 -28 -11 -28 -7 0 -8 7 -4 18 3 9 12 69 18 132 10 95 13
108 18 75 4 -23 1 -68 -7 -105z m-213 -195 c25 -172 22 -275 -12 -395 -19 -71
-87 -215 -96 -206 -3 2 0 13 5 23 25 49 59 266 47 310 -6 25 -10 17 -36 -62
-31 -97 -108 -240 -172 -320 -46 -57 -45 -56 7 45 99 191 185 494 212 745 9
87 14 72 45 -140z m164 -31 c-14 -43 -30 -88 -35 -99 -16 -37 -29 -90 -40
-172 -11 -86 -37 -178 -71 -250 -10 -24 -19 -46 -19 -51 0 -7 -42 -60 -121
-151 -16 -18 -33 -31 -36 -27 -4 4 16 30 43 59 59 61 88 106 132 203 32 72 71
223 72 279 0 17 18 85 40 150 51 152 50 149 55 143 3 -3 -6 -40 -20 -84z
m-3466 -32 c5 -9 15 -46 22 -80 14 -69 8 -85 -41 -97 -43 -10 -63 14 -68 83
-4 55 -2 63 21 86 30 30 53 33 66 8z m-205 -333 c8 -42 7 -101 -2 -116 -10
-15 -61 -35 -73 -27 -5 3 -9 32 -9 65 0 52 4 63 26 84 36 33 50 31 58 -6z
m-249 -205 c-19 -29 -45 -32 -45 -5 0 27 18 72 38 95 16 18 17 16 20 -24 2
-26 -3 -51 -13 -66z m759 -50 c20 -42 53 -100 73 -128 l37 -51 -34 30 c-57 51
-90 88 -116 131 -21 36 -23 45 -13 68 7 14 13 26 14 26 2 0 19 -34 39 -76z
m2789 -62 c-11 -24 -49 -67 -93 -106 -74 -65 -90 -75 -90 -56 0 6 3 10 8 10
13 0 133 122 160 162 31 48 39 43 15 -10z m-2877 -34 c-9 -5 -16 -16 -16 -24
0 -8 -11 -37 -25 -64 -14 -27 -25 -56 -25 -64 0 -8 -6 -21 -12 -28 -7 -7 -20
-26 -28 -43 -8 -16 -19 -35 -25 -42 -5 -6 -21 -26 -35 -44 -27 -37 -103 -113
-143 -143 -13 -11 -31 -33 -40 -50 -16 -31 -84 -208 -107 -279 -6 -21 -14 -37
-15 -35 -7 7 42 164 72 233 17 39 34 80 37 92 4 12 28 38 54 59 59 47 76 64
137 139 49 60 122 203 146 282 10 35 15 41 26 31 12 -10 12 -13 -1 -20z m2841
-63 c-4 -8 -11 -15 -17 -15 -7 0 -7 6 0 21 13 23 26 19 17 -6z m45 -15 c-25
-28 -52 -40 -52 -22 0 8 61 52 71 52 4 0 -5 -13 -19 -30z m-2776 -22 l29 -33
-32 29 c-31 28 -38 36 -30 36 2 0 16 -15 33 -32z m179 -121 c6 -5 -13 2 -42
17 -28 14 -55 31 -59 37 -7 11 82 -36 101 -54z m2580 -7 c3 -6 -1 -7 -9 -4
-18 7 -21 14 -7 14 6 0 13 -4 16 -10z m-2486 -26 c2 -2 2 -7 -1 -10 -4 -3 -19
2 -35 11 l-28 16 30 -6 c16 -4 32 -9 34 -11z m36 -15 c11 -17 -1 -21 -15 -4
-8 9 -8 15 -2 15 6 0 14 -5 17 -11z"/>
<path d="M2785 3645 c19 -8 218 -35 259 -35 23 1 79 10 126 21 l85 19 -100 -6
c-126 -9 -108 -9 -255 -1 -69 4 -120 5 -115 2z"/>
<path d="M2800 3511 c47 -10 113 -25 146 -34 80 -22 113 -21 211 3 44 12 112
27 149 35 l69 15 -75 -4 c-41 -2 -117 -12 -167 -22 -88 -17 -98 -17 -180 -1
-49 9 -122 19 -163 21 l-75 5 85 -18z"/>
<path d="M2951 3305 c-2 -78 -45 -155 -88 -155 -4 0 -16 13 -25 29 -12 22 -26
32 -55 36 -64 11 -421 95 -448 105 -15 6 -41 10 -58 10 -39 0 -140 -46 -186
-86 -38 -32 -115 -147 -102 -152 5 -2 55 16 111 39 93 37 110 41 164 36 34 -3
111 -21 173 -39 l112 -34 -92 -12 c-121 -15 -201 -43 -278 -97 -68 -49 -97
-54 -156 -30 -33 14 -34 14 -22 -2 34 -41 144 -67 187 -44 12 6 35 3 72 -9 84
-29 103 -24 43 10 -29 17 -53 32 -53 34 0 7 67 46 79 46 6 0 11 -5 11 -11 0
-28 34 -78 61 -89 38 -16 114 -7 140 16 10 9 22 35 25 56 4 21 12 38 18 38 13
0 82 -67 75 -74 -2 -2 -17 -11 -34 -19 l-30 -16 57 -1 c31 0 63 -3 72 -6 33
-13 29 26 -8 66 -20 22 -36 42 -36 45 0 8 61 -25 97 -52 18 -14 35 -33 38 -43
7 -21 -15 -68 -55 -120 -47 -61 -45 -66 5 -22 52 45 105 115 105 138 0 7 5 16
11 20 9 5 10 -17 5 -82 -6 -72 -3 -108 13 -183 12 -52 24 -97 27 -100 4 -3 4
44 0 106 -4 68 -3 145 4 197 12 85 12 86 -18 150 l-30 64 30 22 c59 44 86 163
53 235 l-13 30 -1 -50z m-511 -315 c0 -13 -7 -20 -20 -20 -13 0 -20 7 -20 20
0 13 7 20 20 20 13 0 20 -7 20 -20z"/>
<path d="M3127 3320 c-23 -82 5 -184 62 -233 l32 -26 -30 -53 c-27 -48 -29
-57 -20 -98 6 -25 14 -130 17 -235 l7 -190 20 100 c14 69 19 133 18 205 -2 96
-1 102 11 74 14 -32 78 -91 138 -127 l33 -21 -32 35 c-47 51 -83 109 -83 134
0 24 36 62 90 94 53 32 55 26 11 -30 -22 -28 -39 -55 -36 -59 3 -4 26 -3 52 2
27 5 58 6 71 3 33 -8 27 4 -8 16 -16 6 -30 15 -30 21 0 5 16 26 36 46 38 38
54 33 54 -14 0 -12 11 -33 25 -48 21 -23 32 -26 85 -26 51 0 65 4 86 25 13 13
27 38 30 55 4 16 9 30 11 30 10 0 83 -44 83 -49 0 -3 -19 -18 -43 -33 -35 -23
-38 -28 -19 -28 12 0 39 7 58 15 25 10 53 13 93 9 69 -8 119 6 152 43 l24 26
-32 -17 c-55 -28 -97 -21 -170 29 -76 52 -164 82 -278 92 l-80 8 130 44 c156
52 188 52 320 -2 111 -46 120 -47 101 -9 -41 79 -97 132 -181 174 -96 48 -70
49 -295 -10 -63 -17 -167 -41 -230 -53 -113 -22 -148 -39 -162 -80 -4 -11 -10
-10 -33 7 -46 33 -66 68 -74 125 -5 44 -8 49 -14 29z m502 -314 c9 -10 8 -16
-4 -26 -19 -16 -41 1 -32 24 8 20 21 20 36 2z"/>
<path d="M2991 3059 c-18 -11 -32 -22 -30 -24 2 -2 25 1 51 7 33 8 58 8 89 0
57 -14 60 -8 10 17 -51 26 -77 26 -120 0z"/>
<path d="M3973 2890 c18 -12 159 -41 165 -35 9 9 -75 36 -127 41 -43 4 -52 3
-38 -6z"/>
<path d="M2013 2860 c-24 -10 -43 -21 -43 -23 0 -6 150 29 157 37 15 15 -76 4
-114 -14z"/>
<path d="M2184 2828 c15 -23 39 -39 79 -52 27 -8 21 -1 -25 30 -71 48 -71 48
-54 22z"/>
<path d="M3882 2815 c-28 -20 -52 -38 -52 -40 0 -10 75 33 94 54 26 29 19 27
-42 -14z"/>
<path d="M2565 2794 c-38 -18 -95 -40 -125 -48 l-55 -15 51 0 c60 -1 141 21
207 57 97 52 29 58 -78 6z"/>
<path d="M3420 2825 c0 -3 26 -18 58 -34 63 -31 143 -51 200 -50 l37 1 -45 13
c-25 7 -80 26 -123 44 -69 28 -127 40 -127 26z"/>
<path d="M2742 2434 c-50 -35 -267 -355 -346 -511 -20 -39 -36 -147 -24 -165
5 -9 8 -4 8 13 0 61 40 154 96 224 30 39 83 111 117 160 l61 90 9 -37 c14 -58
70 -103 147 -116 39 -7 79 -22 103 -39 78 -55 101 -67 150 -78 46 -10 52 -15
60 -46 5 -19 7 -51 4 -71 -6 -48 0 -48 19 -1 12 26 14 52 9 91 -5 44 -3 57 11
73 30 33 79 59 133 69 107 20 150 56 161 133 l5 39 80 -108 c44 -59 100 -131
124 -159 55 -63 87 -132 100 -214 14 -89 25 -91 18 -3 -8 93 -31 144 -150 324
-148 225 -270 368 -294 344 -4 -3 3 -16 15 -29 26 -27 52 -98 52 -141 0 -45
-26 -79 -50 -66 -49 26 -107 6 -195 -66 -75 -61 -128 -58 -227 15 -76 55 -128
70 -162 47 -13 -8 -27 -11 -33 -8 -15 10 -33 48 -33 70 0 38 32 125 55 148 33
33 17 46 -23 18z"/>
<path d="M3218 2405 c4 -22 7 -64 6 -94 -1 -54 -1 -54 18 -31 24 30 23 55 -7
115 l-24 50 7 -40z"/>
<path d="M2886 2401 c-20 -37 -21 -95 -2 -110 11 -10 14 1 18 61 3 40 4 75 2
76 -1 2 -10 -10 -18 -27z"/>
<path d="M2775 1724 c-146 -50 -213 -57 -222 -24 -7 27 -28 25 -52 -6 -28 -36
-33 -57 -21 -90 l11 -29 19 25 c18 24 24 25 122 25 57 0 143 4 191 9 63 7 112
5 174 -4 72 -11 97 -11 162 0 86 16 102 16 261 5 81 -5 128 -4 159 4 41 12 45
11 70 -13 15 -14 30 -26 34 -26 4 0 7 18 7 40 0 30 -7 47 -25 65 -29 30 -55
32 -55 5 0 -14 -9 -21 -35 -26 -27 -5 -70 5 -183 40 -81 25 -161 46 -179 46
-17 0 -55 -11 -83 -24 -55 -26 -64 -25 -130 9 -44 23 -83 18 -225 -31z"/>
<path d="M3380 1503 c-63 -26 -71 -26 -300 -26 -220 -1 -238 1 -289 22 -29 12
-55 20 -57 18 -7 -6 93 -96 121 -109 32 -14 32 -20 -4 -41 -37 -22 -106 -105
-76 -92 108 46 164 59 290 63 141 4 230 -10 306 -49 23 -11 42 -19 44 -17 10
10 -44 74 -83 98 l-46 28 35 16 c35 15 152 116 134 115 -5 0 -39 -12 -75 -26z"/>
<path d="M3554 1318 l-19 -23 23 19 c12 11 22 21 22 23 0 8 -8 2 -26 -19z"/>
<path d="M830 2780 c-12 -8 -11 -10 5 -9 11 1 31 5 45 9 24 8 24 8 -5 9 -16 0
-37 -4 -45 -9z"/>
<path d="M601 2725 c1 -19 18 -51 18 -35 0 8 -4 22 -9 30 -5 8 -9 11 -9 5z"/>
<path d="M3027 4988 c15 -7 30 -7 50 0 26 10 24 10 -22 11 -42 0 -46 -2 -28
-11z"/>
<path d="M956 2358 c-8 -12 -18 -36 -21 -53 -6 -22 -1 -17 19 20 27 51 28 74
2 33z"/>
<path d="M1037 2322 c-18 -20 -41 -76 -28 -67 5 3 24 23 41 45 21 27 27 40 17
40 -7 0 -21 -8 -30 -18z"/>
<path d="M857 2059 c-22 -13 -47 -68 -47 -101 0 -17 8 -9 30 31 16 29 35 60
41 67 14 17 1 18 -24 3z"/>
<path d="M914 1965 c-14 -25 -24 -48 -21 -51 7 -7 67 68 67 83 0 26 -20 12
-46 -32z"/>
<path d="M1293 1906 c-40 -35 -26 -37 32 -4 44 24 47 28 23 28 -15 0 -40 -11
-55 -24z"/>
<path d="M1731 1883 c-1 -6 -4 -20 -7 -30 -5 -17 -5 -17 6 0 6 10 9 23 6 30
-3 9 -5 9 -5 0z"/>
<path d="M1320 1849 l-35 -20 30 6 c17 4 37 13 45 21 20 20 1 17 -40 -7z"/>
<path d="M696 1721 c-17 -18 -39 -81 -32 -89 3 -2 17 19 31 48 28 56 29 72 1
41z"/>
<path d="M783 1688 c-13 -16 -43 -75 -43 -83 0 -15 22 10 41 47 20 40 21 60 2
36z"/>
<path d="M1125 1545 c-22 -19 -35 -35 -29 -35 16 0 77 43 82 58 6 20 -11 13
-53 -23z"/>
<path d="M945 1400 c-16 -16 -24 -30 -18 -30 10 0 34 24 47 48 12 20 2 14 -29
-18z"/>
<path d="M902 530 c-37 -41 -73 -69 -120 -92 -62 -31 -74 -33 -167 -33 -55 0
-116 4 -135 8 -34 8 -34 7 -15 -9 11 -9 44 -28 74 -42 135 -63 299 -9 377 124
20 34 48 105 41 104 -1 0 -26 -27 -55 -60z"/>
<path d="M4380 411 c56 -104 193 -210 320 -246 25 -7 25 -7 -5 25 -32 34 -320
273 -337 279 -6 2 4 -24 22 -58z"/>
<path d="M1018 408 c-44 -26 -59 -54 -86 -168 -22 -87 -39 -209 -29 -200 3 3
26 62 50 132 25 70 61 157 80 193 19 36 32 65 28 65 -3 0 -23 -10 -43 -22z"/>
<path d="M1859 236 c-79 -68 -157 -138 -174 -156 l-30 -31 29 11 c88 33 190
96 232 143 43 48 100 144 91 153 -2 2 -69 -52 -148 -120z"/>
<path d="M800 320 c-109 -33 -214 -38 -300 -15 -30 8 -56 12 -58 10 -8 -7 92
-66 133 -77 22 -6 41 -13 43 -14 2 -1 -4 -39 -12 -84 -24 -122 -20 -124 34
-20 l50 95 95 49 c52 27 102 57 111 67 21 23 21 23 -96 -11z"/>
</g>
</svg>
