<svg xmlns="http://www.w3.org/2000/svg" width="1365.333" height="1365.333" viewBox="0 0 1024 1024"><path d="M557.6 87.6c-29.4 4.5-66.1 21.4-102.3 47.1-29.1 20.6-64 56.3-82.4 84.3-17.3 26.2-31.8 62.6-43.9 109.5-12 46.8-13.6 51.5-28.5 84.5-5.3 11.8-11.2 25.9-13 31.2-3.7 10.5-9.5 35.7-11.7 50.3-1.4 9.8-1.8 56.8-.5 64.5l.7 4.5-3.2-5.5c-7.4-12.6-17.3-19.2-29.6-19.8-15.5-.9-27 3.2-70.7 24.8-30.3 15-49.2 23.7-64 29.6-15.4 6.2-30.7 19-36.4 30.5-6 12.2-5.9 20.9.8 50.9 3.3 15.3 4.5 22.5 6.6 43 .9 8 2.7 21.7 4 30.5 3.4 22.7 10.2 77 12 96.1.8 8.8 1.6 22.6 1.7 30.5l.1 14.4-12.6 50c-6.9 27.5-14.6 57.6-17.1 66.8-2.5 9.3-4.6 17.3-4.6 17.8s3.3.9 7.3.9h7.2l4.9-18.8c12.2-46.8 22.8-89.7 24.9-100.2 1.8-9.7 2.2-14.7 2.1-32 0-23.7-.9-31.7-9.9-95.5-3.6-24.8-7.6-54-9-65-2.9-22.9-4-29-9.1-50.5-5.7-24.5-4.1-32.7 9.1-44.8 7.1-6.5 16.8-11.9 38.5-21.5 6.9-3 23.3-10.8 36.5-17.2 52.2-25.4 62.9-29.7 74.5-29.8 10.8-.1 16.3 3.1 23.4 13.8 1.4 2.2 2.6 4.5 2.6 5.1 0 .7-2.8 1.3-6.7 1.7-18 1.5-45.2 8.8-76 20.3-18 6.8-28.6 9.8-38.8 11-5.5.6-5.8.7-3 1.6 5 1.4 18.6 1.1 25.5-.7 3.6-.9 14.8-4.3 25-7.5 35.5-11.3 62.6-16.9 86.5-17.7 14-.5 15.3-.4 19.7 1.7 5.6 2.6 12.3 9.5 14.8 15.3 2.1 4.7 4.3 16.3 3.8 19.6-.3 2.1-.7 2.2-20.3 2.5-22 .3-28.3 1.2-64 9.1-22.7 5-30 6.2-43.5 7.3l-9.5.8 4 1.3c10.1 3.3 29.1 2.4 54.5-2.5 23-4.4 38.4-6.5 53.1-7.1 39.4-1.6 51.4 6.7 51.4 35.7 0 14.4-.3 15.3-4.7 13.8-2.2-.8-18.4-1.3-49.6-1.5-35.9-.2-48.4-.6-55-1.8-4.8-.8-9.6-1.5-10.7-1.5-1.9 0-1.8.2.4 1.9 3.3 2.6 13.3 5.9 21.6 7.1 3.9.6 24.6 1.5 46 2 49.5 1.1 53.8 1.9 60.5 11.1 5.3 7.4 6.5 12.7 6.3 28.9-.2 15.1-2.5 40.4-4.3 46.8-2.5 9.4-7.3 13.2-29 23.2-10.2 4.8-13.5 5.9-14.1 4.9-2.2-3.6-2.3-26.9-.2-29 .5-.5 3.9.3 7.6 1.6 8.8 3.2 25.7 3.6 25.7.5 0-.4-2.3-1-5-1.4-8.2-1.1-17.4-4.4-20-7.1l-2.4-2.5 8.5-8.8c4.7-4.8 9.8-10.4 11.3-12.4 2.9-3.9 7-13.7 6.1-14.6-.3-.3-2.1 1.3-3.9 3.5-7.7 8.9-22.6 19.2-27.9 19.3-1 0-4.8-3.2-8.4-7-6.6-7-17.2-15-20-15-.8 0 2 3.3 6.1 7.3 7.4 7.2 12.6 15.5 12.6 20.3 0 3-3.8 8.3-8.8 12.1-3.3 2.5-5.4 3.3-8.5 3.4-2.3 0-5 .4-6 .8-1.7.6-1.6.8.8 1.9 1.5.7 4.7 1.5 7.1 1.9 4.4.6 4.5.7 7.8 7.7 7.2 15.2 12.1 37.6 13.2 60.5 1.5 30.1-5.9 57.5-19.1 70.4-8.6 8.6-22.9 15.1-40.2 18.2-4.8.9-9.2 2-9.7 2.5-1.3 1.3 9.7 2.5 22.2 2.4 12.4-.1 12.1-.3 9.6 6.7-2.3 6.5-8.6 33.3-13.8 58.8-2.6 12.4-4.9 23.5-5.2 24.8-.6 2.2-.4 2.3 6.4 2.3h7.1l1.5-7.3c.9-3.9 1.9-9 2.4-11.2l.7-4 21.6-11c11.8-6.1 24.7-12.8 28.5-14.9 14.5-8.2 82.7-50.3 108.1-66.7l18.2-11.7.5 4.1c.3 2.3 2.4 20.6 4.6 40.7 4.2 37.3 4.8 41.6 5.6 40.8.7-.8 3.3-21.5 4.4-35.7 2-26.2 1-51.8-4.5-119.6-1.2-16-2.2-29.1-2-29.3.1-.2 4.7 4.8 10.1 11s16.2 18 23.9 26.2c33.6 35.6 39.4 43.6 60.5 82.1 14.9 27.4 23.7 39.9 49.3 70.8 5 5.9 9.2 10.6 9.3 10.4.2-.2-1.9-5.7-4.7-12.3-13.4-31.6-26.4-66.3-25.7-68.4.4-1.2 16.8 8.5 26.5 15.6 16.2 12 24.3 14.9 40.3 14.2 9.2-.4 11.5-.8 17.1-3.5 7.3-3.4 18.9-11.8 29.9-21.6 4.1-3.7 7.6-6.3 7.8-5.8.2.7-17.8 49.5-27.6 74.8-2.2 5.7-3.7 10.3-3.4 10.3 3.1 0 28.5-27.7 41.7-45.5 14.8-19.9 21.7-32.1 40.9-72.4 17.3-36.2 21.5-43.2 40.7-68.8 9.2-12.3 19.8-26.9 23.6-32.4 6.6-9.8 6.8-10 7-6.8.1 1.9.7 44.1 1.3 93.9.7 49.8 1.5 91.1 2 91.9.9 1.7 8.4-28.6 10.5-42.4 1.7-12.3 3.5-37.3 3.5-50.6V859l11.3 7.4c19.6 12.9 36.7 22.2 99.2 53.8 33.6 17.1 64.2 32.7 68.2 34.9 4 2.1 7.5 3.9 7.8 3.9s.4-3.9.3-8.7l-.3-8.7-63-31.6c-34.6-17.3-67.3-34-72.5-36.9-12.4-7-32.8-19.5-36-22.1l-2.5-2 3.7-3.3c2-1.7 6.4-5.7 9.8-8.7 7.3-6.4 17.9-19.2 23.3-28 2.1-3.4 4-6 4.2-5.8.6.6-8.9 25.7-11.9 31.6-1.5 3-2.5 5.6-2.2 5.9 2 2.1 29.9-24.8 37.2-36C927.2 784 936 757.8 939 729c.5-5.8 2-13 3.1-16 5.5-14.4 12.9-39.7 14.8-50.5 1.1-6.6 2.7-18.9 3.5-27.4.8-8.4 1.7-15.5 1.9-15.7.2-.3.8 2.7 1.1 6.7.8 8.1 2.1 12.3 3 9.9s2.4-12.4 4.6-29.5c1.1-8.8 2.7-20.5 3.6-26 2.1-14.1 2.9-46.4 1.5-61-2.3-23.5-6.5-43.9-13.3-64.5-5.1-15.7-8.7-23.8-23.3-53s-19.4-40.3-30.1-70c-21.4-59.2-27.3-73.9-37-93-29.9-58.8-93.5-115.8-156.7-140.5-31.3-12.2-55.2-14.4-83.8-7.4l-13.1 3.1-9.1-2.6c-19-5.4-35.3-6.6-52.1-4m137.9 25.5c18.7 3.3 40.9 12 55.2 21.5 16.7 11.1 40.2 36.4 52.9 56.7 5.7 9.2 17.4 30.8 17.4 32.2 0 .4-5-4.5-11.1-10.9-12.6-13.1-22.7-21.9-34.7-29.9-7.6-5.1-27-15.7-28.7-15.7-.4 0 2.9 3.8 7.3 8.5 21.2 22.3 32.4 39.8 43.6 67.7 5.5 13.6 9.9 26.8 9.3 27.4-.2.2-3-4-6.2-9.4-3.2-5.3-8.3-13.1-11.4-17.2-7.1-9.6-22.6-25.2-31.5-31.7-7.5-5.6-24-14.7-25.6-14.1-.6.2 1.4 3.7 4.3 7.8s7.2 10.5 9.5 14.2c4.2 6.8 17.7 31.8 17 31.8-.1 0-5-4.6-10.8-10.3-5.8-5.6-13.6-12.8-17.5-15.8-8.3-6.7-18.8-14-19.3-13.5-.6.7 6 22 9.9 32.1 7.4 18.5 20.9 42 31.1 53.7 2.7 3.2 4.7 5.8 4.4 5.8-.4 0-4.6-2.4-9.4-5.4-31.4-19.6-71.1-60.7-86.6-89.6-3.4-6.3-4.7-8-5.2-6.7-.3 1-.4 12.2-.1 25 .4 20.9.8 24.6 3.6 37.8 1.7 8.1 4.4 18.5 6 23.3 3.3 10 2.5 9.8-5.3-1.3-10-14.1-19.7-35.7-23.4-51.6-3-12.5-6-42.7-4.1-40.7.4.4 3 5.7 5.7 11.8 4.3 9.3 9 18.4 9.5 18.4.1 0 .2-5.1.3-11.3.1-6.1.7-14.5 1.3-18.5 1.3-7.1 1.2-7.3-1.4-11.8-1.5-2.5-2.5-4.7-2.3-5 .8-.7 18.4 10.2 26.4 16.4 9 6.9 15.8 13.2 22.8 21.2l4.9 5.5-.8-3.5c-3.6-16.7-9.4-30.9-17.2-41.7-2.9-4-4.9-7.3-4.5-7.3 3.6 0 28.6 11.6 38.1 17.7 2.9 1.9 5.5 3.3 5.7 3.1.1-.2-1.7-4.4-4-9.3-9.2-18.9-25.8-33.9-48.1-43.1l-8-3.3 12.2-.1c14.1 0 23.1 1.5 37.9 6.5 5.9 1.9 10.9 3.4 11.1 3.1.6-.6-12-11.5-18.4-15.9-8.5-5.7-16.5-9.6-27.8-13.4l-10-3.3 10 .5c5.5.2 12.7 1 16 1.6m-133 1.5c-.5.2-4.9 1.5-9.8 2.9-10.8 3.1-25.5 9.9-35 16.2-4 2.6-11.6 9-16.9 14.2-9.6 9.2-12.5 13.1-7 9.3 4.4-3.1 18.9-8.8 29.2-11.6 9.9-2.7 24.1-5 37-6l7.5-.6-7 3.8c-14.5 7.8-25.2 16.1-37.7 29-8.6 8.8-20.5 24.8-19.4 25.9.2.2 3-1.3 6.2-3.3 7.4-4.7 22.5-11.8 37.7-17.8 6.5-2.5 12.1-4.6 12.3-4.6.8 0-12.3 17.4-26.4 35.2-7.9 9.9-14.2 18.2-13.9 18.4.6.6 23.7-11.4 31.2-16.1 11.7-7.5 21.1-14.9 30.8-24.3 5.3-5.3 9.7-9.3 9.7-8.9 0 4.9-28.8 49.8-35.8 56.1-4.7 4.1-1.7 3.5 8.7-1.9 16.7-8.7 27.3-17.9 42.4-36.5l2.9-3.5-.7 8c-2 23.7-15.3 58-30.8 79.7-7.2 10-21.7 27.2-22.4 26.5-.2-.3 1.1-2.9 3-5.8 10.9-17.1 23-46.7 25.3-61.9l.6-4.5-11.8 12.1c-16.9 17.1-31.6 29-48.9 39.4-3.9 2.4-3.8 2.2 3.1-6 7.2-8.6 12.4-15.9 12.4-17.2 0-.4-6.4 4.1-14.3 10-16.2 12.2-32.8 23-49.7 32.2-10.8 5.9-28 14.2-28 13.6 0-.2 5.3-4.3 11.7-9.2 13.4-10.1 35.8-31.9 48.7-47.4 9.2-11 19.9-26 19.1-26.8s-43.6 22.7-54.3 29.8l-10.3 6.8 4.7-8.6c5.8-10.9 15.7-25.9 23.5-35.8 3.4-4.2 5.9-7.7 5.7-7.9-.6-.5-18.1 10.2-25.9 15.9-10.9 8.1-23.7 21.1-33.9 34.2-13.8 17.9-13.2 17.3-11.9 14.4 2-4.1 16.8-29.7 23.7-41 6.9-11.2 17.6-26.1 25.1-35 5.3-6.3 3.9-6.1-6.2 1-12.4 8.5-25 20.5-37.5 35.5l-3.3 4 2.2-4.5c6.3-12.9 22.4-36.4 35-51 6.4-7.4 6.4-7.5 2.4-5.1-18.8 11-45.3 35.7-58.8 54.8-2.8 4-5.2 7.1-5.4 6.9-.6-.6 10.6-24.7 15.9-34.1 12.9-23 31.6-46.1 50.8-62.6 20.1-17.4 48.3-31.3 71-34.9 4.1-.6 8.2-1.3 9-1.5 2.3-.4 15.6-.4 14.5.1m67 163.4c11.3 22.4 31.6 45.1 53.5 59.8 9.1 6 21.6 12.4 34.5 17.7 5 2 9.7 3.9 10.5 4.3.8.3.2-1-1.4-2.9-10.5-12.9-19.3-25.9-24-35.4-4.6-9.5-10.6-24.2-10.6-26.3 0-.3 5.3 4.8 11.8 11.4 24.6 25.1 46.2 40.1 84.6 59 22.5 11.1 32.3 26.1 41.4 63.4 2.8 11.3 7.5 29 10.5 39.5 6.8 23.4 8.2 31.7 7.4 44.3-1.2 20.4-12.5 44.6-31.3 66.8-3.8 4.5-10.5 12.4-14.8 17.5-13.5 16-19 25.7-22.2 39.6-.8 3.4-2.3 16.7-3.5 29.4-2.1 25.1-5.6 47.4-9 58.5-1.2 3.8-4.5 12.3-7.5 18.8-3 6.6-5.2 12.1-5 12.3.9.9 11.8-12.6 15.7-19.4 7.5-13.2 11.6-27.8 14.5-52.5 3.7-31.5 6.5-43.2 12.2-51.6 1.5-2.2 8.1-10.1 14.6-17.6 6.6-7.5 15.5-18.4 19.8-24.2 4.4-5.8 8.1-10.4 8.4-10.2.2.3-.5 6-1.7 12.9-1.1 6.8-3.8 28.4-5.9 47.9-6.4 57.9-7.1 63.1-9.6 72.7-4.2 16.7-9.9 25.4-34.4 51.8-15.9 17.2-41.8 43-42.4 42.4-.3-.2.8-4.2 2.4-8.7 3.1-8.6 6.3-21.2 5.7-21.9-.3-.2-3.9 5.8-8.2 13.4-16.8 29.6-25.3 40.7-37.5 48.8-18.8 12.5-34.7 15.6-81.5 15.6-44.2.1-60.6-3-78.6-14.6-13-8.4-23.3-21.3-38.8-48.4-3.9-6.8-7.3-12.6-7.6-12.9-1.2-1.2 1.1 7.1 5.1 18.8 2.4 6.8 4.2 12.5 4 12.7-.5.6-32.5-29.8-46.7-44.4-16.1-16.6-21.3-22.9-25.7-31.8-6.8-13.4-9.1-23.9-13.2-58.9-3.6-30.7-9.5-73.8-11.5-84.2-.8-4.3-1.3-7.9-1.1-8.1.1-.2 1.9 2.1 3.9 5.2 3.5 5.2 11.2 14.3 30.2 35.5 9 10.1 13.3 17.1 15.9 26 .9 3 3 16.1 4.6 29 3.6 28 5.3 36.9 9 47.3 3.7 10.1 8.9 18.5 16.8 27.2 7.5 8.1 9.6 9.4 6.1 3.9-4.2-6.8-11-21.6-13.9-30.4-3.8-11.2-5.7-22.7-7.5-45.1-4.1-49.8-7.1-58.2-29.2-82.5-19.9-21.8-29.6-34.9-37.8-51.4-12.6-25.1-13.1-40.8-2.6-82.8 1.6-6.4 4.8-20.5 7.1-31.2 5-23.9 7.7-32.3 13.5-42.4 9.8-17.3 18.8-25.8 47.5-44.9 19.1-12.8 28.9-20 41.7-30.9 5.1-4.3 9.5-7.8 9.8-7.8 1.9 0-22.2 32.3-32 42.7-4.2 4.6-7.5 8.3-7.2 8.3 3.2 0 34.3-11.5 44.3-16.4 35.9-17.6 65.7-45.9 82.4-77.8l4.4-8.6 3.2 7.2c1.7 3.9 4.8 10.5 6.9 14.6M800 337.6c9 6.2 29.2 18 41.2 24 4.9 2.4 8.8 4.6 8.8 4.9 0 .7-10-2.5-18.8-6.1-10.5-4.2-26.5-14.7-35.1-23.1-7.4-7.2-6.9-7.2 3.9.3m-446.4 13.5c-3.2 17.3-9.8 37.2-20.4 61.9-4.4 10.2-9.8 23.9-12.1 30.5-4.3 12.7-9.3 30.6-8.7 31.2.2.2 1.9-2 3.7-4.9 1.9-2.9 9.9-13.4 17.8-23.3 18.1-22.7 29.4-39 37.2-53.9 3.3-6.4 6.2-11.6 6.4-11.6.9 0-8.6 24.4-14.4 37.2-4 8.7-12 22.6-23 39.6-12.8 20-21.1 35.3-26.9 49.9-5.2 13.1-10.5 31.8-11.7 41.8-.4 3-1.1 5.7-1.5 6-2.1 1.3-1.7-36.6.5-52.5l.5-3.5-1.5 3.3c-2.5 5.5-7.2 24.8-9 37.2-2.9 19.8-3.5 17.3-3.1-12 .4-29.2 1.5-39.8 6.2-58.4 5.8-23.2 11.4-35.9 33.5-75.8 14.9-26.9 27.9-53.4 27.9-57 0-.6.3-.9.6-.5.3.3-.6 6.9-2 14.8m531.8-4.3c6.5 11.9 14.8 24.6 25.3 38.4 14.5 19.3 24.4 36.9 34.1 60.8 12.7 31.4 18.6 59.6 19.9 95.5.5 15.2-.3 43.2-1.3 42.3-.2-.2-1-5.3-1.9-11.4-4-29-10.9-53.6-23-81.8-.9-2.1-1.8-3.6-2-3.4-.3.2.2 3.6 1 7.4 1.9 9.2 3 25.2 1.4 20.9-12.2-32.7-18.8-45.2-35.1-66.3-11.8-15.3-21.1-30.1-28.5-45-3.6-7.3-6.4-13.4-6.2-13.7.2-.2 4.1 4.2 8.6 9.8s14.6 17.2 22.5 25.7c7.8 8.6 16.7 18.2 19.5 21.5 5.1 5.8 5.2 5.9 4.3 2.5-3.8-13.6-7.8-23.3-17.7-42.8-13-25.6-18.8-39.6-23.8-57.2-3.3-11.7-4-14.9-3.1-13.9.2.2 2.9 5 6 10.7M357.9 499.6c-22.4 48.8-27.4 64.8-30.5 97.4l-.7 7.5-1.4-6c-.7-3.2-2.7-8.3-4.4-11.3-2.9-5.1-2.9-5.5-1.9-11.5 2.9-16.6 10-36.6 18.6-52.4 5.2-9.5 28.4-44.6 29.1-44 .2.3-3.7 9.4-8.8 20.3m541.9-6.4c11.7 16.5 19.8 29.8 26.4 43.3 3.1 6.6 5.8 11.3 5.8 10.5.1-2.5 5.9 9 9 17.8 6 17 7.4 26.4 7.4 50.7 0 19.5-.3 23.6-2.7 36.5-1.5 8-3.5 17.9-4.6 22l-1.8 7.5.5-20c1-40.6-4.1-72.8-17.3-109.5-4.7-13.2-8.7-22.2-21.4-48.3-5.6-11.5-10.1-21.1-10.1-21.3 0-1.2 1.4.5 8.8 10.8M886 561c3.7 8 4.2 9.7 3.7 13.8-1.2 9.5-8.6 27.8-14.5 35.8-3.9 5.4-11.9 9.4-18.4 9.4-3.4 0-5-.5-5.4-1.5-.4-.8.4-8.4 1.6-16.8 1.2-8.3 2.4-16.9 2.7-19.1.5-3.3 1.1-4.1 4.7-5.7 7.9-3.4 12-7.3 15.9-14.7 2-3.8 3.7-7.7 3.7-8.6 0-3.5 1.9-1.2 6 7.4m-512.2 1c3.9 8.3 10.5 15.2 16.7 17.6 2.5.9 4.5 1.7 4.5 1.8s1.6 9.1 3.5 20 3.2 20.2 3 20.6c-1.1 1.8-6.1 2-11.2.5-9.9-2.9-16.5-11.7-23.9-32.3-1.9-5.3-3.4-11.2-3.4-13.7 0-4 5.7-21.6 7-21.4.3 0 2 3.1 3.8 6.9m-23.2 50.5c5.9 1.7 12.7 7.3 15.3 12.4 2.4 4.8 6.4 17.1 5.8 17.7-.3.3-1.8-.1-3.4-.9-4.6-2.4-13.6-3.9-16.6-2.8-2.4.9-2.7.7-4.6-3.2-2.5-5.2-9-11.6-15.6-15.4-3.8-2.2-5-3.5-5-5.3 0-1.7.7-2.6 2.5-3.1 4.5-1.3 16.5-.9 21.6.6m15.9 32.5c2.2 1 5.6 3 7.5 4.5l3.5 2.7-3-.6c-1.6-.4-6.1-.9-9.9-1.3-6.3-.5-7-.8-8.7-3.7-1-1.7-1.9-3.5-1.9-3.9 0-1.3 7.8.2 12.5 2.3m552.4 10c.6 4.1 2.2 14.9 3.5 24 3.7 24.5 4.8 40.1 3.5 52.3-2.1 20.8-6.3 36.3-13.8 51-4.8 9.3-11.1 19.4-9.6 15.2 6.8-18.4 9.7-33.6 10.3-54.5.2-9.6.1-17.2-.3-16.8-.5.4-2 5.6-3.5 11.5-3.2 12.5-8 24.8-15.2 38.3-5.8 11-18.1 29.7-23.3 35.5l-3.7 4 2-3.5c1.1-1.9 3.1-5.5 4.5-8 7.8-13.7 20.4-46.4 27.2-70.5 4.7-16.8 11.2-49.6 13.8-70.1 1.2-9.6 2.4-17 2.8-16.6s1.2 4.1 1.8 8.2m-553-1.1c15.1 2 21.1 6.7 21.1 16.6-.1 9-5.4 17.4-14.4 22.5-7 4.1-8.3 3.9-10.6-1.5-1.1-2.5-3.9-6.7-6.4-9.3l-4.4-4.7 1-6c.5-3.3.7-10 .4-14.9l-.6-9 2.7 2.6c2.2 2 4.6 2.8 11.2 3.7m3.9 128c6.5 19.3 17 41 24.8 51 7.2 9.3 3.6 7.1-8.2-5.1-10.4-10.7-22.1-28.3-26.9-40.6-1.7-4.2-1.7-4.4.9-10.1 1.4-3.2 2.6-7 2.6-8.5 0-5.4 1.6-2.2 6.8 13.3M353.1 803c5.1 9.8 18.3 27.5 26.4 35.5 14.7 14.5 36.2 27.6 53.3 32.5 7.9 2.3 8.2 2.5 8.8 5.8.4 1.8.3 3.7-.2 4.1-3.4 2.9-41 26.9-65.9 42.1-16.5 10.1-34.1 21-39.2 24.2-15.4 9.7-48 27.3-59.7 32.2l-3.8 1.6.7-4.8c1.1-7.2 8-34 10.5-40.6 1.7-4.6 4.3-8.1 11-15.2 12.4-13.1 17.7-24 22.1-45.2 3.2-15.5 3.5-31.1.9-47.7-1.2-7.7-2.4-15.1-2.7-16.5-.4-2.3.2-2.9 5.8-5.5 3.4-1.6 10.6-5.2 15.8-8.1 11.1-6.1 9.8-6.5 16.2 5.6"/><path d="M570 330.8c-1.8.6-.1 1 6.3 1.5 4.8.4 15.6 1.8 23.9 3.2 20.7 3.4 17.4 3.6 49.3-3.5l8-1.8-7.1-.1c-3.9-.1-13.3.6-20.8 1.5-11.1 1.3-15.5 1.3-23.8.4-13.8-1.5-32.7-2.1-35.8-1.2M657.4 353.1c-4.5.4-13.4 1.9-19.9 3.4-15 3.4-23.6 3.3-39-.1-9.2-2-15.4-2.7-27-3l-15-.3 12.8 1.9c7.1 1.1 17.2 3.1 22.5 4.6 25.9 7.1 28.1 7 57.1-.5 6.3-1.7 15.7-3.6 21-4.3 7.3-1 8.8-1.4 6.6-1.9-3.9-.9-9.1-.8-19.1.2M601.8 395.7c-.3 5.9-1.2 11.5-2.3 14.1-1.7 4.3-10.6 13.2-13 13.2-.8 0-2.4-1.9-3.7-4.2-3.5-6.4-5.9-7.5-21.2-10.3-17.3-3.2-55.9-12.5-68.5-16.6-10.9-3.5-15.4-3.5-23.6.2-9.7 4.3-22.6 12.1-26.3 16-4.2 4.3-16.8 24.6-15.9 25.5.8.9 6.6-1.2 20.2-7.2 15.1-6.7 23.2-8.8 30.2-8 2.9.3 13 3 22.5 6s19.1 5.9 21.3 6.4c2.2.6 5.4 1.3 7 1.8 2.2.5-.4 1-10.1 2-25.2 2.4-42.4 8.1-54.9 18.3-11 8.8-16.3 10.1-26.1 6.3-2.7-1.1-5.8-2.3-6.9-2.7-1.4-.6-1 .3 1.5 2.9 7.8 8.2 21.6 11.7 31.5 7.9 4.9-1.9 5.2-1.9 9.1-.1 5.5 2.4 15.1 4.8 18.9 4.8 2.7-.1 2.4-.4-3.5-3.5-3.6-1.9-7.8-4.6-9.5-6l-3-2.5 2.5-2c2.2-1.8 12.1-7 13.3-7 .2 0 .7 2.2 1.1 4.9.8 6.4 5.1 12.3 10.5 14.5 4.7 1.8 13.8 2.1 19.3.6 6.8-1.9 11.8-10.1 11.8-19.3 0-2 .4-3.7.9-3.7 2.7 0 16.7 14.3 15.6 16-.2.4-3.1 1.7-6.4 2.9s-6.2 2.5-6.5 2.9c-.3.6 26.3.9 28.7.4 1.3-.3-2-5.4-8.2-12.7-3.3-3.8-5.8-7.1-5.6-7.3.7-.7 12.4 5.8 17.3 9.7 6.4 5.1 8.5 8.9 7.6 13.8-.7 3.8-8.6 16.2-15.6 24.5-2.1 2.7-3.6 4.8-3.1 4.8 1.7 0 19.2-17.1 22.8-22.4 2.1-3.1 4.9-8.7 6.1-12.4l2.2-6.7 1.2 4.2c1 3.4 1 6.1-.4 15.7-1.9 13.1-1.5 18.4 3 38.4 4.1 18.4 4.5 17.8 3.9-6.3-.2-12.1 0-26.1.5-31 2.7-23.7 2.9-21.2-3.1-33.6l-5.4-11.2 2.5-1.6c5.3-3.5 7.8-6.2 10.7-11.8 4.1-7.7 5.7-15.1 5.1-23.2-.5-6.4-3.2-15.1-4.8-15.1-.4 0-1 4.4-1.2 9.7M508.1 449c2.9 1.6 2.5 5.8-.6 6.6-4.5 1.1-7.1-2.9-3.9-6 1.8-1.9 2-1.9 4.5-.6M634.1 390.3c-4.4 17.7-.7 32.9 10.9 43.7l5.9 5.6-5 8.4c-3 5.1-4.9 9.7-4.9 11.5 0 1.6.9 8.4 2 15 1.6 9.6 2 17 2.1 37.5 0 14 .4 27.3.8 29.5.5 2.2.9 3.5 1 2.9 0-.6 1.2-7.2 2.6-14.8 5.3-28.6 5.6-31.6 3.9-44.4-.8-6.4-1.2-12.7-.8-14.1.6-2.4.8-2.2 2.1 2.3 1.7 5.9 11.9 16.3 23.6 24.4l7.7 5.2-8-9.5c-12.9-15.3-15.5-22.4-10.4-28.5 4-4.6 21.7-16.1 23-14.8.2.2-2.8 4.2-6.6 8.8-9.3 11.2-9.3 14-.3 12 2.6-.6 8.3-1.1 12.6-1.1s7.5-.4 7.3-.8c-.3-.4-2.7-1.6-5.3-2.6s-5.2-2.1-5.7-2.5c-1.9-1.8 11-16 14.6-16 .4 0 .8 1.5.8 3.2 0 7.8 4.1 15.2 10.1 18.3 3.3 1.8 16.4 2 20.6.4 6-2.3 11.2-10 11.3-16.7 0-1.7.5-3.2 1.1-3.2 1.8 0 12.6 6 14.4 8 1.5 1.6 1.2 2-3.7 5.2-2.9 2-7.2 4.5-9.5 5.7-2.4 1.2-4.3 2.4-4.3 2.6 0 1.6 18.1-3 24.2-6.1 2.4-1.2 3.3-1.2 6.8.2 5.3 2.2 16.8 1.5 23.1-1.3 4.5-2 11.9-7.8 11.9-9.3 0-.5-2.5.2-5.5 1.6-6.7 3.1-15.2 4.2-18.6 2.4-1.3-.7-6-3.9-10.4-7.1-14.1-10.2-26.6-14.7-46.7-16.9-5.7-.6-12.5-1.4-15.1-1.8l-4.8-.7 21.8-7.4c30.4-10.3 34.5-10.4 57-1 13.6 5.7 22.1 8.9 23.9 8.9 1.6 0-5.9-12.6-13.2-22.1-5.6-7.3-9.1-9.8-22.9-16.6-14.9-7.3-18.7-7.7-31.1-3.4-11.9 4.2-55.6 14.7-75.4 18.1-9.5 1.7-12.3 3.4-15.4 9.1-1.5 2.7-3.1 4.9-3.5 4.9-1.6 0-9-6-11.6-9.4-4-5.3-5.4-10.2-5.5-19.4 0-9-1.2-10.6-2.9-3.9m90.7 57.9c3.2 3.2-.4 8.7-4.7 7.3-2.7-.8-3.4-3.4-1.6-6.1 1.7-2.6 4.4-3.1 6.3-1.2"/><path d="M613.4 436.4c-3.4 1.5-10.4 7.3-10.4 8.7 0 .4 2.1-.1 4.8-1.2 8.6-3.8 17-3.5 28.9.8 3.9 1.4-1.8-3.5-7.6-6.6-6.3-3.3-10.8-3.8-15.7-1.7M786 469.8c0 1.9 22.5 7.3 30 7.2l2.5-.1-2.5-1.4c-7.1-4.1-30-8.4-30-5.7M440.9 473c-5.3.9-14.3 4.6-16 6.6-.6.8-.8 1.4-.3 1.4.9 0 18.7-4.2 25.7-6.1 8.5-2.3 1.5-3.7-9.4-1.9M461.6 479.2c4.2 7.2 9.6 11 16.9 12.3 4 .7 4 .7-3-4.1-3.8-2.6-8.3-5.8-9.8-7.1-3.1-2.5-5.3-3.1-4.1-1.1M770.3 484.8c-5.1 3.7-8.8 6.9-8.2 7.1 2.2.7 13.9-6.1 16.9-9.9 4.6-5.7 1.9-4.9-8.7 2.8M533.8 487.5c-8.4 4.1-17.4 7.5-23.4 9-5.4 1.4-10 2.7-10.2 3-.3.3 2.7.5 6.7.5 9 0 20.3-2.3 30.2-6.1 7.6-2.9 18.2-9.5 18.3-11.4.1-.6-1.7-1.1-3.9-1.3-3.2-.2-6.7 1.1-17.7 6.3M687.2 482.2c.7 2 12 8.4 19.9 11.3 10.4 3.7 35.1 7.2 32.3 4.6-.5-.5-3.8-1.7-7.3-2.6-6.6-1.7-14.9-4.9-28.6-10.9-8.2-3.6-17.1-4.9-16.3-2.4M594.8 553.7c-3 3.4-6.9 12.5-7.5 17.3-.4 3.8-.1 5.8 1.7 9.4 1.2 2.5 2.5 4.6 2.8 4.6.4 0 .8-4.2.9-9.3.1-5.3 1-12.2 2.1-16.5 1.1-3.9 1.9-7.2 1.7-7.2-.1 0-.9.8-1.7 1.7"/><path d="M672.6 553.1c-1.7 1.1-1.7 1.2.5 2.3 4.7 2.3 10 13.2 11.8 24.4 1.2 7.3.1 12.7-3.2 16l-2.5 2.5-4.7-2.3c-8.4-4-15.2-1.8-29.6 9.5-11.2 8.9-14.9 10.7-21.9 10.7-7.3 0-12.2-2.2-22.5-10.1-11.2-8.5-15.6-10.6-23.1-10.6-4.6 0-6.7.5-8.2 1.8-3 2.7-5.4 1.7-7.9-3.3-2.7-5.1-2.8-9.1-.8-17.7 1.9-8.3 5.1-14.9 9.1-18.8 3.6-3.6 3.4-4.5-.6-4.5-4.1 0-7.1 2.9-18.3 17.9-14.3 18.9-18.4 25.2-34.7 53.1-17.7 30.2-19.2 34.1-19.6 51.5-.3 14-.5 14.2 3.7-6 2.8-13.5 7.8-23.8 17.3-35.5 4.3-5.2 12.9-17.2 19.1-26.6 6.2-9.5 11.8-17.5 12.4-17.8.7-.5 1.1.8 1.1 3.9 0 5.9 3.7 13.3 8.7 17.4 4.3 3.5 9.6 5.5 20.6 7.6 9.3 1.8 13.1 3.6 21.7 10.6 8.9 7.2 15.9 10.2 24 10.5l6.5.3 1.3 4.3c1.5 4.9 1.9 19.1.7 22.8-.7 2.3-.7 2.4 1 1 5-4.1 7-17.7 4.4-29l-1.1-4.5 5.4-4.9c8.7-7.9 11.5-9.3 21.8-11.1 11.8-2 17.3-4.4 22.8-9.8 4.6-4.5 7.2-11 7.2-18v-4l3.1 3.9c1.7 2.2 7.3 9.7 12.4 16.9 5.1 7.1 13.6 18.2 18.9 24.5 10.2 12.2 15.4 20.3 18 28.5 2 6.5 4.6 21.6 4.6 27.1 0 2.6.5 4.4 1.1 4.4.8 0 1-3.8.7-13.3-.8-21.7-2.3-25-36-76-10.9-16.7-31.7-43.6-36.6-47.3-3.6-2.8-6.3-3.5-8.6-2.3"/><path d="M649.3 555.5c2.8 9.4 3.3 25.5 1.2 32.5-.8 2.5-.8 2.5 1.3.6 1.2-1 3.1-3.9 4.3-6.3 2.7-5.6 2.2-11.7-1.7-20.3-2.7-6-6.3-10.6-5.1-6.5M584.5 679.6c-4.9 1.4-13.9 4-20 5.9-6 1.8-16.3 4.7-22.7 6.4-6.5 1.7-13 3.7-14.5 4.5-6.6 3.4-11.3 11.8-9.4 16.8.6 1.7.9 1.4 1.9-2 1.5-4.9 6.9-9.9 11.8-10.8 2.6-.5 6.7.2 14.8 2.4 14.1 4 24.3 5.7 48.6 8.2 22.9 2.4 34.3 2.5 54 .5 20.7-2 33.5-4.1 49.7-8 7.8-1.9 16.3-3.5 18.8-3.5 6.8 0 11.9 3.2 15.1 9.4l2.6 5.1-.5-5.3c-.3-4.3-1-6-3.8-8.8-1.9-2-4.2-4-5.3-4.6-1-.5-11.3-3.4-23-6.3-11.6-3-26.3-6.8-32.6-8.5s-14-3.3-17-3.6c-5.1-.6-6.2-.2-14.9 4-5.2 2.5-10.9 4.6-12.6 4.6s-7.3-2-12.4-4.5c-11-5.4-14.9-5.6-28.6-1.9m86.5 14.5c15.1 2.6 15.6 2.7 13.9 4.5-.8.7-3.3 1.6-5.6 2-3.4.5-4.4.3-4.9-1-.5-1.4-.9-1.3-2.9.8-2.7 2.9-12.9 4.5-16.5 2.6-1.7-.9-2.4-.9-2.9-.1-1.2 1.9-7.2 3.1-15.8 3.1-7 0-8.6-.3-10.3-2l-2-2-2.1 2.1c-1.9 1.9-3 2-12.9 1.7-8.7-.2-11.2-.7-12.8-2.1-1.3-1.2-2.2-1.5-2.7-.8-1.5 2.5-14.2 1-17.4-2-1.2-1.1-2.2-1.5-2.6-.9-.3.6-1.9 1-3.5 1-3.7 0-8.3-1.7-7.6-2.9.6-.8 1.4-1 16.6-3.6 11-1.9 26.8-1.9 36.7 0 6.9 1.3 8.8 1.3 16.3 0 17.1-2.9 24-3 39-.4M678 731.8l-15.5 5.4-19.2-.6c-11.3-.4-25-.2-33.2.5-16.5 1.3-24.5.1-40-6-5.3-2.1-9.8-3.6-10.1-3.4-1.1 1 17 17.2 22.8 20.4 3.4 1.9 6.2 3.7 6.2 4.1s-1 1.3-2.2 1.9c-4.5 2.4-10.2 7.4-15.4 13.8-3 3.5-5.2 6.6-5 6.8.1.2 4.1-1.5 8.7-3.6 16.3-7.7 35.9-10.8 61.4-9.8 19.5.7 34.5 4.4 46.2 11.3 2.4 1.4 4.3 2.2 4.3 1.9s-.9-2.2-1.9-4.3c-3.3-6.4-8.8-11.8-15.6-15.3-3.6-1.9-6.5-3.6-6.5-3.9s3-1.8 6.6-3.4c4.8-2.2 9-5.3 15.7-11.7 5.1-4.8 9-8.9 8.7-9.1-.3-.3-7.5 2-16 5M711.6 764c-2 2.3-3.4 4.5-3.1 5.1.9 1.3 1.6.7 5.3-4.5 4.1-5.7 2.7-6-2.2-.6M936.2 557c0 1.4.2 1.9.5 1.2.2-.6.2-1.8 0-2.5-.3-.6-.5-.1-.5 1.3M116.8 609.9c-7.6 2.5-11.4 5-18.2 12-7.5 7.9-11.6 16.6-12.3 26.4-.7 8.9 1 15.3 7.1 27.2 5.2 10.1 7.8 19.3 11.1 39.2l2.5 14.8-.5-15c-.5-16.6-1.9-24.7-6.4-38.9-6.1-19.1-6.3-29.9-.7-42.2 5.2-11.4 12.4-17.4 26.5-22.5l7.6-2.8H128c-3 0-8 .8-11.2 1.8"/><path d="M121 622.1c-3.2 1.3-6.8 4.7-8.6 8.1-2.2 4.2-1.7 4.5 1.9 1.1 4.4-4.2 10.9-7.3 16.7-8 2.7-.3 4.7-1 4.4-1.4-.7-1.2-11.3-1-14.4.2M155.6 646.4c-5.3 2-11 7.8-13.7 14-2.6 5.8-3.7 19.5-2.1 26.1 1.1 4.6 1.3 4.1 3.7-7 2.5-11.5 5.9-18.7 11.5-23.9 4.9-4.6 12.1-7.6 18.4-7.6 2.6-.1 2.8-.2 1.3-1.1-3-1.8-14.8-2.1-19.1-.5M198.9 692c-4.5 4.7-6.1 9.8-5.7 17.8l.3 5.7 2.3-6.9c1.3-3.8 3.8-9.6 5.5-13 1.8-3.4 3.3-6.4 3.5-6.9 1-2.2-2.6-.2-5.9 3.3M148.4 704.5c2.9 7.7 4.8 18.5 5.4 30l.6 13 1.3-6.5c3-15.6.8-30.5-5.4-36.1-2.3-2.1-2.5-2.2-1.9-.4M203.5 719.6c2 4.8 4.1 6.3 8.8 6.4 4.2 0 8.3-1.7 11-4.8 1.8-2 1.8-2-2-.7-2.1.8-5.1 1.4-6.6 1.5-3.4 0-9.7-2.8-10.4-4.7-.3-.7-.9-1.3-1.4-1.3s-.2 1.6.6 3.6M269 737.9c0 1.3 11.4 8.7 15.5 10.1 9.1 3 3.3-2-10.3-8.8-4.8-2.5-5.2-2.6-5.2-1.3M116.5 795c.4 5.8 1.8 21.5 3.1 35s2.8 29.2 3.1 35c.8 12.3 2 9.7 2.2-4.7.2-13.5-6.5-73.2-8.4-75.1-.3-.4-.3 4.1 0 9.8M151 850.3c0 21.5-4.2 42.3-11.5 57.4-2.4 5.1-4 9.3-3.5 9.3 1.7 0 7.9-8.6 10.9-15.1 5.7-12.1 6.6-17.4 6.4-38.7 0-12.7-.5-19.8-1.2-20.5-.8-.8-1.1 1.2-1.1 7.6M856.5 928.6c8.4 18.9 23.1 34.2 42.3 43.8 6.5 3.3 22 9.6 23.5 9.6 1.7 0-11.5-13-23.3-23-13.8-11.6-43.9-36-44.5-36-.3 0 .6 2.5 2 5.6M153.4 939.6c-7 3.3-13.6 10.6-16.4 18-2 5.2-2.3 8.6-3.1 30.4-.4 13.5-1.1 25.6-1.4 27-.5 1.8-.4 2.1.3 1 1.5-2.3 3-9.9 6.2-31 4.4-28.3 7.7-36.6 17.7-44.4 5.4-4.2 4-4.6-3.3-1M414.5 958.6c-18.6 15.9-44.5 40-44.5 41.5 0 2.5 26.7-10.9 36.4-18.2 10.8-8.1 18.5-18.7 24.9-34.2.9-2 1.3-3.7.9-3.6-.4 0-8.3 6.6-17.7 14.5"/></svg>