<svg xmlns="http://www.w3.org/2000/svg" width="1365.333" height="1365.333" viewBox="0 0 1024 1024"><path d="M566.5 87.6c-37.8 7.1-89 35.5-128 71.1-44.7 40.9-70.3 80.6-85.6 133.3-3.3 11.2-3.4 11.4-4.1 7.5-.4-2.2-.7-9.2-.7-15.6-.1-13-2.5-29-7.3-47.4-6.6-25.8-13.2-36.9-26.1-43.7-3.4-1.8-5.8-2.3-12.2-2.2-8 0-12.4 1.4-16.7 5.1-1.5 1.4-1.7 1.2-2.3-2.4-1.2-6.6-4.6-17.6-7.1-22.6-3.6-6.9-8.5-12-15.6-15.7-5.1-2.7-7.7-3.4-13.9-3.8-8.9-.5-14.4 1-21.3 5.7-7.7 5.3-12.6 18.6-12.6 34.3v5.7l-6.2-2.9c-5.3-2.5-7.6-3-13.9-3-6.8 0-8.5.4-14.8 3.6-8.6 4.3-12.9 9.5-16.1 19.4-2.5 7.9-6.3 31.9-9.2 58.1l-2.2 19.6-4.5-2.6c-6.2-3.5-17.5-3.7-23.8-.3-7.9 4.2-10.4 8.9-19.2 37.5-9.2 29.7-10 33.3-11.1 53.8-.5 10.1-1.7 24.9-2.6 32.9-1.4 12.4-1.5 17-.5 31.5 2.5 37.2 1.8 71.4-1.8 93.7s-4.4 36.1-3.2 57.1c.6 10.6 1.6 29.1 2.1 41.2 1.1 23 2.9 41.4 5.6 57.5 2.9 17.4 10.9 47.2 15.9 59.1 2.8 6.6 4.8 12.9 4.8 14.9-.1 4.9-3.7 14.7-10.1 27.5-8.7 17.4-8.5 16.8-8.7 37.5-.2 17.8-.3 19-3.9 32.5-2 7.7-14.4 46.2-27.6 85.5s-24 71.9-24 72.3 3 .7 6.8.5l6.7-.3 2.2-6.5c53.8-159.9 52.1-154.1 53.2-184.5l.7-19 4.8-10.5c2.6-5.8 5.7-13.1 6.8-16.2l1.9-5.7 6.2 4.6c13.2 9.7 24.7 13.9 40.9 15 15.7 1 26.3-1.4 59.3-13.7 14.1-5.2 8.3-4.5-14 1.7-8.8 2.4-19.1 4.8-23 5.3-12.5 1.6-28.8-1.9-40.2-8.6-14.8-8.6-25.4-25.1-35.8-55.4-9.3-27.1-13.2-46.7-15.9-78-4.3-50.4-4.5-91.9-.7-115 1.8-10.9 2.1-16.8 2.1-46 0-21.5-.5-38.2-1.4-46.5-1-8.9-1.1-15.5-.5-21 .8-8.3 2.2-26 3.8-50 .8-12 1.6-16.2 5.5-29.5 6.9-23.6 12.5-40.1 14.8-43.3 4.1-5.7 12.1-7.2 19.4-3.6 12.7 6.1 15.3 30.2 8.3 77-1 6.6-1.4 7.8-3.6 8.8-4.7 2.2-20.7 4.3-28.6 3.9-5.9-.4-7.4-.2-6 .6 1 .6 6.8 1.2 12.8 1.4 10.1.3 16.7-.6 22.5-3.2 1.3-.5 1.5 1 1.5 10.6.1 6.2.3 16.5.5 22.8.4 9.8.2 12.1-1.4 15.8-1.8 3.9-1.8 4.3-.3 5.5 2.1 1.5 5.7 21.9 5.7 32.3 0 11.4-2.4 20.7-6.5 24.8-2.6 2.6-.2 1.9 4.6-1.3 5.2-3.5 13.1-12.9 16.1-19 1.2-2.4 2.3-6.7 2.5-9.5l.4-5.1-1.9 4.6c-1.1 2.6-2.7 5.7-3.6 7-1.5 2.2-1.6 1.8-1.6-9.8 0-11.9-1.6-30.5-4.4-51.3-2.8-20.6-2.9-27.5-.6-41.5 2.4-14.8 3.6-42.4 2.3-53-1.8-14.3 2-56.9 8.2-92.9 1.9-10.8 5.8-18.3 11.5-22.1 4.1-2.7 5.3-3 12.6-3 7.2 0 8.6.3 13 3 3.6 2.2 5.6 4.3 7.4 8 2.4 4.8 2.5 5.8 2.8 28 .3 14.5-.2 31.9-1.2 47-2.8 41.7-3.1 63.8-1.1 82.8 3.1 29.8 1.1 69.3-4.4 88.4-.5 1.8-.7 3.3-.3 3.3s3.9-3.1 7.8-6.8c4.7-4.5 7.5-8.1 8.4-10.7 1.5-4.4 1.3-7.6-2.5-53.5-3-35.7-3-47.8.1-103.7 1.6-29.2 1.6-36.6.6-61-2-45.4-.4-56.2 9.3-61.8 13-7.7 30.2-1.5 36.8 13.2 5.1 11.6 5.8 17.8 6.8 60.3.5 21.7 1.3 45.1 1.7 52s.4 21.5 0 32.5c-.5 11.9-.4 26.3.2 35.5 1.2 17.1.4 30.4-3 54.5-3.3 22.9-2.5 32.6 2.9 35.5 2.6 1.3 10.5 1.3 19-.2 5-.8 9-.9 14-.2 3.9.5 7.1.8 7.1.7 0-.2-2.8-1.7-6.2-3.4-9.7-4.8-12.7-7.6-15.9-14.3-2.5-5.2-2.9-5.7-2.9-3.1.1 3.9 2.3 10.1 4.6 12.6 1.7 1.9 1.6 1.9-2.8 1.9-2.4 0-5.2-.6-6.1-1.3-2.7-2-4.1-17.5-3.2-38.7 1.6-43.1 1.6-106.8-.1-128-2-25.4-1.6-57.7.8-63 4.1-9.4 16.2-13.3 25.9-8.4 5.9 3 12.4 13.3 16.8 26.4 1.1 3.6 3.7 14.1 5.6 23.5 3 14.2 3.7 20.3 4.5 37.5.5 11.3 1.8 27.9 2.9 37 1.2 9.1 2.1 21.8 2.1 28.3s.9 21.1 2 32.5c2.3 23.8 5 63.5 4.4 64.1-.2.3-3.2-.1-6.6-.7s-6.4-1-6.6-.8 2.4 1.6 5.7 3.1 6.6 3.5 7.4 4.4c3 3.4 7.4 26.8 10.7 56.6.6 5.5 2.6 17.6 4.5 27 4.2 21.3 4.6 23.5 3.9 23.5-.2 0-4.2-2.6-8.7-5.7l-8.2-5.7 3.8 4.4c9.1 10.8 14.7 17.8 14.7 18.2s-17.8-5.7-28.5-9.6c-1.6-.6-1.5-.4.5 1.3 3.9 3.3 18.7 10.6 27.5 13.7 4.4 1.5 8.4 3.1 8.9 3.5.4.4-4.3 3.3-10.5 6.3-10.1 5-21 12.1-15.4 10 1.1-.4 8.8-3.1 17.2-6s16.6-6 18.2-6.9c1.7-.8 3.1-1.5 3.3-1.5s.1 2.3-.1 5.1c-.3 5.7 1.8 12.6 5 15.5 1.9 1.7 1.9 1.7.2-2.2-1.1-2.5-1.7-6.7-1.7-11.9-.1-7.8 0-8.2 3.5-12.5 5.1-6.3 8.2-11.5 14.6-24.4 3.1-6.1 7.1-13.9 9-17.3l3.4-6.2 6.6 7c6.8 7.2 16.7 13 24.3 14.4l3.5.6-4.5-2.7c-6.9-4.2-22.1-15.8-25.4-19.2-2.6-2.8-2.8-3.5-2.2-7.4 1.8-11.2 13.2-28.2 26.8-39.7 23.8-20.3 46.6-25.8 58.9-14.1 7 6.6 6.3 11.8-3.9 29.3-8.3 14.5-12.4 23.3-17.7 38.7-2.5 7.2-8.7 21.1-14.7 33-10.6 20.8-13.2 27.8-22.8 60.5-4.6 15.5-9.7 27.2-15.8 36.1-2.2 3.3-11.9 15.3-21.6 26.9-9.7 11.5-25.2 30-34.5 41-21.4 25.5-29.3 33-40.2 38.4-20.1 9.8-45 13-75.8 9.7-8.4-.9-15.5-1.6-15.6-1.4-.2.2 8.8 3.2 20 6.8l20.2 6.5-4.4 3.9c-7.6 6.7-12.4 16.5-18.7 38.6-4.7 16.1-15.7 73.3-14.4 74.6.3.2 1.5-4.2 2.7-9.8 10.9-50.1 25.4-88.3 36.1-95.4 4.5-3 12.8-5.4 18.8-5.4 2.3 0 4.2.1 4.2.3s-1.6 5-3.5 10.8c-13.1 38.4-22 81.7-33.5 162.4-3.3 23.1-6.3 43.3-6.6 44.8l-.6 2.8 6.3-.3 6.3-.3 1.8-12.9c1-7.1 1.9-13 2-13.1.2-.1 9.5-5 20.8-10.9 26.3-13.8 70-40.1 121.1-72.9 14.3-9.2 26.4-16.7 26.9-16.7.4 0 1 4.2 1.4 9.2.4 5.1 1.8 19 3.1 30.8 1.4 11.8 3 25.8 3.6 31 1.2 10.8 1.8 14.4 2.4 13.8.3-.2 1.5-7.8 2.7-16.9 3.4-25.7 3.1-64.1-1-117.9-1.7-22.8-3.4-43.5-3.7-46l-.6-4.5 4.3 5c10.7 12.4 29.2 33.1 39.8 44.5 22.2 23.8 30.6 35.6 48.4 67.9 14.4 26 19.5 34.1 31.8 50.3 11.7 15.4 25.9 32.7 27.1 32.7.4.1.1-1.2-.7-2.7-5.8-11.2-30.4-76.7-29.2-77.9.5-.6 16.5 9.4 26.4 16.6 5.4 3.9 13 8.5 16.8 10.3 6.7 3.2 7.3 3.3 20 3.3 13 0 13 0 20.5-3.7 6.8-3.4 27-18.9 32.8-25.2 1.4-1.4 2.8-2.6 3.3-2.6.4 0-1.2 5.5-3.6 12.3-4 11-25.3 67.7-27.1 71.9-1.6 3.8 1.7 1.4 10.9-8.2 17.6-18.4 31-35.6 43.2-55.6 3.6-6 15-27.8 25.3-48.4 23.2-46.7 23.2-46.6 45.8-77 5.5-7.4 13.6-18.8 18-25.2l8-11.7.7 30.7c.3 16.9.9 59.6 1.2 95 .4 35.4 1 64 1.4 63.5 1.2-1.2 5.6-18.2 8.4-32.3 3.4-17.3 4.7-29.3 5.5-51.8l.6-19.2 9.5 6.3c20 13.4 42.6 25.8 108.5 59.2 20.4 10.3 42.5 21.7 49.3 25.2l12.3 6.5-.3-8.7-.3-8.7-57-28.7c-60.5-30.5-70.1-35.6-90.3-47.7-13.7-8.3-19.2-12.1-19.2-13.3 0-.4 4.1-4.5 9.2-9.1 11.7-10.6 24-24.7 28-32.2 1.7-3.2 3.3-5.7 3.5-5.4.2.2-1.1 4.4-3 9.2-1.9 4.9-3.8 10-4.2 11.4s-2.3 5.6-4.2 9.4c-1.8 3.9-3.2 7.4-3 7.9.9 2.8 23.9-18.2 33.2-30.3 15.7-20.6 25.7-48.4 29.6-82.6.6-5.5 3.2-15 7.8-29 8.1-24.2 10.3-34.1 13.1-58.8 1.1-9.9 2.1-18.1 2.3-18.3s.7 2.4 1 5.8c.7 6.1 2 9.9 3 8.3.9-1.7 2.7-11.9 6.4-37.9 3.5-24.7 3.7-27.4 3.7-53.5.1-24.1-.2-29.4-2.3-43-4.6-30.3-13.8-57.7-30.3-90.5-16.9-33.6-24.4-51.4-38.3-91-6.1-17.3-13.8-38.5-19.7-53.5-23.9-61.6-71.6-115.3-135.2-152.5-12.2-7.1-20.6-10.9-37.8-17.4-28.6-10.6-51-12.1-78-5.2L631 93.7l-13.2-3.5c-11.8-3.1-15-3.5-28.3-3.8-10.4-.2-17.4.1-23 1.2M714.9 115c31.8 8.1 52.7 21 74.8 46.2 15.5 17.6 24.6 31.3 35.3 53l5.1 10.3-7.3-8c-19.1-21-37.2-35.2-58.5-45.9-5.1-2.5-9.6-4.6-9.9-4.6-.4 0 4 4.8 9.8 10.7 18.5 19.1 30.3 37.4 41.3 64.2 4.7 11.4 10.7 29.2 10.1 29.8-.2.2-2.7-3.7-5.6-8.7-15.4-26.7-38.9-50.2-61.4-61.1-4.4-2.1-8.1-3.7-8.4-3.5-.2.3 2.3 4.2 5.5 8.8 7.8 10.9 14.9 22.9 21.3 35.8l5.3 10.5-13.9-13.5c-11.6-11.2-29.3-25.4-33.5-26.8-1.3-.5-.6 2.4 5.3 20.3 7.7 23.1 21.6 49.3 33.7 63.5 6.8 7.9 6.9 8.4.9 4.9-33-19.4-75.2-62.8-90.3-92.8-2.7-5.5-3.9-7-4.6-6-1.2 1.9-1.1 32.3.1 43.4 1.4 12.2 5.6 32.4 8.5 41 1.3 3.8 2.6 7.9 3 9 .6 1.7.3 1.6-1.5-.5-7.7-9.1-18.5-28.2-24.5-43.4-5-12.9-9.5-38.5-9.5-54.6 0-4.5.1-4.4 5.3 7 2.9 6.3 6.5 13.7 7.9 16.4l2.5 5 .5-15.5c.3-8.5 1.1-16.7 1.7-18.3 1-2.5.8-3.5-2-8.2-1.7-3-2.6-5.4-2-5.4 1.9 0 18.8 10.9 26.4 16.9 8.4 6.7 14.4 12.5 20.9 19.8 2.5 2.9 4.8 5.3 5.1 5.3.9 0-6.1-23.8-8.9-30-1.6-3.5-5.2-9.8-8.1-13.8s-5.3-7.5-5.3-7.7c0-1.5 30.4 12.6 39.1 18.1 2.1 1.3 4.1 2.4 4.4 2.4.2 0-.5-2.4-1.6-5.3-7.6-19.6-29.8-39.9-52.1-47.8-2-.7-3.5-1.6-3.2-2.1.8-1.3 15-.9 25.4.6 9.5 1.5 24 5.5 29.3 8.3 4.9 2.5 4.2.6-1.8-4.9-12.7-11.6-24.4-18.6-40.5-24l-8.5-2.9 11 .5c7.7.3 14.7 1.4 23.4 3.6m-140.4-1c-1.1.5-6 2-11 3.5-10.4 3.1-24.3 9.6-33.5 15.7-6.1 4-27.5 23.7-26.6 24.5.2.2 1.9-.5 3.7-1.6 14.5-8.5 38.7-15 62.4-16.6l9-.6-8.7 4.8c-4.9 2.6-11.6 6.8-15 9.3-12.3 8.9-33.1 31.6-38.2 41.8l-1.7 3.3 5.6-3.5c3-2 9.5-5.5 14.3-7.9 10.4-5.2 35.1-15.2 35.8-14.5.5.6-15.4 21.9-30.4 40.8-5.5 6.9-9.8 12.7-9.7 12.9.2.1 4.8-2.1 10.2-4.9 24.5-13.2 37.5-22.3 52.5-36.8 8.4-8.1 9.6-9 8.4-6.1-4.3 10.3-25.2 42.9-33.1 51.7-2.6 2.9-4.6 5.4-4.4 5.6.8.7 22.3-11.6 27.7-15.8 5.7-4.4 17.6-16.3 24.5-24.6l3.8-4.5-.6 7.5c-.9 9.6-6.3 31.1-11 43.1-6.3 16.4-15.7 32.4-28 47.9-6.5 8.1-15.2 17.4-13.3 14 12-20.4 19.7-37.1 24.2-52.5 2.9-10.2 4.6-18.6 3.7-18.4-.3.1-4.2 4-8.6 8.8-14.6 15.7-32.4 31-46.3 39.6-3.9 2.5-7.5 4.5-7.8 4.5s1.9-2.8 4.9-6.3c6.3-7.1 13.9-17.8 13.3-18.5-.3-.2-4.5 2.7-9.3 6.5-12.4 9.8-34.7 24.8-48.3 32.5-12.8 7.3-32 17.1-32.5 16.6-.2-.2 4.7-4.2 10.8-9 13.9-10.7 33.8-30.4 47.3-46.6 9.6-11.6 20.4-26.2 20.4-27.7 0-1.6-40.6 20.7-54.3 29.9-5.3 3.6-9.7 6.2-9.7 5.9 0-2.7 17.6-31 26.3-42.3 2.8-3.6 5.5-7.1 6.1-7.9s-2.3.4-6.4 2.6c-22.9 12.7-41.4 30.6-63.3 61.3-2.8 4 3.9-9.3 11.6-23 12-21.3 27.5-44.1 37.5-55.3 4.3-4.7 3.2-4.7-3.8 0-12.4 8.2-25.2 20.1-39.3 36.3-5.3 6.1-5.1 5.3 2-7 10.3-17.7 19.2-30.3 30.7-43.4 6.6-7.6 6.6-7.6-4.2-.4C455 200.7 432 223 420 239.7c-3.4 4.8-5.9 7.7-5.5 6.3 1.7-5.9 18.9-39.3 24.8-48.3 15.7-23.6 37.1-45.8 57.3-59.5 14.3-9.8 34.7-18.6 50.1-21.7 13.8-2.8 32.4-4.5 27.8-2.5m59.4 150.5c6.9 18.1 20.5 38 36.6 54 12.3 12.2 22.8 20.1 35.6 26.9 8.3 4.5 29.2 13.6 31 13.6.5 0-2-3.5-5.4-7.8-9.2-11.4-15.1-20.7-21.1-33.4-4.9-10.2-9.8-22.8-9.1-23.6.2-.2 2.7 2.3 5.6 5.5 23.7 25.9 45.6 42.5 78.4 59.4 22 11.3 25.8 14 32.9 23.2 8.7 11.3 12.8 21.5 19 46.3 3 12.1 7.9 30.4 10.9 40.9 6.8 23.6 8.2 31.8 7.4 43.9-.8 11.2-3.9 21.5-10.5 34.8-7 13.7-12.2 21.2-28.3 40.4-26.8 31.9-29.2 37.7-32.5 76.9-3.4 41.2-7.9 60.6-19 82.6-2 4.1-3 6.9-2.2 6.7 2.9-1 13-14.6 17.2-23.2 7.1-14.5 9.7-25.3 13.6-55.6 4.6-35.9 6.2-40 24-60 6.6-7.4 15.7-18.5 20.2-24.7 4.6-6.2 8.6-11.2 8.9-11.3.3 0-.2 5.3-1.2 11.7-1 6.5-3.6 28.9-5.9 49.8-8.6 81.6-9.2 83.6-30.8 108.9-16.4 19.2-55.2 59.5-55.2 57.3 0-.3 1.3-4.5 2.9-9.4 2.7-8.3 6.3-22.3 5.6-22.3-.2 0-4 6.6-8.6 14.7-11.1 19.9-19.6 32.7-26 39.2-10.3 10.5-26 18.9-40.4 21.6-18 3.5-68 4.3-90 1.5-26.8-3.4-43.8-13.2-59.1-34-5.2-7-15.1-23.4-19.7-32.7-3.8-7.4-5.9-10-5-6.1 1.4 6.2 5.7 19.7 7.9 24.6 1.3 3 2.3 5.7 2.1 5.9-1.3 1.3-55.6-52.2-64.6-63.6-8.7-11.2-13.9-24.4-17.1-43.9-1.1-7-2.2-13.4-2.4-14.3-.2-.8 2.5-5.1 6-9.5 8.3-10.3 11.3-16 16.8-32.3 2.6-7.4 4.8-13.7 5.1-13.9.6-.7 6.2 10.9 7.8 16.5.9 2.9 2.3 11.2 3.2 18.5 5.2 43.2 7.6 54.5 14.5 67.8 3.8 7.1 17 24 18.9 24 .5 0-1.8-5.2-5.1-11.5-3.2-6.3-7.2-15.4-8.9-20.2-4.5-13.5-5.5-20.1-9.4-62.9-2.3-24.7-4.9-35.1-12.1-47-3.4-5.6-3.5-6.1-2.4-9.9 2.6-8.6 10.5-27.5 16-38.1 3.4-6.4 7.6-16.6 9.9-24.1 5.2-16.5 8.9-25.5 15.2-36.9l5-9 9.7-1.6c11.6-1.8 23.9-6.4 32.3-12 5.7-3.8 6-4.2 4.3-5.5-2.7-2-6.3-1-19.9 5.6-11.7 5.7-22.2 9.7-23 8.9-.3-.2.5-2.9 1.6-5.9 1.5-4 2-7 1.7-11.6l-.4-6.1 4.2-.7c8.7-1.3 14.4-8 15.2-18.2.3-3.8.9-5.3 1.9-5.3 1.6 0 12.5 10.7 14.3 13.9.9 1.8.4 2.2-5 4.2-3.3 1.2-6.3 2.6-6.6 3-.3.5 3.4.9 8.3.9 4.8 0 11.2.3 14.1.6 4.7.6 5.2.5 5.2-1.3 0-1.1-3.1-5.7-7-10.4-3.8-4.6-6.5-8.6-6-8.7 1.3-.5 8.9 3.9 15.7 9 5.5 4 8.3 8.1 8.3 12.1 0 3.6-4.3 11.4-12 21.4-3.8 5.1-6.6 9.3-6.1 9.3s5.6-4.6 11.3-10.3c11-10.7 14.7-16.2 17.2-25.9l1.3-5.1 1.1 3.3c1.6 4.4 1.5 9-.4 18.5-1 5.3-1.3 10.4-.9 15.1.6 7.1 6.9 36.2 8.1 37.3.4.3.4-9.1 0-20.9-.4-12.8-.2-25.1.4-30.5.6-5 1.3-12.6 1.6-17l.6-8-5.1-10.3c-2.8-5.7-5.1-10.6-5.1-11s1.9-1.8 4.1-3.2c8.6-5.3 14.5-19.4 13.7-32.8-.5-7.3-3.1-15.2-5-15.2-.4 0-.8 3.5-.8 7.8 0 12.9-3.2 20.5-11.3 26.3-4.9 3.5-5.3 3.6-6.1.5-.3-1.4-2.1-4-3.9-5.9-2.8-3-4.2-3.6-12.7-5.1-14-2.5-61-13.9-72.1-17.5-15-4.8-18.9-4.2-36.9 5.9-11.6 6.6-13.9 8.6-19.2 16.8-4.6 7-10.8 17.8-10.8 18.7 0 1.1 5.8-1 19.5-7 23.7-10.5 27.4-10.7 54-2.2 9.4 3 19.6 6.1 22.8 6.8 7.5 1.6 8.2 2.9 1.5 2.9-8.3 0-22.4 2-32.5 4.5-10.7 2.7-19.7 6.9-26.7 12.2-13.3 10.4-13.7 10.5-19.6 10.1-3-.2-8.1-1.6-11.2-3-6.4-2.9-7.3-2.5-3.1 1.4 4.6 4.1 8.5 6.5 13.2 7.9 4.3 1.3 4.3 1.3 2.2 3-1.2 1-4.4 2.2-7.1 2.8-6.2 1.3-16.2 6.3-13.8 6.9.9.2 3.4-.1 5.4-.7l3.7-1-6.6 6.7c-3.7 3.7-7.8 8.3-9.3 10.2-3.9 5.4-9.8 17.6-12.9 27l-2.9 8.5-1.4-4.5c-.9-2.9-1.5-8.8-1.5-16.5 0-12.3 1.9-23.1 9.7-54.3 1.3-5.3 3.4-14.7 4.6-20.7 5.5-27.8 9.1-38 18-50.9 8.4-12.1 17.4-20.3 37.8-34.2 21.8-14.8 33.6-23.6 45.7-34 4.8-4.1 9-7.2 9.2-7 1.2 1.1-19.6 29.3-30.4 41.3-4.1 4.6-7 8.3-6.4 8.3 2 0 25.5-8.2 34.4-12.1 12-5.1 28.7-14.7 39.3-22.7 19.1-14.3 39-37.4 49.4-57.3 2.8-5.5 5.3-9.9 5.5-9.7s1.7 3.9 3.4 8.3M836 353.8c6.9 3.8 14.8 8.1 17.5 9.5 7.1 3.7 4 3.3-7.3-.9s-20-8.7-28-14.6c-8.1-6-18.2-14.8-18.2-15.9 0-.5 5.3 2.6 11.8 7 6.4 4.3 17.3 11 24.2 14.9m56.6-9.1c6.9 12.8 14.8 25.2 26.1 40.9 16 22.4 25.2 39.1 34.6 62.9 7 17.8 14.3 45.3 16.7 63 1.4 10.8 2.4 56.3 1.3 65l-.8 7-3.2-19c-3.7-22-11-49-17.8-65-2.5-6-4.9-11.3-5.4-11.8-.4-.4 0 3.4.9 8.5 2.2 11.5 3.3 22.5 2.2 21.3-.5-.6-2.8-6.4-5.1-13-7.5-20.8-14.8-33.8-32.2-57.1-13-17.4-20.5-29.3-28.1-44.9-6.1-12.7-7.2-15.9-3.5-11 6.7 9.1 17.6 21.9 31 36.5 8.4 9 16.9 18.2 18.9 20.5l3.7 4-2.4-8.1c-3.8-12.3-8.4-23.2-18.3-43-8.9-17.7-16-35.5-20.6-51.6-3-10.7-3.7-13.8-3.2-13.8.2 0 2.6 3.9 5.2 8.7m-525.5 6.1c-2.4 12.3-7.1 29.8-9.7 35.7l-1.8 4-.7-5.5c-1.6-12.5-1.2-15.5 3.4-24.8 2.4-4.8 5.7-12.1 7.3-16.2 3.6-9.4 4.1-7.1 1.5 6.8m20.5 39.6c-5.7 15.6-18.1 42-24.9 53l-2.4 3.8-.6-4.7c-1.3-9.5-1-10.8 5-19.1 8.2-11.5 13.4-19.9 19.8-31.8 3.1-5.8 5.9-10.6 6.1-10.6s-1.2 4.2-3 9.4M522 449.9c1.9 3.6-1.1 6.8-5.1 5.6-2.2-.7-2.7-6-.6-6.8 2.6-1.1 4.7-.6 5.7 1.2m-17 4c0 2.8 0 2.8-6.5 2.7-3.6 0-6.5-.2-6.5-.3 0-.7 11.6-6 12.3-5.6.4.2.7 1.7.7 3.2m-125.5 27.3c-8.4 20-10.5 23-10.5 15.3 0-1.9 10.3-18.5 11.5-18.5.2 0-.2 1.5-1 3.2m535 22.8c10 14.9 17.5 28.4 22.5 40 1.3 3.1 2.5 4.9 2.8 4.1 1.3-3.7 10.4 20.7 14.4 38.4 2 9.3 1.7 50.3-.5 62.5-1.7 9.3-6.7 32-7 32-.1 0-.2-13.4-.2-29.8-.1-23.3-.4-32.2-1.8-41.2-5.3-34.2-13.2-58.4-30.9-95-5-10.2-10.5-21.9-12.4-26l-3.4-7.5 3.1 3.5c1.6 1.9 7.7 10.5 13.4 19m-20.9 57.4c4.6 9.5 4.6 9.5 3.4 15.1-3.2 15.2-10.8 31.4-17.7 37.5-5.3 4.6-13 6.9-17.6 5.1-2.7-1.1-2.8-1.1-2.1-7.6.4-3.6 1.6-12.4 2.8-19.7l2.1-13.1 5.4-2.8c8.6-4.5 12.9-9.4 16.6-19.2 1-2.6 1.9-4.7 2.2-4.7.2 0 2.4 4.2 4.9 9.4m-507.7-2.7c.7 2.1 2.7 6 4.3 8.6l3.1 4.8-2.3 2.4c-1.3 1.4-3 2.5-3.8 2.5-2.1 0-6.9-5.5-7.5-8.7-.5-2.6 2.9-13.3 4.2-13.3.4 0 1.3 1.7 2 3.7m541.5 104.8c8.2 54.6 7.9 73.5-1.6 102.1-3.4 10.6-15.2 34.4-16.3 33.2-.2-.2 1-4.1 2.6-8.7 5.1-14.4 7.9-32.8 7.8-50.9v-15.7l-3.4 13c-4.2 16.8-12.1 34.9-22.6 52.3-4.9 7.9-18 25.4-18.7 24.8-.2-.3.5-1.7 1.6-3.3 3-4.3 10.3-19.3 16.4-33.8 12.9-30.4 23.1-71.1 28.3-112.5 2-15.5 2.7-19.8 3.1-18.5.2.5 1.4 8.6 2.8 18M385.1 787c5.8 16.3 14.6 34.1 21.8 43.7 3.3 4.6 5.6 8.3 5.1 8.3-.6 0-5-3.9-9.8-8.8-10.6-10.5-19.8-24.1-29.1-42.8l-6.9-13.7 5.7-5.3 5.6-5.2 1.8 6.1c.9 3.4 3.6 11.4 5.8 17.7m-24.1 4.8c7.8 16.8 18.7 32.2 32.4 45.7 17.7 17.6 33.3 27.2 54.4 33.4l7.3 2.2-.3 3.7c-.3 3.6-.8 4.1-16.3 14.4-19.4 13-31 20.3-83 52.1-22.3 13.6-60.4 34.7-62.8 34.7-.4 0-.4-1.2-.2-2.8.3-1.5 2.8-16.4 5.5-33.2 6.7-40.5 12.2-68.6 17.6-90.5 10.9-43.7 18.2-58.3 32.9-65.8 3.9-2 7.2-3.6 7.5-3.6s2.5 4.4 5 9.7"/><path d="M646 330.6c-11.3 1.5-15.4 1.5-51.3-.2-8.8-.4-13.2-.3-14 .5s.5 1.1 5 1.1c3.3 0 12.5 1.1 20.4 2.5 19.5 3.4 28.3 3.3 43.7-.5 6.8-1.7 13.5-3 14.9-3 3.9 0 2.4-.7-2.7-1.3-2.5-.3-9.7.1-16 .9M568.4 352.8c.4.7 2.3 1.2 4.3 1.2 6.3 0 23.5 3.1 33.5 6.1 19.5 5.8 25.9 5.7 52-1 8.7-2.3 18.9-4.4 22.8-4.7 3.8-.4 7-1.1 7-1.7 0-2-25.7 0-37 2.8-5.8 1.5-14.1 2.9-18.5 3.2-8 .5-10.6.2-28.5-3.7-11.2-2.4-36.7-4-35.6-2.2M645 388.5c-1 2-1.4 7-1.5 15 0 11.6.1 12.3 3.3 18.7 2.2 4.6 5.1 8.3 8.9 11.7l5.5 5-2.6 4.5c-1.4 2.5-3.8 6.7-5.3 9.2l-2.6 4.7 2.2 14.1c1.7 11.4 2.2 18.7 2.2 38.1.1 24.8.9 37.2 2.2 32.5.4-1.4 2.1-10.4 3.8-20 3.3-18.7 3.8-27.8 2.3-40.5-.5-4.4-.7-9.3-.4-10.9.5-2.8.6-2.6 1.8 1.9 1.1 4 2.7 6.3 9.5 12.9 8.6 8.5 21.7 18.4 19.9 15-.6-1-2.2-3-3.7-4.4-3.9-3.6-10.9-12.8-13.4-17.7-5-10-2.1-14.4 16.7-25.7 3.5-2.1 6.5-3.6 6.7-3.4.3.2-2.5 4-6 8.4-6.2 7.5-8.5 11.7-7.1 13.1.3.3 4.4 0 9-.7s10.6-1 13.3-.7l4.8.6-6.2-3.1c-3.5-1.6-6.3-3.6-6.3-4.3 0-1.9 9.7-12.3 13.1-14.1l2.9-1.5v5.4c0 11.9 7.1 18.7 19.4 18.7 11.5 0 18.6-5 20.2-14.1.3-1.9.7-4.4 1-5.7l.4-2.2 5.3 2.6c6.4 3.2 10.7 6.2 10.7 7.4s-10.6 8.4-15.1 10.4l-3.4 1.4 3.6.1c4.1.1 12.4-2.2 18.8-5.2 3.9-1.8 4.7-1.9 7.5-.6 5 2.2 17.1 1.7 23.2-1 4.2-1.8 14.2-10.1 12.2-10.1-.3 0-3 1.1-6 2.5-11.8 5.4-15.9 4.6-29.2-5.4-14.3-10.9-29.7-15.8-55.6-17.7l-9.2-.7 13.8-4.9c27-9.7 31.7-11 37.9-11 7.6 0 14.5 2 31.5 9.2 7.4 3.2 15 6.1 16.8 6.4l3.2.8-6.3-10.3c-9.1-15.2-15.6-21.3-30-28.4-15.5-7.8-19.3-8.1-34.4-3.1-11.4 3.8-54.5 14.3-69.9 17.1-11.3 2.1-14.6 3.9-17 9.9-1 2.5-2.4 4.6-3.1 4.6-2.2 0-12.2-10.1-14.3-14.4-1.3-2.8-2.3-7.6-2.8-13.7-.8-9-.9-9.3-2.2-6.4m88.8 59.7c.7.7 1.2 2.2 1.2 3.5 0 2.8-3.6 4.6-6.2 3.1-3.4-1.7-1.6-7.8 2.2-7.8.9 0 2.1.5 2.8 1.2"/><path d="M623.5 436.6c-4.8 2.5-9.5 6.4-9.5 7.8 0 1 1.5.8 5.8-1 7-2.9 14.8-3.1 22.5-.5 6.2 2 7.3 1.4 3-1.7-8.7-6.1-16-7.6-21.8-4.6M794 469.4c0 1.9 13.9 5.6 26.5 7.1 5.5.6 5.8.5 3.9-.9-3.7-2.6-14.4-5.7-22.5-6.3-4.3-.3-7.9-.3-7.9.1M783.3 481.3c-3.2 2.4-7.8 5.8-10.2 7.5-5.6 4-3.5 4.1 4.4.4 5.5-2.7 12.5-8.9 12.5-11.2 0-1.5-.4-1.3-6.7 3.3M697.7 480.8c-1.8.7-1.8.8 0 2.3 5.6 4.8 15.9 9.7 25.9 12.3 7.7 2 23.6 3.8 24.6 2.8.5-.5-3.6-2.1-8.9-3.6-5.4-1.6-15-5.2-21.3-8.1-11.9-5.5-17.2-7-20.3-5.7M578.5 553.2c-1.1.6-3.1 2-4.4 3.2-3.5 3.1-25.3 32.6-31.5 42.5-9.8 16-27.9 48.3-30.2 54-2.5 6.2-4.4 18.3-4.3 26.9.1 10.1 1.4 9.9 2.7-.4 2.6-20.3 7-31 19-46.1 8.6-10.8 12.3-16.1 23.8-33.8l7.8-12 .7 6.2c1.3 12.8 9.4 20.5 25.1 23.7 12.4 2.6 16.1 4.2 24.1 10.7 9.7 8 14.5 10.2 23.7 10.9l7.5.5 1.3 5.5c.8 3.3 1.1 9 .9 14.3-.4 8.6-.4 8.7 1.4 7.1 2.3-2.1 4.9-10.4 4.9-15.7 0-2.2-.5-6.9-1.1-10.5l-1.2-6.5 5.4-4.8c7.9-7.2 12.5-9.6 20.6-10.8 11.2-1.7 17.4-4.5 22.6-10 4.9-5.2 6.7-9.9 6.7-17.1v-4.5l2.4 2.5c1.3 1.4 6.8 8.8 12.1 16.5 5.4 7.7 13.8 18.8 18.7 24.8 10.5 12.7 14.8 19.2 17.5 26.7 2.5 6.5 4.9 18.6 5.9 29l.7 7.5.9-4.5c1.1-5.6.1-20.3-1.8-27.9-2.1-7.9-5.9-15.4-16.8-32.6-5.2-8.3-11.8-18.8-14.7-23.5-7.6-12.1-31-42.9-36.9-48.4-3.1-2.9-5.8-4.6-7.4-4.6-3.6 0-4 1.5-1 3.5 3.5 2.3 9.1 14.5 10.6 23.2 1.3 7.9.4 13.1-3.1 17.4l-1.9 2.4-4.2-2.4c-3.5-2-5.1-2.3-9.7-1.8-6.3.7-11.2 3.3-21.4 11.7-9.4 7.7-14.2 10-20.5 10-6.5-.1-11.8-2.6-22.8-11-5-3.8-10.8-7.6-12.8-8.4-5.4-2.3-12.3-2-16.9.6-3.3 1.8-4 1.9-5.5.7-2.6-2.1-4.4-7.3-4.4-12.7 0-10 5.4-23.8 11.2-28.7 2.7-2.3 2.8-2.5.9-3.5-2.3-1.2-2.1-1.2-4.6.2"/><path d="M605.8 553.7c-3 3.4-6.7 12-7.3 16.9-.5 4-.2 5.8 1.7 9.4 3.5 6.7 4.3 6.1 4-3.3-.2-6 .2-10.6 1.7-16.2 1.1-4.4 1.9-8.1 1.7-8.2-.1-.2-1 .5-1.8 1.4M660.7 561.2c1.5 7.5 1.3 23.5-.2 27.3-1.7 4 3.3-1.5 5.6-6.2 1.7-3.6 2-5.6 1.6-10.1-.6-5.3-5.9-18.2-7.6-18.2-.4 0-.2 3.3.6 7.2M598 678.7c-3 .8-12.7 3.6-21.5 6.3s-20.4 6-25.8 7.3c-14.7 3.8-20.8 8.9-20.6 17.8v4.4l1.8-4c1-2.2 3.5-5.5 5.5-7.3 4.8-4.2 9-4.2 23.3-.2 14.2 4 33.8 6.8 66.3 9.5 15.4 1.3 54.4-3.2 77.9-9 19.9-4.9 23.5-5.2 29.1-2.3 3.6 1.8 5.1 3.5 7.2 7.8l2.7 5.5.1-4c0-6.2-4.8-13-11-15.6-1.4-.6-11.9-3.5-23.5-6.5-11.5-3-25.9-6.7-32-8.4-15.5-4.1-19.6-4-29.4 1.1-10.5 5.5-13.5 5.5-23.9.1-7.1-3.7-8.8-4.2-14.4-4.1-3.5 0-8.8.7-11.8 1.6m26.7 15c9.7 1.6 10.9 1.6 19.2 0 12-2.3 26.2-2.2 39.9.4 6.1 1.2 11.2 2.5 11.2 3 0 2.6-10.4 4.1-11.3 1.6-.3-.8-1-.4-2.3 1.1-1.5 1.8-3.3 2.4-8.6 2.9-4.8.4-7.2.2-8.3-.7-1.3-1.1-1.8-1-2.8.4-1.5 2.1-12.6 4-19.2 3.2-3.5-.4-5.4-1.2-6.6-2.7l-1.7-2.2-.6 2.1c-.6 1.7-1.8 2.2-7.1 2.7-7.2.8-14.6 0-18.5-2-1.5-.7-3.3-.9-4.5-.4-3.1 1.2-11.7-.1-14.7-2.2-2.2-1.6-3.1-1.7-4.6-.8-2.2 1.4-9.3.1-9.9-1.8-.4-1.2 5.3-2.7 19.2-4.8 11.3-1.8 19.1-1.8 31.2.2M690.5 730.2c-15.6 6.3-22.1 7.3-39.9 6-9.4-.7-18.1-.7-23.1-.2-19.8 2.2-32 .7-47.7-5.9-3.9-1.7-7.4-2.9-7.6-2.6-.6.6 8 9.9 13.2 14.3 2.2 1.9 6.7 4.7 10 6.4 5.4 2.7 5.9 3.2 4.2 4.2-6.4 3.8-13.7 10-17.3 14.9-2.4 3.1-4.3 5.8-4.3 6.1s3.3-.9 7.3-2.8c10.3-4.7 15.8-6.3 26.7-8 15-2.3 29.5-2.9 41.7-1.7 17 1.7 24.4 4 42.6 12.9 1.6.8-3.7-7.9-7.5-12.2-2-2.3-6.4-5.7-9.7-7.5-3.4-1.8-6.1-3.3-6.1-3.5s2.9-1.8 6.5-3.6c3.9-2 10-6.5 15-11.3 12-11.2 11.6-11.8-4-5.5M720.8 763c-3.7 4-4.7 6-2.9 6 .8 0 5.7-5.7 7.5-8.8 1.5-2.5-.8-1.1-4.6 2.8M230.6 258.1c.2.4 2.8 1.6 5.7 2.6 7.9 2.7 23.3 2.4 31.2-.7 7-2.7 6.1-3.6-2.1-2.1-6.5 1.2-22.3 1.3-30.1.2-2.9-.4-5-.4-4.7 0M326 292.6c-3.6.8-10.9 1.5-16.4 1.6-9.4.3-9.7.3-6.5 1.7 5.3 2.1 18.3 1.8 25.3-.8 10.9-3.8 9.8-5.1-2.4-2.5M169.4 294.1c6.3 3.8 22.7 5 32.5 2.5 2.9-.8 5.5-1.7 5.7-1.9.3-.3-7.3-.4-16.8-.3-9.5 0-18.6-.2-20.3-.7-2.5-.6-2.7-.5-1.1.4M245 337.5c-.8.2-4.8.9-8.8 1.6-11.1 1.9-7.6 3.4 5 2.1 5.7-.6 13.9-.8 18.3-.6 8 .4 8 .4 3.5-.9-4.6-1.4-15.3-2.6-18-2.2M232 350.1c0 1.2 8.9 2.9 15.4 2.9 6.4 0 16.4-1.6 17.8-2.9.4-.3-6.9-.6-16.2-.6-9.4 0-17 .3-17 .6M306.5 357.3c-6.4 1.7-7.4 2.3-5 2.5 1.7.2 6.7-.2 11.2-.8 6.3-1 9.5-1 13.9-.1 7.7 1.5 9.5-.2 2.3-2.3-6.9-2.1-12.6-1.9-22.4.7M331.5 365.7c-4.7 1-9.8 1.2-15.5.8-6.6-.4-8.2-.3-7.2.7 2.1 2.1 18.2 2.3 24.7.3 3-1 5.8-2.2 6.1-2.6.6-1 .9-1.1-8.1.8M180.5 370.5c-2.7.8-6.1 1.5-7.4 1.5-1.9 0-2.2.3-1.3 1.2s3.5.8 11.1-.2c5.5-.7 12.8-1 16.3-.7 6.3.5 6.3.5 2.9-.9-5-2.2-15.6-2.6-21.6-.9M185.5 381c-9 .3-13 .8-11.3 1.3 5.8 1.6 14.5 1.9 20.3.7 6.2-1.3 10.9-3.1 7-2.8-1.1.1-8.3.5-16 .8M136.6 435.1c-2.9.4-5.9 1.7-7.5 3.2-4 3.8-8.6 5.7-13.8 5.8h-4.8l4 1.5c4.6 1.8 15.9 1.4 17.8-.6.9-.9.1-1-3.8-.5l-5 .8 2.5-2c4.1-3.2 9.6-6 12.9-6.8 1.7-.4 3.1-1.1 3.1-1.6s-.1-.8-.2-.8c-.2.1-2.5.5-5.2 1M251.5 442.6c-.5.1-4.1.5-7.9.9-4.1.4-6.5 1-5.9 1.6 1.3 1.3 18.1 2.3 24.9 1.4l5.9-.8-4-1.2c-4.4-1.3-11.4-2.4-13-1.9M198.5 460.2c-4.3 2.2-7.9 3.2-12.7 3.6-3.7.2-6.5.9-6.2 1.3 1 1.7 13.7.9 17.9-1 3.8-1.7 8.3-5.7 7.4-6.5-.2-.2-3.1 1-6.4 2.6M143.3 492.5c-1.2 2.8-3.3 6.9-4.8 9.2-3 5-2 5.6 2.3 1.4 3-3 5.7-10.4 5-13.7-.2-1.3-1-.3-2.5 3.1M276.5 501.7c-7.6 10.5-30.7 33-41 40-13.5 9.1-51.1 29.8-62.2 34.3-11.7 4.6-20.9 7.1-40.3 10.6-8 1.4-14.7 2.8-14.9 3-1.9 1.8 30.6-2.1 42.2-5 12-3.1 26.8-9.6 46.9-20.8 31.3-17.4 47.9-30.7 62.6-50.4 7-9.3 12.9-18.4 12-18.4-.2 0-2.6 3-5.3 6.7M117 515.4c-8.5 2.4-16.2 7.7-8.9 6.1 5.2-1.1 18-7.9 14.2-7.4-.5 0-2.8.6-5.3 1.3M341.2 525.1c-1.8 1.2-3.1 2.4-2.8 2.6.2.3 2.2-.7 4.3-2.1 4.5-3.1 3.2-3.5-1.5-.5M298.3 543c-36.5 18.3-61.6 34.6-80.3 52-3.8 3.5-3.3 3.2 3.5-1.7 23.5-17.3 39.8-27.2 69-42.2 20.9-10.7 39.5-22.1 36-22.1-.2 0-12.9 6.3-28.2 14M299.6 570.2c-16.8 16.9-29.9 39.3-38.6 65.8-4.4 13.2-8 29.8-7.9 35.7 0 2.7.8.7 2.6-7.2 3.7-16.3 12.1-38.4 21.8-57.3 8.9-17.4 16.8-29.1 27.4-40.5 9.7-10.3 6.1-8-5.3 3.5M193 621.5c2.3 3.3 8.6 12.3 14 20s12.5 18.9 15.9 25c3.4 6 6.1 10.7 6.1 10.5 0-.3-.9-2.9-2-5.8-5.9-15.5-18.4-35.1-30.5-47.7l-7.7-8zM227.5 803.5c-3.3.8-13.2 2.6-21.9 4.1-20.5 3.4-35.5 3.1-48.4-1.1-4.6-1.4-8.6-2.4-8.9-2.2-.7.7 5 4.5 11 7.2 14.4 6.6 38.9 4.3 72.7-6.9 8.3-2.8 5.8-3.4-4.5-1.1M144 817.7c0 .6.8 2.8 1.7 4.9 3.2 7.4 1.9 22.7-4.6 56.9-3.1 16.3-1.7 14 5-8 5.5-18.1 8.2-31.9 7.4-37.5-.4-2.5-1.8-6.6-3.2-9.2-2.6-4.8-6.3-9-6.3-7.1M253 821.7c-3.9 6.7-5.9 13.1-8.5 26.8-3 16.2-8.7 55.6-8.1 56.2.4.4 2.2-7.1 8.1-33.7 4.3-19.4 11.2-53 10.9-53-.1 0-1.2 1.7-2.4 3.7M861.5 924c2.5 8.1 12 22.7 19.9 30.6 6.8 6.8 17.7 14.2 27.6 18.7 11.3 5.2 20 8.5 20 7.7 0-1.7-22.1-21.8-41.1-37.2-11-8.9-21.7-17.6-23.6-19.3-3.5-2.9-3.6-2.9-2.8-.5M427.5 958.3c-17.7 14.9-43.9 39.6-43 40.5.6.6 5.4-1.3 16-6.6 21.2-10.4 32-20.6 40.6-37.8 2.8-5.7 5-10.6 4.8-10.9-.3-.2-8.5 6.4-18.4 14.8"/></svg>