<svg xmlns="http://www.w3.org/2000/svg" width="666.667" height="666.667" viewBox="0 0 500 500"><path d="M0 250c0 237.1.1 250 1.8 250 2.7 0 6.1-9.8 7.7-22.3 1.3-9.8 1.9-11.6 5.4-17.2 2.2-3.4 4.7-8.8 5.6-11.9l1.7-5.7 4.8 4.5c2.7 2.6 5.1 4.6 5.4 4.6.2 0-1.8-4.3-4.5-9.6-7.8-15.3-10.3-25.1-14.9-58.4-1.1-8-3.1-19-4.5-24.5-2.8-11.4-2.9-12.5-1.4-18 .8-2.7 3-5.9 7-9.8 3.2-3.2 5.9-6 5.9-6.2 0-.3-1.4-.2-3 .1-2.9.6-3 .5-3-2.7 0-1.9.9-5.3 2-7.6 1.5-3.4 3-4.8 7.7-7.1 3.2-1.7 6.9-3.9 8.3-5.1l2.5-2.1-3.7.6c-4.3.7-4.5.3-2.7-5.7.7-2.1 2.4-4.9 3.8-6.3 1.5-1.4 9.9-5.7 18.6-9.5 8.8-3.8 22-9.6 29.3-13 19.1-8.9 25-9.5 31.4-3.4 3.5 3.3 25.1 36.5 27.8 42.5 1 2.4 2.1 6.5 2.5 9.3.3 2.7.8 6.5 1.1 8.3.5 3.1.4 3.2-2.1 2.6-2-.5-3.2.1-6.5 3.4-3.6 3.6-4 4.5-4 8.9 0 6.4 1.5 10.8 4.3 12.1 2.2 1.1 2.2 1.1.1 1.1-3.6.1-7.4-3.6-7.4-7.2 0-1.8-1.2-6.4-2.6-10.2-1.4-3.9-3.3-9.7-4.2-13-1-3.4-3.3-8.3-5.3-11-2-2.8-5.5-8.2-7.7-12.1-4.5-7.7-9.7-13-13.9-14-3.5-.9-18.3 2.5-35.1 8-12.6 4.1-14.5 5.6-7.2 5.6 1.5 0 9.4-1.6 17.4-3.5 26.8-6.4 27.6-6.1 39.5 18 11 22.2 13.1 28.2 13.1 37l-.1 7-3.8 2.4c-5.2 3.2-6.6 6.1-6.6 14.2 0 6.1-.2 6.6-1.7 5.8-4.1-2.2-5-5.2-4.2-15.2l.7-9.5-3.8-6.8C94.3 334 84.7 320.6 81 318.7c-4.3-2.3-15.5-1.8-29.9 1.3-5.2 1.1-11.9 2-15 2-5.3 0-5.5.1-3.3 1.6 3.7 2.5 8.6 2.8 21.8.9 16.8-2.3 22.4-1.8 26.8 2.4 3.7 3.6 14.7 20.7 17.2 26.8 2.7 6.3 1.2 13.7-3.8 19.6-3.3 3.9-4.2 5.9-4.6 9.8-.3 3.5-.9 4.9-1.9 4.9-2.6 0-9-7.3-10.2-11.5-1.7-6.2-1.4-7.2 2.1-7.9l3.3-.7-3.9-1.4c-6.2-2.2-8.8-4.7-12.3-11.5l-3.2-6.3-1 4c-.9 3.4-1.6 4.2-4.2 4.7-6.4 1.2-12.9.2-24.8-4.1-1.3-.5-1.2-.2.4 1.7 2.8 3.2 10.5 8 12.9 8 2 .1 2 .1.2 1.2-1.2.7-5.4.9-11.5.6-9.5-.6-9.5-.5-6.1 1.1 2.4 1.1 6.3 1.6 12.8 1.6 5 0 9.2.3 9.2.7 0 1.4-10.4 7.5-15.8 9.4-2.8 1-5.2 2.2-5.2 2.7 0 1.6 11.1-.4 19.4-3.4 4.4-1.6 8.4-2.9 8.8-2.9.5 0 1.7 1.5 2.9 3.2 1.7 2.8 1.9 4.3 1.4 9.7-.4 3.5-1.3 8.2-2.1 10.4-1.7 4.7-1.7 5-.4 4.2.5-.3 2.6-3.5 4.6-7 1.9-3.6 4-6.5 4.4-6.5.5 0 3.8 2.6 7.5 5.8 7.4 6.5 11.2 13 13.9 23.8 3.3 13.3 3.6 13.4 3.1 1.9l-.5-11 3.8 7c4.1 7.8 7.9 13.4 6.8 10-2.1-6.1-4.6-16.4-5.2-21.4-.6-5.3-.4-6.1 2.2-9.9 2.3-3.3 3.5-4.1 6-4.2 4.7 0 11.5-2.7 14.8-5.8 4.1-3.8 5.6-8.1 5.6-15.7 0-7.5.7-8.2 6.7-6.6 3.7 1 9.8 6.4 15.3 13.6 2.1 2.8 2.2 2.9 1.5.5-1.1-3.7-3.4-8.1-6.1-11.7-4.8-6.4-2.2-7.9 7.6-4.3l5.5 2-2.6-2.2c-1.4-1.3-3.8-3.2-5.3-4.3-2.7-2-2.7-2-1.1-5.9 1.4-3.2 1.5-4.9.6-10.7-.6-3.7-1.1-7.2-1.1-7.7s1.8-1.2 4-1.5 5.5-1.4 7.3-2.6l3.2-2.1h-4c-2.3 0-5.7-1-8-2.3-3.8-2.1-4-2.6-4.7-8.2-.9-7.4-2-10.1-7.5-19-2.4-3.9-4.3-8.2-4.3-9.8 0-6.3 6.2-12.7 12.2-12.7q6 0 6.3 11.4c.1 6.3 1 8.8 5.2 14.3 3 4.1 4.1 4.1 5.5.2l1-3.1 3.4 3.3c7.3 7.1 7.9 13 3.4 32.6-1.6 7-3.6 18.6-4.5 25.6-1.3 10.9-2.1 13.9-5.1 20-2 3.9-5.1 11.2-6.9 16.2-7.2 19.5-11.9 27.7-21.9 37.6-6 6.1-8.9 8-19.4 13-6.7 3.3-12.2 6.2-12.2 6.6 0 .3 3.6.3 8.1 0 6.2-.5 8-.4 7.6.6-5.6 13.2-11.1 30-14.2 43l-1.3 5.7h4.4c4.1 0 4.4-.2 5.2-3.2.7-3 2.1-3.9 14.8-10.3 13.2-6.7 59.6-34 73.3-43.1 3.6-2.4 6.8-4.1 7.3-3.8.4.3.8 1.9.8 3.7 0 4.6 4 35.8 4.9 38.7 2.9 8.8 3.4-43.4.8-74.9-.9-11.3-1.6-20.6-1.4-20.7.1-.1 8.7 8.8 19 19.9 19.7 21.1 23.4 25.9 31.9 41.7 2.8 5.2 7.3 12.8 9.9 16.8 5 7.5 19.4 25.7 22.3 28.1 2 1.6 2.3 2.5-4.9-14.9-2.6-6.3-5.8-14.4-7-18-1.3-3.6-2.6-7.3-3-8.3-.6-1.5 0-1.4 4 .9 2.6 1.4 8.1 4.8 12.2 7.5 8.4 5.4 12.5 6.9 19.8 6.9 6.8 0 15.3-4.2 24.3-11.9l7.1-6.1-1.9 5.2c-1 2.9-3.9 10.7-6.4 17.3-2.6 6.6-5.8 14.8-7.1 18.2-1.3 3.5-2 6.3-1.5 6.3 1.2 0 17-17.2 22.6-24.6 6.7-8.9 13-19.8 23.7-41.4 8.8-17.6 11-21.2 23.7-37.9 7.7-10.1 14.1-18.2 14.1-18 .1.2.7 22.9 1.3 50.4 1 44.5 1.3 49.5 2.5 45.5 3.1-10.6 5.2-23.4 5.8-36.8.3-7.8.7-14.2.8-14.2s4.4 2.6 9.6 5.7c5.2 3.2 21.8 12 36.9 19.5l27.5 13.7.3-4.6c.3-3.6-.1-5-1.4-6-1.6-1.2-1.6-1.3-.1-1.3 1.6 0 1.7-5.4 1.6-78.8-.1-53.4-.4-77.3-1.1-74.4-1.8 8.1-2 3.4-.3-8.2 1.3-9.2 1.6-16.9 1.3-38.3-.4-25.7-.5-27.2-3.2-35.7-1.4-4.9-2.5-9-2.3-9.3.2-.2 1.4 2.9 2.6 6.9 1.3 4 2.4 7.7 2.6 8.3.2.5.4-47.9.4-107.8L500 0h-70.2c-68.4.1-70.2.1-65.8 1.9 6.7 2.6 12.2 5.1 15 6.7 1.4.9 3.3 1.8 4.3 2.1.9.3 1.7.9 1.7 1.4s.4.9 1 .9c.5 0 2.9 1.4 5.2 3 2.4 1.7 6.1 4.3 8.3 5.8 8 5.4 27.2 23 32.5 29.8 10.1 12.9 14.1 18.6 16.5 23.4 1.5 3 3.1 5.6 3.6 5.8s.9.8.9 1.3c0 .4 1.1 3.4 2.6 6.6 1.4 3.2 2.5 5.9 2.4 6.1 0 .1.6 1.5 1.4 3 1.3 2.3 4.9 13.7 4.9 15.2-.1.3.8 2.6 1.8 5.3 1.9 4.6 4 14.4 4 18.2 0 1 .4 2.4 1 3.1.5.7.9 1.6.8 2-.1.5 0 1.1.1 1.4.9 2.4 2.2 15 1.5 15-1.1 0-7.1-14.2-14-33-3.7-10.2-8.5-22.5-10.7-27.5-12.2-28.2-32.1-51.3-61.1-70.9-18.1-12.3-36.1-19.8-52.2-21.8-8.4-1.1-10.4-1-20.6 1-11.1 2.1-11.6 2.2-17.4.5-4.3-1.3-9.6-1.7-18.5-1.7-11.3 0-13.4.3-22.1 3.2-27.3 9.1-57.4 30.2-77.3 54.2-17 20.4-26 39.6-35.6 75.5-4.9 18.1-8 27.7-10.1 30.5-.9 1.2-1 1.1-.4-.5.3-1.1 1.5-8.3 2.5-16 6.5-48.6 17.5-74.6 44.4-105 7-8 25.3-23.4 35.4-29.9 9.4-6 20-11.3 28.2-14.2l6.5-2.3H125.2L0 0zM352.9 19.6c19.5 5.1 34.4 15.8 48.3 34.4 5.3 7.2 12.8 19.8 12.8 21.5 0 .5-3.5-2.5-7.7-6.6-4.3-4.1-10-9.1-12.8-11.1-4.6-3.3-16.6-9.8-18.1-9.8-.3 0 2.1 2.9 5.4 6.5 10.6 11.3 18.9 25.2 24.7 41.5 3 8.6 3 8.6-2.6 0-8.5-13.1-19.6-23.8-30.6-29.4-2.9-1.4-5.5-2.6-5.9-2.6-.3 0 1.4 2.8 3.8 6.2 4.5 6.4 12.8 20.9 12.8 22.3 0 .5-3.5-2.5-7.7-6.6-7.3-7-17-14.5-17.8-13.7-.2.1.9 4.1 2.4 8.8 3.6 11.1 10.7 25.1 17 33.4 2.8 3.6 4.8 6.6 4.5 6.6-.9 0-5.7-3.3-13.6-9.2-14.2-10.7-29.2-27-37.3-40.4-3.8-6.3-4.5-5.6-4.5 3.9 0 9.9 1.8 22.8 4.4 31.8 1.4 4.6 2.3 8.5 2.1 8.7-.5.5-7.9-10.7-10.7-16.3-4.1-8.1-6.9-18.4-7.4-27.5l-.5-8.5 4 7.5 4 7.5.1-5.5c0-3 .5-7.5 1-10 .7-3.5.5-5-.7-6.9-1.5-2.3-1.4-2.4.3-1.7 5 1.9 13.4 7.8 20.4 14.4l7.8 7.2-1.5-5.7c-1.5-5.9-5.1-13.8-8.5-18.6-2.9-4-.7-3.6 10.9 2.2 5.4 2.7 9.9 4.8 10.1 4.6s-.8-2.6-2.2-5.4c-3.7-7.2-12.1-15.2-20.5-19.4-3.9-2-6.6-3.9-6.1-4.2 2.3-1.4 18.6 1.4 28.5 4.9 3 1.1-6.2-7.2-11.4-10.2-2.4-1.4-7.1-3.6-10.5-4.9l-6.1-2.3 6.9.6c3.8.3 9.4 1.2 12.5 2M265 21.3c-9.1 3.1-18.9 8.8-25.5 14.8-5.9 5.5-6.5 7-1.8 4.6 5.4-2.8 15.8-5.8 25.3-7.2 13-2 13.2-2 6.6 2-12.4 7.4-23.1 17.2-27.8 25.3l-1.7 2.9 8.7-4.3c4.8-2.4 11.8-5.4 15.5-6.8l6.8-2.5-2.2 3.2c-1.3 1.7-5.9 7.7-10.4 13.2-4.4 5.5-8.4 10.6-8.9 11.3-1.1 1.8 14.5-6.1 21.5-10.9 3.1-2.1 8.1-6.1 11.2-8.9 3.2-2.9 5.7-4.9 5.7-4.5 0 1.4-9.5 16.7-14.6 23.5-5.6 7.4-5.2 7.6 4.6 1.9 5.8-3.3 14.3-10.9 18.4-16.4 1.4-1.9 1.5-1.7 1.6 2.4.1 14.1-13.8 42.4-26.5 54.1l-2.7 2.5 3.1-5.1c5.4-8.8 10.8-21.9 12.6-30.4.7-3.4.6-3.3-8 4.8-8.8 8.4-15.6 13.7-23 18.2l-3.9 2.4 5.2-6.3c2.9-3.5 5.1-6.6 4.8-6.8-.3-.3-2.4 1.1-4.8 3-7 5.7-20.7 14.2-33.4 20.8-6.5 3.4-11.4 5.8-10.9 5.2.6-.5 4.4-3.7 8.5-7 12.1-9.8 35.4-35.3 33.7-36.9-.6-.7-26 12.9-30.5 16.3-1.8 1.4-3.5 2.3-3.7 2.1-.7-.7 6.4-12.1 12.2-19.9 5.7-7.6 5.4-7.9-3.7-2.6-5.4 3.2-20.8 17.6-26.9 25.2-2.4 3-1.9 1.7 2-5 6.6-11.4 13.6-21.9 19.6-29.2 4.2-5.1 4.4-5.6 1.8-3.9-6.7 4.2-13.8 10.2-19.7 16.4l-6.1 6.6 2.9-4.9c4.4-7.7 10.9-16.8 16-22.4 2.5-2.8 4.1-5.1 3.6-5.1-3.6 0-25 19.2-33.5 30l-2.7 3.5 2.5-6c10.2-23.9 31.3-47.3 52-57.5 9.3-4.6 20.9-7.9 28-7.9h5zm47.2 89.2c11.4 18.2 26.5 30.6 46.1 38l6.8 2.5-5.1-6.2c-4.7-5.8-12.9-20.9-14.6-26.8-.7-2.4-.5-2.3 1.9.6 4 4.8 18.2 16.5 26.8 22.2 4.2 2.8 13 7.8 19.6 11.1 17 8.5 20.8 13.6 26.7 35.7 1.9 7.1 4.8 17.6 6.6 23.4 4.7 15.7 5 22.5 1.3 33.1-3.5 10.1-8.9 18.6-20.8 32.4-13.4 15.5-14.8 18.9-17 42.8-1.7 18.4-4 28.8-8 36.7-1.4 2.9-2.4 5.4-2.2 5.6.8.8 6.6-6.6 9.1-11.4 3.3-6.5 4.3-10.7 6.6-27.4 1.1-7.8 2.7-16.3 3.5-18.8 1-3 4.8-8.2 11.6-16 5.5-6.3 10.9-12.9 12.1-14.8 1.1-1.8 2.2-3.1 2.5-2.9.2.3-.3 5.1-1.1 10.8s-2.2 17.1-3.1 25.4c-3.4 32.6-5.1 39.7-10.7 47.7-4.5 6.2-22.4 25.4-30.2 32.2l-6.4 5.6 2.4-7.6c1.4-4.2 2.3-7.9 2.1-8.1-.3-.2-2.8 3.8-5.6 8.8-7.6 13.2-11.8 18.5-18.5 23-3.2 2.1-9.1 4.9-13 6.1-6.5 2-9.2 2.2-31.1 2.2-15.2 0-26.2-.4-30-1.2-14-2.9-23.6-10.7-33.7-27.3-3.2-5.2-6.2-10.1-6.7-10.9-1.2-1.8 1.5 8.1 3.5 12.8l1.4 3.4-4.8-4.1c-9.4-8-29.9-28.7-33.1-33.4-4.7-6.9-6.8-13.7-8.7-27.9-.8-6.7-2.7-20.2-4.1-29.8s-2.7-19.3-3-21.5l-.5-4 2.9 3.5c1.5 1.9 6.6 7.5 11.1 12.5 13 14 13.1 14.2 17.1 43.2 2 14 6.7 24.7 14 31.7l3.1 2.9-3.9-7.9c-5.5-11.3-6.8-16.3-8.6-34.6-1.7-17.3-4.2-27.7-8-33.8-1.3-2-6-7.7-10.5-12.5-10.3-11.2-18.4-23.1-21.5-32.1-3.5-9.8-3.3-18.6.6-34.4 1.6-6.9 3.9-16.6 4.9-21.6 4.6-21.9 11.3-31.1 32.6-44.7 3.9-2.5 11.9-8.1 17.8-12.6 5.8-4.4 10.6-7.8 10.6-7.5 0 1.2-10.5 14.9-15.4 20.1-2.7 2.9-4.4 5.3-3.9 5.3 2.6 0 15.5-4.6 22.8-8 19.8-9.6 36.3-24.7 45-41.2l3-5.8 2.3 5.3c1.3 2.8 3.7 7.4 5.4 10.2M421 149.3c9.4 5.4 7.4 5.5-3.5.2-3.8-1.9-9.2-5.5-12-8l-5-4.6 6 3.8c3.3 2 9.8 5.9 14.5 8.6m-327.6-9.7c.5 1.4.4 1.5-.9.4-1.7-1.4-1.9-2-.6-2 .5 0 1.2.7 1.5 1.6m-9 2.4c6 5.4 9.2 18.6 8 33.5-.8 10.3-1.9 11.9-9.4 14.6l-5.5 2 6.7-.4 6.8-.3.6 3.4c.4 1.9.4 9.1.2 16-.5 12.1-.6 12.6-3.2 14.9-2 1.7-3.9 2.3-7.4 2.3-3.4 0-4.3.3-3.2 1 2 1.3 9.6 1.3 12 0 1.7-.9 1.9-.4 2.5 6.4.4 4.1.4 10 0 13.3l-.7 5.8-7.5 3.3c-4.1 1.9-7.6 3.2-7.8 3-.6-.7-4.6-12.6-5.4-16.3l-.9-4-.1 5.5c0 5.2.6 9.5 2.3 14.7.6 2-.1 2.7-7.5 6.3l-8.1 4.1.6-3.3c.4-1.8.9-12.8 1.2-24.3.5-17.8 1-22.5 3.1-30.5 1.7-6.5 2.7-14.2 3.3-24.5.8-15.9.9-16.1 4.7-24.2 2.2-4.6 2.5-6.3 2.2-14.3-.4-10.1 0-11 5.8-11 2.2 0 4.4 1 6.7 3m73.1 5.5c-1.4 7.6-7.5 25.2-12.3 35.5-3.2 7-10.5 29.1-9.8 29.8.2.2.9-.5 1.4-1.5.6-1 6.1-8.1 12.2-15.8s13.1-17.4 15.5-21.5c6.5-11.1 6.6-11.2 3.4-2.5-3.7 9.8-8.7 19.1-17.7 33.2-12.2 19-19 34.5-20.9 47.5l-.7 5.3-.8-6.5c-.4-3.6-.6-10.1-.3-14.5l.4-8-1.5 4.5c-.8 2.5-2.3 8.5-3.3 13.5l-1.9 9-.1-12c-.1-13.7 1.7-26.7 5.4-38.4 3.6-11.3 7-18.5 16.8-35.7 4.7-8.2 10-18.2 11.7-22.2 1.8-4 3.4-7.1 3.6-7 .1.2-.3 3.5-1.1 7.3m299.1 5.5c2.3 3.6 7.2 10.5 10.8 15.5 11.7 16 21.1 37.9 25.1 58.5 2.1 10.9 3.2 37.9 1.7 40.6-1 1.7-1.1 1.5-1.2-1.6 0-4.3-4.1-21.1-7.3-30.5-2.7-7.6-7-17.2-6.3-14 .9 3.7 1.9 14 1.3 13.5-.2-.3-1.9-4.1-3.6-8.5-3.9-9.7-8.2-16.9-18.1-30.3-6.8-9.1-16-24.5-16-26.8 0-.5 1.5.9 3.3 3.1 6.8 8.4 25.2 27.6 25.5 26.7.5-1.7-4.7-14.3-10.7-25.6-5.2-9.8-13.1-29.7-13.1-32.9 0-.7 1 .4 2.2 2.3 1.1 1.9 4 6.4 6.4 10M96 143c0 .5-.2 1-.4 1-.3 0-.8-.5-1.1-1-.3-.6-.1-1 .4-1 .6 0 1.1.4 1.1 1m-26.3 9.4c-.3 4.1-1 8.2-1.5 9.1-.9 1.7-.7-6.4.4-13.3.9-6 1.7-3.2 1.1 4.2M98 147c0 .5-.4 1-1 1-.5 0-1-.5-1-1 0-.6.5-1 1-1 .6 0 1 .4 1 1m1 2.4c0 .3-.4.8-1 1.1-.5.3-1 .1-1-.4 0-.6.5-1.1 1-1.1.6 0 1 .2 1 .4m.5 4.6c.3.5.1 1-.4 1-.6 0-1.1-.5-1.1-1 0-.6.2-1 .4-1 .3 0 .8.4 1.1 1m1.4 8c0 2.3-.1 2.3-.9.5-.5-1.1-.9-3.1-.9-4.5 0-2.3.1-2.3.9-.5.5 1.1.9 3.1.9 4.5m378.3 6.2c1.5 3.2 2.5 5.8 2.3 5.8-.6 0-7.5-13.7-7.5-14.7.1-1.1 1.9 2.1 5.2 8.9M100 182.1c-.8 1.9-1 1.4-.5-3.1.3-3 .6-7.5.7-10s.4-1.2.5 3.1c.2 4.1-.1 8.6-.7 10m386-.7c0 1.2-.5.7-1.9-2.4-1.1-2.4-1.1-2.4.3-.6.9 1.1 1.6 2.4 1.6 3m4 8.5c1.6 3.4 2.7 6.1 2.5 6.1-.5 0-4.2-7-5.6-10.8-1.7-4.4.1-1.8 3.1 4.7m-390.4-.8c.1 1.6-.2 3.2-.7 3.5s-.9-1.4-.9-3.7c0-4.7 1.4-4.5 1.6.2m1.2 16.4c0 3.3-.4 7.3-.8 9-.5 1.9-.8-.9-.8-8 0-7 .3-10.3.8-9 .5 1.1.8 4.7.8 8m61.7 16.4c-7.2 14.4-16.5 38-16.5 42.2 0 2-.5 2.4-4.1 3.2l-2.6.7.9-5.3c1.1-5.7 4.9-16.3 8-21.7 3.6-6.2 16.2-25 16.6-24.6.2.2-.8 2.7-2.3 5.5M465 232c3.4 5.2 7.3 11.7 8.7 14.5 1.4 2.7 2.9 5.2 3.2 5.5 1.8 1.3 5.4 10 7.1 17.4 2.7 11.1 2.7 27.1-.1 41.3-1.1 5.9-2.2 10.9-2.4 11.1s-.3-5.4-.3-12.5c-.1-27.5-4.8-46-19.3-76.1-3.8-8-6.9-14.7-6.9-15 0-.9 3.7 4.2 10 13.8m-364.2 2c0 3.2-.1 3.3-.8 1-.4-1.4-.8-3.9-.8-5.5-.1-2.5.1-2.7.8-1 .5 1.1.8 3.6.8 5.5m-.1 13.2c-.2 1.8-.4.4-.4-3.2s.2-5 .4-3.3c.2 1.8.2 4.8 0 6.5m13 1.5c-.2 2.1-.4.4-.4-3.7s.2-5.8.4-3.8c.2 2.1.2 5.5 0 7.5M452 261l2.4 5.1-2.2 6.7c-3 9.3-7.4 16-11.7 17.8-4 1.6-7.1 1.8-8 .5-.3-.6.2-5.7 1.1-11.6 1.7-10.6 1.7-10.6 5.1-12 3.8-1.6 6.6-4.5 8.4-8.8.6-1.5 1.5-2.7 1.9-2.7.3 0 1.7 2.3 3 5m-283-1c1.3 3.2 8.5 10 10.6 10 .7 0 1.8 3.8 2.9 9.7.9 5.4 1.9 10.6 2.1 11.5.4 1.5-.1 1.8-2.9 1.8-7.1 0-12.5-6.1-16.8-18.9-2.1-6.3-2.1-6.4-.3-11.7 1-3 2.1-5.4 2.5-5.4s1.2 1.4 1.9 3m-9.6 26.5c1.4 3.6 2.6 7.8 2.6 9.3 0 2.5-.2 2.4-2.9-1.8-1.9-3-3-6.3-3.3-9.7-.3-2.9-.2-5 .2-4.8.4.3 2 3.4 3.4 7m334 19.5c-.7 3.6-1.4 7.7-1.4 9.2 0 1.6-.5 2.8-1.1 2.8-.7 0-.8-.7-.4-1.8.3-.9 1.2-6.9 1.8-13.2 1-9.5 1.3-10.8 1.8-7.5.4 2.3.1 6.8-.7 10.5m-21.3 19.5c2.5 17.2 2.2 27.5-1.2 39.5-1.9 7.1-8.7 21.5-9.6 20.6-.3-.2 0-1.3.5-2.3 2.5-4.9 5.9-26.6 4.7-31-.6-2.5-1-1.7-3.6 6.2-3.1 9.7-10.8 24-17.2 32-4.6 5.7-4.5 5.6.7-4.5 9.9-19.1 18.5-49.4 21.2-74.5.9-8.7 1.4-7.2 4.5 14m16.4 3.1c-1.4 4.3-3 8.8-3.5 9.9-1.6 3.7-2.9 9-4 17.2-1.1 8.6-3.7 17.8-7.1 25-1 2.4-1.9 4.6-1.9 5.1 0 .7-4.2 6-12.1 15.1-1.6 1.8-3.3 3.1-3.6 2.7-.4-.4 1.6-3 4.3-5.9 5.9-6.1 8.8-10.6 13.2-20.3 3.2-7.2 7.1-22.3 7.2-27.9 0-1.7 1.8-8.5 4-15 5.1-15.2 5-14.9 5.5-14.3.3.3-.6 4-2 8.4m-346.6 3.2c.5.9 1.5 4.6 2.2 8 1.4 6.9.8 8.5-4.1 9.7-4.3 1-6.3-1.4-6.8-8.3-.4-5.5-.2-6.3 2.1-8.6 3-3 5.3-3.3 6.6-.8m-20.5 33.3c.8 4.2.7 10.1-.2 11.6-1 1.5-6.1 3.5-7.3 2.7-.5-.3-.9-3.2-.9-6.5 0-5.2.4-6.3 2.6-8.4 3.6-3.3 5-3.1 5.8.6m-24.9 20.5c-1.9 2.9-4.5 3.2-4.5.5s1.8-7.2 3.8-9.5c1.6-1.8 1.7-1.6 2 2.4.2 2.6-.3 5.1-1.3 6.6m75.9 5c2 4.2 5.3 10 7.3 12.8l3.7 5.1-3.4-3c-5.7-5.1-9-8.8-11.6-13.1-2.1-3.6-2.3-4.5-1.3-6.8.7-1.4 1.3-2.6 1.4-2.6.2 0 1.9 3.4 3.9 7.6m278.9 6.2c-1.1 2.4-4.9 6.7-9.3 10.6-7.4 6.5-9 7.5-9 5.6 0-.6.3-1 .8-1 1.3 0 13.3-12.2 16-16.2 3.1-4.8 3.9-4.3 1.5 1m-287.7 3.4c-.9.5-1.6 1.6-1.6 2.4s-1.1 3.7-2.5 6.4-2.5 5.6-2.5 6.4-.6 2.1-1.2 2.8c-.7.7-2 2.6-2.8 4.3-.8 1.6-1.9 3.5-2.5 4.2-.5.6-2.1 2.6-3.5 4.4-2.7 3.7-10.3 11.3-14.3 14.3-1.3 1.1-3.1 3.3-4 5-1.6 3.1-8.4 20.8-10.7 27.9-.6 2.1-1.4 3.7-1.5 3.5-.7-.7 4.2-16.4 7.2-23.3 1.7-3.9 3.4-8 3.7-9.2.4-1.2 2.8-3.8 5.4-5.9 5.9-4.7 7.6-6.4 13.7-13.9 4.9-6 12.2-20.3 14.6-28.2 1-3.5 1.5-4.1 2.6-3.1 1.2 1 1.2 1.3-.1 2m284.1 6.3c-.4.8-1.1 1.5-1.7 1.5-.7 0-.7-.6 0-2.1 1.3-2.3 2.6-1.9 1.7.6m4.5 1.5c-2.5 2.8-5.2 4-5.2 2.2 0-.8 6.1-5.2 7.1-5.2.4 0-.5 1.3-1.9 3m-277.6 2.2 2.9 3.3-3.2-2.9c-3.1-2.8-3.8-3.6-3-3.6.2 0 1.6 1.5 3.3 3.2m17.9 12.1c.6.5-1.3-.2-4.2-1.7-2.8-1.4-5.5-3.1-5.9-3.7-.7-1.1 8.2 3.6 10.1 5.4m258 .7c.3.6-.1.7-.9.4-1.8-.7-2.1-1.4-.7-1.4.6 0 1.3.4 1.6 1m-248.6 2.6c.2.2.2.7-.1 1-.4.3-1.9-.2-3.5-1.1l-2.8-1.6 3 .6c1.6.4 3.2.9 3.4 1.1m3.6 1.5c1.1 1.7-.1 2.1-1.5.4-.8-.9-.8-1.5-.2-1.5s1.4.5 1.7 1.1"/><path d="M278.5 135.5c1.9.8 21.8 3.5 25.9 3.5 2.3-.1 7.9-1 12.6-2.1l8.5-1.9-10 .6c-12.6.9-10.8.9-25.5.1-6.9-.4-12-.5-11.5-.2M280 148.9c4.7 1 11.3 2.5 14.6 3.4 8 2.2 11.3 2.1 21.1-.3 4.4-1.2 11.2-2.7 14.9-3.5l6.9-1.5-7.5.4c-4.1.2-11.7 1.2-16.7 2.2-8.8 1.7-9.8 1.7-18 .1-4.9-.9-12.2-1.9-16.3-2.1l-7.5-.5zM295.1 169.5c-.2 7.8-4.5 15.5-8.8 15.5-.4 0-1.6-1.3-2.5-2.9-1.2-2.2-2.6-3.2-5.5-3.6-6.4-1.1-42.1-9.5-44.8-10.5-1.5-.6-4.1-1-5.8-1-3.9 0-14 4.6-18.6 8.6-3.8 3.2-11.5 14.7-10.2 15.2.5.2 5.5-1.6 11.1-3.9 9.3-3.7 11-4.1 16.4-3.6 3.4.3 11.1 2.1 17.3 3.9l11.2 3.4-9.2 1.2c-12.1 1.5-20.1 4.3-27.8 9.7-6.8 4.9-9.7 5.4-15.6 3-3.3-1.4-3.4-1.4-2.2.2 3.4 4.1 14.4 6.7 18.7 4.4 1.2-.6 3.5-.3 7.2.9 8.4 2.9 10.3 2.4 4.3-1-2.9-1.7-5.3-3.2-5.3-3.4 0-.7 6.7-4.6 7.9-4.6.6 0 1.1.5 1.1 1.1 0 2.8 3.4 7.8 6.1 8.9 3.8 1.6 11.4.7 14-1.6 1-.9 2.2-3.5 2.5-5.6.4-2.1 1.2-3.8 1.8-3.8 1.3 0 8.2 6.7 7.5 7.4-.2.2-1.7 1.1-3.4 1.9l-3 1.6 5.7.1c3.1 0 6.3.3 7.2.6 3.3 1.3 2.9-2.6-.8-6.6-2-2.2-3.6-4.2-3.6-4.5 0-.8 6.1 2.5 9.7 5.2 1.8 1.4 3.5 3.3 3.8 4.3.7 2.1-1.5 6.8-5.5 12-4.7 6.1-4.5 6.6.5 2.2 5.2-4.5 10.5-11.5 10.5-13.8 0-.7.5-1.6 1.1-2 .9-.5 1 1.7.5 8.2-.6 7.2-.3 10.8 1.3 18.3 1.2 5.2 2.4 9.7 2.7 10 .4.3.4-4.4 0-10.6-.4-6.8-.3-14.5.4-19.7 1.2-8.5 1.2-8.6-1.8-15l-3-6.4 3-2.2c5.9-4.4 8.6-16.3 5.3-23.5l-1.3-3zM244 201c0 1.3-.7 2-2 2s-2-.7-2-2 .7-2 2-2 2 .7 2 2M312.7 168c-2.3 8.2.5 18.4 6.2 23.3l3.2 2.6-3 5.3c-2.7 4.8-2.9 5.7-2 9.8.6 2.5 1.4 13 1.7 23.5l.7 19 2-10c1.4-6.9 1.9-13.3 1.8-20.5-.2-9.6-.1-10.2 1.1-7.4 1.4 3.2 7.8 9.1 13.8 12.7l3.3 2.1-3.2-3.5c-4.7-5.1-8.3-10.9-8.3-13.4 0-2.4 3.6-6.2 9-9.4 5.3-3.2 5.5-2.6 1.1 3-2.2 2.8-3.9 5.5-3.6 5.9s2.6.3 5.2-.2c2.7-.5 5.8-.6 7.1-.3 3.3.8 2.7-.4-.8-1.6-1.6-.6-3-1.5-3-2.1 0-.5 1.6-2.6 3.6-4.6 3.8-3.8 5.4-3.3 5.4 1.4 0 1.2 1.1 3.3 2.5 4.8 2.1 2.3 3.2 2.6 8.5 2.6 5.1 0 6.5-.4 8.6-2.5 1.3-1.3 2.7-3.8 3-5.5.4-1.6.9-3 1.1-3 1 0 8.3 4.4 8.3 4.9 0 .3-1.9 1.8-4.3 3.3-3.5 2.3-3.8 2.8-1.9 2.8 1.2 0 3.9-.7 5.8-1.5 2.5-1 5.3-1.3 9.3-.9 6.9.8 11.9-.6 15.2-4.3l2.4-2.6-3.2 1.7c-5.5 2.8-9.7 2.1-17-2.9-7.6-5.2-16.4-8.2-27.8-9.2l-8-.8 13-4.4c15.6-5.2 18.8-5.2 32 .2 11.1 4.6 12 4.7 10.1.9-4.1-7.9-9.7-13.2-18.1-17.4-9.6-4.8-7-4.9-29.5 1-6.3 1.7-16.7 4.1-23 5.3-11.3 2.2-14.8 3.9-16.2 8-.4 1.1-1 1-3.3-.7-4.6-3.3-6.6-6.8-7.4-12.5-.5-4.4-.8-4.9-1.4-2.9m50.2 31.4c.9 1 .8 1.6-.4 2.6-1.9 1.6-4.1-.1-3.2-2.4.8-2 2.1-2 3.6-.2"/><path d="M299.1 194.1c-1.8 1.1-3.2 2.2-3 2.4s2.5-.1 5.1-.7c3.3-.8 5.8-.8 8.9 0 5.7 1.4 6 .8 1-1.7-5.1-2.6-7.7-2.6-12 0M397.3 211c1.8 1.2 15.9 4.1 16.5 3.5.9-.9-7.5-3.6-12.7-4.1-4.3-.4-5.2-.3-3.8.6M201.3 214c-2.4 1-4.3 2.1-4.3 2.3 0 .6 15-2.9 15.7-3.7 1.5-1.5-7.6-.4-11.4 1.4M218.4 217.2c1.5 2.3 3.9 3.9 7.9 5.2 2.7.8 2.1.1-2.5-3-7.1-4.8-7.1-4.8-5.4-2.2M388.2 218.5c-2.8 2-5.2 3.8-5.2 4 0 1 7.5-3.3 9.4-5.4 2.6-2.9 1.9-2.7-4.2 1.4M256.5 220.6c-3.8 1.8-9.5 4-12.5 4.8l-5.5 1.5h5.1c6 .1 14.1-2.1 20.7-5.7 9.7-5.2 2.9-5.8-7.8-.6M342 217.5c0 .3 2.6 1.8 5.8 3.4 6.3 3.1 14.3 5.1 20 5l3.7-.1-4.5-1.3c-2.5-.7-8-2.6-12.3-4.4-6.9-2.8-12.7-4-12.7-2.6M274.2 256.6c-5 3.5-26.7 35.5-34.6 51.1-2 3.9-3.6 14.7-2.4 16.5.5.9.8.4.8-1.3 0-6.1 4-15.4 9.6-22.4 3-3.9 8.3-11.1 11.7-16l6.1-9 .9 3.7c1.4 5.8 7 10.3 14.7 11.6 3.9.7 7.9 2.2 10.3 3.9 7.8 5.5 10.1 6.7 15 7.8 4.6 1 5.2 1.5 6 4.6.5 1.9.7 5.1.4 7.1-.6 4.8 0 4.8 1.9.1 1.2-2.6 1.4-5.2.9-9.1-.5-4.4-.3-5.7 1.1-7.3 3-3.3 7.9-5.9 13.3-6.9 10.7-2 15-5.6 16.1-13.3l.5-3.9 8 10.8c4.4 5.9 10 13.1 12.4 15.9 5.5 6.3 8.7 13.2 10 21.4 1.4 8.9 2.5 9.1 1.8.3-.8-9.3-3.1-14.4-15-32.4-14.8-22.5-27-36.8-29.4-34.4-.4.3.3 1.6 1.5 2.9 2.6 2.7 5.2 9.8 5.2 14.1 0 4.5-2.6 7.9-5 6.6-4.9-2.6-10.7-.6-19.5 6.6-7.5 6.1-12.8 5.8-22.7-1.5-7.6-5.5-12.8-7-16.2-4.7-1.3.8-2.7 1.1-3.3.8-1.5-1-3.3-4.8-3.3-7 0-3.8 3.2-12.5 5.5-14.8 3.3-3.3 1.7-4.6-2.3-1.8"/><path d="M321.8 259.5c.4 2.2.7 6.4.6 9.4-.1 5.4-.1 5.4 1.8 3.1 2.4-3 2.3-5.5-.7-11.5l-2.4-5zM288.6 259.9c-2 3.7-2.1 9.5-.2 11 1.1 1 1.4-.1 1.8-6.1.3-4 .4-7.5.2-7.6-.1-.2-1 1-1.8 2.7M277.5 327.6c-14.6 5-21.3 5.7-22.2 2.4-.7-2.7-2.8-2.5-5.2.6-2.8 3.6-3.3 5.7-2.1 9l1.1 2.9 1.9-2.5c1.8-2.4 2.4-2.5 12.2-2.5 5.7 0 14.3-.4 19.1-.9 6.3-.7 11.2-.5 17.4.4 7.2 1.1 9.7 1.1 16.2 0 8.6-1.6 10.2-1.6 26.1-.5 8.1.5 12.8.4 15.9-.4 4.1-1.2 4.5-1.1 7 1.3 1.5 1.4 3 2.6 3.4 2.6s.7-1.8.7-4c0-3-.7-4.7-2.5-6.5-2.9-3-5.5-3.2-5.5-.5 0 1.4-.9 2.1-3.5 2.6-2.7.5-7-.5-18.3-4-8.1-2.5-16.1-4.6-17.9-4.6-1.7 0-5.5 1.1-8.3 2.4-5.5 2.6-6.4 2.5-13-.9-4.4-2.3-8.3-1.8-22.5 3.1M338 349.7c-6.3 2.6-7.1 2.6-30 2.6-22 .1-23.8-.1-28.9-2.2-2.9-1.2-5.5-2-5.7-1.8-.7.6 9.3 9.6 12.1 10.9 3.2 1.4 3.2 2-.4 4.1-3.7 2.2-10.6 10.5-7.6 9.2 10.8-4.6 16.4-5.9 29-6.3 14.1-.4 23 1 30.6 4.9 2.3 1.1 4.2 1.9 4.4 1.7 1-1-4.4-7.4-8.3-9.8l-4.6-2.8 3.5-1.6c3.5-1.5 15.2-11.6 13.4-11.5-.5 0-3.9 1.2-7.5 2.6M355.4 368.2l-1.9 2.3 2.3-1.9c1.2-1.1 2.2-2.1 2.2-2.3 0-.8-.8-.2-2.6 1.9M83 222c-1.2.8-1.1 1 .5.9 1.1-.1 3.1-.5 4.5-.9 2.4-.8 2.4-.8-.5-.9-1.6 0-3.7.4-4.5.9M60.1 227.5c.1 1.9 1.8 5.1 1.8 3.5 0-.8-.4-2.2-.9-3s-.9-1.1-.9-.5M302.7 1.2c1.5.7 3 .7 5 0 2.6-1 2.4-1-2.2-1.1-4.2 0-4.6.2-2.8 1.1M95.6 264.2c-.8 1.2-1.8 3.6-2.1 5.3-.6 2.2-.1 1.7 1.9-2 2.7-5.1 2.8-7.4.2-3.3M103.7 267.8c-1.8 2-4.1 7.6-2.8 6.7.5-.3 2.4-2.3 4.1-4.5 2.1-2.7 2.7-4 1.7-4-.7 0-2.1.8-3 1.8M85.7 294.1c-2.2 1.3-4.7 6.8-4.7 10.1 0 1.7.8.9 3-3.1 1.6-2.9 3.5-6 4.1-6.7 1.4-1.7.1-1.8-2.4-.3M91.4 303.5c-1.4 2.5-2.4 4.8-2.1 5.1.7.7 6.7-6.8 6.7-8.3 0-2.6-2-1.2-4.6 3.2M129.3 309.4c-4 3.5-2.6 3.7 3.2.4 4.4-2.4 4.7-2.8 2.3-2.8-1.5 0-4 1.1-5.5 2.4M173.1 311.7c-.1.6-.4 2-.7 3-.5 1.7-.5 1.7.6 0 .6-1 .9-2.3.6-3-.3-.9-.5-.9-.5 0M132 315.1l-3.5 2 3-.6c1.7-.4 3.7-1.3 4.5-2.1 2-2 .1-1.7-4 .7M69.6 327.9c-1.7 1.8-3.9 8.1-3.2 8.9.3.2 1.7-1.9 3.1-4.8 2.8-5.6 2.9-7.2.1-4.1M78.3 331.2c-1.3 1.6-4.3 7.5-4.3 8.3 0 1.5 2.2-1 4.1-4.7 2-4 2.1-6 .2-3.6M112.5 345.5c-2.2 1.9-3.5 3.5-2.9 3.5 1.6 0 7.7-4.3 8.2-5.8.6-2-1.1-1.3-5.3 2.3M94.5 360c-1.6 1.6-2.4 3-1.8 3 1 0 3.4-2.4 4.7-4.8 1.2-2 .2-1.4-2.9 1.8M90.2 447c-3.7 4.1-7.3 6.9-12 9.2-6.2 3.1-7.4 3.3-16.7 3.3-5.5 0-11.6-.4-13.5-.8-3.4-.8-3.4-.7-1.5.9 1.1.9 4.4 2.8 7.4 4.2 13.5 6.3 29.9.9 37.7-12.4 2-3.4 4.8-10.5 4.1-10.4-.1 0-2.6 2.7-5.5 6M438 458.9c5.6 10.4 19.3 21 32 24.6 2.5.7 2.5.7-.5-2.5-3.2-3.4-32-27.3-33.7-27.9-.6-.2.4 2.4 2.2 5.8M101.8 459.2c-4.4 2.6-5.9 5.4-8.6 16.8-2.2 8.7-3.9 20.9-2.9 20 .3-.3 2.6-6.2 5-13.2 2.5-7 6.1-15.7 8-19.3s3.2-6.5 2.8-6.5c-.3 0-2.3 1-4.3 2.2M185.9 476.4c-7.9 6.8-15.7 13.8-17.4 15.6l-3 3.1 2.9-1.1c8.8-3.3 19-9.6 23.2-14.3 4.3-4.8 10-14.4 9.1-15.3-.2-.2-6.9 5.2-14.8 12"/><path d="M80 468c-10.9 3.3-21.4 3.8-30 1.5-3-.8-5.6-1.2-5.8-1-.8.7 9.2 6.6 13.3 7.7 2.2.6 4.1 1.3 4.3 1.4s-.4 3.9-1.2 8.4c-2.4 12.2-2 12.4 3.4 2l5-9.5 9.5-4.9c5.2-2.7 10.2-5.7 11.1-6.7 2.1-2.3 2.1-2.3-9.6 1.1"/></svg>