<?xml version="1.0" standalone="no"?>
<!DOCTYPE svg PUBLIC "-//W3C//DTD SVG 20010904//EN"
 "http://www.w3.org/TR/2001/REC-SVG-20010904/DTD/svg10.dtd">
<svg version="1.0" xmlns="http://www.w3.org/2000/svg"
 width="1000.000000pt" height="1000.000000pt" viewBox="0 0 1000.000000 1000.000000"
 preserveAspectRatio="xMidYMid meet">

<g transform="translate(0.000000,1000.000000) scale(0.100000,-0.100000)"
fill="#000000" stroke="none">
<path d="M1170 7110 l0 -910 3830 0 3830 0 0 910 0 910 -3830 0 -3830 0 0
-910z"/>
<path d="M2659 4889 c-805 -583 -1470 -1066 -1477 -1072 -9 -10 -12 -270 -10
-1259 l3 -1246 1910 1350 c1051 742 1915 1352 1922 1355 7 3 867 -572 1913
-1276 1045 -705 1902 -1281 1905 -1281 3 0 4 530 3 1177 l-3 1178 -1309 1067
-1309 1068 -1041 0 -1042 0 -1465 -1061z"/>
</g>
</svg>
