<?xml version="1.0" standalone="no"?>
<!DOCTYPE svg PUBLIC "-//W3C//DTD SVG 20010904//EN"
 "http://www.w3.org/TR/2001/REC-SVG-20010904/DTD/svg10.dtd">
<svg version="1.0" xmlns="http://www.w3.org/2000/svg"
 width="1024.000000pt" height="1024.000000pt" viewBox="0 0 1024.000000 1024.000000"
 preserveAspectRatio="xMidYMid meet">

<g transform="translate(0.000000,1024.000000) scale(0.100000,-0.100000)"
fill="#000000" stroke="none">
<path d="M5665 9364 c-378 -71 -890 -355 -1280 -711 -447 -409 -703 -806 -856
-1333 -33 -112 -34 -114 -41 -75 -4 22 -7 92 -7 156 -1 130 -25 290 -73 474
-66 258 -132 369 -261 437 -34 18 -58 23 -122 22 -80 0 -124 -14 -167 -51 -15
-14 -17 -12 -23 24 -12 66 -46 176 -71 226 -36 69 -85 120 -156 157 -51 27
-77 34 -139 38 -89 5 -144 -10 -213 -57 -77 -53 -126 -186 -126 -343 l0 -57
-62 29 c-53 25 -76 30 -139 30 -68 0 -85 -4 -148 -36 -86 -43 -129 -95 -161
-194 -25 -79 -63 -319 -92 -581 l-22 -196 -45 26 c-62 35 -175 37 -238 3 -79
-42 -104 -89 -192 -375 -92 -297 -100 -333 -111 -538 -5 -101 -17 -249 -26
-329 -14 -124 -15 -170 -5 -315 25 -372 18 -714 -18 -937 -36 -223 -44 -361
-32 -571 6 -106 16 -291 21 -412 11 -230 29 -414 56 -575 29 -174 109 -472
159 -591 28 -66 48 -129 48 -149 -1 -49 -37 -147 -101 -275 -87 -174 -85 -168
-87 -375 -2 -178 -3 -190 -39 -325 -20 -77 -144 -462 -276 -855 -132 -393
-240 -719 -240 -723 0 -4 30 -7 68 -5 l67 3 22 65 c538 1599 521 1541 532
1845 l7 190 48 105 c26 58 57 131 68 162 l19 57 62 -46 c132 -97 247 -139 409
-150 157 -10 263 14 593 137 141 52 83 45 -140 -17 -88 -24 -191 -48 -230 -53
-125 -16 -288 19 -402 86 -148 86 -254 251 -358 554 -93 271 -132 467 -159
780 -43 504 -45 919 -7 1150 18 109 21 168 21 460 0 215 -5 382 -14 465 -10
89 -11 155 -5 210 8 83 22 260 38 500 8 120 16 162 55 295 69 236 125 401 148
433 41 57 121 72 194 36 127 -61 153 -302 83 -770 -10 -66 -14 -78 -36 -88
-47 -22 -207 -43 -286 -39 -59 4 -74 2 -60 -6 10 -6 68 -12 128 -14 101 -3
167 6 225 32 13 5 15 -10 15 -106 1 -62 3 -165 5 -228 4 -98 2 -121 -14 -158
-18 -39 -18 -43 -3 -55 21 -15 57 -219 57 -323 0 -114 -24 -207 -65 -248 -26
-26 -2 -19 46 13 52 35 131 129 161 190 12 24 23 67 25 95 l4 51 -19 -46 c-11
-26 -27 -57 -36 -70 -15 -22 -16 -18 -16 98 0 119 -16 305 -44 513 -28 206
-29 275 -6 415 24 148 36 424 23 530 -18 143 20 569 82 929 19 108 58 183 115
221 41 27 53 30 126 30 72 0 86 -3 130 -30 36 -22 56 -43 74 -80 24 -48 25
-58 28 -280 3 -145 -2 -319 -12 -470 -28 -417 -31 -638 -11 -828 31 -298 11
-693 -44 -884 -5 -18 -7 -33 -3 -33 4 0 39 31 78 68 47 45 75 81 84 107 15 44
13 76 -25 535 -30 357 -30 478 1 1037 16 292 16 366 6 610 -20 454 -4 562 93
618 130 77 302 15 368 -132 51 -116 58 -178 68 -603 5 -217 13 -451 17 -520 4
-69 4 -215 0 -325 -5 -119 -4 -263 2 -355 12 -171 4 -304 -30 -545 -33 -229
-25 -326 29 -355 26 -13 105 -13 190 2 50 8 90 9 140 2 39 -5 71 -8 71 -7 0 2
-28 17 -62 34 -97 48 -127 76 -159 143 -25 52 -29 57 -29 31 1 -39 23 -101 46
-126 17 -19 16 -19 -28 -19 -24 0 -52 6 -61 13 -27 20 -41 175 -32 387 16 431
16 1068 -1 1280 -20 254 -16 577 8 630 41 94 162 133 259 84 59 -30 124 -133
168 -264 11 -36 37 -141 56 -235 30 -142 37 -203 45 -375 5 -113 18 -279 29
-370 12 -91 21 -218 21 -283 0 -65 9 -211 20 -325 23 -238 50 -635 44 -641 -2
-3 -32 1 -66 7 -34 6 -64 10 -66 8 -2 -2 24 -16 57 -31 33 -15 66 -35 74 -44
30 -34 74 -268 107 -566 6 -55 26 -176 45 -270 42 -213 46 -235 39 -235 -2 0
-42 26 -87 57 l-82 57 38 -44 c91 -108 147 -178 147 -182 0 -4 -178 57 -285
96 -16 6 -15 4 5 -13 39 -33 187 -106 275 -137 44 -15 84 -31 89 -35 4 -4 -43
-33 -105 -63 -101 -50 -210 -121 -154 -100 11 4 88 31 172 60 84 29 166 60
182 69 17 8 31 15 33 15 2 0 1 -23 -1 -51 -3 -57 18 -126 50 -155 19 -17 19
-17 2 22 -11 25 -17 67 -17 119 -1 78 0 82 35 125 51 63 82 115 146 244 31 61
71 139 90 173 l34 62 66 -70 c68 -72 167 -130 243 -144 l35 -6 -45 27 c-69 42
-221 158 -254 192 -26 28 -28 35 -22 74 18 112 132 282 268 397 238 203 466
258 589 141 70 -66 63 -118 -39 -293 -83 -145 -124 -233 -177 -387 -25 -72
-87 -211 -147 -330 -106 -208 -132 -278 -228 -605 -46 -155 -97 -272 -158
-361 -22 -33 -119 -153 -216 -269 -97 -115 -252 -300 -345 -410 -214 -255
-293 -330 -402 -384 -201 -98 -450 -130 -758 -97 -84 9 -155 16 -156 14 -2 -2
88 -32 200 -68 l202 -65 -44 -39 c-76 -67 -124 -165 -187 -386 -47 -161 -157
-733 -144 -746 3 -2 15 42 27 98 109 501 254 883 361 954 45 30 128 54 188 54
23 0 42 -1 42 -3 0 -2 -16 -50 -35 -108 -131 -384 -220 -817 -335 -1624 -33
-231 -63 -433 -66 -448 l-6 -28 63 3 63 3 18 129 c10 71 19 130 20 131 2 1 95
50 208 109 263 138 700 401 1211 729 143 92 264 167 269 167 4 0 10 -42 14
-92 4 -51 18 -190 31 -308 14 -118 30 -258 36 -310 12 -108 18 -144 24 -138 3
2 15 78 27 169 34 257 31 641 -10 1179 -17 228 -34 435 -37 460 l-6 45 43 -50
c107 -124 292 -331 398 -445 222 -238 306 -356 484 -679 144 -260 195 -341
318 -503 117 -154 259 -327 271 -327 4 -1 1 12 -7 27 -58 112 -304 767 -292
779 5 6 165 -94 264 -166 54 -39 130 -85 168 -103 67 -32 73 -33 200 -33 130
0 130 0 205 37 68 34 270 189 328 252 14 14 28 26 33 26 4 0 -12 -55 -36 -123
-40 -110 -253 -677 -271 -719 -16 -38 17 -14 109 82 176 184 310 356 432 556
36 60 150 278 253 484 232 467 232 466 458 770 55 74 136 188 180 252 l80 117
7 -307 c3 -169 9 -596 12 -950 4 -354 10 -640 14 -635 12 12 56 182 84 323 34
173 47 293 55 518 l6 192 95 -63 c200 -134 426 -258 1085 -592 204 -103 425
-217 493 -252 l123 -65 -3 87 -3 87 -570 287 c-605 305 -701 356 -903 477
-137 83 -192 121 -192 133 0 4 41 45 92 91 117 106 240 247 280 322 17 32 33
57 35 54 2 -2 -11 -44 -30 -92 -19 -49 -38 -100 -42 -114 -4 -14 -23 -56 -42
-94 -18 -39 -32 -74 -30 -79 9 -28 239 182 332 303 157 206 257 484 296 826 6
55 32 150 78 290 81 242 103 341 131 588 11 99 21 181 23 183 2 2 7 -24 10
-58 7 -61 20 -99 30 -83 9 17 27 119 64 379 35 247 37 274 37 535 1 241 -2
294 -23 430 -46 303 -138 577 -303 905 -169 336 -244 514 -383 910 -61 173
-138 385 -197 535 -239 616 -716 1153 -1352 1525 -122 71 -206 109 -378 174
-286 106 -510 121 -780 52 l-108 -28 -132 35 c-118 31 -150 35 -283 38 -104 2
-174 -1 -230 -12z m1484 -274 c318 -81 527 -210 748 -462 155 -176 246 -313
353 -530 l51 -103 -73 80 c-191 210 -372 352 -585 459 -51 25 -96 46 -99 46
-4 0 40 -48 98 -107 185 -191 303 -374 413 -642 47 -114 107 -292 101 -298 -2
-2 -27 37 -56 87 -154 267 -389 502 -614 611 -44 21 -81 37 -84 35 -2 -3 23
-42 55 -88 78 -109 149 -229 213 -358 l53 -105 -139 135 c-116 112 -293 254
-335 268 -13 5 -6 -24 53 -203 77 -231 216 -493 337 -635 68 -79 69 -84 9 -49
-330 194 -752 628 -903 928 -27 55 -39 70 -46 60 -12 -19 -11 -323 1 -434 14
-122 56 -324 85 -410 13 -38 26 -79 30 -90 6 -17 3 -16 -15 5 -77 91 -185 282
-245 434 -50 129 -95 385 -95 546 0 45 1 44 53 -70 29 -63 65 -137 79 -164
l25 -50 5 155 c3 85 11 167 17 183 10 25 8 35 -20 82 -17 30 -26 54 -20 54 19
0 188 -109 264 -169 84 -67 144 -125 209 -198 25 -29 48 -53 51 -53 9 0 -61
238 -89 300 -16 35 -52 98 -81 138 -29 40 -53 75 -53 77 0 15 304 -126 391
-181 21 -13 41 -24 44 -24 2 0 -5 24 -16 53 -76 196 -298 399 -521 478 -20 7
-35 16 -32 21 8 13 150 9 254 -6 95 -15 240 -55 293 -83 49 -25 42 -6 -18 49
-127 116 -244 186 -405 240 l-85 29 110 -5 c77 -3 147 -14 234 -36z m-1404 10
c-11 -5 -60 -20 -110 -35 -104 -31 -243 -96 -335 -157 -61 -40 -275 -237 -266
-245 2 -2 19 5 37 16 145 85 387 150 624 166 l90 6 -87 -48 c-49 -26 -116 -68
-150 -93 -123 -89 -331 -316 -382 -418 l-17 -33 56 35 c30 20 95 55 143 79
104 52 351 152 358 145 5 -6 -154 -219 -304 -408 -55 -69 -98 -127 -97 -129 2
-1 48 21 102 49 245 132 375 223 525 368 84 81 96 90 84 61 -43 -103 -252
-429 -331 -517 -26 -29 -46 -54 -44 -56 8 -7 223 116 277 158 57 44 176 163
245 246 l38 45 -6 -75 c-9 -96 -63 -311 -110 -431 -63 -164 -157 -324 -280
-479 -65 -81 -152 -174 -133 -140 120 204 197 371 242 525 29 102 46 186 37
184 -3 -1 -42 -40 -86 -88 -146 -157 -324 -310 -463 -396 -39 -25 -75 -45 -78
-45 -3 0 19 28 49 63 63 71 139 178 133 185 -3 2 -45 -27 -93 -65 -124 -98
-347 -248 -483 -325 -128 -73 -320 -171 -325 -166 -2 2 47 42 108 90 139 107
338 304 473 466 96 116 204 262 204 277 0 16 -406 -207 -543 -299 -53 -36 -97
-62 -97 -59 0 27 176 310 263 423 28 36 55 71 61 79 6 8 -23 -4 -64 -26 -229
-127 -414 -306 -633 -613 -28 -40 39 93 116 230 120 213 275 441 375 553 43
47 32 47 -38 0 -124 -82 -252 -201 -393 -363 -53 -61 -51 -53 20 70 103 177
192 303 307 434 66 76 66 76 -42 4 -172 -115 -402 -338 -522 -505 -34 -48 -59
-77 -55 -63 17 59 189 393 248 483 157 236 371 458 573 595 143 98 347 186
501 217 138 28 324 45 278 25z m594 -1505 c69 -181 205 -380 366 -540 123
-122 228 -201 356 -269 83 -45 292 -136 310 -136 5 0 -20 35 -54 78 -92 114
-151 207 -211 334 -49 102 -98 228 -91 236 2 2 27 -23 56 -55 237 -259 456
-425 784 -594 220 -113 258 -140 329 -232 87 -113 128 -215 190 -463 30 -121
79 -304 109 -409 68 -236 82 -318 74 -439 -8 -112 -39 -215 -105 -348 -70
-137 -122 -212 -283 -404 -268 -319 -292 -377 -325 -769 -34 -412 -79 -606
-190 -826 -20 -41 -30 -69 -22 -67 29 10 130 146 172 232 71 145 97 253 136
556 46 359 62 400 240 600 66 74 157 185 202 247 46 62 86 112 89 113 3 0 -2
-53 -12 -117 -10 -65 -36 -289 -59 -498 -86 -816 -92 -836 -308 -1089 -164
-192 -552 -595 -552 -573 0 3 13 45 29 94 27 83 63 223 56 223 -2 0 -40 -66
-86 -147 -111 -199 -196 -327 -260 -392 -103 -105 -260 -189 -404 -216 -180
-35 -680 -43 -900 -15 -268 34 -438 132 -591 340 -52 70 -151 234 -197 327
-38 74 -59 100 -50 61 14 -62 57 -197 79 -246 13 -30 23 -57 21 -59 -13 -13
-556 522 -646 636 -87 112 -139 244 -171 439 -11 70 -22 134 -24 143 -2 8 25
51 60 95 83 103 113 160 168 323 26 74 48 137 51 139 6 7 62 -109 78 -165 9
-29 23 -112 32 -185 52 -432 76 -545 145 -678 38 -71 170 -240 189 -240 5 0
-18 52 -51 115 -32 63 -72 154 -89 202 -45 135 -55 201 -94 629 -23 247 -49
351 -121 470 -34 56 -35 61 -24 99 26 86 105 275 160 381 34 64 76 166 99 241
52 165 89 255 152 369 l50 90 97 16 c116 18 239 64 323 120 57 38 60 42 43 55
-27 20 -63 10 -199 -56 -117 -57 -222 -97 -230 -89 -3 2 5 29 16 59 15 40 20
70 17 116 l-4 61 42 7 c87 13 144 80 152 182 3 38 9 53 19 53 16 0 125 -107
143 -139 9 -18 4 -22 -50 -42 -33 -12 -63 -26 -66 -30 -3 -5 34 -9 83 -9 48 0
112 -3 141 -6 47 -6 52 -5 52 13 0 11 -31 57 -70 104 -38 46 -65 86 -60 87 13
5 89 -39 157 -90 55 -40 83 -81 83 -121 0 -36 -43 -114 -120 -214 -38 -51 -66
-93 -61 -93 5 0 56 46 113 103 110 107 147 162 172 259 l13 51 11 -33 c16 -44
15 -90 -4 -185 -10 -53 -13 -104 -9 -151 6 -71 69 -362 81 -373 4 -3 4 91 0
209 -4 128 -2 251 4 305 6 50 13 126 16 170 l6 80 -51 103 c-28 57 -51 106
-51 110 0 4 19 18 41 32 86 53 145 194 137 328 -5 73 -31 152 -50 152 -4 0 -8
-35 -8 -78 0 -129 -32 -205 -113 -263 -49 -35 -53 -36 -61 -5 -3 14 -21 40
-39 59 -28 30 -42 36 -127 51 -140 25 -610 139 -721 175 -150 48 -189 42 -369
-59 -116 -66 -139 -86 -192 -168 -46 -70 -108 -178 -108 -187 0 -11 58 10 195
70 237 105 274 107 540 22 94 -30 196 -61 228 -68 75 -16 82 -29 15 -29 -83 0
-224 -20 -325 -45 -107 -27 -197 -69 -267 -122 -133 -104 -137 -105 -196 -101
-30 2 -81 16 -112 30 -64 29 -73 25 -31 -14 46 -41 85 -65 132 -79 43 -13 43
-13 22 -30 -12 -10 -44 -22 -71 -28 -62 -13 -162 -63 -138 -69 9 -2 34 1 54 7
l37 10 -66 -67 c-37 -37 -78 -83 -93 -102 -39 -54 -98 -176 -129 -270 l-29
-85 -14 45 c-9 29 -15 88 -15 165 0 123 19 231 97 543 13 53 34 147 46 207 55
278 91 380 180 509 84 121 174 203 378 342 218 148 336 236 457 340 48 41 90
72 92 70 12 -11 -196 -293 -304 -413 -41 -46 -70 -83 -64 -83 20 0 255 82 344
121 120 51 287 147 393 227 191 143 390 374 494 573 28 55 53 99 55 97 2 -2
17 -39 34 -83z m2021 -893 c69 -38 148 -81 175 -95 71 -37 40 -33 -73 9 -113
42 -200 87 -280 146 -81 60 -182 148 -182 159 0 5 53 -26 118 -70 64 -43 173
-110 242 -149z m566 91 c69 -128 148 -252 261 -409 160 -224 252 -391 346
-629 70 -178 143 -453 167 -630 14 -108 24 -563 13 -650 l-8 -70 -32 190 c-37
220 -110 490 -178 650 -25 60 -49 113 -54 118 -4 4 0 -34 9 -85 22 -115 33
-225 22 -213 -5 6 -28 64 -51 130 -75 208 -148 338 -322 571 -130 174 -205
293 -281 449 -61 127 -72 159 -35 110 67 -91 176 -219 310 -365 84 -90 169
-182 189 -205 l37 -40 -24 81 c-38 123 -84 232 -183 430 -89 177 -160 355
-206 516 -30 107 -37 138 -32 138 2 0 26 -39 52 -87z m-5255 -61 c-24 -123
-71 -298 -97 -357 l-18 -40 -7 55 c-16 125 -12 155 34 248 24 48 57 121 73
162 36 94 41 71 15 -68z m205 -396 c-57 -156 -181 -420 -249 -530 l-24 -38 -6
47 c-13 95 -10 108 50 191 82 115 134 199 198 318 31 58 59 106 61 106 2 0
-12 -42 -30 -94z m1344 -595 c19 -36 -11 -68 -51 -56 -22 7 -27 60 -6 68 26
11 47 6 57 -12z m-170 -40 c0 -28 0 -28 -65 -27 -36 0 -65 2 -65 3 0 7 116 60
123 56 4 -2 7 -17 7 -32z m-1255 -273 c-84 -200 -105 -230 -105 -153 0 19 103
185 115 185 2 0 -2 -15 -10 -32z m5350 -228 c100 -149 175 -284 225 -400 13
-31 25 -49 28 -41 13 37 104 -207 144 -384 20 -93 17 -503 -5 -625 -17 -93
-67 -320 -70 -320 -1 0 -2 134 -2 298 -1 233 -4 322 -18 412 -53 342 -132 584
-309 950 -50 102 -105 219 -124 260 l-34 75 31 -35 c16 -19 77 -105 134 -190z
m-209 -574 c46 -95 46 -95 34 -151 -32 -152 -108 -314 -177 -375 -53 -46 -130
-69 -176 -51 -27 11 -28 11 -21 76 4 36 16 124 28 197 l21 131 54 28 c86 45
129 94 166 192 10 26 19 47 22 47 2 0 24 -42 49 -94z m-5077 27 c7 -21 27 -60
43 -86 l31 -48 -23 -24 c-13 -14 -30 -25 -38 -25 -21 0 -69 55 -75 87 -5 26
29 133 42 133 4 0 13 -17 20 -37z m5415 -1048 c82 -546 79 -735 -16 -1021 -34
-106 -152 -344 -163 -332 -2 2 10 41 26 87 51 144 79 328 78 509 l0 157 -34
-130 c-42 -168 -121 -349 -226 -523 -49 -79 -180 -254 -187 -248 -2 3 5 17 16
33 30 43 103 193 164 338 129 304 231 711 283 1125 20 155 27 198 31 185 2 -5
14 -86 28 -180z m-5423 -1235 c58 -163 146 -341 218 -437 33 -46 56 -83 51
-83 -6 0 -50 39 -98 88 -106 105 -198 241 -291 428 l-69 137 57 53 56 52 18
-61 c9 -34 36 -114 58 -177z m-241 -48 c78 -168 187 -322 324 -457 177 -176
333 -272 544 -334 l73 -22 -3 -37 c-3 -36 -8 -41 -163 -144 -194 -130 -310
-203 -830 -521 -223 -136 -604 -347 -628 -347 -4 0 -4 12 -2 28 3 15 28 164
55 332 67 405 122 686 176 905 109 437 182 583 329 658 39 20 72 36 75 36 3 0
25 -44 50 -97z"/>
<path d="M6460 6934 c-113 -15 -154 -15 -513 2 -88 4 -132 3 -140 -5 -8 -8 5
-11 50 -11 33 0 125 -11 204 -25 195 -34 283 -33 437 5 68 17 135 30 149 30
39 0 24 7 -27 13 -25 3 -97 -1 -160 -9z"/>
<path d="M5684 6712 c4 -7 23 -12 43 -12 63 0 235 -31 335 -61 195 -58 259
-57 520 10 87 23 189 44 228 47 38 4 70 11 70 17 0 20 -257 0 -370 -28 -58
-15 -141 -29 -185 -32 -80 -5 -106 -2 -285 37 -112 24 -367 40 -356 22z"/>
<path d="M6450 6355 c-10 -20 -14 -70 -15 -150 0 -116 1 -123 33 -187 22 -46
51 -83 89 -117 l55 -50 -26 -45 c-14 -25 -38 -67 -53 -92 l-26 -47 22 -141
c17 -114 22 -187 22 -381 1 -248 9 -372 22 -325 4 14 21 104 38 200 33 187 38
278 23 405 -5 44 -7 93 -4 109 5 28 6 26 18 -19 11 -40 27 -63 95 -129 86 -85
217 -184 199 -150 -6 10 -22 30 -37 44 -39 36 -109 128 -134 177 -50 100 -21
144 167 257 35 21 65 36 67 34 3 -2 -25 -40 -60 -84 -62 -75 -85 -117 -71
-131 3 -3 44 0 90 7 46 7 106 10 133 7 l48 -6 -62 31 c-35 16 -63 36 -63 43 0
19 97 123 131 141 l29 15 0 -54 c0 -119 71 -187 194 -187 115 0 186 50 202
141 3 19 7 44 10 57 l4 22 53 -26 c64 -32 107 -62 107 -74 0 -12 -106 -84
-151 -104 l-34 -14 36 -1 c41 -1 124 22 188 52 39 18 47 19 75 6 50 -22 171
-17 232 10 42 18 142 101 122 101 -3 0 -30 -11 -60 -25 -118 -54 -159 -46
-292 54 -143 109 -297 158 -556 177 l-92 7 138 49 c270 97 317 110 379 110 76
0 145 -20 315 -92 74 -32 150 -61 168 -64 l32 -8 -63 103 c-91 152 -156 213
-300 284 -155 78 -193 81 -344 31 -114 -38 -545 -143 -699 -171 -113 -21 -146
-39 -170 -99 -10 -25 -24 -46 -31 -46 -22 0 -122 101 -143 144 -13 28 -23 76
-28 137 -8 90 -9 93 -22 64z m888 -597 c7 -7 12 -22 12 -35 0 -28 -36 -46 -62
-31 -34 17 -16 78 22 78 9 0 21 -5 28 -12z"/>
<path d="M6235 5874 c-48 -25 -95 -64 -95 -78 0 -10 15 -8 58 10 70 29 148 31
225 5 62 -20 73 -14 30 17 -87 61 -160 76 -218 46z"/>
<path d="M7940 5546 c0 -19 139 -56 265 -71 55 -6 58 -5 39 9 -37 26 -144 57
-225 63 -43 3 -79 3 -79 -1z"/>
<path d="M7833 5427 c-32 -24 -78 -58 -102 -75 -56 -40 -35 -41 44 -4 55 27
125 89 125 112 0 15 -4 13 -67 -33z"/>
<path d="M6977 5432 c-18 -7 -18 -8 0 -23 56 -48 159 -97 259 -123 77 -20 236
-38 246 -28 5 5 -36 21 -89 36 -54 16 -150 52 -213 81 -119 55 -172 70 -203
57z"/>
<path d="M5785 4708 c-11 -6 -31 -20 -44 -32 -35 -31 -253 -326 -315 -425 -98
-160 -279 -483 -302 -540 -25 -62 -44 -183 -43 -269 1 -101 14 -99 27 4 26
203 70 310 190 461 86 108 123 161 238 338 l78 120 7 -62 c13 -128 94 -205
251 -237 124 -26 161 -42 241 -107 97 -80 145 -102 237 -109 l75 -5 13 -55 c8
-33 11 -90 9 -143 -4 -86 -4 -87 14 -71 23 21 49 104 49 157 0 22 -5 69 -11
105 l-12 65 54 48 c79 72 125 96 206 108 112 17 174 45 226 100 49 52 67 99
67 171 l0 45 24 -25 c13 -14 68 -88 121 -165 54 -77 138 -188 187 -248 105
-127 148 -192 175 -267 25 -65 49 -186 59 -290 l7 -75 9 45 c11 56 1 203 -18
279 -21 79 -59 154 -168 326 -52 83 -118 188 -147 235 -76 121 -310 429 -369
484 -31 29 -58 46 -74 46 -36 0 -40 -15 -10 -35 35 -23 91 -145 106 -232 13
-79 4 -131 -31 -174 l-19 -24 -42 24 c-35 20 -51 23 -97 18 -63 -7 -112 -33
-214 -117 -94 -77 -142 -100 -205 -100 -65 1 -118 26 -228 110 -50 38 -108 76
-128 84 -54 23 -123 20 -169 -6 -33 -18 -40 -19 -55 -7 -26 21 -44 73 -44 127
0 100 54 238 112 287 27 23 28 25 9 35 -23 12 -21 12 -46 -2z"/>
<path d="M6058 4703 c-30 -34 -67 -120 -73 -169 -5 -40 -2 -58 17 -94 35 -67
43 -61 40 33 -2 60 2 106 17 162 11 44 19 81 17 82 -1 2 -10 -5 -18 -14z"/>
<path d="M6607 4628 c15 -75 13 -235 -2 -273 -17 -40 33 15 56 62 17 36 20 56
16 101 -6 53 -59 182 -76 182 -4 0 -2 -33 6 -72z"/>
<path d="M5980 3453 c-30 -8 -127 -36 -215 -63 -88 -27 -204 -60 -258 -73
-147 -38 -208 -89 -206 -178 l0 -44 18 40 c10 22 35 55 55 73 48 42 90 42 233
2 142 -40 338 -68 663 -95 154 -13 544 32 779 90 199 49 235 52 291 23 36 -18
51 -35 72 -78 l27 -55 1 40 c0 62 -48 130 -110 156 -14 6 -119 35 -235 65
-115 30 -259 67 -320 84 -155 41 -196 40 -294 -11 -105 -55 -135 -55 -239 -1
-71 37 -88 42 -144 41 -35 0 -88 -7 -118 -16z m267 -150 c97 -16 109 -16 192
0 120 23 262 22 399 -4 61 -12 112 -25 112 -30 0 -26 -104 -41 -113 -16 -3 8
-10 4 -23 -11 -15 -18 -33 -24 -86 -29 -48 -4 -72 -2 -83 7 -13 11 -18 10 -28
-4 -15 -21 -126 -40 -192 -32 -35 4 -54 12 -66 27 l-17 22 -6 -21 c-6 -17 -18
-22 -71 -27 -72 -8 -146 0 -185 20 -15 7 -33 9 -45 4 -31 -12 -117 1 -147 22
-22 16 -31 17 -46 8 -22 -14 -93 -1 -99 18 -4 12 53 27 192 48 113 18 191 18
312 -2z"/>
<path d="M6905 2938 c-156 -63 -221 -73 -399 -60 -94 7 -181 7 -231 2 -198
-22 -320 -7 -477 59 -39 17 -74 29 -76 26 -6 -6 80 -99 132 -143 22 -19 67
-47 100 -64 54 -27 59 -32 42 -42 -64 -38 -137 -100 -173 -149 -24 -31 -43
-58 -43 -61 0 -3 33 9 73 28 103 47 158 63 267 80 150 23 295 29 417 17 170
-17 244 -40 426 -129 16 -8 -37 79 -75 122 -20 23 -64 57 -97 75 -34 18 -61
33 -61 35 0 2 29 18 65 36 39 20 100 65 150 113 120 112 116 118 -40 55z"/>
<path d="M7208 2610 c-37 -40 -47 -60 -29 -60 8 0 57 57 75 88 15 25 -8 11
-46 -28z"/>
<path d="M2306 7659 c2 -4 28 -16 57 -26 79 -27 233 -24 312 7 70 27 61 36
-21 21 -65 -12 -223 -13 -301 -2 -29 4 -50 4 -47 0z"/>
<path d="M3260 7314 c-36 -8 -109 -15 -164 -16 -94 -3 -97 -3 -65 -17 53 -21
183 -18 253 8 109 38 98 51 -24 25z"/>
<path d="M1694 7299 c63 -38 227 -50 325 -25 29 8 55 17 57 19 3 3 -73 4 -168
3 -95 0 -186 2 -203 7 -25 6 -27 5 -11 -4z"/>
<path d="M2450 6865 c-8 -2 -48 -9 -88 -16 -111 -19 -76 -34 50 -21 57 6 139
8 183 6 80 -4 80 -4 35 9 -46 14 -153 26 -180 22z"/>
<path d="M2320 6739 c0 -12 89 -29 154 -29 64 0 164 16 178 29 4 3 -69 6 -162
6 -94 0 -170 -3 -170 -6z"/>
<path d="M3065 6667 c-64 -17 -74 -23 -50 -25 17 -2 67 2 112 8 63 10 95 10
139 1 77 -15 95 2 23 23 -69 21 -126 19 -224 -7z"/>
<path d="M3315 6583 c-47 -10 -98 -12 -155 -8 -66 4 -82 3 -72 -7 21 -21 182
-23 247 -3 30 10 58 22 61 26 6 10 9 11 -81 -8z"/>
<path d="M1805 6535 c-27 -8 -61 -15 -74 -15 -19 0 -22 -3 -13 -12 9 -9 35 -8
111 2 55 7 128 10 163 7 63 -5 63 -5 29 9 -50 22 -156 26 -216 9z"/>
<path d="M1855 6430 c-90 -3 -130 -8 -113 -13 58 -16 145 -19 203 -7 62 13
109 31 70 28 -11 -1 -83 -5 -160 -8z"/>
<path d="M1366 5889 c-29 -4 -59 -17 -75 -32 -40 -38 -86 -57 -138 -58 l-48 0
40 -15 c46 -18 159 -14 178 6 9 9 1 10 -38 5 l-50 -8 25 20 c41 32 96 60 129
68 17 4 31 11 31 16 0 5 -1 8 -2 8 -2 -1 -25 -5 -52 -10z"/>
<path d="M2515 5814 c-5 -1 -41 -5 -79 -9 -41 -4 -65 -10 -59 -16 13 -13 181
-23 249 -14 l59 8 -40 12 c-44 13 -114 24 -130 19z"/>
<path d="M1985 5638 c-43 -22 -79 -32 -127 -36 -37 -2 -65 -9 -62 -13 10 -17
137 -9 179 10 38 17 83 57 74 65 -2 2 -31 -10 -64 -26z"/>
<path d="M1433 5315 c-12 -28 -33 -69 -48 -92 -30 -50 -20 -56 23 -14 30 30
57 104 50 137 -2 13 -10 3 -25 -31z"/>
<path d="M2765 5223 c-76 -105 -307 -330 -410 -400 -135 -91 -511 -298 -622
-343 -117 -46 -209 -71 -403 -106 -80 -14 -147 -28 -149 -30 -19 -18 306 21
422 50 120 31 268 96 469 208 313 174 479 307 626 504 70 93 129 184 120 184
-2 0 -26 -30 -53 -67z"/>
<path d="M1170 5086 c-85 -24 -162 -77 -89 -61 52 11 180 79 142 74 -5 0 -28
-6 -53 -13z"/>
<path d="M3412 4989 c-18 -12 -31 -24 -28 -26 2 -3 22 7 43 21 45 31 32 35
-15 5z"/>
<path d="M2983 4810 c-365 -183 -616 -346 -803 -520 -38 -35 -33 -32 35 17
235 173 398 272 690 422 209 107 395 221 360 221 -2 0 -129 -63 -282 -140z"/>
<path d="M2996 4538 c-168 -169 -299 -393 -386 -658 -44 -132 -80 -298 -79
-357 0 -27 8 -7 26 72 37 163 121 384 218 573 89 174 168 291 274 405 97 103
61 80 -53 -35z"/>
<path d="M1930 4025 c23 -33 86 -123 140 -200 54 -77 125 -189 159 -250 34
-60 61 -107 61 -105 0 3 -9 29 -20 58 -59 155 -184 351 -305 477 l-77 80 42
-60z"/>
<path d="M2275 2205 c-33 -8 -132 -26 -219 -41 -205 -34 -355 -31 -484 11 -46
14 -86 24 -89 22 -7 -7 50 -45 110 -72 144 -66 389 -43 727 69 83 28 58 34
-45 11z"/>
<path d="M1440 2063 c0 -6 8 -28 17 -49 32 -74 19 -227 -46 -569 -31 -163 -17
-140 50 80 55 181 82 319 74 375 -4 25 -18 66 -32 92 -26 48 -63 90 -63 71z"/>
<path d="M2530 2023 c-39 -67 -59 -131 -85 -268 -30 -162 -87 -556 -81 -562 4
-4 22 71 81 337 43 194 112 530 109 530 -1 0 -12 -17 -24 -37z"/>
<path d="M8615 1000 c25 -81 120 -227 199 -306 68 -68 177 -142 276 -187 113
-52 200 -85 200 -77 0 17 -221 218 -411 372 -110 89 -217 176 -236 193 -35 29
-36 29 -28 5z"/>
<path d="M4275 657 c-177 -149 -439 -396 -430 -405 6 -6 54 13 160 66 212 104
320 206 406 378 28 57 50 106 48 109 -3 2 -85 -64 -184 -148z"/>
</g>
</svg>
