<?xml version="1.0" encoding="UTF-8"?>
<svg viewBox="0 0 26000 17000" preserveAspectRatio="xMidYMid meet">
<g transform="scale(1, -1) translate(0, -17000)" fill="currentColor" stroke="none">
<path d="M0 8480 l0 -8480 12640 0 12640 0 0 8480 0 8480 -12640 0 -12640 0 0

-8480z m11677 6945 c66 -16 245 -82 253 -94 3 -4 33 -22 68 -40 184 -92 332
-252 450 -486 60 -119 94 -224 117 -360 34 -206 97 -414 147 -487 23 -34 23
-41 -1 -28 -11 5 -24 10 -29 10 -14 0 -32 -46 -21 -57 18 -18 39 -120 45 -223
4 -58 3 -102 -1 -98 -5 5 -19 50 -32 100 -30 116 -67 226 -99 296 -27 60 -26
96 2 68 17 -17 34 -21 34 -8 0 5 -13 49 -29 98 -17 49 -41 150 -56 224 -41
218 -55 269 -104 380 -93 211 -193 332 -393 476 -70 51 -232 129 -318 153 -25
8 -58 18 -75 23 -16 5 -77 12 -135 15 -85 4 -124 1 -206 -16 -66 -14 -133 -21
-200 -20 -93 0 -167 -12 -254 -41 -42 -15 -183 -82 -190 -91 -3 -3 -23 -17
-45 -31 -101 -64 -245 -252 -314 -408 -48 -110 -60 -296 -31 -475 10 -63 1
-173 -26 -319 -18 -102 -18 -223 2 -298 28 -110 11 -121 -20 -13 -28 97 -28
104 -22 260 3 88 9 197 12 241 5 57 1 114 -11 189 -22 131 -16 233 21 359 29
102 98 246 154 320 103 139 306 286 467 338 93 31 106 32 273 34 130 2 187 7
220 18 55 19 248 14 347 -9z m-81 -239 c59 -24 181 -89 198 -106 6 -6 14 -3
21 7 11 15 15 15 36 2 70 -45 78 -24 18 45 -49 55 -34 59 45 11 32 -19 62 -35
66 -35 19 0 205 -210 237 -268 36 -65 97 -212 90 -219 -3 -2 -24 29 -47 69
-68 116 -90 146 -126 173 -19 15 -45 37 -59 51 -46 46 -59 26 -22 -34 13 -20
28 -50 34 -67 6 -16 14 -39 19 -50 4 -11 -5 -4 -21 15 -40 49 -216 220 -227
220 -5 0 6 -24 25 -52 39 -62 110 -199 105 -204 -2 -1 -24 23 -48 54 -85 108
-174 183 -233 198 l-29 7 26 -51 c14 -28 31 -54 37 -57 17 -11 69 -97 69 -114
0 -9 -14 2 -32 24 -49 61 -235 251 -311 316 -37 33 -65 59 -62 59 3 0 31 -13
63 -29 31 -16 73 -32 92 -36 19 -4 46 -14 58 -22 46 -28 34 -3 -26 57 -33 33
-59 60 -58 60 1 0 29 -11 62 -24z m-766 -4 c0 -5 -10 -13 -23 -19 -44 -20
-183 -132 -217 -174 l-34 -44 38 29 c21 15 72 46 114 68 l77 39 -56 -58 c-31
-32 -67 -71 -80 -88 -13 -16 -40 -43 -59 -60 -59 -51 -155 -149 -172 -175 -16
-24 -17 -24 -17 -4 -1 12 15 44 34 70 46 65 68 104 56 104 -10 0 -73 -68 -89
-96 -22 -40 -19 -6 4 45 38 82 85 150 152 219 47 49 80 72 154 107 94 44 118
52 118 37z m613 -177 c103 -89 263 -249 279 -280 6 -12 -5 -6 -28 16 -54 49
-114 92 -121 86 -2 -3 4 -18 14 -34 11 -15 35 -53 55 -83 19 -30 41 -65 49
-77 8 -12 39 -50 69 -84 l55 -63 -49 34 c-55 37 -291 261 -348 330 -64 77
-148 193 -148 204 0 6 24 -14 53 -44 29 -30 69 -64 87 -74 l35 -20 -31 40
c-16 21 -36 49 -44 61 -8 12 -31 41 -50 64 l-35 43 33 -20 c18 -10 75 -55 125
-99z m-207 5 c20 -38 41 -70 47 -70 13 0 34 -27 51 -67 20 -45 159 -217 235
-292 l66 -64 -80 43 c-116 63 -171 100 -254 170 -56 48 -75 59 -82 49 -7 -11
-9 -9 -9 7 0 11 -5 25 -12 32 -23 23 -28 12 -11 -23 9 -19 20 -35 24 -35 3 0
12 -15 19 -32 7 -18 35 -59 62 -90 27 -32 46 -58 43 -58 -17 0 -137 108 -203
183 -82 93 -139 192 -147 258 -5 38 -4 40 6 19 31 -71 54 -109 89 -150 22 -24
42 -42 44 -39 6 5 -16 67 -48 141 -25 58 -19 80 8 34 14 -21 46 -61 73 -88 48
-50 133 -115 133 -102 0 4 -13 30 -30 59 -37 65 -83 185 -70 185 5 0 25 -31
46 -70z m-299 17 c-16 -43 27 -261 75 -377 l18 -45 -21 25 c-38 44 -79 147
-90 227 -12 88 -3 183 18 183 3 0 3 -6 0 -13z m-191 -96 c-32 -62 -6 -70 48
-16 51 51 60 43 26 -22 -16 -32 -49 -103 -73 -158 -24 -55 -54 -116 -66 -135
-21 -35 -21 -35 -21 -8 0 34 49 208 63 226 9 11 7 13 -9 10 -20 -3 -146 -139
-217 -232 -42 -55 -45 -55 -18 1 10 21 24 49 30 63 25 58 101 165 171 243 72
80 98 91 66 28z m165 -297 c41 -85 80 -121 185 -171 126 -60 133 -58 80 25
-24 37 -51 84 -60 105 l-16 38 53 -47 c96 -87 187 -136 399 -214 65 -24 104
-61 171 -161 122 -184 168 -322 183 -559 5 -62 11 -100 18 -100 11 0 46 53
117 173 18 31 38 56 44 54 12 -5 8 -93 -7 -120 -5 -10 -8 -21 -5 -23 10 -10
62 19 91 51 l32 34 37 -17 c20 -9 36 -24 37 -33 0 -9 -18 -43 -39 -77 -61 -94
-106 -111 -208 -78 -20 6 -22 2 -33 -51 -30 -150 -75 -267 -127 -331 -56 -69
-287 -215 -533 -337 -174 -87 -261 -104 -445 -87 -109 10 -166 31 -197 72 -30
42 -137 367 -153 470 -30 184 -37 214 -62 264 -14 28 -37 74 -51 101 -35 69
-41 185 -16 291 18 77 18 78 -3 138 -15 43 -19 65 -12 78 13 24 60 23 90 -1
l24 -20 -37 -15 c-42 -18 -46 -30 -22 -64 14 -20 17 -21 37 -7 28 20 32 19 57
-7 18 -20 24 -21 70 -12 28 6 50 9 50 7 0 -14 -34 -64 -52 -77 -22 -16 -22
-16 10 -22 37 -8 36 -3 16 -74 -39 -140 -45 -176 -39 -235 5 -49 2 -69 -14
-105 -40 -89 -19 -98 23 -10 16 33 31 60 33 60 2 0 30 -13 61 -30 64 -33 74
-33 172 14 37 17 72 26 106 26 41 0 55 5 74 25 13 14 30 25 38 25 7 0 55 -38
105 -85 51 -47 93 -81 95 -75 4 10 -62 111 -115 177 -69 86 -193 172 -193 134
0 -6 6 -11 14 -11 8 0 21 -19 30 -42 14 -33 15 -46 5 -70 -13 -31 -25 -34 -53
-13 -27 21 -96 19 -155 -5 -61 -24 -163 -16 -175 15 -9 25 69 402 90 431 11
15 23 33 29 40 6 9 4 25 -8 49 -10 21 -17 60 -17 95 0 47 -3 60 -15 60 -11 0
-15 -12 -15 -49 0 -28 -4 -52 -8 -55 -5 -3 -35 2 -68 10 -32 8 -97 23 -143 31
l-84 17 -23 -28 c-29 -33 -30 -22 -5 49 12 33 41 80 74 119 30 36 62 75 71 87
8 13 18 20 21 17 4 -3 -12 -36 -34 -72 -23 -37 -41 -69 -41 -71 0 -15 42 0 90
31 107 69 232 210 290 327 l14 29 9 -24 c5 -12 22 -50 38 -84z m992 -386 c30
-40 79 -112 110 -159 63 -96 100 -136 175 -193 28 -22 50 -42 48 -44 -3 -2
-36 14 -74 37 -106 62 -159 126 -293 353 -42 72 -44 78 -29 78 5 0 34 -33 63
-72z m252 -64 c28 -15 59 -32 70 -38 11 -6 37 -27 58 -46 65 -60 33 38 -36
108 -46 47 -44 51 14 21 75 -38 137 -89 170 -140 34 -54 84 -168 76 -176 -3
-2 -24 23 -46 56 -47 69 -57 77 -76 61 -15 -13 -4 -50 49 -159 31 -66 10 -50
-46 33 -25 37 -87 102 -160 166 -66 58 -134 125 -151 150 l-30 45 29 -27 c16
-14 52 -39 79 -54z m-1856 -464 c5 -36 25 -108 46 -160 63 -163 96 -261 93
-272 -5 -15 -144 266 -157 317 -17 71 -24 173 -15 253 l8 77 8 -75 c4 -41 12
-104 17 -140z m2304 -147 c15 -100 18 -183 8 -238 -6 -32 -14 -62 -19 -67 -4
-4 -7 72 -7 167 0 169 6 216 18 138z m-358 -388 c13 -77 29 -194 35 -260 16
-168 41 -357 50 -374 7 -13 23 158 36 374 3 61 9 128 13 150 l8 40 16 -55 c10
-30 20 -79 24 -107 3 -29 9 -53 13 -53 3 0 47 52 95 115 86 111 91 115 120
109 41 -8 277 -64 294 -70 11 -4 10 -9 -5 -27 -75 -86 -149 -239 -224 -460
l-46 -138 -106 101 c-58 55 -112 100 -119 100 -8 0 -7 -6 4 -18 10 -10 17 -27
17 -36 0 -36 74 -157 127 -209 l55 -53 -22 -80 c-34 -124 -43 -139 -97 -164
-26 -13 -111 -53 -188 -90 -77 -38 -151 -71 -165 -75 -14 -4 -53 -18 -87 -31
-97 -38 -92 -43 -87 106 3 72 2 130 -1 130 -8 0 -23 -43 -56 -158 -36 -128
-41 -137 -147 -294 -47 -70 -83 -131 -79 -134 8 -8 61 32 148 111 74 68 153
113 309 176 58 23 165 68 237 100 73 33 135 59 138 59 11 0 4 -42 -30 -166
-19 -71 -56 -205 -81 -299 -62 -228 -76 -277 -113 -368 -95 -237 -183 -353
-343 -450 -76 -45 -165 -74 -187 -60 -36 23 -121 349 -122 469 0 87 -12 154
-23 136 -13 -21 -28 -290 -21 -382 4 -47 15 -120 25 -162 9 -43 15 -79 13 -82
-5 -5 -51 0 -133 16 -122 23 -274 115 -360 219 -108 130 -192 317 -230 514
-23 123 -50 337 -50 404 0 37 3 43 18 38 21 -7 299 -114 327 -127 11 -5 41
-18 67 -29 52 -22 118 -65 161 -106 16 -15 31 -25 33 -22 17 16 -88 162 -144
200 -20 15 -104 51 -187 80 -82 30 -163 61 -179 68 l-29 13 5 169 c3 92 10
173 15 178 7 7 19 -11 37 -53 15 -35 55 -109 89 -165 96 -161 101 -140 23 103
-30 93 -62 198 -71 234 -9 36 -21 74 -25 85 -8 19 -19 75 -15 75 5 0 196 -240
253 -319 35 -47 98 -133 140 -191 42 -57 89 -122 104 -145 16 -22 28 -35 28
-30 0 25 -42 140 -89 245 -28 63 -51 115 -51 117 0 2 23 -6 50 -16 36 -14 50
-16 50 -7 0 12 -126 140 -187 191 -18 15 -33 30 -33 34 0 4 26 25 57 47 97 66
206 164 305 274 101 111 136 146 142 139 2 -2 0 -31 -5 -64 -4 -33 -10 -166
-13 -295 -6 -208 -5 -231 8 -205 13 29 75 301 121 535 28 144 55 252 65 265 8
9 53 169 69 240 6 27 11 31 58 36 32 4 60 15 74 28 l23 22 14 -38 c7 -21 23
-101 37 -178z m1069 -200 c68 -24 144 -54 170 -65 26 -11 56 -20 67 -20 29 0
23 -13 -17 -35 -55 -29 -183 -173 -233 -259 -142 -249 -269 -674 -302 -1011
-7 -73 -9 -204 -6 -340 6 -240 25 -358 85 -536 82 -240 242 -469 394 -564 27
-17 48 -36 48 -43 0 -19 -174 -192 -230 -230 -88 -59 -149 -91 -221 -117 -143
-51 -196 -58 -469 -61 -294 -3 -280 -2 -260 -14 60 -34 500 -87 625 -74 218
22 451 79 580 143 45 23 82 35 86 30 3 -5 18 -84 34 -175 23 -136 26 -168 16
-187 -35 -62 -232 -185 -368 -231 -148 -50 -126 -61 50 -25 118 23 166 37 296
85 52 19 96 33 97 31 8 -8 -43 -52 -108 -94 -128 -82 -264 -136 -448 -174 -90
-19 -138 -23 -332 -23 -125 -1 -224 -4 -220 -8 17 -17 316 -60 454 -65 128 -5
389 8 453 23 11 3 4 -4 -16 -15 -43 -24 -182 -64 -298 -85 -214 -41 -614 1
-845 88 -62 24 -124 54 -136 66 -14 15 -145 94 -220 133 -89 46 -162 87 -170
97 -3 3 -30 22 -60 43 -30 21 -75 52 -100 69 -55 39 -250 232 -250 247 0 7 24
11 63 11 34 0 91 5 127 10 83 13 270 70 270 83 0 6 -44 6 -117 1 -140 -11
-301 -8 -398 7 -212 32 -422 145 -606 329 -91 90 -112 117 -147 190 -95 199
-132 374 -153 710 -13 210 -7 727 11 1050 35 635 23 569 115 640 51 39 53 40
81 25 16 -8 44 -18 62 -21 l32 -6 -7 -152 c-5 -83 -8 -286 -7 -451 0 -248 4
-328 22 -465 48 -356 136 -606 274 -776 80 -99 220 -200 333 -242 286 -106
580 -45 790 162 152 150 234 322 335 706 70 268 70 268 91 335 10 33 44 164
74 290 136 558 237 824 374 981 34 39 37 41 74 32 21 -5 94 -28 161 -53z m411
-230 c35 -20 94 -58 131 -86 37 -27 79 -52 93 -55 263 -62 474 -167 602 -301
180 -187 256 -348 330 -693 22 -107 27 -315 9 -410 -12 -63 -72 -250 -80 -250
-3 0 -5 60 -6 133 -1 164 -17 284 -54 407 -42 137 -63 159 -37 39 16 -76 20
-134 21 -299 1 -183 -1 -215 -22 -300 -35 -139 -86 -301 -131 -415 -22 -54
-39 -100 -38 -102 16 -15 191 194 254 302 76 130 172 361 174 418 0 12 6 40
13 62 l13 40 12 -30 c13 -32 68 -157 106 -240 71 -156 130 -302 146 -360 30
-114 38 -158 39 -215 0 -72 -26 -192 -63 -291 -69 -183 -102 -378 -83 -483 10
-52 26 -44 26 13 0 26 4 72 10 100 11 58 88 241 101 241 28 0 54 -287 64 -695
5 -218 10 -259 41 -331 22 -50 44 -200 44 -293 0 -72 10 -125 59 -321 63 -250
72 -297 96 -513 17 -159 20 -471 5 -632 -9 -91 -46 -403 -65 -534 -15 -107
-48 -283 -61 -331 -21 -71 -31 -378 -16 -470 6 -36 14 -102 18 -147 3 -46 10
-80 15 -78 19 12 112 -206 149 -352 19 -75 21 -100 15 -270 -11 -328 -9 -392
11 -467 17 -62 26 -75 62 -93 2 0 -5 -18 -16 -40 -23 -43 -59 -68 -120 -82
-39 -8 -43 -7 -61 18 -10 14 -39 70 -64 123 -25 53 -55 107 -66 119 l-21 23 0
-35 c0 -20 16 -91 35 -159 19 -68 33 -125 32 -126 -14 -9 -78 -24 -108 -24
-46 0 -56 13 -127 160 -56 117 -77 149 -88 137 -12 -11 13 -118 46 -202 17
-40 30 -81 30 -89 0 -20 -42 -37 -93 -38 -52 -1 -85 33 -133 135 -40 88 -87
156 -128 188 -24 19 -23 15 24 -123 55 -161 56 -156 -32 -157 -70 -1 -96 35
-185 256 -46 114 -48 122 -48 218 0 55 4 141 9 191 7 67 6 96 -4 113 -10 19
-14 21 -21 10 -5 -8 -9 -24 -9 -36 0 -18 -6 -23 -24 -23 l-24 0 22 73 c24 76
58 152 135 307 27 52 63 140 81 195 33 98 33 100 23 200 -5 55 -11 179 -12
275 -2 211 -23 447 -58 630 -13 74 -29 162 -34 195 -8 58 -43 170 -59 190 -10
13 -107 294 -125 360 -39 147 -50 259 -48 470 2 219 21 401 77 730 14 83 35
215 46 295 11 80 23 159 26 175 5 28 4 29 -10 12 -8 -10 -29 -55 -47 -100 -18
-45 -43 -103 -56 -129 -13 -28 -25 -75 -29 -117 l-7 -70 -85 77 c-161 145
-191 182 -298 366 -81 140 -188 452 -240 701 -83 395 -85 409 -91 569 -5 134
-4 158 8 153 8 -3 84 -22 169 -42 193 -47 327 -80 360 -90 l25 -8 -20 23 c-40
46 -255 168 -345 195 -54 16 -230 101 -320 154 -64 37 -125 84 -187 144 -63
61 -93 84 -93 72 0 -23 61 -135 110 -200 37 -50 60 -88 60 -100 0 -7 -76 36
-138 78 -24 16 -46 26 -49 23 -11 -11 28 -56 109 -124 121 -101 114 -80 86
-233 -14 -73 -29 -134 -35 -136 -17 -6 -146 155 -195 242 -71 127 -130 321
-163 542 -16 105 -19 365 -5 398 5 11 9 16 9 10 2 -20 122 -195 134 -195 3 0
-4 19 -15 42 -56 117 -95 320 -83 433 11 100 44 237 70 291 32 66 105 118 237
170 75 29 94 40 82 47 -17 10 -178 3 -228 -9 -26 -6 -28 -5 -21 17 16 52 90
207 124 259 56 87 121 161 170 192 25 15 49 28 54 28 5 0 37 -16 72 -35z
m-3306 -435 c-38 -510 -47 -1444 -16 -1650 10 -63 20 -125 23 -137 4 -13 2
-23 -4 -23 -29 0 -104 253 -116 395 -10 105 -17 145 -26 145 -13 0 -19 -46
-28 -185 l-7 -120 -43 75 c-50 86 -51 71 -8 -73 31 -104 35 -93 -80 -195 -75
-66 -189 -200 -178 -211 2 -2 24 10 49 28 90 64 250 116 290 94 9 -6 46 -77
82 -159 103 -236 105 -242 110 -395 7 -190 -20 -406 -83 -663 -31 -128 -30
-144 6 -74 49 94 115 263 170 438 29 91 57 170 62 175 12 14 1 -120 -23 -272
-30 -187 -93 -393 -161 -525 -85 -165 -267 -276 -401 -246 -105 23 -212 117
-279 244 -28 51 -37 63 -37 44 0 -61 42 -194 104 -325 26 -55 63 -135 83 -178
37 -80 44 -82 56 -15 7 36 9 38 79 59 88 26 133 49 213 105 34 24 64 44 68 44
3 0 2 -10 -3 -22 -5 -13 -15 -45 -22 -73 -9 -37 -32 -74 -86 -140 -83 -102
-80 -98 -114 -145 -78 -105 -69 -122 21 -39 74 68 140 123 143 118 1 -2 0 -78
-3 -169 l-6 -165 -62 -93 c-75 -110 -106 -163 -174 -291 -28 -53 -81 -141
-118 -196 -174 -258 -231 -446 -215 -709 4 -66 11 -146 16 -176 8 -49 5 -65
-22 -145 -17 -49 -35 -99 -39 -110 -28 -67 -73 -246 -86 -340 -20 -138 -15
-190 22 -250 16 -26 34 -55 39 -64 6 -9 26 -37 46 -61 58 -72 189 -282 213
-343 8 -18 17 -54 21 -81 l7 -49 -79 6 c-43 4 -95 6 -115 7 -35 0 -38 3 -39
28 0 25 -1 26 -12 8 -7 -11 -40 -49 -75 -85 -35 -37 -72 -82 -82 -101 -23 -46
-36 -120 -20 -120 6 0 20 -21 31 -48 52 -120 79 -172 89 -172 7 0 23 9 37 20
14 11 30 20 34 20 18 0 8 -48 -23 -110 -41 -81 -98 -125 -160 -124 -50 2 -75
28 -139 144 -23 41 -48 80 -55 88 -18 18 -18 27 3 47 16 16 15 18 -8 36 -13
10 -31 21 -40 24 -20 7 -64 87 -74 135 l-8 35 -13 -35 c-20 -56 -16 -88 20
-148 44 -75 109 -191 124 -222 7 -14 22 -40 33 -58 12 -18 19 -36 16 -39 -12
-12 -95 -15 -116 -4 -44 24 -155 231 -147 274 4 18 1 27 -8 27 -24 0 -66 41
-107 104 -34 51 -40 68 -37 104 2 23 0 42 -3 42 -3 0 -14 -24 -23 -53 -17 -50
-17 -53 2 -96 15 -34 21 -39 25 -25 4 16 5 16 6 -3 0 -12 5 -25 11 -28 9 -6
150 -279 150 -291 0 -10 -83 3 -113 17 -22 10 -32 30 -62 123 -20 61 -47 129
-60 151 -37 61 -85 161 -85 179 0 30 -19 25 -30 -9 -10 -31 -8 -42 24 -112 37
-83 64 -158 76 -210 9 -37 -2 -42 -58 -22 -46 16 -64 64 -74 199 -5 63 -13
123 -18 132 -5 9 -10 48 -11 85 -1 60 7 90 65 253 36 102 70 194 76 205 97
202 117 281 99 396 -13 87 -10 113 30 259 54 199 64 326 66 871 2 480 7 621
26 749 16 115 43 240 51 240 4 0 8 -3 8 -7 0 -5 7 -81 15 -171 26 -280 69
-501 130 -675 33 -93 72 -178 61 -132 -30 119 -82 458 -101 650 -8 88 -22 223
-30 300 -17 163 -19 314 -5 440 10 90 45 245 61 274 36 65 190 398 207 446 29
87 69 240 82 315 6 36 13 73 16 83 3 9 2 17 -3 17 -11 0 -29 -44 -62 -157 -15
-51 -31 -96 -35 -100 -7 -7 0 372 9 462 26 257 55 390 120 546 14 35 31 76 37
92 5 15 13 27 16 27 4 0 36 -56 72 -125 59 -114 80 -144 80 -114 0 25 -44 184
-90 324 -126 387 -139 564 -64 875 78 327 220 528 504 715 102 67 139 98 177
147 41 54 115 131 118 125 1 -1 -2 -49 -6 -107z m5071 -2046 c29 -31 90 -86
134 -124 45 -37 98 -92 119 -121 21 -30 61 -85 88 -124 98 -136 194 -367 233
-555 42 -207 54 -457 30 -620 -23 -158 -50 -265 -119 -475 -24 -71 -45 -139
-47 -150 -2 -11 -12 16 -21 60 -29 130 -66 245 -109 330 -40 80 -130 222 -165
260 -56 61 -93 118 -122 187 -33 81 -36 112 -45 387 l-3 104 81 -6 c72 -5 131
-19 191 -46 11 -5 46 -21 78 -36 32 -15 61 -24 65 -21 11 12 -95 101 -159 133
-80 39 -114 52 -181 67 l-53 12 55 16 c30 9 87 21 125 27 39 6 83 14 98 17
l29 6 -23 16 c-18 12 -57 17 -171 20 -81 3 -148 8 -148 13 0 4 23 27 52 51
180 151 184 178 12 102 -31 -14 -57 -24 -58 -22 -2 2 -13 94 -25 204 -17 143
-21 222 -16 273 4 39 10 71 14 71 4 0 32 -25 61 -56z m-3770 -1114 c0 -3 -28
-23 -61 -44 -34 -22 -67 -45 -73 -52 -7 -6 -26 -19 -44 -28 -18 -9 -32 -20
-32 -24 0 -4 39 -20 88 -35 222 -73 420 -190 592 -351 70 -66 140 -149 140
-166 0 -6 7 -13 15 -16 17 -7 21 -24 5 -24 -5 0 -38 26 -72 58 -324 298 -634
459 -901 467 -48 1 -90 4 -93 7 -5 5 166 119 300 200 78 46 80 47 108 30 15
-9 28 -19 28 -22z m2364 -299 c3 -5 -15 -21 -41 -36 -27 -15 -104 -84 -172
-154 -88 -88 -118 -114 -101 -86 39 65 150 204 184 230 63 48 117 67 130 46z
m-2640 -37 c72 -16 211 -66 287 -104 62 -31 179 -110 179 -120 0 -5 -15 -11
-32 -15 -53 -11 -226 -106 -365 -198 -145 -98 -183 -126 -167 -127 12 0 170
63 251 101 24 10 45 19 49 19 3 0 29 11 57 24 29 13 108 45 176 72 151 58 136
62 296 -85 42 -38 160 -182 231 -281 109 -151 171 -282 215 -453 l23 -89 -75
-71 c-102 -98 -280 -217 -489 -328 -35 -18 -57 -35 -49 -37 40 -7 564 166 607
201 20 16 23 3 14 -56 -17 -111 -137 -208 -362 -295 -145 -56 -383 -142 -386
-140 -1 2 -4 33 -5 68 -4 107 -51 277 -110 395 l-53 105 48 97 c27 53 61 133
77 178 36 102 82 265 77 271 -2 2 -42 -65 -88 -149 -109 -200 -163 -290 -176
-294 -6 -2 -15 7 -21 20 -19 41 -223 246 -312 313 -88 66 -286 170 -376 197
-151 47 -369 66 -493 44 -40 -7 -42 -6 -32 12 12 23 151 211 214 291 108 135
344 353 453 417 74 43 187 49 337 17z m2777 -96 c97 -90 148 -269 129 -458 -5
-52 -12 -133 -16 -180 -3 -47 -7 -90 -9 -96 -2 -8 -27 -6 -82 8 -147 37 -392
27 -553 -24 -71 -21 -191 -77 -202 -93 -5 -6 -8 -5 -8 2 0 20 60 165 81 194
10 15 19 29 19 32 0 6 62 108 119 197 42 65 105 149 149 199 l24 26 -6 -30
c-6 -39 9 -214 25 -285 l13 -55 7 50 c4 28 17 118 29 200 12 83 26 164 31 182
16 52 150 151 205 153 12 0 32 -10 45 -22z m1397 -125 c76 -120 127 -229 161
-344 58 -199 66 -329 25 -424 -15 -33 -36 -84 -48 -112 -11 -29 -24 -53 -27
-53 -4 0 -9 35 -12 78 -6 91 -33 304 -48 382 -6 30 -35 143 -64 250 -46 165
-54 204 -48 248 3 29 7 52 8 52 2 0 25 -35 53 -77z m-2914 -638 c94 -189 146
-375 146 -519 l0 -85 169 114 c94 62 167 106 164 97 -12 -31 -59 -82 -146
-157 -83 -71 -255 -191 -263 -183 -2 2 1 22 7 43 7 24 9 90 6 165 -4 124 -28
237 -85 415 -19 56 -119 264 -133 275 -3 3 -12 16 -19 30 -6 14 15 -4 49 -40
39 -43 76 -96 105 -155z m-1865 -30 c112 -27 276 -100 364 -162 207 -145 398
-384 497 -620 33 -79 70 -250 70 -322 0 -58 5 -53 -185 -177 -71 -47 -135 -92
-142 -101 -14 -18 -10 -20 -194 149 -53 49 -120 107 -150 129 -48 37 -139 89
-154 89 -4 0 27 -33 68 -72 40 -40 98 -104 128 -143 60 -76 121 -165 114 -165
-3 0 -42 17 -87 39 -46 21 -127 53 -182 70 -98 31 -198 51 -184 36 4 -4 72
-43 150 -86 79 -43 150 -83 158 -89 8 -5 39 -25 69 -44 l53 -33 -68 -6 c-38
-4 -121 -7 -184 -7 -161 0 -167 -12 -24 -44 354 -81 334 -69 386 -217 79 -226
74 -207 52 -224 -225 -178 -524 -277 -875 -292 -160 -7 -300 8 -414 42 -99 30
-111 40 -118 88 l-6 37 42 -6 c23 -3 65 -12 94 -20 105 -29 93 -9 -17 27 -36
12 -74 30 -84 40 -22 21 -39 74 -61 194 -18 95 -31 161 -78 395 -55 273 -61
317 -61 445 0 210 37 320 179 535 42 63 106 171 142 240 89 168 134 234 176
253 31 15 111 38 177 51 58 11 248 -5 349 -29z m3331 -50 c36 -9 86 -22 111
-31 l47 -15 7 -92 c10 -129 39 -297 70 -397 15 -47 48 -161 75 -255 27 -93 53
-182 59 -197 15 -39 -1 -36 -52 7 -54 46 -63 44 -28 -8 38 -55 96 -172 126
-250 39 -106 54 -202 65 -442 5 -126 15 -294 21 -373 6 -79 8 -150 5 -158 -12
-31 -156 -77 -340 -109 -133 -24 -376 -16 -486 15 -120 33 -199 63 -225 85
-21 18 -25 31 -30 110 -17 266 -24 307 -81 455 -92 242 -105 296 -105 415 1
61 8 149 16 196 9 46 18 100 21 119 l6 35 -19 -36 c-24 -45 -50 -136 -59 -207
-4 -29 -10 -50 -14 -45 -16 18 -70 194 -85 277 -51 297 32 634 187 754 79 60
238 132 295 132 12 0 23 4 23 9 0 23 298 27 390 6z m-9192 -679 c-31 -13 -82
-41 -112 -61 -70 -46 -207 -166 -267 -233 -72 -80 -200 -276 -258 -396 -232
-480 -331 -944 -331 -1561 0 -373 39 -688 123 -1000 29 -105 122 -382 135
-399 5 -6 15 -27 22 -46 8 -19 41 -84 73 -145 146 -270 322 -459 521 -560 42
-21 74 -40 71 -43 -8 -9 -174 77 -239 123 -68 48 -160 134 -214 200 -53 65
-177 254 -219 335 -117 225 -238 595 -279 853 -9 56 -18 108 -20 115 -2 9 -36
12 -125 12 l-121 0 7 -47 c39 -274 165 -705 261 -895 14 -27 21 -47 16 -44
-12 7 -123 248 -157 341 -38 101 -99 314 -123 430 -68 324 -95 700 -73 1010
51 707 231 1248 542 1636 95 117 188 204 294 274 144 94 239 120 465 123 l65
1 -57 -23z m-478 0 c0 -2 -30 -24 -67 -49 -163 -108 -319 -275 -440 -468 -84
-135 -125 -216 -210 -424 -91 -223 -174 -581 -205 -885 -16 -161 -16 -657 0
-825 33 -334 128 -715 243 -976 73 -163 164 -324 248 -435 67 -90 85 -109 201
-218 98 -92 86 -90 -25 4 -135 114 -215 208 -337 398 -86 133 -220 444 -277
642 -30 107 -65 270 -79 370 l-7 55 -113 3 -113 3 5 -33 c3 -18 10 -67 17
-108 26 -176 106 -462 178 -639 31 -76 35 -107 7 -53 -50 97 -143 366 -191
551 -100 390 -123 919 -60 1402 28 220 114 541 205 769 48 121 164 340 228
429 81 115 274 313 359 368 92 60 202 103 291 112 93 10 142 12 142 7z m-440
-30 c0 -2 -26 -19 -57 -39 -122 -76 -290 -245 -393 -394 -27 -41 -50 -76 -50
-79 0 -3 -13 -24 -28 -47 -24 -34 -80 -147 -143 -282 -41 -89 -119 -334 -153
-475 -73 -308 -97 -527 -97 -883 0 -462 60 -843 192 -1217 110 -312 302 -628
485 -799 59 -56 68 -67 34 -44 -96 67 -222 205 -320 353 -52 79 -181 324 -210
400 -11 30 -25 64 -29 75 -46 103 -152 506 -163 620 l-3 30 -110 -4 c-60 -2
-111 -4 -112 -5 -6 -5 47 -278 72 -371 56 -214 134 -421 216 -574 22 -41 33
-69 26 -62 -24 20 -217 428 -217 459 0 4 -12 43 -26 87 -66 207 -115 451 -140
705 -18 180 -15 608 5 765 41 313 77 475 163 730 51 152 118 293 215 454 91
150 137 211 238 319 134 142 265 224 412 256 84 19 193 31 193 22z m-452 -47
c-31 -17 -99 -68 -151 -114 -164 -145 -302 -326 -407 -535 -29 -58 -57 -113
-62 -124 -5 -10 -32 -77 -60 -149 -142 -371 -208 -764 -208 -1227 1 -356 33
-625 116 -950 62 -243 228 -631 330 -773 27 -37 59 -82 71 -99 78 -106 175
-206 275 -280 63 -46 71 -67 10 -24 -114 79 -274 240 -373 376 -66 92 -142
228 -227 411 -68 147 -162 458 -197 652 l-17 97 -114 0 c-110 0 -114 -1 -114
-22 0 -65 109 -522 144 -601 7 -18 28 -72 47 -122 30 -82 119 -268 170 -355
l21 -35 -21 25 c-51 62 -66 87 -125 202 -85 168 -125 267 -179 443 -174 573
-198 1178 -71 1810 22 112 32 149 68 273 19 63 60 179 79 222 8 19 23 53 33
75 225 524 591 850 959 854 l60 0 -57 -30z m1929 -188 c154 -52 287 -147 408
-292 264 -317 438 -806 490 -1376 l6 -73 -45 0 -46 0 0 53 c0 124 -47 414 -96
597 -89 329 -208 576 -372 772 -159 190 -329 288 -542 313 -103 12 -285 -44
-392 -120 -26 -19 -51 -35 -55 -35 -4 0 -27 -19 -50 -42 -50 -49 -59 -46 -10
4 79 82 230 175 327 202 36 10 70 20 75 22 6 2 62 2 125 0 82 -3 133 -10 177
-25z m14233 10 l95 -6 -47 -28 c-95 -55 -290 -263 -375 -397 -150 -238 -279
-544 -388 -917 -75 -260 -108 -430 -175 -913 -35 -256 -47 -881 -22 -1165 37
-407 114 -784 218 -1062 44 -119 107 -254 144 -308 40 -60 45 -69 31 -61 -42
26 -189 288 -242 431 -10 28 -25 70 -35 95 -84 228 -156 607 -184 980 -21 279
-20 270 -40 270 -16 0 -127 10 -282 25 l-58 6 0 -100 c0 -116 24 -420 45 -587
35 -266 101 -531 186 -743 88 -219 40 -145 -61 94 -168 399 -238 870 -227
1523 7 424 34 687 111 1102 58 308 150 631 239 835 71 165 130 294 159 345
156 281 413 541 573 581 37 9 207 9 335 0z m607 -31 c40 0 73 -3 73 -7 0 -5
-19 -19 -41 -33 -99 -61 -250 -231 -353 -398 -209 -341 -381 -832 -476 -1362
-62 -346 -96 -657 -105 -940 -3 -107 -8 -220 -10 -250 -5 -65 11 -424 25 -565
35 -339 86 -595 172 -870 57 -182 118 -311 209 -447 72 -108 53 -99 -32 15
-108 143 -171 267 -237 464 -109 326 -172 674 -203 1123 -6 91 -13 167 -15
169 -3 3 -159 15 -309 23 l-50 3 3 -120 c10 -419 80 -891 174 -1168 16 -49 28
-91 25 -93 -12 -12 -104 266 -141 426 -26 111 -75 389 -91 520 -26 202 -31
710 -11 970 39 495 112 906 232 1300 50 167 95 301 110 330 7 14 22 48 34 75
76 173 184 371 266 490 78 113 238 261 333 310 82 41 103 45 225 40 66 -3 152
-5 193 -5z m556 -36 c75 -4 137 -9 137 -13 0 -3 -15 -13 -32 -20 -50 -22 -229
-209 -305 -318 -167 -239 -344 -664 -445 -1063 -37 -148 -104 -482 -117 -585
-6 -44 -20 -147 -30 -230 -31 -236 -45 -494 -45 -835 0 -433 29 -730 110
-1095 73 -328 173 -596 273 -730 42 -56 62 -91 34 -59 -90 105 -180 248 -228
364 -15 36 -33 79 -40 95 -7 17 -16 41 -20 55 -3 14 -10 34 -15 45 -4 11 -17
56 -29 100 -90 345 -128 598 -159 1070 l-7 110 -160 12 c-88 6 -171 12 -184
12 l-24 1 7 -187 c18 -469 69 -813 173 -1152 3 -13 2 -12 -7 2 -29 45 -110
337 -150 541 -53 268 -86 702 -76 1011 15 485 58 836 162 1315 33 154 48 207
141 495 87 269 187 476 344 710 81 122 216 255 313 309 90 51 110 56 181 51
33 -3 122 -8 198 -11z m779 -38 c25 -1 14 -11 -55 -50 -107 -59 -270 -245
-362 -411 -15 -27 -38 -68 -51 -90 -41 -71 -155 -336 -205 -477 -115 -326
-231 -871 -273 -1288 -82 -813 -25 -1642 151 -2169 82 -248 158 -383 287 -516
48 -50 62 -68 43 -58 -50 25 -161 145 -218 233 -51 80 -149 277 -149 301 0 6
-6 25 -14 42 -89 199 -206 892 -206 1221 0 46 -3 97 -6 113 l-6 29 -161 12
c-89 7 -173 12 -186 12 l-24 0 6 -207 c14 -462 73 -855 172 -1143 43 -125 52
-157 30 -110 -52 111 -121 330 -163 515 -74 329 -109 733 -98 1130 16 547 80
1042 196 1505 62 248 198 617 304 828 33 65 152 261 165 272 4 3 15 19 26 35
53 85 198 211 295 259 l55 26 215 -7 c118 -3 223 -7 232 -7z m319 -346 c77
-40 125 -83 187 -173 121 -175 224 -455 277 -753 59 -325 75 -492 75 -763 0
-179 -9 -231 -29 -178 -6 16 -11 32 -11 37 0 5 -8 28 -19 52 -14 34 -21 89
-29 258 -22 431 -104 859 -212 1105 -79 183 -146 282 -231 345 -53 41 -129 70
-179 70 -34 0 -117 -28 -150 -50 -44 -30 -56 -32 -25 -6 104 90 236 111 346
56z m-381 -84 c0 -2 -8 -10 -17 -17 -16 -13 -17 -12 -4 4 13 16 21 21 21 13z
m-16175 -534 c18 -10 16 -11 -12 -8 -235 22 -437 -194 -526 -564 -59 -245 -61
-478 -6 -695 63 -246 167 -405 323 -495 51 -29 69 -34 127 -34 79 -1 78 -12
-1 -22 -213 -25 -412 169 -509 493 -42 142 -55 238 -54 408 1 288 70 537 202
729 59 85 146 152 250 192 42 16 176 14 206 -4z m5998 -119 c2 -16 20 -89 40
-165 37 -142 67 -323 67 -408 0 -50 0 -50 -32 -50 -18 0 -172 5 -343 10 -224
7 -313 13 -321 22 -17 18 -153 311 -148 319 2 3 23 9 46 13 208 33 494 147
614 245 33 26 62 47 65 45 4 -2 9 -16 12 -31z m-1348 -237 c117 -28 217 -37
397 -39 l182 -2 11 -70 c7 -38 22 -108 34 -154 11 -47 21 -88 21 -93 0 -7
-278 -3 -435 7 -38 2 -96 5 -127 5 l-57 0 -11 43 c-9 35 -34 119 -81 271 -16
53 -19 52 66 32z m3620 -79 c153 -50 143 -44 159 -101 24 -85 69 -306 64 -311
-6 -6 -276 10 -283 17 -9 8 -33 145 -44 253 -6 55 -14 120 -17 144 -6 41 -5
44 12 36 11 -5 60 -22 109 -38z m790 -133 c-64 -126 -89 -192 -100 -266 l-6
-38 -52 0 c-29 0 -111 5 -183 12 l-131 11 -12 71 c-7 39 -21 115 -32 168 -10
53 -19 100 -19 105 0 4 69 8 153 9 142 1 352 28 422 54 11 4 21 7 23 5 1 -1
-27 -60 -63 -131z m7370 66 c15 -1 12 -5 -15 -19 -143 -77 -278 -360 -344
-726 -60 -330 -69 -772 -21 -1044 31 -178 87 -307 165 -380 l25 -23 -35 7
c-55 12 -85 31 -128 81 -99 116 -165 331 -193 634 -29 317 19 747 116 1034
102 301 238 456 385 440 14 -1 34 -3 45 -4z m-16432 -52 c-70 -73 -113 -205
-113 -350 l0 -88 -65 0 c-55 0 -66 3 -76 21 -12 23 -5 157 12 236 12 59 54
143 89 181 28 31 32 32 106 32 l78 0 -31 -32z m240 7 c33 -21 75 -83 83 -120
l6 -30 -84 3 c-73 3 -87 1 -111 -18 -98 -78 -100 -280 -2 -377 46 -46 66 -51
153 -34 41 8 42 8 42 -19 0 -17 -13 -44 -32 -67 -139 -170 -299 -67 -339 218
-9 71 -9 97 5 173 42 222 168 344 279 271z m16358 -97 c38 -41 67 -103 113
-242 53 -160 57 -152 -66 -145 -57 4 -115 10 -129 14 -22 6 -31 0 -63 -37 -83
-96 -127 -195 -168 -383 -17 -80 -22 -134 -22 -270 -1 -159 1 -176 27 -264 38
-127 77 -211 121 -256 l36 -39 18 22 c17 20 29 22 112 22 l92 0 -6 -35 c-4
-19 -13 -47 -21 -62 -8 -15 -15 -32 -15 -37 0 -18 -93 -161 -129 -199 -70 -75
-115 -84 -179 -36 -80 59 -127 164 -173 384 -21 99 -23 137 -23 390 -1 324 8
403 74 665 64 254 149 433 242 508 32 25 49 32 85 32 37 0 49 -5 74 -32z
m-8063 -143 c1 -48 -2 -64 -8 -50 -5 11 -8 54 -8 95 0 52 2 67 8 50 4 -14 8
-56 8 -95z m-11718 -53 l0 -109 -37 -7 c-59 -9 -381 -7 -387 3 -14 21 11 131
38 170 32 46 26 44 254 49 l132 3 0 -109z m6301 46 c4 -6 12 -47 19 -92 6 -45
13 -88 14 -97 2 -9 1 -21 -3 -25 -3 -5 -196 -8 -429 -6 l-423 3 -20 32 c-16
26 -19 46 -17 108 3 69 2 75 -14 65 -42 -26 -59 -124 -33 -188 7 -17 -4 -18
-135 -18 -78 0 -150 4 -160 10 -20 11 -35 49 -45 117 -5 31 -2 50 11 72 l18
31 316 2 c494 4 894 -2 901 -14z m-1276 -23 c-22 -33 -25 -49 -25 -117 l0 -79
-662 3 c-365 2 -734 4 -820 6 l-156 3 -11 31 c-16 44 -14 114 4 148 12 24 22
29 57 32 24 2 402 5 841 7 l798 3 -26 -37z m3277 0 c624 -16 1160 -32 1333
-40 61 -3 245 -10 410 -15 314 -11 915 -40 1365 -65 847 -48 811 -45 816 -59
3 -7 -2 -56 -10 -110 -8 -54 -12 -104 -9 -112 6 -17 20 -17 -228 1 -112 8
-305 19 -429 25 -124 6 -301 15 -395 20 -93 5 -285 14 -425 20 -140 6 -349 15
-465 20 -115 6 -336 15 -490 20 -154 6 -383 15 -510 20 -440 19 -722 29 -1120
40 -862 24 -793 20 -815 48 -36 45 -21 122 32 180 21 21 28 22 195 22 95 0
430 -7 745 -15z m5423 -250 c116 -8 284 -19 375 -25 91 -5 228 -14 305 -20
237 -18 966 -68 1240 -85 143 -9 275 -18 293 -21 l34 -5 -7 -122 c-4 -67 -10
-125 -14 -129 -3 -4 -103 0 -221 8 -486 33 -923 65 -1049 75 l-134 12 -19 44
c-20 46 -22 134 -3 178 7 17 4 16 -19 -5 -47 -42 -67 -94 -64 -158 2 -34 -1
-56 -7 -55 -5 0 -73 4 -150 8 -90 5 -148 12 -162 21 -29 18 -49 112 -36 171
11 46 5 53 -19 26 -36 -42 -50 -84 -43 -134 5 -37 3 -50 -7 -54 -7 -3 -132 3
-278 13 -264 17 -264 17 -277 42 -16 32 -17 126 -1 185 9 35 17 45 33 45 11 0
115 -7 230 -15z m-9585 -102 c0 -32 -7 -103 -15 -158 -12 -87 -25 -156 -77
-402 -6 -29 -15 -53 -19 -53 -5 0 -9 -8 -9 -18 0 -44 -73 -243 -146 -400 -156
-335 -397 -582 -649 -663 -56 -18 -92 -23 -180 -23 -128 1 -209 21 -317 82
-81 44 -188 121 -188 134 0 5 19 -6 42 -26 95 -82 294 -156 418 -156 212 0
443 138 623 372 85 112 202 333 252 478 8 25 19 54 24 65 55 119 160 648 161
808 0 13 9 17 40 17 l40 0 0 -57z m15797 41 c22 -6 22 -7 4 -33 -17 -26 -73
-138 -85 -174 -4 -12 -12 -17 -23 -13 -10 2 -62 7 -116 11 -94 7 -97 8 -91 28
9 31 32 74 70 135 l34 52 92 0 c51 0 103 -3 115 -6z m-19929 -35 c4 -23 -36
-29 -190 -29 -126 0 -168 8 -168 33 0 9 45 12 177 12 156 0 178 -2 181 -16z
m7532 -2 c0 -15 -36 -57 -50 -57 -11 0 -17 29 -12 53 5 21 62 25 62 4z m1016
-17 c13 -5 28 -28 41 -67 12 -32 35 -96 53 -143 17 -47 59 -164 92 -260 33
-96 62 -177 65 -180 8 -7 -3 52 -58 298 -54 245 -57 271 -31 232 69 -101 239
-257 259 -237 7 8 -3 24 -128 203 -55 78 -99 145 -99 149 0 10 483 -4 493 -14
5 -5 -12 -86 -37 -182 -24 -96 -47 -192 -51 -214 -6 -41 23 -389 50 -610 20
-152 48 -318 81 -465 24 -105 25 -123 16 -216 -13 -131 -21 -147 -70 -138 -76
12 -73 7 -40 92 50 130 49 143 -26 328 -59 147 -115 314 -131 388 -3 15 -8 26
-11 23 -13 -13 21 -216 63 -377 25 -96 48 -192 51 -212 4 -38 -30 -172 -47
-182 -11 -7 -151 43 -234 84 l-64 33 -11 64 c-6 38 -22 82 -39 108 -44 70
-162 143 -233 145 -26 0 -50 35 -50 71 0 17 -12 57 -100 334 -21 66 -45 143
-54 170 -18 61 -136 391 -164 460 -11 28 -39 90 -62 139 -23 50 -51 114 -61
144 l-18 54 267 -8 c147 -4 276 -10 288 -14z m11577 -34 c15 -30 27 -57 27
-60 0 -3 -24 -6 -53 -6 -48 0 -56 -3 -89 -37 -45 -46 -82 -150 -98 -275 -19
-141 20 -347 77 -410 8 -9 35 -20 59 -24 49 -7 52 -11 26 -45 -10 -13 -21 -32
-25 -42 -4 -9 -18 -23 -33 -29 -24 -11 -29 -9 -59 23 -21 24 -42 65 -61 125
-28 86 -29 96 -28 279 0 161 4 204 23 280 34 138 83 227 146 263 42 24 60 15
88 -42z m-8381 -105 c13 -11 50 -208 132 -696 10 -63 -4 318 -19 499 -9 104
-14 191 -11 193 2 3 89 0 192 -7 143 -8 192 -14 205 -26 9 -8 27 -43 39 -77
29 -78 82 -177 109 -201 57 -52 106 -68 196 -65 130 5 125 20 81 -242 -103
-626 -109 -695 -76 -891 17 -103 21 -153 15 -204 -6 -55 -9 -65 -19 -53 -17
24 -89 69 -108 69 -13 0 -18 8 -18 28 0 89 -63 171 -165 217 -68 31 -192 55
-280 55 -60 0 -82 -5 -131 -30 -32 -16 -59 -28 -60 -27 -2 1 1 34 6 72 23 181
23 305 0 470 -37 266 -96 475 -190 675 -93 200 -110 238 -110 250 0 12 198 3
212 -9z m8643 -76 c83 -8 254 -21 380 -30 127 -8 247 -18 267 -21 36 -5 37 -7
23 -27 -21 -33 -65 -168 -65 -202 -1 -60 -1 -61 -182 -42 -90 9 -307 26 -483
38 -176 12 -324 26 -329 30 -19 17 39 225 72 262 18 20 7 20 317 -8z m-573
-21 c3 -3 2 -21 -3 -41 -4 -20 -13 -104 -20 -187 -7 -83 -15 -155 -20 -160 -4
-5 -55 -5 -115 -1 l-107 7 7 106 c3 58 11 146 17 194 l12 88 112 0 c61 0 114
-2 117 -6z m1367 -119 c30 -89 6 -338 -40 -413 -23 -40 -34 -40 -54 -1 -38 73
-27 298 20 404 30 68 53 71 74 10z m-659 -375 c493 -38 484 -36 488 -74 l4
-29 -74 6 c-40 4 -255 20 -478 38 -223 17 -411 36 -417 41 -7 6 -13 19 -13 29
0 26 17 25 490 -11z m-339 -289 c-29 -176 -68 -360 -101 -476 -136 -476 -255
-737 -441 -970 -61 -76 -166 -157 -235 -182 -67 -23 -166 -21 -226 6 -25 12
-68 41 -95 66 l-48 46 46 -30 c66 -43 95 -52 172 -53 58 0 78 4 130 31 191 98
376 385 522 811 50 147 101 316 114 383 75 361 72 353 162 495 22 35 22 12 0
-127z m-18423 -326 c-3 -3 -9 2 -12 12 -6 14 -5 15 5 6 7 -7 10 -15 7 -18z
m6718 -106 c32 -6 78 -22 102 -36 61 -35 82 -74 82 -151 0 -56 -2 -63 -24 -71
-13 -5 -48 -25 -78 -44 l-54 -35 -75 37 c-41 21 -85 40 -98 44 -23 6 -23 6
-16 104 7 103 20 138 58 153 29 12 34 12 103 -1z m989 -201 c26 -34 71 -143
85 -210 9 -47 8 -49 -130 -192 -152 -158 -249 -277 -288 -353 -22 -42 -53 -62
-127 -82 -54 -15 -65 -14 -65 5 0 8 -15 48 -33 87 -42 91 -104 180 -194 280
l-34 39 -87 -50 c-48 -27 -97 -53 -109 -57 -46 -13 -21 11 49 50 40 22 94 62
120 88 46 47 47 49 34 76 -8 15 -35 44 -60 65 -26 21 -43 42 -40 50 8 20 115
70 149 69 40 -1 130 -44 212 -100 15 -11 63 -34 105 -51 164 -68 307 -25 348
103 7 22 14 79 14 127 1 99 9 108 51 56z m2720 -15 c114 -28 175 -75 175 -134
0 -37 -35 -129 -48 -129 -4 0 -33 9 -65 20 -87 31 -231 46 -319 33 -40 -5 -76
-8 -80 -6 -5 2 -8 39 -8 82 0 63 4 83 20 104 44 56 176 68 325 30z m-3876 -99
c112 -33 229 -110 304 -200 18 -21 17 -22 -35 -52 -51 -28 -90 -62 -73 -62 5
0 28 12 52 26 25 14 47 23 50 20 7 -6 -117 -86 -134 -86 -7 0 -34 27 -61 60
-45 56 -161 140 -194 140 -7 0 -21 7 -31 15 -11 7 -36 17 -58 20 -21 4 -39 10
-39 15 0 4 25 33 55 64 62 63 76 66 164 40z m3431 -118 c0 -25 -7 -40 -22 -51
-23 -15 -23 -15 -26 20 -3 38 11 65 34 65 9 0 14 -12 14 -34z m1004 -29 c35
-53 48 -155 50 -387 1 -202 -1 -230 -18 -268 -10 -23 -22 -42 -26 -42 -3 0
-14 17 -23 39 -10 21 -44 71 -78 110 l-60 73 31 61 c23 45 32 75 31 111 0 46
-4 53 -52 102 -28 29 -71 62 -95 75 -24 12 -44 26 -44 30 0 5 -13 15 -30 24
-27 14 -29 18 -17 38 6 12 13 24 14 26 4 8 84 -40 142 -85 50 -39 69 -47 104
-48 l42 -1 0 83 c0 45 3 82 7 82 4 0 14 -10 22 -23z m-570 -43 c171 -44 417
-203 415 -269 0 -32 -32 -89 -51 -93 -10 -2 -32 8 -50 21 -57 43 -183 115
-239 138 -114 46 -309 63 -431 38 -63 -13 -157 -46 -177 -62 -12 -10 -13 -9
-7 8 5 11 14 43 20 70 17 68 34 92 82 114 102 48 319 66 438 35z m-3979 -51
c30 -15 55 -30 55 -33 -1 -8 -107 -80 -119 -80 -5 0 -11 -5 -13 -11 -2 -7 -31
2 -76 25 -39 20 -79 36 -88 36 -27 0 -10 23 51 66 54 37 62 40 97 32 21 -4 62
-20 93 -35z m1400 -77 c8 -49 15 -126 15 -171 0 -70 -3 -84 -17 -90 -99 -40
-325 -95 -391 -95 -31 0 109 187 241 322 48 48 94 99 103 113 9 14 21 22 25
18 4 -4 15 -48 24 -97z m-1241 -48 c20 -29 61 -89 91 -133 31 -44 59 -84 63
-90 30 -39 110 -224 112 -256 0 -3 -13 -4 -29 -1 -16 2 -49 -5 -73 -16 l-45
-20 -26 34 c-15 18 -27 36 -27 39 0 4 -12 23 -27 43 -16 20 -32 43 -38 51 -5
7 -50 53 -100 103 -78 77 -88 91 -72 99 23 13 22 30 -4 63 l-21 27 28 31 c25
25 106 76 125 78 3 0 23 -24 43 -52z m-374 -9 c37 -13 72 -36 96 -61 36 -37
38 -41 21 -52 -10 -6 -41 -28 -69 -48 -27 -21 -56 -38 -64 -38 -7 0 -33 14
-56 30 -48 33 -144 70 -183 70 -45 0 -32 22 50 78 71 49 116 54 205 21z m746
-82 c71 -102 123 -211 127 -261 2 -39 1 -39 -43 -51 -25 -6 -59 -19 -77 -28
l-32 -17 -56 109 c-31 60 -80 143 -110 184 l-54 76 27 6 c15 3 54 21 87 39 33
19 63 32 67 30 4 -3 33 -42 64 -87z m3344 8 c141 -23 131 -14 111 -93 -11 -43
-23 -68 -33 -70 -8 -2 -40 7 -69 18 -39 15 -87 23 -171 27 -65 3 -118 10 -118
15 0 5 9 31 21 58 16 38 27 50 47 53 58 9 121 6 212 -8z m-330 -24 c0 -19 -42
-102 -53 -105 -7 -2 -27 -8 -44 -14 -36 -11 -37 -11 -19 37 16 45 116 116 116
82z m-3674 -112 c-52 -32 -99 -59 -105 -59 -28 0 -4 23 72 68 88 53 108 62
120 55 4 -3 -35 -31 -87 -64z m4322 19 c152 -84 322 -266 322 -345 0 -12 -11
-38 -24 -58 l-25 -36 -15 28 c-24 45 -164 183 -186 183 -4 0 -27 16 -51 35
-24 19 -47 35 -51 35 -4 0 -28 16 -54 35 -25 19 -52 35 -61 35 -8 0 -13 6 -10
13 2 6 10 38 17 70 9 39 18 57 28 57 9 0 58 -24 110 -52z m-4703 -13 c34 -11
67 -14 103 -9 l52 6 51 -51 c28 -28 59 -51 71 -51 20 0 109 45 162 83 l29 21
73 -77 c75 -79 120 -140 154 -207 24 -47 25 -60 5 -60 -9 0 -41 -11 -73 -24
-100 -42 -93 -43 -145 27 -39 54 -59 70 -123 103 -76 39 -78 39 -188 38 -61 0
-183 -4 -271 -8 -176 -9 -270 3 -335 42 l-33 21 49 22 c103 46 130 57 166 69
21 6 40 16 43 21 4 5 14 9 23 9 10 0 33 9 52 19 43 24 70 25 135 6z m4370 -73
c88 -24 131 -42 209 -89 84 -50 106 -71 106 -104 0 -34 -32 -59 -75 -59 -17 0
-77 23 -135 53 -126 63 -219 86 -385 94 -94 4 -132 2 -174 -11 -30 -9 -56 -14
-59 -11 -7 7 60 96 89 117 15 11 42 24 60 29 57 14 286 2 364 -19z m-2430 -9
c-3 -16 -12 -34 -20 -42 -19 -20 -108 -49 -200 -66 -62 -11 -307 -36 -344 -35
-3 0 13 9 35 19 23 11 118 35 210 55 202 43 219 48 269 74 53 28 58 27 50 -5z
m-2455 -94 c0 -18 123 -68 200 -80 85 -13 291 -7 416 12 108 17 193 -3 268
-60 49 -38 86 -104 65 -116 -32 -20 -431 -65 -577 -65 -107 0 -152 5 -308 36
-100 20 -195 69 -201 103 -4 28 41 113 80 153 29 28 57 37 57 17z m2484 -61
c4 -24 9 -57 12 -73 11 -63 -84 -116 -263 -146 -88 -14 -374 -14 -532 1 -69 6
-163 12 -210 12 -79 1 -84 2 -56 14 17 7 50 21 75 32 111 47 296 85 531 107
160 14 315 46 389 79 48 21 47 21 54 -26z m2216 -24 c81 -9 110 -16 110 -26 0
-10 -26 -9 -177 8 -29 4 -60 12 -70 20 -19 15 -11 15 137 -2z m-237 -18 c90
-67 328 -94 435 -50 30 12 38 12 71 -5 21 -11 65 -29 100 -41 51 -17 69 -19
101 -10 42 11 90 60 90 91 0 16 4 18 18 10 73 -39 182 -182 182 -238 0 -27
-57 -143 -71 -143 -4 0 -10 8 -13 18 -9 26 -74 87 -121 111 -55 29 -118 27
-212 -8 -147 -54 -263 -75 -418 -74 -162 1 -273 20 -345 59 -57 31 -71 59 -61
125 12 75 62 133 139 161 63 22 68 22 105 -6z m1187 -148 c-7 -35 -50 -99 -86
-129 -15 -12 -16 -12 -11 6 3 11 8 37 12 59 3 21 23 73 43 115 l36 76 7 -45
c4 -25 3 -62 -1 -82z m-5736 -33 c205 -98 458 -111 998 -51 358 41 398 33 143
-27 -331 -78 -549 -98 -790 -73 -215 23 -365 67 -412 123 -21 24 -31 63 -17
63 3 0 38 -16 78 -35z m4299 -131 c62 -53 268 -88 467 -81 140 6 178 14 365
73 79 26 118 34 143 29 46 -9 123 -66 146 -109 19 -36 19 -37 0 -51 -39 -29
-131 -74 -204 -99 -222 -76 -609 -87 -879 -25 -140 32 -175 61 -185 153 -5 54
10 101 52 168 l37 57 15 -46 c9 -25 28 -56 43 -69z m1227 -165 c-24 -65 -29
-70 -109 -122 -173 -114 -372 -160 -681 -161 -246 0 -386 23 -542 88 -41 18
-68 50 -68 82 0 33 9 34 47 8 45 -30 130 -57 258 -80 138 -25 470 -26 605 -1
214 39 358 98 445 180 33 31 61 56 62 57 1 0 -7 -23 -17 -51z"/>
<path d="M10830 14324 c-6 -14 -10 -50 -10 -79 0 -46 5 -59 30 -89 l31 -35
-25 -93 c-23 -88 -43 -208 -33 -198 10 10 86 191 92 220 8 37 14 37 49 1 41
-43 134 -98 189 -112 62 -15 69 -7 17 22 -37 21 -70 62 -70 86 0 4 38 6 84 5
78 -4 84 -2 91 17 15 47 82 51 70 4 -5 -20 -3 -24 12 -19 10 3 39 10 66 17 80
20 74 26 -78 80 -49 17 -97 34 -105 37 -8 3 21 11 65 19 81 14 150 12 218 -5
20 -6 37 -6 37 -2 0 19 -54 71 -105 99 -44 25 -66 31 -112 31 -54 0 -130 -17
-178 -39 -11 -5 -33 -14 -50 -19 -16 -6 -55 -20 -85 -31 -52 -20 -144 -31
-156 -18 -3 3 -8 33 -11 66 -6 65 -17 77 -33 35z"/>
<path d="M11766 13805 c-22 -26 -86 -94 -143 -150 -57 -56 -103 -108 -103
-116 -6 -260 -9 -298 -29 -359 -24 -76 -23 -70 -12 -70 29 0 75 135 116 337 4
18 29 61 57 95 114 142 167 240 156 294 -2 13 -12 6 -42 -31z"/>
<path d="M10861 13334 c-26 -11 -46 -12 -85 -5 l-51 9 -62 -51 c-34 -29 -62
-55 -62 -59 -1 -14 39 -8 77 11 35 18 179 33 287 31 44 0 218 -34 260 -50 35
-13 45 -13 45 4 0 23 -73 63 -130 71 -30 4 -85 18 -121 31 -76 27 -110 29
-158 8z"/>
<path d="M10906 13162 c-2 -1 -49 -3 -104 -3 -56 0 -104 -5 -108 -10 -3 -5 4
-21 15 -35 26 -33 26 -45 1 -77 -11 -14 -20 -27 -20 -30 0 -2 37 7 83 20 97
29 188 26 276 -7 30 -12 63 -20 74 -18 15 2 6 13 -43 51 l-62 49 21 22 c12 12
21 25 21 28 0 6 -149 16 -154 10z"/>
<path d="M12090 12698 c0 -14 44 -147 67 -201 30 -74 135 -245 140 -230 2 6
-32 88 -76 182 -45 93 -81 173 -81 176 0 3 -11 23 -25 43 -14 20 -25 34 -25
30z"/>
<path d="M11695 11958 c-7 -33 -25 -189 -24 -213 1 -49 30 67 36 147 6 83 0
116 -12 66z"/>
<path d="M13868 12411 c-38 -8 -68 -26 -68 -42 0 -5 22 -9 48 -9 141 0 342
-101 460 -230 l32 -35 -11 31 c-13 40 -111 155 -164 192 -101 71 -218 108
-297 93z"/>
<path d="M13550 12137 c0 -3 21 -18 48 -34 26 -15 64 -41 84 -58 40 -34 129
-141 161 -194 32 -53 31 -20 -1 52 -41 90 -104 171 -155 202 -40 23 -137 46
-137 32z"/>
<path d="M14764 10248 c11 -99 33 -195 72 -313 35 -109 53 -151 54 -128 2 91
-97 503 -122 503 -7 0 -8 -20 -4 -62z"/>
<path d="M14010 10078 c0 -37 52 -319 76 -407 26 -95 64 -208 91 -271 63 -143
160 -304 214 -355 l31 -30 -25 50 c-167 333 -246 540 -331 862 -34 130 -55
187 -56 151z"/>
<path d="M14980 9302 c0 -12 23 -73 51 -135 164 -363 162 -453 -24 -837 -73
-151 -82 -175 -113 -287 -25 -91 -28 -147 -5 -90 27 68 69 148 116 218 27 42
55 85 61 95 20 33 29 -234 16 -451 -14 -227 -45 -421 -103 -648 -11 -43 -18
-84 -16 -91 5 -13 57 96 97 207 32 85 60 219 86 397 13 89 16 186 15 436 -1
277 1 326 15 360 57 135 76 282 49 384 -25 99 -155 352 -225 440 l-20 25 0
-23z"/>
<path d="M15331 8700 c0 -14 4 -32 9 -40 8 -12 10 -12 9 5 0 11 -4 29 -9 40
-8 18 -9 18 -9 -5z"/>
<path d="M15424 7878 c3 -18 9 -136 12 -263 7 -260 -3 -399 -61 -810 -44 -314
-66 -572 -47 -549 14 15 112 516 137 697 44 324 38 651 -17 905 -12 56 -34 74
-24 20z"/>
<path d="M14710 6872 c0 -5 16 -54 35 -108 36 -99 74 -287 76 -372 0 -26 4
-56 9 -67 16 -36 11 205 -5 274 -26 110 -115 321 -115 273z"/>
<path d="M15170 5812 c0 -5 15 -23 33 -40 43 -42 95 -46 132 -12 14 13 25 27
25 31 0 3 -29 4 -65 1 -36 -2 -70 0 -77 5 -19 15 -48 23 -48 15z"/>
<path d="M15425 4768 c-60 -23 -73 -34 -58 -49 16 -16 68 -2 103 28 54 45 37
54 -45 21z"/>
<path d="M15095 4701 c-11 -20 4 -60 27 -72 13 -7 29 -18 36 -26 17 -17 34
-17 77 1 37 16 55 42 55 80 0 32 -5 32 -33 1 -15 -17 -36 -27 -68 -31 -43 -6
-47 -5 -66 26 -13 21 -23 28 -28 21z"/>
<path d="M14640 4649 c0 -6 17 -29 39 -50 30 -30 46 -39 73 -39 40 0 58 15 58
48 0 19 -4 23 -17 17 -48 -19 -79 -16 -115 9 -21 14 -38 21 -38 15z"/>
<path d="M14855 4628 c3 -13 27 -42 53 -66 51 -46 67 -48 127 -13 22 12 31 26
33 49 l3 33 -38 -17 c-68 -30 -96 -29 -135 5 -42 37 -52 39 -43 9z"/>
<path d="M10248 12030 c-93 -17 -209 -135 -297 -303 -62 -118 -51 -135 19 -30
78 117 167 213 248 270 37 26 71 50 75 54 14 12 -6 16 -45 9z"/>
<path d="M9883 10020 c-66 -198 -107 -385 -122 -552 -4 -43 -3 -78 1 -78 4 0
8 2 8 3 0 2 9 39 20 83 33 129 131 607 128 623 -2 9 -18 -27 -35 -79z"/>
<path d="M9650 8798 c0 -3 14 -36 30 -73 41 -92 71 -179 134 -399 30 -104 57
-191 60 -194 13 -12 5 111 -13 209 -24 127 -53 209 -109 314 -37 70 -102 161
-102 143z"/>
<path d="M9851 7853 c-5 -21 -17 -78 -25 -128 -21 -119 -21 -121 -41 -190 -23
-81 -53 -168 -82 -239 -43 -104 -18 -69 45 61 84 177 122 304 129 424 4 64 2
98 -5 103 -7 4 -15 -8 -21 -31z"/>
<path d="M9556 6688 c-14 -40 -35 -107 -46 -148 l-19 -75 0 64 c-1 35 -3 62
-5 60 -2 -2 -14 -61 -25 -130 -34 -205 -26 -485 17 -599 6 -17 11 24 16 145
10 265 25 409 56 550 34 158 42 205 36 205 -2 0 -16 -33 -30 -72z"/>
<path d="M9010 5898 c-11 -19 -20 -50 -20 -73 l1 -40 20 55 c29 81 32 90 25
90 -3 0 -15 -15 -26 -32z"/>
<path d="M9120 4854 c0 -14 27 -50 33 -44 3 3 -3 16 -13 30 -11 14 -20 20 -20
14z"/>
<path d="M9997 4994 c-4 -4 -7 -22 -7 -40 0 -62 -2 -62 480 -73 239 -6 458
-13 485 -16 28 -3 110 -6 184 -7 121 -2 135 0 147 17 16 22 19 81 4 90 -19 12
-1282 40 -1293 29z"/>
<path d="M12467 4906 c-14 -35 -8 -84 11 -91 20 -7 61 -10 497 -31 176 -8 419
-21 540 -29 306 -21 342 -20 355 6 16 29 3 79 -23 89 -12 5 -112 14 -222 20
-110 6 -234 13 -275 15 -126 8 -474 24 -681 31 -180 6 -196 6 -202 -10z"/>
<path d="M14808 3655 c-19 -149 -29 -348 -24 -429 9 -116 25 -193 37 -175 10
15 10 269 0 509 -5 133 -7 146 -13 95z"/>
</g>
</svg>