<?xml version="1.0" standalone="no"?>
<!DOCTYPE svg PUBLIC "-//W3C//DTD SVG 20010904//EN"
 "http://www.w3.org/TR/2001/REC-SVG-20010904/DTD/svg10.dtd">
<svg version="1.0" xmlns="http://www.w3.org/2000/svg"
 width="1024.000000pt" height="1024.000000pt" viewBox="0 0 1024.000000 1024.000000"
 preserveAspectRatio="xMidYMid meet">

<g transform="translate(0.000000,1024.000000) scale(0.100000,-0.100000)"
fill="#000000" stroke="none">
<path d="M5576 9364 c-294 -45 -661 -214 -1023 -471 -291 -206 -640 -563 -824
-843 -173 -262 -318 -626 -439 -1095 -120 -468 -136 -515 -285 -845 -53 -118
-112 -259 -130 -312 -37 -105 -95 -357 -117 -503 -14 -98 -18 -568 -5 -645 l7
-45 -32 55 c-74 126 -173 192 -296 198 -155 9 -270 -32 -707 -248 -303 -150
-492 -237 -640 -296 -154 -62 -307 -190 -364 -305 -60 -122 -59 -209 8 -509
33 -153 45 -225 66 -430 9 -80 27 -217 40 -305 34 -227 102 -770 120 -961 8
-88 16 -226 17 -305 l1 -144 -126 -500 c-69 -275 -146 -576 -171 -668 -25 -93
-46 -173 -46 -178 0 -5 33 -9 73 -9 l72 0 49 188 c122 468 228 897 249 1002
18 97 22 147 21 320 0 237 -9 317 -99 955 -36 248 -76 540 -90 650 -29 229
-40 290 -91 505 -57 245 -41 327 91 448 71 65 168 119 385 215 69 30 233 108
365 172 522 254 629 297 745 298 108 1 163 -31 234 -138 14 -22 26 -45 26 -51
0 -7 -28 -13 -67 -17 -180 -15 -452 -88 -760 -203 -180 -68 -286 -98 -388
-110 -55 -6 -58 -7 -30 -16 50 -14 186 -11 255 7 36 9 148 43 250 75 355 113
626 169 865 177 140 5 153 4 197 -17 56 -26 123 -95 148 -153 21 -47 43 -163
38 -196 -3 -21 -7 -22 -203 -25 -220 -3 -283 -12 -640 -91 -227 -50 -300 -62
-435 -73 l-95 -8 40 -13 c101 -33 291 -24 545 25 230 44 384 65 531 71 394 16
514 -67 514 -357 0 -144 -3 -153 -47 -138 -22 8 -184 13 -496 15 -359 2 -484
6 -550 18 -48 8 -96 15 -107 15 -19 0 -18 -2 4 -19 33 -26 133 -59 216 -71 39
-6 246 -15 460 -20 495 -11 538 -19 605 -111 53 -74 65 -127 63 -289 -2 -151
-25 -404 -43 -468 -25 -94 -73 -132 -290 -232 -102 -48 -135 -59 -141 -49 -22
36 -23 269 -2 290 5 5 39 -3 76 -16 88 -32 257 -36 257 -5 0 4 -23 10 -50 14
-82 11 -174 44 -200 71 l-24 25 85 88 c47 48 98 104 113 124 29 39 70 137 61
146 -3 3 -21 -13 -39 -35 -77 -89 -226 -192 -279 -193 -10 0 -48 32 -84 70
-66 70 -172 150 -200 150 -8 0 20 -33 61 -73 74 -72 126 -155 126 -203 0 -30
-38 -83 -88 -121 -33 -25 -54 -33 -85 -34 -23 0 -50 -4 -60 -8 -17 -6 -16 -8
8 -19 15 -7 47 -15 71 -19 44 -6 45 -7 78 -77 72 -152 121 -376 132 -605 15
-301 -59 -575 -191 -704 -86 -86 -229 -151 -402 -182 -48 -9 -92 -20 -97 -25
-13 -13 97 -25 222 -24 124 1 121 3 96 -67 -23 -65 -86 -333 -138 -588 -26
-124 -49 -235 -52 -248 -6 -22 -4 -23 64 -23 l71 0 15 73 c9 39 19 90 24 112
l7 40 216 110 c118 61 247 128 285 149 145 82 827 503 1081 667 l182 117 5
-41 c3 -23 24 -206 46 -407 42 -373 48 -416 56 -408 7 8 33 215 44 357 20 262
10 518 -45 1196 -12 160 -22 291 -20 293 1 2 47 -48 101 -110 54 -62 162 -180
239 -262 336 -356 394 -436 605 -821 149 -274 237 -399 493 -708 50 -59 92
-106 93 -104 2 2 -19 57 -47 123 -134 316 -264 663 -257 684 4 12 168 -85 265
-156 162 -120 243 -149 403 -142 92 4 115 8 171 35 73 34 189 118 299 216 41
37 76 63 78 58 2 -7 -178 -495 -276 -748 -22 -57 -37 -103 -34 -103 31 0 285
277 417 455 148 199 217 321 409 724 173 362 215 432 407 688 92 123 198 269
236 324 66 98 68 100 70 68 1 -19 7 -441 13 -939 7 -498 15 -911 20 -919 9
-17 84 286 105 424 17 123 35 373 35 506 l0 99 113 -74 c196 -129 367 -222
992 -538 336 -171 642 -327 682 -349 40 -21 75 -39 78 -39 3 0 4 39 3 87 l-3
87 -630 316 c-346 173 -673 340 -725 369 -124 70 -328 195 -360 221 l-25 20
37 33 c20 17 64 57 98 87 73 64 179 192 233 280 21 34 40 60 42 58 6 -6 -89
-257 -119 -316 -15 -30 -25 -56 -22 -59 20 -21 299 248 372 360 136 207 224
469 254 757 5 58 20 130 31 160 55 144 129 397 148 505 11 66 27 189 35 274 8
84 17 155 19 157 2 3 8 -27 11 -67 8 -81 21 -123 30 -99 9 24 24 124 46 295
11 88 27 205 36 260 21 141 29 464 15 610 -23 235 -65 439 -133 645 -51 157
-87 238 -233 530 -146 292 -194 403 -301 700 -214 592 -273 739 -370 930 -299
588 -935 1158 -1567 1405 -313 122 -552 144 -838 74 l-131 -31 -91 26 c-190
54 -353 66 -521 40z m1379 -255 c187 -33 409 -120 552 -215 167 -111 402 -364
529 -567 57 -92 174 -308 174 -322 0 -4 -50 45 -111 109 -126 131 -227 219
-347 299 -76 51 -270 157 -287 157 -4 0 29 -38 73 -85 212 -223 324 -398 436
-677 55 -136 99 -268 93 -274 -2 -2 -30 40 -62 94 -32 53 -83 131 -114 172
-71 96 -226 252 -315 317 -75 56 -240 147 -256 141 -6 -2 14 -37 43 -78 29
-41 72 -105 95 -142 42 -68 177 -318 170 -318 -1 0 -50 46 -108 103 -58 56
-136 128 -175 158 -83 67 -188 140 -193 135 -6 -7 60 -220 99 -321 74 -185
209 -420 311 -537 27 -32 47 -58 44 -58 -4 0 -46 24 -94 54 -314 196 -711 607
-866 896 -34 63 -47 80 -52 67 -3 -10 -4 -122 -1 -250 4 -209 8 -246 36 -378
17 -81 44 -185 60 -233 33 -100 25 -98 -53 13 -100 141 -197 357 -234 516 -30
125 -60 427 -41 407 4 -4 30 -57 57 -118 43 -93 90 -184 95 -184 1 0 2 51 3
113 1 61 7 145 13 185 13 71 12 73 -14 118 -15 25 -25 47 -23 50 8 7 184 -102
264 -164 90 -69 158 -132 228 -212 l49 -55 -8 35 c-36 167 -94 309 -172 417
-29 40 -49 73 -45 73 36 0 286 -116 381 -177 29 -19 55 -33 57 -31 1 2 -17 44
-40 93 -92 189 -258 339 -481 431 l-80 33 122 1 c141 0 231 -15 379 -65 59
-19 109 -34 111 -31 6 6 -120 115 -184 159 -85 57 -165 96 -278 134 l-100 33
100 -5 c55 -2 127 -10 160 -16z m-1330 -15 c-5 -2 -49 -15 -98 -29 -108 -31
-255 -99 -350 -162 -40 -26 -116 -90 -169 -142 -96 -92 -125 -131 -70 -93 44
31 189 88 292 116 99 27 241 50 370 60 l75 6 -70 -38 c-145 -78 -252 -161
-377 -290 -86 -88 -205 -248 -194 -259 2 -2 30 13 62 33 74 47 225 118 377
178 65 25 121 46 123 46 8 0 -123 -174 -264 -352 -79 -99 -142 -182 -139 -184
6 -6 237 114 312 161 117 75 211 149 308 243 53 53 97 93 97 89 0 -49 -288
-498 -358 -561 -47 -41 -17 -35 87 19 167 87 273 179 424 365 l29 35 -7 -80
c-20 -237 -153 -580 -308 -797 -72 -100 -217 -272 -224 -265 -2 3 11 29 30 58
109 171 230 467 253 619 l6 45 -118 -121 c-169 -171 -316 -290 -489 -394 -39
-24 -38 -22 31 60 72 86 124 159 124 172 0 4 -64 -41 -143 -100 -162 -122
-328 -230 -497 -322 -108 -59 -280 -142 -280 -136 0 2 53 43 117 92 134 101
358 319 487 474 92 110 199 260 191 268 -8 8 -436 -227 -543 -298 l-103 -68
47 86 c58 109 157 259 235 358 34 42 59 77 57 79 -6 5 -181 -102 -259 -159
-109 -81 -237 -211 -339 -342 -138 -179 -132 -173 -119 -144 20 41 168 297
237 410 69 112 176 261 251 350 53 63 39 61 -62 -10 -124 -85 -250 -205 -375
-355 l-33 -40 22 45 c63 129 224 364 350 510 64 74 64 75 24 51 -188 -110
-453 -357 -588 -548 -28 -40 -52 -71 -54 -69 -6 6 106 247 159 341 129 230
316 461 508 626 201 174 483 313 710 349 41 6 82 13 90 15 23 4 156 4 145 -1z
m670 -1634 c113 -224 316 -451 535 -598 91 -60 216 -124 345 -177 50 -20 97
-39 105 -43 8 -3 2 10 -14 29 -105 129 -193 259 -240 354 -46 95 -106 242
-106 263 0 3 53 -48 118 -114 246 -251 462 -401 846 -590 225 -111 323 -261
414 -634 28 -113 75 -290 105 -395 68 -234 82 -317 74 -443 -12 -204 -125
-446 -313 -668 -38 -45 -105 -124 -148 -175 -135 -160 -190 -257 -222 -396 -8
-34 -23 -167 -35 -294 -21 -251 -56 -474 -90 -585 -12 -38 -45 -123 -75 -188
-30 -66 -52 -121 -50 -123 9 -9 118 126 157 194 75 132 116 278 145 525 37
315 65 432 122 516 15 22 81 101 146 176 66 75 155 184 198 242 44 58 81 104
84 102 2 -3 -5 -60 -17 -129 -11 -68 -38 -284 -59 -479 -64 -579 -71 -631 -96
-727 -42 -167 -99 -254 -344 -518 -159 -172 -418 -430 -424 -424 -3 2 8 42 24
87 31 86 63 212 57 219 -3 2 -39 -58 -82 -134 -168 -296 -253 -407 -375 -488
-188 -125 -347 -156 -815 -156 -442 -1 -606 30 -786 146 -130 84 -233 213
-388 484 -39 68 -73 126 -76 129 -12 12 11 -71 51 -188 24 -68 42 -125 40
-127 -5 -6 -325 298 -467 444 -161 166 -213 229 -257 318 -68 134 -91 239
-132 589 -36 307 -95 738 -115 842 -8 43 -13 79 -11 81 1 2 19 -21 39 -52 35
-52 112 -143 302 -355 90 -101 133 -171 159 -260 9 -30 30 -161 46 -290 36
-280 53 -369 90 -473 37 -101 89 -185 168 -272 75 -81 96 -94 61 -39 -42 68
-110 216 -139 304 -38 112 -57 227 -75 451 -41 498 -71 582 -292 825 -199 218
-296 349 -378 514 -126 251 -131 408 -26 828 16 64 48 205 71 312 50 239 77
323 135 424 98 173 188 258 475 449 191 128 289 200 417 309 51 43 95 78 98
78 19 0 -222 -323 -320 -427 -42 -46 -75 -83 -72 -83 32 0 343 115 443 164
359 176 657 459 824 778 l44 86 32 -72 c17 -39 48 -105 69 -146z m1705 -596
c90 -62 292 -180 412 -240 49 -24 88 -46 88 -49 0 -7 -100 25 -188 61 -105 42
-265 147 -351 231 -74 72 -69 72 39 -3z m-4464 -135 c-32 -173 -98 -372 -204
-619 -44 -102 -98 -239 -121 -305 -43 -127 -93 -306 -87 -312 2 -2 19 20 37
49 19 29 99 134 178 233 181 227 294 390 372 539 33 64 62 116 64 116 9 0 -86
-244 -144 -372 -40 -87 -120 -226 -230 -396 -128 -200 -211 -353 -269 -499
-52 -131 -105 -318 -117 -418 -4 -30 -11 -57 -15 -60 -21 -13 -17 366 5 525
l5 35 -15 -33 c-25 -55 -72 -248 -90 -372 -29 -198 -35 -173 -31 120 4 292 15
398 62 584 58 232 114 359 335 758 149 269 279 534 279 570 0 6 3 9 6 5 3 -3
-6 -69 -20 -148z m5318 43 c65 -119 148 -246 253 -384 145 -193 244 -369 341
-608 127 -314 186 -596 199 -955 5 -152 -3 -432 -13 -423 -2 2 -10 53 -19 114
-40 290 -109 536 -230 818 -9 21 -18 36 -20 34 -3 -2 2 -36 10 -74 19 -92 30
-252 14 -209 -122 327 -188 452 -351 663 -118 153 -211 301 -285 450 -36 73
-64 134 -62 137 2 2 41 -42 86 -98 45 -56 146 -172 225 -257 78 -86 167 -182
195 -215 51 -58 52 -59 43 -25 -38 136 -78 233 -177 428 -130 256 -188 396
-238 572 -33 117 -40 149 -31 139 2 -2 29 -50 60 -107z m-5275 -1528 c-224
-488 -274 -648 -305 -974 l-7 -75 -14 60 c-7 32 -27 83 -44 113 -29 51 -29 55
-19 115 29 166 100 366 186 524 52 95 284 446 291 440 2 -3 -37 -94 -88 -203z
m5419 64 c117 -165 198 -298 264 -433 31 -66 58 -113 58 -105 1 25 59 -90 90
-178 60 -170 74 -264 74 -507 0 -195 -3 -236 -27 -365 -15 -80 -35 -179 -46
-220 l-18 -75 5 200 c10 406 -41 728 -173 1095 -47 132 -87 222 -214 483 -56
115 -101 211 -101 213 0 12 14 -5 88 -108z m-138 -678 c37 -80 42 -97 37 -138
-12 -95 -86 -278 -145 -358 -39 -54 -119 -94 -184 -94 -34 0 -50 5 -54 15 -4
8 4 84 16 168 12 83 24 169 27 191 5 33 11 41 47 57 79 34 120 73 159 147 20
38 37 77 37 86 0 35 19 12 60 -74z m-5122 -10 c39 -83 105 -152 167 -176 25
-9 45 -17 45 -18 0 -1 16 -91 35 -200 19 -109 32 -202 30 -206 -11 -18 -61
-20 -112 -5 -99 29 -165 117 -239 323 -19 53 -34 112 -34 137 0 40 57 216 70
214 3 0 20 -31 38 -69z m-232 -505 c59 -17 127 -73 153 -124 24 -48 64 -171
58 -177 -3 -3 -18 1 -34 9 -46 24 -136 39 -166 28 -24 -9 -27 -7 -46 32 -25
52 -90 116 -156 154 -38 22 -50 35 -50 53 0 17 7 26 25 31 45 13 165 9 216 -6z
m159 -325 c22 -10 56 -30 75 -45 l35 -27 -30 6 c-16 4 -61 9 -99 13 -63 5 -70
8 -87 37 -10 17 -19 35 -19 39 0 13 78 -2 125 -23z m5524 -100 c6 -41 22 -149
35 -240 37 -245 48 -401 35 -523 -21 -208 -63 -363 -138 -510 -48 -93 -111
-194 -96 -152 68 184 97 336 103 545 2 96 1 172 -3 168 -5 -4 -20 -56 -35
-115 -32 -125 -80 -248 -152 -383 -58 -110 -181 -297 -233 -355 l-37 -40 20
35 c11 19 31 55 45 80 78 137 204 464 272 705 47 168 112 496 138 701 12 96
24 170 28 166 4 -4 12 -41 18 -82z m-5530 11 c151 -20 211 -67 211 -166 -1
-90 -54 -174 -144 -225 -70 -41 -83 -39 -106 15 -11 25 -39 67 -64 93 l-44 47
10 60 c5 33 7 100 4 149 l-6 90 27 -26 c22 -20 46 -28 112 -37z m39 -1280 c65
-193 170 -410 248 -510 72 -93 36 -71 -82 51 -104 107 -221 283 -269 406 -17
42 -17 44 9 101 14 32 26 70 26 85 0 54 16 22 68 -133z m-167 -211 c51 -98
183 -275 264 -355 147 -145 362 -276 533 -325 79 -23 82 -25 88 -58 4 -18 3
-37 -2 -41 -34 -29 -410 -269 -659 -421 -165 -101 -341 -210 -392 -242 -154
-97 -480 -273 -597 -322 l-38 -16 7 48 c11 72 80 340 105 406 17 46 43 81 110
152 124 131 177 240 221 452 32 155 35 311 9 477 -12 77 -24 151 -27 165 -4
23 2 29 58 55 34 16 106 52 158 81 111 61 98 65 162 -56z"/>
<path d="M5700 6932 c-18 -6 -1 -10 63 -15 48 -4 156 -18 239 -32 207 -34 174
-36 493 35 l80 18 -71 1 c-39 1 -133 -6 -208 -15 -111 -13 -155 -13 -238 -4
-138 15 -327 21 -358 12z"/>
<path d="M6574 6709 c-45 -4 -134 -19 -199 -34 -150 -34 -236 -33 -390 1 -92
20 -154 27 -270 30 l-150 3 128 -19 c71 -11 172 -31 225 -46 259 -71 281 -70
571 5 63 17 157 36 210 43 73 10 88 14 66 19 -39 9 -91 8 -191 -2z"/>
<path d="M6018 6283 c-3 -59 -12 -115 -23 -141 -17 -43 -106 -132 -130 -132
-8 0 -24 19 -37 42 -35 64 -59 75 -212 103 -173 32 -559 125 -685 166 -109 35
-154 35 -236 -2 -97 -43 -226 -121 -263 -160 -42 -43 -168 -246 -159 -255 8
-9 66 12 202 72 151 67 232 88 302 80 29 -3 130 -30 225 -60 95 -30 191 -59
213 -64 22 -6 54 -13 70 -18 22 -5 -4 -10 -101 -20 -252 -24 -424 -81 -549
-183 -110 -88 -163 -101 -261 -63 -27 11 -58 23 -69 27 -14 6 -10 -3 15 -29
78 -82 216 -117 315 -79 49 19 52 19 91 1 55 -24 151 -48 189 -48 27 1 24 4
-35 35 -36 19 -78 46 -95 60 l-30 25 25 20 c22 18 121 70 133 70 2 0 7 -22 11
-49 8 -64 51 -123 105 -145 47 -18 138 -21 193 -6 68 19 118 101 118 193 0 20
4 37 9 37 27 0 167 -143 156 -160 -2 -4 -31 -17 -64 -29 -33 -12 -62 -25 -65
-29 -3 -6 263 -9 287 -4 13 3 -20 54 -82 127 -33 38 -58 71 -56 73 7 7 124
-58 173 -97 64 -51 85 -89 76 -138 -7 -38 -86 -162 -156 -245 -21 -27 -36 -48
-31 -48 17 0 192 171 228 224 21 31 49 87 61 124 l22 67 12 -42 c10 -34 10
-61 -4 -157 -19 -131 -15 -184 30 -384 41 -184 45 -178 39 63 -2 121 0 261 5
310 27 237 29 212 -31 336 l-54 112 25 16 c53 35 78 62 107 118 41 77 57 151
51 232 -5 64 -32 151 -48 151 -4 0 -10 -44 -12 -97z m-937 -533 c29 -16 25
-58 -6 -66 -45 -11 -71 29 -39 60 18 19 20 19 45 6z"/>
<path d="M6341 6337 c-44 -177 -7 -329 109 -437 l59 -56 -50 -84 c-30 -51 -49
-97 -49 -115 0 -16 9 -84 20 -150 16 -96 20 -170 21 -375 0 -140 4 -273 8
-295 5 -22 9 -35 10 -29 0 6 12 72 26 148 53 286 56 316 39 444 -8 64 -12 127
-8 141 6 24 8 22 21 -23 17 -59 119 -163 236 -244 l77 -52 -80 95 c-129 153
-155 224 -104 285 40 46 217 161 230 148 2 -2 -28 -42 -66 -88 -93 -112 -93
-140 -3 -120 26 6 83 11 126 11 43 0 75 4 73 8 -3 4 -27 16 -53 26 -26 10 -52
21 -57 25 -19 18 110 160 146 160 4 0 8 -15 8 -32 0 -78 41 -152 101 -183 33
-18 164 -20 206 -4 60 23 112 100 113 167 0 17 5 32 11 32 18 0 126 -60 144
-80 15 -16 12 -20 -37 -52 -29 -20 -72 -45 -95 -57 -24 -12 -43 -24 -43 -26 0
-16 181 30 242 61 24 12 33 12 68 -2 53 -22 168 -15 231 13 45 20 119 78 119
93 0 5 -25 -2 -55 -16 -67 -31 -152 -42 -186 -24 -13 7 -60 39 -104 71 -141
102 -266 147 -467 169 -57 6 -125 14 -151 18 l-48 7 218 74 c304 103 345 104
570 10 136 -57 221 -89 239 -89 16 0 -59 126 -132 221 -56 73 -91 98 -229 166
-149 73 -187 77 -311 34 -119 -42 -556 -147 -754 -181 -95 -17 -123 -34 -154
-91 -15 -27 -31 -49 -35 -49 -16 0 -90 60 -116 94 -40 53 -54 102 -55 194 0
90 -12 106 -29 39z m907 -579 c32 -32 -4 -87 -47 -73 -27 8 -34 34 -16 61 17
26 44 31 63 12z"/>
<path d="M6134 5876 c-34 -15 -104 -73 -104 -87 0 -4 21 1 48 12 86 38 170 35
289 -8 39 -14 -18 35 -76 66 -63 33 -108 38 -157 17z"/>
<path d="M7860 5542 c0 -19 225 -73 300 -72 l25 1 -25 14 c-71 41 -300 84
-300 57z"/>
<path d="M4409 5510 c-53 -9 -143 -46 -160 -66 -6 -8 -8 -14 -3 -14 9 0 187
42 257 61 85 23 15 37 -94 19z"/>
<path d="M4616 5448 c42 -72 96 -110 169 -123 40 -7 40 -7 -30 41 -38 26 -83
58 -98 71 -31 25 -53 31 -41 11z"/>
<path d="M7703 5392 c-51 -37 -88 -69 -82 -71 22 -7 139 61 169 99 46 57 19
49 -87 -28z"/>
<path d="M5338 5365 c-84 -41 -174 -75 -234 -90 -54 -14 -100 -27 -102 -30 -3
-3 27 -5 67 -5 90 0 203 23 302 61 76 29 182 95 183 114 1 6 -17 11 -39 13
-32 2 -67 -11 -177 -63z"/>
<path d="M6872 5418 c7 -20 120 -84 199 -113 104 -37 351 -72 323 -46 -5 5
-38 17 -73 26 -66 17 -149 49 -286 109 -82 36 -171 49 -163 24z"/>
<path d="M5948 4703 c-30 -34 -69 -125 -75 -173 -4 -38 -1 -58 17 -94 12 -25
25 -46 28 -46 4 0 8 42 9 93 1 53 10 122 21 165 11 39 19 72 17 72 -1 0 -9 -8
-17 -17z"/>
<path d="M6726 4709 c-17 -11 -17 -12 5 -23 47 -23 100 -132 118 -244 12 -73
1 -127 -32 -160 l-25 -25 -47 23 c-84 40 -152 18 -296 -95 -112 -89 -149 -107
-219 -107 -73 0 -122 22 -225 101 -112 85 -156 106 -231 106 -46 0 -67 -5 -82
-18 -30 -27 -54 -17 -79 33 -27 51 -28 91 -8 177 19 83 51 149 91 188 36 36
34 45 -6 45 -41 0 -71 -29 -183 -179 -143 -189 -184 -252 -347 -531 -177 -302
-192 -341 -196 -515 -3 -140 -5 -142 37 60 28 135 78 238 173 355 43 52 129
172 191 266 62 95 118 175 124 178 7 5 11 -8 11 -39 0 -59 37 -133 87 -174 43
-35 96 -55 206 -76 93 -18 131 -36 217 -106 89 -72 159 -102 240 -105 l65 -3
13 -43 c15 -49 19 -191 7 -228 -7 -23 -7 -24 10 -10 50 41 70 177 44 290 l-11
45 54 49 c87 79 115 93 218 111 118 20 173 44 228 98 46 45 72 110 72 180 l0
40 31 -39 c17 -22 73 -97 124 -169 51 -71 136 -182 189 -245 102 -122 154
-203 180 -285 20 -65 46 -216 46 -271 0 -26 5 -44 11 -44 8 0 10 38 7 133 -8
217 -23 250 -360 760 -109 167 -317 436 -366 473 -36 28 -63 35 -86 23z"/>
<path d="M6493 4685 c28 -94 33 -255 12 -325 -8 -25 -8 -25 13 -6 12 10 31 39
43 63 27 56 22 117 -17 203 -27 60 -63 106 -51 65z"/>
<path d="M5845 3444 c-49 -14 -139 -40 -200 -59 -60 -18 -163 -47 -227 -64
-65 -17 -130 -37 -145 -45 -66 -34 -113 -118 -94 -168 6 -17 9 -14 19 20 15
49 69 99 118 108 26 5 67 -2 148 -24 141 -40 243 -57 486 -82 229 -24 343 -25
540 -5 207 20 335 41 497 80 78 19 163 35 188 35 68 0 119 -32 151 -94 l26
-51 -5 53 c-3 43 -10 60 -38 88 -19 20 -42 40 -53 46 -10 5 -113 34 -230 63
-116 30 -263 68 -326 85 -63 17 -140 33 -170 36 -51 6 -62 2 -149 -40 -52 -25
-109 -46 -126 -46 -17 0 -73 20 -124 45 -110 54 -149 56 -286 19z m865 -145
c151 -26 156 -27 139 -45 -8 -7 -33 -16 -56 -20 -34 -5 -44 -3 -49 10 -5 14
-9 13 -29 -8 -27 -29 -129 -45 -165 -26 -17 9 -24 9 -29 1 -12 -19 -72 -31
-158 -31 -70 0 -86 3 -103 20 l-20 20 -21 -21 c-19 -19 -30 -20 -129 -17 -87
2 -112 7 -128 21 -13 12 -22 15 -27 8 -15 -25 -142 -10 -174 20 -12 11 -22 15
-26 9 -3 -6 -19 -10 -35 -10 -37 0 -83 17 -76 29 6 8 14 10 166 36 110 19 268
19 367 0 69 -13 88 -13 163 0 171 29 240 30 390 4z"/>
<path d="M6780 2922 l-155 -54 -192 6 c-113 4 -250 2 -332 -5 -165 -13 -245
-1 -400 60 -53 21 -98 36 -101 34 -11 -10 170 -172 228 -204 34 -19 62 -37 62
-41 0 -4 -10 -13 -22 -19 -45 -24 -102 -74 -154 -138 -30 -35 -52 -66 -50 -68
1 -2 41 15 87 36 163 77 359 108 614 98 195 -7 345 -44 462 -113 24 -14 43
-22 43 -19 0 3 -9 22 -19 43 -33 64 -88 118 -156 153 -36 19 -65 36 -65 39 0
3 30 18 66 34 48 22 90 53 157 117 51 48 90 89 87 91 -3 3 -75 -20 -160 -50z"/>
<path d="M7116 2600 c-20 -23 -34 -45 -31 -51 9 -13 16 -7 53 45 41 57 27 60
-22 6z"/>
<path d="M9362 4670 c0 -14 2 -19 5 -12 2 6 2 18 0 25 -3 6 -5 1 -5 -13z"/>
<path d="M1168 4141 c-76 -25 -114 -50 -182 -120 -75 -79 -116 -166 -123 -264
-7 -89 10 -153 71 -272 52 -101 78 -193 111 -392 l25 -148 -5 150 c-5 166 -19
247 -64 389 -61 191 -63 299 -7 422 52 114 124 174 265 225 l76 28 -55 0 c-30
0 -80 -8 -112 -18z"/>
<path d="M1210 4019 c-32 -13 -68 -47 -86 -81 -22 -42 -17 -45 19 -11 44 42
109 73 167 80 27 3 47 10 44 14 -7 12 -113 10 -144 -2z"/>
<path d="M1556 3776 c-53 -20 -110 -78 -137 -140 -26 -58 -37 -195 -21 -261
11 -46 13 -41 37 70 25 115 59 187 115 239 49 46 121 76 184 76 26 1 28 2 13
11 -30 18 -148 21 -191 5z"/>
<path d="M1989 3320 c-45 -47 -61 -98 -57 -178 l3 -57 23 69 c13 38 38 96 55
130 18 34 33 64 35 69 10 22 -26 2 -59 -33z"/>
<path d="M1484 3195 c29 -77 48 -185 54 -300 l6 -130 13 65 c30 156 8 305 -54
361 -23 21 -25 22 -19 4z"/>
<path d="M2035 3044 c20 -48 41 -63 88 -64 42 0 83 17 110 48 18 20 18 20 -20
7 -21 -8 -51 -14 -66 -15 -34 0 -97 28 -104 47 -3 7 -9 13 -14 13 -5 0 -2 -16
6 -36z"/>
<path d="M2690 2861 c0 -13 114 -87 155 -101 91 -30 33 20 -103 88 -48 25 -52
26 -52 13z"/>
<path d="M1165 2290 c4 -58 18 -215 31 -350 13 -135 28 -292 31 -350 8 -123
20 -97 22 47 2 135 -65 732 -84 751 -3 4 -3 -41 0 -98z"/>
<path d="M1510 1737 c0 -215 -42 -423 -115 -574 -24 -51 -40 -93 -35 -93 17 0
79 86 109 151 57 121 66 174 64 387 0 127 -5 198 -12 205 -8 8 -11 -12 -11
-76z"/>
<path d="M8565 954 c84 -189 231 -342 423 -438 65 -33 220 -96 235 -96 17 0
-115 130 -233 230 -138 116 -439 360 -445 360 -3 0 6 -25 20 -56z"/>
<path d="M1534 844 c-70 -33 -136 -106 -164 -180 -20 -52 -23 -86 -31 -304 -4
-135 -11 -256 -14 -270 -5 -18 -4 -21 3 -10 15 23 30 99 62 310 44 283 77 366
177 444 54 42 40 46 -33 10z"/>
<path d="M4145 654 c-186 -159 -445 -400 -445 -415 0 -25 267 109 364 182 108
81 185 187 249 342 9 20 13 37 9 36 -4 0 -83 -66 -177 -145z"/>
</g>
</svg>
